<?xml version="1.0" encoding="utf-8"?>
<!-- Generator: Adobe Illustrator 25.2.1, SVG Export Plug-In . SVG Version: 6.00 Build 0)  -->
<svg version="1.1" xmlns="http://www.w3.org/2000/svg" xmlns:xlink="http://www.w3.org/1999/xlink" x="0px" y="0px" width="494.5px"
	 height="399.1px" viewBox="0 0 494.5 399.1" style="enable-background:new 0 0 494.5 399.1;" xml:space="preserve">
<g id="Layer_1">
	<rect x="7.8" y="204" style="fill:#7998B4;" width="230.1" height="193.7"/>
	<g>
		<path style="fill:#FFEBC3;" d="M237.9,398.5v-10.7c-9.2-2.1-13.2-4.4-19.6-7.2c-17.5-7.7-41.5-33.9-41.5-33.9
			c-20.6-9.1-12.5-20.4-21.6,0.3c-9.1,20.8-17.4,38.6-10,51.5H237.9z"/>
		<path style="fill:#A6AD00;" d="M178.8,397.8h59.1v-10c-9.2-2.1-13.2-4.4-19.6-7.2c-17.5-7.7-41.5-33.9-41.5-33.9
			c-20.6-9.1-12.5-20.4-21.6,0.3c-6.5,14.7-12.5,27.9-12.9,39c9-0.9,17-3.6,23.5-7.8C168.7,385,173,391.6,178.8,397.8z"/>
		<path style="stroke:#000000;" d="M159.5,345.7l7.8-70c0.8-7.3-3.9-13.4-10.6-14.2l-10.4-1.2c-6.7-0.7-13.6,4.1-15.7,11.2
			l-19.8,68.7c-4,13.6,0.9,26.6,11.2,27.8l15.9,1.8C148.2,371,158,359.6,159.5,345.7z"/>
		<path style="fill:#A6AD00;" d="M203.2,266.7l-40.3-4.5c-16.1-1.8-30.7,9.8-32.5,25.9l0,0l-0.5,4.6c-0.2,1.8-0.3,3.6-0.4,5.4
			l-14.7-1.6c-9.2-1-17.4,5.5-18.5,14.8l0,0l-1,9.2c-1,9.2,5.6,17.5,14.8,18.5l37.7,4.2c9.7,9.5,22.4,15.5,36,17l8.8,1
			c11.1,1.2,21.1-6.7,22.3-17.8l6.1-54.4C222.2,277.9,214.2,268,203.2,266.7z"/>
		<path style="fill:none;stroke:#000000;" d="M108.2,332.4c3,1.4,8.4,3.6,13.5,4.5c0.6,0.1,1.2,0.2,1.8,0.3
			c11.2,1.3,18.3-1.3,21.3-2.7c1.1-0.5,1.7-0.9,1.7-0.9"/>
		
			<ellipse transform="matrix(0.5279 -0.8493 0.8493 0.5279 -170.4881 260.4529)" style="fill:#FFFFFF;" cx="149" cy="283.6" rx="12.9" ry="12.9"/>
		
			<ellipse transform="matrix(0.5279 -0.8493 0.8493 0.5279 -169.9788 288.1458)" style="fill:#FFFFFF;" cx="174.2" cy="297" rx="12.9" ry="12.9"/>
		<path id="Nose-2_8_" style="stroke:#000000;" d="M148.2,299.9l-25.1-2.8"/>
		<path id="nose_14_" style="stroke:#000000;" d="M96.3,311.2l-0.7,6.1c6.2,11.8,20.8,16.2,32.5,10c7-3.8,11.8-10.7,12.7-18.6
			c0.4-3.1,0.1-6.3-0.8-9.4l-25.2-2.8c-9.1-1.1-17.3,5.4-18.5,14.5C96.3,311.1,96.3,311.2,96.3,311.2z"/>
		<path style="fill:#FF848F;" d="M145.3,337.7v13.5c0,6.5-5.3,11.7-11.7,11.7c-6.5,0-11.8-5.3-11.8-11.7v-13.7
			c0.6,0.1,1.2,0.2,1.8,0.3c11.2,1.3,18.3-1.3,21.3-2.7C145.2,335.8,145.3,336.7,145.3,337.7z"/>
		<path style="stroke:#000000;" d="M184.3,348.5l7.8-70c0.8-7.3,6.8-12.2,13.5-11.5l10.4,1.2c6.7,0.7,12.4,7,12.9,14.4l4.1,71.3
			c0.9,14.2-6.8,25.7-17.1,24.6l-15.9-1.8C189.7,375.6,182.7,362.4,184.3,348.5z"/>
	</g>
	<g>
		<path style="fill:#A6AD00;" d="M85.7,307.2c-1-1.5-4.3-7.8-11.8-13.9s-10.4-6-10.4-6l-48-13.2l-8.1-7.2l0.4,37.2v11l6.7,5.4
			L25,331.7c0,0,1.3,7.6,2.2,12.8s5.8,7,5.8,7l6.2-0.3l0.9-6.8l-1-9.4l2.5,2.6c0,0,0.8,7.9,2.2,12.8s5.8,7,5.8,7l7.3-1.8l-0.2-5.2
			L56,334.1l0,0c0,0,2.9,10.2,4.8,15.1c1.9,4.8,5.2,6.4,5.2,6.4l6.3-2.6l0.9-3l6.2-0.3l3.5-7.6l-1.9-18.1l-8.8-15.4l3.8,6.3l7.8,1.9
			C83.9,317,90.7,314.4,85.7,307.2z"/>
		<polyline style="fill:none;stroke:#000000;" points="58.5,308.8 68.3,322.8 72.3,339.7 73.4,348.5 		"/>
		<polyline style="fill:none;stroke:#000000;" points="43.7,312.3 54.9,325.3 56,334.1 		"/>
		<polyline style="fill:none;stroke:#000000;" points="29.4,314 38.2,329.1 39.2,335 		"/>
		<polyline style="fill:none;stroke:#000000;" points="53.8,293 67.6,298.7 71.4,305.9 76.1,315.1 		"/>
	</g>
	<path style="stroke:#000000;" d="M161.9,293c0,0,6.9,13.7,25.2,5.4"/>
	<path style="stroke:#000000;" d="M135.9,280c0,0,6.9,13.7,25.2,5.4"/>
</g>
<g id="Layer_3">
	<rect x="8.6" y="0.6" style="fill:#A6DDC4;" width="230.1" height="194.4"/>
	<rect x="255.3" y="204" style="fill:#FF848F;" width="230.1" height="194.4"/>
	<rect x="255.3" y="0.6" style="fill:#D6D6D6;" width="230.1" height="194.4"/>
	<path style="fill:#FFEBC3;" d="M255.3,27.7c0.1,0.2,0.3,0.2,0.3,0.2l-0.3,0.8v166.5h37c3.1-6.2,2.7-14.2-2.4-20.2l-20.2-24.2
		c-3.8-4.3-5-10.3-3.8-15.9c0,0,21.9-124.3,5.3-117c-12.5,5.5-15.5,8.1-16,9.2V27.7z"/>
	<path style="stroke:#000000;" d="M379.8,117.5l-30-116.8h-94.6v163.9c10.6,14.9,26.3,24.3,43.2,23.3l45.1-2.7
		C372.8,183.5,388.7,151.8,379.8,117.5z"/>
	<path style="fill:#A6AD00;" d="M255.3,137.9c2.4,0,4.7-0.3,6.7-0.8l97.4,44.9c23.6,10.9,51.8,0.5,62.7-23.1l11-23.8l0,0
		c11-23.8,0.5-51.8-23.1-62.7L372,54.9c2.5-4.4,4.8-8.8,7-13.6l5.4-11.8l0,0c3.7-8.1,7.9-28.7,7.9-28.7L255.3,0.4"/>
	<path id="Nose-3_10_" style="fill:none;stroke:#000000;" d="M305.6,128.1c0,0,10.7,24.3,50.3,42.5c14.5,6.7,33.8,9.5,44.3,10.9"/>
	<path style="fill:#FFFFFF;" d="M414.7,0.8h-68.9c-5.1,14.6-0.5,31.5,12.6,41.3c16.1,12.1,39,8.8,51.1-7.3
		c7.6-10.1,9.1-22.8,5.3-33.9C414.7,0.8,414.7,0.8,414.7,0.8z"/>
	<path id="nose_13_" style="stroke:#000000;" d="M425.1,152.4c-12,19.6-52.5,11.4-66-17.2c-8-17.1-7.5-38.9,1.4-58.3
		c3.6-7.7,8.4-14.8,14.1-20.8l50.7,23.4c18.3,8.2,30.7,23.8,13.6,51.6C431.9,142.6,437.1,132.8,425.1,152.4z"/>
	<path style="fill:#FFFFFF;" d="M261.9,1.1c1.7,8.6,6.4,16.6,13.9,22.2c16.1,12.1,39,8.8,51.1-7.3c3.4-4.6,5.6-9.7,6.6-14.9H261.9z"
		/>
	<path style="stroke:#000000;" d="M412.9,21c0,0-32.5,34.5-65.9-10.7L412.9,21z"/>
	<path style="stroke:#000000;" d="M267.2,0.6c34.7,35,66.9,4.1,66.9,4.1l-28.3-4.1H267.2z"/>
	<rect x="255.3" y="0.6" style="fill:none;stroke:#000000;stroke-miterlimit:10;" width="230.1" height="194.4"/>
	<rect x="255.3" y="204" style="fill:none;stroke:#000000;stroke-miterlimit:10;" width="230.1" height="194.4"/>
	<g>
		<path d="M71.6,34.3V24.2h2.1v3.8h3.9v-3.8h2.1v10.1h-2.1v-4.5h-3.9v4.5H71.6z"/>
		<path d="M86.4,27c0.5,0.2,0.9,0.6,1.3,1.1c0.3,0.4,0.5,1,0.6,1.5c0.1,0.3,0.1,0.8,0.1,1.5h-5.4c0,0.7,0.3,1.3,0.8,1.6
			c0.3,0.2,0.7,0.3,1.1,0.3c0.4,0,0.8-0.1,1.1-0.3c0.2-0.1,0.3-0.3,0.4-0.5h2c-0.1,0.4-0.3,0.9-0.7,1.3c-0.7,0.7-1.6,1.1-2.8,1.1
			c-1,0-1.9-0.3-2.6-0.9C81.3,33,81,32,81,30.7c0-1.3,0.3-2.3,1-3c0.7-0.7,1.6-1,2.7-1C85.3,26.7,85.9,26.8,86.4,27z M83.5,28.7
			C83.2,29,83,29.4,83,29.8h3.4c0-0.5-0.2-0.9-0.5-1.2c-0.3-0.3-0.7-0.4-1.2-0.4C84.2,28.3,83.8,28.4,83.5,28.7z"/>
		<path d="M95.2,34.3h-1.9V24.2h1.9V34.3z"/>
		<path d="M99.1,26h-2v-1.8h2V26z M97.1,26.9h2v7.5h-2V26.9z"/>
		<path d="M101,24.3h1.9v5.4l2.5-2.8h2.4l-2.7,2.8l2.8,4.6h-2.4l-1.8-3.2l-0.8,0.8v2.3H101V24.3z"/>
		<path d="M113.7,27c0.5,0.2,0.9,0.6,1.3,1.1c0.3,0.4,0.5,1,0.6,1.5c0.1,0.3,0.1,0.8,0.1,1.5h-5.4c0,0.7,0.3,1.3,0.8,1.6
			c0.3,0.2,0.7,0.3,1.1,0.3c0.4,0,0.8-0.1,1.1-0.3c0.2-0.1,0.3-0.3,0.4-0.5h2c-0.1,0.4-0.3,0.9-0.7,1.3c-0.7,0.7-1.6,1.1-2.8,1.1
			c-1,0-1.9-0.3-2.6-0.9s-1.1-1.6-1.1-3c0-1.3,0.3-2.3,1-3c0.7-0.7,1.6-1,2.7-1C112.5,26.7,113.1,26.8,113.7,27z M110.7,28.7
			c-0.3,0.3-0.4,0.7-0.5,1.2h3.4c0-0.5-0.2-0.9-0.5-1.2c-0.3-0.3-0.7-0.4-1.2-0.4C111.4,28.3,111,28.4,110.7,28.7z"/>
		<path d="M118.1,31.9c0,0.3,0.1,0.6,0.3,0.7c0.2,0.3,0.7,0.4,1.3,0.4c0.4,0,0.7-0.1,0.9-0.2s0.3-0.3,0.3-0.5c0-0.2-0.1-0.4-0.3-0.5
			s-0.9-0.3-2-0.6c-0.8-0.2-1.4-0.5-1.8-0.8c-0.3-0.3-0.5-0.8-0.5-1.3c0-0.7,0.3-1.3,0.8-1.8c0.5-0.5,1.3-0.7,2.3-0.7
			c0.9,0,1.7,0.2,2.3,0.6c0.6,0.4,0.9,1,1,1.9h-1.9c0-0.3-0.1-0.4-0.2-0.6c-0.2-0.3-0.6-0.4-1.1-0.4c-0.4,0-0.7,0.1-0.9,0.2
			c-0.2,0.1-0.3,0.3-0.3,0.5c0,0.2,0.1,0.4,0.3,0.5c0.2,0.1,0.9,0.3,2,0.5c0.8,0.2,1.4,0.5,1.7,0.8c0.4,0.4,0.6,0.8,0.6,1.4
			c0,0.7-0.3,1.3-0.8,1.8c-0.6,0.5-1.4,0.7-2.6,0.7c-1.2,0-2-0.2-2.6-0.7c-0.6-0.5-0.8-1.1-0.8-1.9H118.1z"/>
		<path d="M127.5,28.3v-1.4h1v-2.1h1.9v2.1h1.2v1.4h-1.2v3.9c0,0.3,0,0.5,0.1,0.6c0.1,0.1,0.3,0.1,0.7,0.1c0.1,0,0.1,0,0.2,0
			c0.1,0,0.1,0,0.2,0v1.5l-0.9,0c-0.9,0-1.5-0.1-1.9-0.5c-0.2-0.2-0.3-0.6-0.3-1v-4.6H127.5z"/>
		<path d="M139.1,33.4c-0.6,0.8-1.6,1.2-2.9,1.2c-1.3,0-2.2-0.4-2.9-1.2s-0.9-1.7-0.9-2.8c0-1.1,0.3-2,0.9-2.8s1.6-1.2,2.9-1.2
			c1.3,0,2.2,0.4,2.9,1.2s0.9,1.7,0.9,2.8C140.1,31.7,139.8,32.6,139.1,33.4z M137.6,32.3c0.3-0.4,0.5-1,0.5-1.7
			c0-0.7-0.2-1.3-0.5-1.7c-0.3-0.4-0.7-0.6-1.3-0.6c-0.6,0-1,0.2-1.3,0.6c-0.3,0.4-0.5,1-0.5,1.7c0,0.7,0.2,1.3,0.5,1.7
			c0.3,0.4,0.7,0.6,1.3,0.6C136.8,32.9,137.3,32.7,137.6,32.3z"/>
		<path d="M146.9,31.9c0,0.3,0.1,0.6,0.3,0.7c0.2,0.3,0.7,0.4,1.3,0.4c0.4,0,0.7-0.1,0.9-0.2s0.3-0.3,0.3-0.5c0-0.2-0.1-0.4-0.3-0.5
			s-0.9-0.3-2-0.6c-0.8-0.2-1.4-0.5-1.8-0.8c-0.3-0.3-0.5-0.8-0.5-1.3c0-0.7,0.3-1.3,0.8-1.8c0.5-0.5,1.3-0.7,2.3-0.7
			c0.9,0,1.7,0.2,2.3,0.6c0.6,0.4,0.9,1,1,1.9h-1.9c0-0.3-0.1-0.4-0.2-0.6c-0.2-0.3-0.6-0.4-1.1-0.4c-0.4,0-0.7,0.1-0.9,0.2
			c-0.2,0.1-0.3,0.3-0.3,0.5c0,0.2,0.1,0.4,0.3,0.5c0.2,0.1,0.9,0.3,2,0.5c0.8,0.2,1.4,0.5,1.7,0.8c0.4,0.4,0.6,0.8,0.6,1.4
			c0,0.7-0.3,1.3-0.8,1.8c-0.6,0.5-1.4,0.7-2.6,0.7c-1.2,0-2-0.2-2.6-0.7c-0.6-0.5-0.8-1.1-0.8-1.9H146.9z"/>
		<path d="M159.2,27.3c0.5,0.4,0.7,1.1,0.7,2v5h-2v-4.5c0-0.4-0.1-0.7-0.2-0.9c-0.2-0.4-0.6-0.6-1.1-0.6c-0.7,0-1.1,0.3-1.4,0.8
			c-0.1,0.3-0.2,0.7-0.2,1.1v4h-1.9v-7.4h1.9V28c0.2-0.4,0.5-0.7,0.7-0.8c0.4-0.3,0.9-0.5,1.5-0.5C158,26.7,158.7,26.9,159.2,27.3z"
			/>
		<path d="M163.7,26h-2v-1.8h2V26z M161.7,26.9h2v7.5h-2V26.9z"/>
		<path d="M168.7,24.1c0.1,0,0.2,0,0.4,0v1.6c-0.1,0-0.3,0-0.5,0c-0.3,0-0.4,0-0.5,0.2c-0.1,0.1-0.1,0.3-0.1,0.4s0,0.4,0,0.6h1.3
			v1.4h-1.3v6h-1.9v-6h-1.1v-1.4h1.1v-0.5c0-0.8,0.1-1.3,0.4-1.6c0.3-0.4,1-0.7,2-0.7C168.5,24.1,168.6,24.1,168.7,24.1z"/>
		<path d="M173.3,24.1c0.1,0,0.2,0,0.4,0v1.6c-0.1,0-0.3,0-0.5,0c-0.3,0-0.4,0-0.5,0.2c-0.1,0.1-0.1,0.3-0.1,0.4s0,0.4,0,0.6h1.3
			v1.4h-1.3v6h-1.9v-6h-1.1v-1.4h1.1v-0.5c0-0.8,0.1-1.3,0.4-1.6c0.3-0.4,1-0.7,2-0.7C173.1,24.1,173.2,24.1,173.3,24.1z"/>
		<path d="M174.9,32.3h2.1v2h-2.1V32.3z"/>
	</g>
	<rect x="9.2" y="0.6" style="fill:none;stroke:#000000;stroke-miterlimit:10;" width="230.1" height="194.4"/>
	<rect x="7.8" y="204" style="fill:none;stroke:#000000;stroke-miterlimit:10;" width="230.1" height="194.4"/>
	<g>
		<path d="M410.7,44.3h2.4l3.6,10.1h-2.3l-0.7-2.1H410l-0.7,2.1h-2.2L410.7,44.3z M410.6,50.6h2.6l-1.3-4L410.6,50.6z"/>
		<path d="M423.8,47.4c0.5,0.4,0.7,1.1,0.7,2v5h-2v-4.5c0-0.4-0.1-0.7-0.2-0.9c-0.2-0.4-0.6-0.6-1.1-0.6c-0.7,0-1.1,0.3-1.4,0.8
			c-0.1,0.3-0.2,0.7-0.2,1.1v4h-1.9V47h1.9v1.1c0.2-0.4,0.5-0.7,0.7-0.8c0.4-0.3,0.9-0.5,1.5-0.5C422.7,46.8,423.3,47,423.8,47.4z"
			/>
		<path d="M430.3,47.1c0.4,0.2,0.6,0.5,0.9,0.8v-3.6h2v10.1h-1.9v-1c-0.3,0.4-0.6,0.8-1,1s-0.8,0.3-1.3,0.3c-0.9,0-1.6-0.4-2.2-1.1
			c-0.6-0.7-0.9-1.6-0.9-2.7c0-1.3,0.3-2.3,0.9-3c0.6-0.7,1.4-1.1,2.3-1.1C429.5,46.8,429.9,46.9,430.3,47.1z M430.8,52.4
			c0.3-0.4,0.4-0.9,0.4-1.6c0-0.9-0.2-1.6-0.7-2c-0.3-0.2-0.6-0.4-1-0.4c-0.6,0-1,0.2-1.3,0.6c-0.3,0.4-0.4,1-0.4,1.6
			c0,0.7,0.1,1.2,0.4,1.7c0.3,0.4,0.7,0.6,1.2,0.6S430.5,52.8,430.8,52.4z"/>
		<path d="M440.3,52c0,0.3,0.1,0.6,0.3,0.7c0.2,0.3,0.7,0.4,1.3,0.4c0.4,0,0.7-0.1,0.9-0.2s0.3-0.3,0.3-0.5c0-0.2-0.1-0.4-0.3-0.5
			c-0.2-0.1-0.9-0.3-2-0.6c-0.8-0.2-1.4-0.5-1.8-0.8c-0.3-0.3-0.5-0.8-0.5-1.3c0-0.7,0.3-1.3,0.8-1.8c0.5-0.5,1.3-0.7,2.3-0.7
			c0.9,0,1.7,0.2,2.3,0.6c0.6,0.4,0.9,1,1,1.9H443c0-0.3-0.1-0.4-0.2-0.6c-0.2-0.3-0.6-0.4-1.1-0.4c-0.4,0-0.7,0.1-0.9,0.2
			c-0.2,0.1-0.3,0.3-0.3,0.5c0,0.2,0.1,0.4,0.3,0.5c0.2,0.1,0.9,0.3,2,0.5c0.8,0.2,1.4,0.5,1.7,0.8c0.4,0.4,0.6,0.8,0.6,1.4
			c0,0.7-0.3,1.3-0.8,1.8c-0.6,0.5-1.4,0.7-2.6,0.7c-1.2,0-2-0.2-2.6-0.7c-0.6-0.5-0.8-1.1-0.8-1.9H440.3z"/>
		<path d="M452.6,47.4c0.5,0.4,0.7,1.1,0.7,2v5h-2v-4.5c0-0.4-0.1-0.7-0.2-0.9c-0.2-0.4-0.6-0.6-1.1-0.6c-0.7,0-1.1,0.3-1.4,0.8
			c-0.1,0.3-0.2,0.7-0.2,1.1v4h-1.9V47h1.9v1.1c0.2-0.4,0.5-0.7,0.7-0.8c0.4-0.3,0.9-0.5,1.5-0.5C451.4,46.8,452.1,47,452.6,47.4z"
			/>
		<path d="M457.1,46.1h-2v-1.8h2V46.1z M455.1,47h2v7.5h-2V47z"/>
		<path d="M462.1,44.2c0.1,0,0.2,0,0.4,0v1.6c-0.1,0-0.3,0-0.6,0c-0.3,0-0.4,0-0.5,0.2c-0.1,0.1-0.1,0.3-0.1,0.4s0,0.4,0,0.6h1.3
			v1.4h-1.3v6h-1.9v-6h-1.1V47h1.1v-0.5c0-0.8,0.1-1.3,0.4-1.6c0.3-0.4,1-0.7,2-0.7C461.9,44.2,462,44.2,462.1,44.2z"/>
		<path d="M466.7,44.2c0.1,0,0.2,0,0.4,0v1.6c-0.1,0-0.3,0-0.6,0c-0.3,0-0.4,0-0.5,0.2c-0.1,0.1-0.1,0.3-0.1,0.4s0,0.4,0,0.6h1.3
			v1.4h-1.3v6H464v-6h-1.1V47h1.1v-0.5c0-0.8,0.1-1.3,0.4-1.6c0.3-0.4,1-0.7,2-0.7C466.5,44.2,466.6,44.2,466.7,44.2z"/>
		<path d="M468.3,52.4h2.1v2h-2.1V52.4z"/>
	</g>
	<g>
		<path d="M277.3,228.8c0.1,0.5,0.2,0.8,0.4,1c0.3,0.4,0.9,0.6,1.8,0.6c0.5,0,0.9-0.1,1.2-0.2c0.6-0.2,0.9-0.6,0.9-1.2
			c0-0.3-0.1-0.6-0.4-0.8c-0.3-0.2-0.8-0.3-1.4-0.5l-1.1-0.2c-1.1-0.2-1.8-0.5-2.2-0.8c-0.7-0.5-1-1.2-1-2.2c0-0.9,0.3-1.7,1-2.2
			s1.6-0.9,2.9-0.9c1.1,0,2,0.3,2.8,0.8c0.8,0.6,1.2,1.4,1.2,2.5h-2c0-0.6-0.3-1-0.8-1.3c-0.3-0.2-0.8-0.3-1.3-0.3
			c-0.6,0-1,0.1-1.3,0.3s-0.5,0.5-0.5,0.9c0,0.4,0.2,0.6,0.5,0.8c0.2,0.1,0.7,0.3,1.3,0.4l1.8,0.4c0.8,0.2,1.4,0.4,1.7,0.7
			c0.6,0.5,0.9,1.2,0.9,2.1c0,0.9-0.4,1.7-1.1,2.3c-0.7,0.6-1.7,0.9-3,0.9c-1.3,0-2.4-0.3-3.1-0.9c-0.8-0.6-1.1-1.4-1.1-2.5H277.3z"
			/>
		<path d="M290.9,224.9c0.5,0.4,0.7,1.1,0.7,2v5h-2v-4.5c0-0.4-0.1-0.7-0.2-0.9c-0.2-0.4-0.6-0.6-1.1-0.6c-0.7,0-1.1,0.3-1.4,0.8
			c-0.1,0.3-0.2,0.7-0.2,1.1v4H285v-7.4h1.9v1.1c0.2-0.4,0.5-0.7,0.7-0.8c0.4-0.3,0.9-0.5,1.5-0.5
			C289.8,224.3,290.5,224.5,290.9,224.9z"/>
		<path d="M295.5,223.6h-2v-1.8h2V223.6z M293.5,224.5h2v7.5h-2V224.5z"/>
		<path d="M300.5,221.7c0.1,0,0.2,0,0.4,0v1.6c-0.1,0-0.3,0-0.6,0c-0.3,0-0.4,0-0.5,0.2c-0.1,0.1-0.1,0.3-0.1,0.4s0,0.4,0,0.6h1.3
			v1.4h-1.3v6h-1.9v-6h-1.1v-1.4h1.1v-0.5c0-0.8,0.1-1.3,0.4-1.6c0.3-0.4,1-0.7,2-0.7C300.2,221.7,300.4,221.7,300.5,221.7z"/>
		<path d="M305.1,221.7c0.1,0,0.2,0,0.4,0v1.6c-0.1,0-0.3,0-0.6,0c-0.3,0-0.4,0-0.5,0.2c-0.1,0.1-0.1,0.3-0.1,0.4s0,0.4,0,0.6h1.3
			v1.4h-1.3v6h-1.9v-6h-1.1v-1.4h1.1v-0.5c0-0.8,0.1-1.3,0.4-1.6c0.3-0.4,1-0.7,2-0.7C304.9,221.7,305,221.7,305.1,221.7z"/>
		<path d="M306.7,229.9h2.1v2h-2.1V229.9z"/>
		<path d="M316.2,228.8c0.1,0.5,0.2,0.8,0.4,1c0.3,0.4,0.9,0.6,1.8,0.6c0.5,0,0.9-0.1,1.2-0.2c0.6-0.2,0.9-0.6,0.9-1.2
			c0-0.3-0.1-0.6-0.4-0.8c-0.3-0.2-0.8-0.3-1.4-0.5l-1.1-0.2c-1.1-0.2-1.8-0.5-2.2-0.8c-0.7-0.5-1-1.2-1-2.2c0-0.9,0.3-1.7,1-2.2
			s1.6-0.9,2.9-0.9c1.1,0,2,0.3,2.8,0.8c0.8,0.6,1.2,1.4,1.2,2.5h-2c0-0.6-0.3-1-0.8-1.3c-0.3-0.2-0.8-0.3-1.3-0.3
			c-0.6,0-1,0.1-1.3,0.3s-0.5,0.5-0.5,0.9c0,0.4,0.2,0.6,0.5,0.8c0.2,0.1,0.7,0.3,1.3,0.4l1.8,0.4c0.8,0.2,1.4,0.4,1.7,0.7
			c0.6,0.5,0.9,1.2,0.9,2.1c0,0.9-0.4,1.7-1.1,2.3c-0.7,0.6-1.7,0.9-3,0.9c-1.3,0-2.4-0.3-3.1-0.9c-0.8-0.6-1.1-1.4-1.1-2.5H316.2z"
			/>
		<path d="M329.8,224.9c0.5,0.4,0.7,1.1,0.7,2v5h-2v-4.5c0-0.4-0.1-0.7-0.2-0.9c-0.2-0.4-0.6-0.6-1.1-0.6c-0.7,0-1.1,0.3-1.4,0.8
			c-0.1,0.3-0.2,0.7-0.2,1.1v4h-1.9v-7.4h1.9v1.1c0.2-0.4,0.5-0.7,0.7-0.8c0.4-0.3,0.9-0.5,1.5-0.5
			C328.7,224.3,329.3,224.5,329.8,224.9z"/>
		<path d="M334.4,223.6h-2v-1.8h2V223.6z M332.4,224.5h2v7.5h-2V224.5z"/>
		<path d="M339.3,221.7c0.1,0,0.2,0,0.4,0v1.6c-0.1,0-0.3,0-0.6,0c-0.3,0-0.4,0-0.5,0.2c-0.1,0.1-0.1,0.3-0.1,0.4s0,0.4,0,0.6h1.3
			v1.4h-1.3v6h-1.9v-6h-1.1v-1.4h1.1v-0.5c0-0.8,0.1-1.3,0.4-1.6c0.3-0.4,1-0.7,2-0.7C339.1,221.7,339.2,221.7,339.3,221.7z"/>
		<path d="M344,221.7c0.1,0,0.2,0,0.4,0v1.6c-0.1,0-0.3,0-0.6,0c-0.3,0-0.4,0-0.5,0.2c-0.1,0.1-0.1,0.3-0.1,0.4s0,0.4,0,0.6h1.3v1.4
			h-1.3v6h-1.9v-6h-1.1v-1.4h1.1v-0.5c0-0.8,0.1-1.3,0.4-1.6c0.3-0.4,1-0.7,2-0.7C343.8,221.7,343.9,221.7,344,221.7z"/>
		<path d="M345.6,229.9h2.1v2h-2.1V229.9z"/>
		<path d="M355,228.8c0.1,0.5,0.2,0.8,0.4,1c0.3,0.4,0.9,0.6,1.8,0.6c0.5,0,0.9-0.1,1.2-0.2c0.6-0.2,0.9-0.6,0.9-1.2
			c0-0.3-0.1-0.6-0.4-0.8c-0.3-0.2-0.8-0.3-1.4-0.5l-1.1-0.2c-1.1-0.2-1.8-0.5-2.2-0.8c-0.7-0.5-1-1.2-1-2.2c0-0.9,0.3-1.7,1-2.2
			s1.6-0.9,2.9-0.9c1.1,0,2,0.3,2.8,0.8c0.8,0.6,1.2,1.4,1.2,2.5h-2c0-0.6-0.3-1-0.8-1.3c-0.3-0.2-0.8-0.3-1.3-0.3
			c-0.6,0-1,0.1-1.3,0.3s-0.5,0.5-0.5,0.9c0,0.4,0.2,0.6,0.5,0.8c0.2,0.1,0.7,0.3,1.3,0.4l1.8,0.4c0.8,0.2,1.4,0.4,1.7,0.7
			c0.6,0.5,0.9,1.2,0.9,2.1c0,0.9-0.4,1.7-1.1,2.3c-0.7,0.6-1.7,0.9-3,0.9c-1.3,0-2.4-0.3-3.1-0.9c-0.8-0.6-1.1-1.4-1.1-2.5H355z"/>
		<path d="M368.7,224.9c0.5,0.4,0.7,1.1,0.7,2v5h-2v-4.5c0-0.4-0.1-0.7-0.2-0.9c-0.2-0.4-0.6-0.6-1.1-0.6c-0.7,0-1.1,0.3-1.4,0.8
			c-0.1,0.3-0.2,0.7-0.2,1.1v4h-1.9v-7.4h1.9v1.1c0.2-0.4,0.5-0.7,0.7-0.8c0.4-0.3,0.9-0.5,1.5-0.5
			C367.6,224.3,368.2,224.5,368.7,224.9z"/>
		<path d="M373.3,223.6h-2v-1.8h2V223.6z M371.3,224.5h2v7.5h-2V224.5z"/>
		<path d="M378.2,221.7c0.1,0,0.2,0,0.4,0v1.6c-0.1,0-0.3,0-0.6,0c-0.3,0-0.4,0-0.5,0.2c-0.1,0.1-0.1,0.3-0.1,0.4s0,0.4,0,0.6h1.3
			v1.4h-1.3v6h-1.9v-6h-1.1v-1.4h1.1v-0.5c0-0.8,0.1-1.3,0.4-1.6c0.3-0.4,1-0.7,2-0.7C378,221.7,378.1,221.7,378.2,221.7z"/>
		<path d="M382.9,221.7c0.1,0,0.2,0,0.4,0v1.6c-0.1,0-0.3,0-0.6,0c-0.3,0-0.4,0-0.5,0.2c-0.1,0.1-0.1,0.3-0.1,0.4s0,0.4,0,0.6h1.3
			v1.4h-1.3v6h-1.9v-6H379v-1.4h1.1v-0.5c0-0.8,0.1-1.3,0.4-1.6c0.3-0.4,1-0.7,2-0.7C382.7,221.7,382.8,221.7,382.9,221.7z"/>
		<path d="M384.4,229.9h2.1v2h-2.1V229.9z"/>
		<path d="M393.9,228.8c0.1,0.5,0.2,0.8,0.4,1c0.3,0.4,0.9,0.6,1.8,0.6c0.5,0,0.9-0.1,1.2-0.2c0.6-0.2,0.9-0.6,0.9-1.2
			c0-0.3-0.1-0.6-0.4-0.8c-0.3-0.2-0.8-0.3-1.4-0.5l-1.1-0.2c-1.1-0.2-1.8-0.5-2.2-0.8c-0.7-0.5-1-1.2-1-2.2c0-0.9,0.3-1.7,1-2.2
			c0.7-0.6,1.6-0.9,2.9-0.9c1.1,0,2,0.3,2.8,0.8c0.8,0.6,1.2,1.4,1.2,2.5h-2c0-0.6-0.3-1-0.8-1.3c-0.3-0.2-0.8-0.3-1.3-0.3
			c-0.6,0-1,0.1-1.3,0.3c-0.3,0.2-0.5,0.5-0.5,0.9c0,0.4,0.2,0.6,0.5,0.8c0.2,0.1,0.7,0.3,1.3,0.4l1.8,0.4c0.8,0.2,1.4,0.4,1.7,0.7
			c0.6,0.5,0.9,1.2,0.9,2.1c0,0.9-0.4,1.7-1.1,2.3c-0.7,0.6-1.7,0.9-3,0.9c-1.3,0-2.4-0.3-3.1-0.9c-0.8-0.6-1.1-1.4-1.1-2.5H393.9z"
			/>
		<path d="M407.6,224.9c0.5,0.4,0.7,1.1,0.7,2v5h-2v-4.5c0-0.4-0.1-0.7-0.2-0.9c-0.2-0.4-0.6-0.6-1.1-0.6c-0.7,0-1.1,0.3-1.3,0.8
			c-0.1,0.3-0.2,0.7-0.2,1.1v4h-1.9v-7.4h1.9v1.1c0.2-0.4,0.5-0.7,0.7-0.8c0.4-0.3,0.9-0.5,1.5-0.5
			C406.5,224.3,407.1,224.5,407.6,224.9z"/>
		<path d="M412.1,223.6h-2v-1.8h2V223.6z M410.2,224.5h2v7.5h-2V224.5z"/>
		<path d="M417.1,221.7c0.1,0,0.2,0,0.4,0v1.6c-0.1,0-0.3,0-0.6,0c-0.3,0-0.4,0-0.5,0.2c-0.1,0.1-0.1,0.3-0.1,0.4s0,0.4,0,0.6h1.3
			v1.4h-1.3v6h-1.9v-6h-1.1v-1.4h1.1v-0.5c0-0.8,0.1-1.3,0.4-1.6c0.3-0.4,1-0.7,2-0.7C416.9,221.7,417,221.7,417.1,221.7z"/>
		<path d="M421.8,221.7c0.1,0,0.2,0,0.4,0v1.6c-0.1,0-0.3,0-0.6,0c-0.3,0-0.4,0-0.5,0.2c-0.1,0.1-0.1,0.3-0.1,0.4s0,0.4,0,0.6h1.3
			v1.4H421v6H419v-6h-1.1v-1.4h1.1v-0.5c0-0.8,0.1-1.3,0.4-1.6c0.3-0.4,1-0.7,2-0.7C421.6,221.7,421.7,221.7,421.8,221.7z"/>
		<path d="M423.3,229.9h2.1v2h-2.1V229.9z"/>
		<path d="M432.8,228.8c0.1,0.5,0.2,0.8,0.4,1c0.3,0.4,0.9,0.6,1.8,0.6c0.5,0,0.9-0.1,1.2-0.2c0.6-0.2,0.9-0.6,0.9-1.2
			c0-0.3-0.1-0.6-0.4-0.8c-0.3-0.2-0.8-0.3-1.4-0.5l-1.1-0.2c-1.1-0.2-1.8-0.5-2.2-0.8c-0.7-0.5-1-1.2-1-2.2c0-0.9,0.3-1.7,1-2.2
			c0.7-0.6,1.6-0.9,2.9-0.9c1.1,0,2,0.3,2.8,0.8c0.8,0.6,1.2,1.4,1.2,2.5h-2c0-0.6-0.3-1-0.8-1.3c-0.3-0.2-0.8-0.3-1.3-0.3
			c-0.6,0-1,0.1-1.3,0.3c-0.3,0.2-0.5,0.5-0.5,0.9c0,0.4,0.2,0.6,0.5,0.8c0.2,0.1,0.7,0.3,1.3,0.4l1.8,0.4c0.8,0.2,1.4,0.4,1.7,0.7
			c0.6,0.5,0.9,1.2,0.9,2.1c0,0.9-0.4,1.7-1.1,2.3c-0.7,0.6-1.7,0.9-3,0.9c-1.3,0-2.4-0.3-3.1-0.9c-0.8-0.6-1.1-1.4-1.1-2.5H432.8z"
			/>
		<path d="M446.5,224.9c0.5,0.4,0.7,1.1,0.7,2v5h-2v-4.5c0-0.4-0.1-0.7-0.2-0.9c-0.2-0.4-0.6-0.6-1.1-0.6c-0.7,0-1.1,0.3-1.3,0.8
			c-0.1,0.3-0.2,0.7-0.2,1.1v4h-1.9v-7.4h1.9v1.1c0.2-0.4,0.5-0.7,0.7-0.8c0.4-0.3,0.9-0.5,1.5-0.5
			C445.4,224.3,446,224.5,446.5,224.9z"/>
		<path d="M451,223.6h-2v-1.8h2V223.6z M449,224.5h2v7.5h-2V224.5z"/>
		<path d="M456,221.7c0.1,0,0.2,0,0.4,0v1.6c-0.1,0-0.3,0-0.6,0c-0.3,0-0.4,0-0.5,0.2c-0.1,0.1-0.1,0.3-0.1,0.4s0,0.4,0,0.6h1.3v1.4
			h-1.3v6h-1.9v-6h-1.1v-1.4h1.1v-0.5c0-0.8,0.1-1.3,0.4-1.6c0.3-0.4,1-0.7,2-0.7C455.8,221.7,455.9,221.7,456,221.7z"/>
		<path d="M460.7,221.7c0.1,0,0.2,0,0.4,0v1.6c-0.1,0-0.3,0-0.6,0c-0.3,0-0.4,0-0.5,0.2c-0.1,0.1-0.1,0.3-0.1,0.4s0,0.4,0,0.6h1.3
			v1.4h-1.3v6h-1.9v-6h-1.1v-1.4h1.1v-0.5c0-0.8,0.1-1.3,0.4-1.6c0.3-0.4,1-0.7,2-0.7C460.4,221.7,460.6,221.7,460.7,221.7z"/>
		<path d="M462.2,229.9h2.1v2h-2.1V229.9z"/>
		<path d="M277.3,245.6c0.1,0.5,0.2,0.8,0.4,1c0.3,0.4,0.9,0.6,1.8,0.6c0.5,0,0.9-0.1,1.2-0.2c0.6-0.2,0.9-0.6,0.9-1.2
			c0-0.3-0.1-0.6-0.4-0.8c-0.3-0.2-0.8-0.3-1.4-0.5l-1.1-0.2c-1.1-0.2-1.8-0.5-2.2-0.8c-0.7-0.5-1-1.2-1-2.2c0-0.9,0.3-1.7,1-2.2
			s1.6-0.9,2.9-0.9c1.1,0,2,0.3,2.8,0.8c0.8,0.6,1.2,1.4,1.2,2.5h-2c0-0.6-0.3-1-0.8-1.3c-0.3-0.2-0.8-0.3-1.3-0.3
			c-0.6,0-1,0.1-1.3,0.3s-0.5,0.5-0.5,0.9c0,0.4,0.2,0.6,0.5,0.8c0.2,0.1,0.7,0.3,1.3,0.4l1.8,0.4c0.8,0.2,1.4,0.4,1.7,0.7
			c0.6,0.5,0.9,1.2,0.9,2.1c0,0.9-0.4,1.7-1.1,2.3c-0.7,0.6-1.7,0.9-3,0.9c-1.3,0-2.4-0.3-3.1-0.9c-0.8-0.6-1.1-1.4-1.1-2.5H277.3z"
			/>
		<path d="M290.9,241.7c0.5,0.4,0.7,1.1,0.7,2v5h-2v-4.5c0-0.4-0.1-0.7-0.2-0.9c-0.2-0.4-0.6-0.6-1.1-0.6c-0.7,0-1.1,0.3-1.4,0.8
			c-0.1,0.3-0.2,0.7-0.2,1.1v4H285v-7.4h1.9v1.1c0.2-0.4,0.5-0.7,0.7-0.8c0.4-0.3,0.9-0.5,1.5-0.5
			C289.8,241.1,290.5,241.3,290.9,241.7z"/>
		<path d="M295.5,240.4h-2v-1.8h2V240.4z M293.5,241.3h2v7.5h-2V241.3z"/>
		<path d="M300.5,238.5c0.1,0,0.2,0,0.4,0v1.6c-0.1,0-0.3,0-0.6,0c-0.3,0-0.4,0-0.5,0.2c-0.1,0.1-0.1,0.3-0.1,0.4s0,0.4,0,0.6h1.3
			v1.4h-1.3v6h-1.9v-6h-1.1v-1.4h1.1v-0.5c0-0.8,0.1-1.3,0.4-1.6c0.3-0.4,1-0.7,2-0.7C300.2,238.5,300.4,238.5,300.5,238.5z"/>
		<path d="M305.1,238.5c0.1,0,0.2,0,0.4,0v1.6c-0.1,0-0.3,0-0.6,0c-0.3,0-0.4,0-0.5,0.2c-0.1,0.1-0.1,0.3-0.1,0.4s0,0.4,0,0.6h1.3
			v1.4h-1.3v6h-1.9v-6h-1.1v-1.4h1.1v-0.5c0-0.8,0.1-1.3,0.4-1.6c0.3-0.4,1-0.7,2-0.7C304.9,238.5,305,238.5,305.1,238.5z"/>
		<path d="M306.7,246.7h2.1v2h-2.1V246.7z"/>
		<path d="M316.2,245.6c0.1,0.5,0.2,0.8,0.4,1c0.3,0.4,0.9,0.6,1.8,0.6c0.5,0,0.9-0.1,1.2-0.2c0.6-0.2,0.9-0.6,0.9-1.2
			c0-0.3-0.1-0.6-0.4-0.8c-0.3-0.2-0.8-0.3-1.4-0.5l-1.1-0.2c-1.1-0.2-1.8-0.5-2.2-0.8c-0.7-0.5-1-1.2-1-2.2c0-0.9,0.3-1.7,1-2.2
			s1.6-0.9,2.9-0.9c1.1,0,2,0.3,2.8,0.8c0.8,0.6,1.2,1.4,1.2,2.5h-2c0-0.6-0.3-1-0.8-1.3c-0.3-0.2-0.8-0.3-1.3-0.3
			c-0.6,0-1,0.1-1.3,0.3s-0.5,0.5-0.5,0.9c0,0.4,0.2,0.6,0.5,0.8c0.2,0.1,0.7,0.3,1.3,0.4l1.8,0.4c0.8,0.2,1.4,0.4,1.7,0.7
			c0.6,0.5,0.9,1.2,0.9,2.1c0,0.9-0.4,1.7-1.1,2.3c-0.7,0.6-1.7,0.9-3,0.9c-1.3,0-2.4-0.3-3.1-0.9c-0.8-0.6-1.1-1.4-1.1-2.5H316.2z"
			/>
		<path d="M329.8,241.7c0.5,0.4,0.7,1.1,0.7,2v5h-2v-4.5c0-0.4-0.1-0.7-0.2-0.9c-0.2-0.4-0.6-0.6-1.1-0.6c-0.7,0-1.1,0.3-1.4,0.8
			c-0.1,0.3-0.2,0.7-0.2,1.1v4h-1.9v-7.4h1.9v1.1c0.2-0.4,0.5-0.7,0.7-0.8c0.4-0.3,0.9-0.5,1.5-0.5
			C328.7,241.1,329.3,241.3,329.8,241.7z"/>
		<path d="M334.4,240.4h-2v-1.8h2V240.4z M332.4,241.3h2v7.5h-2V241.3z"/>
		<path d="M339.3,238.5c0.1,0,0.2,0,0.4,0v1.6c-0.1,0-0.3,0-0.6,0c-0.3,0-0.4,0-0.5,0.2c-0.1,0.1-0.1,0.3-0.1,0.4s0,0.4,0,0.6h1.3
			v1.4h-1.3v6h-1.9v-6h-1.1v-1.4h1.1v-0.5c0-0.8,0.1-1.3,0.4-1.6c0.3-0.4,1-0.7,2-0.7C339.1,238.5,339.2,238.5,339.3,238.5z"/>
		<path d="M344,238.5c0.1,0,0.2,0,0.4,0v1.6c-0.1,0-0.3,0-0.6,0c-0.3,0-0.4,0-0.5,0.2c-0.1,0.1-0.1,0.3-0.1,0.4s0,0.4,0,0.6h1.3v1.4
			h-1.3v6h-1.9v-6h-1.1v-1.4h1.1v-0.5c0-0.8,0.1-1.3,0.4-1.6c0.3-0.4,1-0.7,2-0.7C343.8,238.5,343.9,238.5,344,238.5z"/>
		<path d="M345.6,246.7h2.1v2h-2.1V246.7z"/>
		<path d="M355,245.6c0.1,0.5,0.2,0.8,0.4,1c0.3,0.4,0.9,0.6,1.8,0.6c0.5,0,0.9-0.1,1.2-0.2c0.6-0.2,0.9-0.6,0.9-1.2
			c0-0.3-0.1-0.6-0.4-0.8c-0.3-0.2-0.8-0.3-1.4-0.5l-1.1-0.2c-1.1-0.2-1.8-0.5-2.2-0.8c-0.7-0.5-1-1.2-1-2.2c0-0.9,0.3-1.7,1-2.2
			s1.6-0.9,2.9-0.9c1.1,0,2,0.3,2.8,0.8c0.8,0.6,1.2,1.4,1.2,2.5h-2c0-0.6-0.3-1-0.8-1.3c-0.3-0.2-0.8-0.3-1.3-0.3
			c-0.6,0-1,0.1-1.3,0.3s-0.5,0.5-0.5,0.9c0,0.4,0.2,0.6,0.5,0.8c0.2,0.1,0.7,0.3,1.3,0.4l1.8,0.4c0.8,0.2,1.4,0.4,1.7,0.7
			c0.6,0.5,0.9,1.2,0.9,2.1c0,0.9-0.4,1.7-1.1,2.3c-0.7,0.6-1.7,0.9-3,0.9c-1.3,0-2.4-0.3-3.1-0.9c-0.8-0.6-1.1-1.4-1.1-2.5H355z"/>
		<path d="M368.7,241.7c0.5,0.4,0.7,1.1,0.7,2v5h-2v-4.5c0-0.4-0.1-0.7-0.2-0.9c-0.2-0.4-0.6-0.6-1.1-0.6c-0.7,0-1.1,0.3-1.4,0.8
			c-0.1,0.3-0.2,0.7-0.2,1.1v4h-1.9v-7.4h1.9v1.1c0.2-0.4,0.5-0.7,0.7-0.8c0.4-0.3,0.9-0.5,1.5-0.5
			C367.6,241.1,368.2,241.3,368.7,241.7z"/>
		<path d="M373.3,240.4h-2v-1.8h2V240.4z M371.3,241.3h2v7.5h-2V241.3z"/>
		<path d="M378.2,238.5c0.1,0,0.2,0,0.4,0v1.6c-0.1,0-0.3,0-0.6,0c-0.3,0-0.4,0-0.5,0.2c-0.1,0.1-0.1,0.3-0.1,0.4s0,0.4,0,0.6h1.3
			v1.4h-1.3v6h-1.9v-6h-1.1v-1.4h1.1v-0.5c0-0.8,0.1-1.3,0.4-1.6c0.3-0.4,1-0.7,2-0.7C378,238.5,378.1,238.5,378.2,238.5z"/>
		<path d="M382.9,238.5c0.1,0,0.2,0,0.4,0v1.6c-0.1,0-0.3,0-0.6,0c-0.3,0-0.4,0-0.5,0.2c-0.1,0.1-0.1,0.3-0.1,0.4s0,0.4,0,0.6h1.3
			v1.4h-1.3v6h-1.9v-6H379v-1.4h1.1v-0.5c0-0.8,0.1-1.3,0.4-1.6c0.3-0.4,1-0.7,2-0.7C382.7,238.5,382.8,238.5,382.9,238.5z"/>
		<path d="M384.4,246.7h2.1v2h-2.1V246.7z"/>
		<path d="M393.9,245.6c0.1,0.5,0.2,0.8,0.4,1c0.3,0.4,0.9,0.6,1.8,0.6c0.5,0,0.9-0.1,1.2-0.2c0.6-0.2,0.9-0.6,0.9-1.2
			c0-0.3-0.1-0.6-0.4-0.8c-0.3-0.2-0.8-0.3-1.4-0.5l-1.1-0.2c-1.1-0.2-1.8-0.5-2.2-0.8c-0.7-0.5-1-1.2-1-2.2c0-0.9,0.3-1.7,1-2.2
			c0.7-0.6,1.6-0.9,2.9-0.9c1.1,0,2,0.3,2.8,0.8c0.8,0.6,1.2,1.4,1.2,2.5h-2c0-0.6-0.3-1-0.8-1.3c-0.3-0.2-0.8-0.3-1.3-0.3
			c-0.6,0-1,0.1-1.3,0.3c-0.3,0.2-0.5,0.5-0.5,0.9c0,0.4,0.2,0.6,0.5,0.8c0.2,0.1,0.7,0.3,1.3,0.4l1.8,0.4c0.8,0.2,1.4,0.4,1.7,0.7
			c0.6,0.5,0.9,1.2,0.9,2.1c0,0.9-0.4,1.7-1.1,2.3c-0.7,0.6-1.7,0.9-3,0.9c-1.3,0-2.4-0.3-3.1-0.9c-0.8-0.6-1.1-1.4-1.1-2.5H393.9z"
			/>
		<path d="M407.6,241.7c0.5,0.4,0.7,1.1,0.7,2v5h-2v-4.5c0-0.4-0.1-0.7-0.2-0.9c-0.2-0.4-0.6-0.6-1.1-0.6c-0.7,0-1.1,0.3-1.3,0.8
			c-0.1,0.3-0.2,0.7-0.2,1.1v4h-1.9v-7.4h1.9v1.1c0.2-0.4,0.5-0.7,0.7-0.8c0.4-0.3,0.9-0.5,1.5-0.5
			C406.5,241.1,407.1,241.3,407.6,241.7z"/>
		<path d="M412.1,240.4h-2v-1.8h2V240.4z M410.2,241.3h2v7.5h-2V241.3z"/>
		<path d="M417.1,238.5c0.1,0,0.2,0,0.4,0v1.6c-0.1,0-0.3,0-0.6,0c-0.3,0-0.4,0-0.5,0.2c-0.1,0.1-0.1,0.3-0.1,0.4s0,0.4,0,0.6h1.3
			v1.4h-1.3v6h-1.9v-6h-1.1v-1.4h1.1v-0.5c0-0.8,0.1-1.3,0.4-1.6c0.3-0.4,1-0.7,2-0.7C416.9,238.5,417,238.5,417.1,238.5z"/>
		<path d="M421.8,238.5c0.1,0,0.2,0,0.4,0v1.6c-0.1,0-0.3,0-0.6,0c-0.3,0-0.4,0-0.5,0.2c-0.1,0.1-0.1,0.3-0.1,0.4s0,0.4,0,0.6h1.3
			v1.4H421v6H419v-6h-1.1v-1.4h1.1v-0.5c0-0.8,0.1-1.3,0.4-1.6c0.3-0.4,1-0.7,2-0.7C421.6,238.5,421.7,238.5,421.8,238.5z"/>
		<path d="M423.3,246.7h2.1v2h-2.1V246.7z"/>
		<path d="M432.8,245.6c0.1,0.5,0.2,0.8,0.4,1c0.3,0.4,0.9,0.6,1.8,0.6c0.5,0,0.9-0.1,1.2-0.2c0.6-0.2,0.9-0.6,0.9-1.2
			c0-0.3-0.1-0.6-0.4-0.8c-0.3-0.2-0.8-0.3-1.4-0.5l-1.1-0.2c-1.1-0.2-1.8-0.5-2.2-0.8c-0.7-0.5-1-1.2-1-2.2c0-0.9,0.3-1.7,1-2.2
			c0.7-0.6,1.6-0.9,2.9-0.9c1.1,0,2,0.3,2.8,0.8c0.8,0.6,1.2,1.4,1.2,2.5h-2c0-0.6-0.3-1-0.8-1.3c-0.3-0.2-0.8-0.3-1.3-0.3
			c-0.6,0-1,0.1-1.3,0.3c-0.3,0.2-0.5,0.5-0.5,0.9c0,0.4,0.2,0.6,0.5,0.8c0.2,0.1,0.7,0.3,1.3,0.4l1.8,0.4c0.8,0.2,1.4,0.4,1.7,0.7
			c0.6,0.5,0.9,1.2,0.9,2.1c0,0.9-0.4,1.7-1.1,2.3c-0.7,0.6-1.7,0.9-3,0.9c-1.3,0-2.4-0.3-3.1-0.9c-0.8-0.6-1.1-1.4-1.1-2.5H432.8z"
			/>
		<path d="M446.5,241.7c0.5,0.4,0.7,1.1,0.7,2v5h-2v-4.5c0-0.4-0.1-0.7-0.2-0.9c-0.2-0.4-0.6-0.6-1.1-0.6c-0.7,0-1.1,0.3-1.3,0.8
			c-0.1,0.3-0.2,0.7-0.2,1.1v4h-1.9v-7.4h1.9v1.1c0.2-0.4,0.5-0.7,0.7-0.8c0.4-0.3,0.9-0.5,1.5-0.5
			C445.4,241.1,446,241.3,446.5,241.7z"/>
		<path d="M451,240.4h-2v-1.8h2V240.4z M449,241.3h2v7.5h-2V241.3z"/>
		<path d="M456,238.5c0.1,0,0.2,0,0.4,0v1.6c-0.1,0-0.3,0-0.6,0c-0.3,0-0.4,0-0.5,0.2c-0.1,0.1-0.1,0.3-0.1,0.4s0,0.4,0,0.6h1.3v1.4
			h-1.3v6h-1.9v-6h-1.1v-1.4h1.1v-0.5c0-0.8,0.1-1.3,0.4-1.6c0.3-0.4,1-0.7,2-0.7C455.8,238.5,455.9,238.5,456,238.5z"/>
		<path d="M460.7,238.5c0.1,0,0.2,0,0.4,0v1.6c-0.1,0-0.3,0-0.6,0c-0.3,0-0.4,0-0.5,0.2c-0.1,0.1-0.1,0.3-0.1,0.4s0,0.4,0,0.6h1.3
			v1.4h-1.3v6h-1.9v-6h-1.1v-1.4h1.1v-0.5c0-0.8,0.1-1.3,0.4-1.6c0.3-0.4,1-0.7,2-0.7C460.4,238.5,460.6,238.5,460.7,238.5z"/>
		<path d="M462.2,246.7h2.1v2h-2.1V246.7z"/>
		<path d="M277.3,262.4c0.1,0.5,0.2,0.8,0.4,1c0.3,0.4,0.9,0.6,1.8,0.6c0.5,0,0.9-0.1,1.2-0.2c0.6-0.2,0.9-0.6,0.9-1.2
			c0-0.3-0.1-0.6-0.4-0.8c-0.3-0.2-0.8-0.3-1.4-0.5l-1.1-0.2c-1.1-0.2-1.8-0.5-2.2-0.8c-0.7-0.5-1-1.2-1-2.2c0-0.9,0.3-1.7,1-2.2
			c0.7-0.6,1.6-0.9,2.9-0.9c1.1,0,2,0.3,2.8,0.8c0.8,0.6,1.2,1.4,1.2,2.5h-2c0-0.6-0.3-1-0.8-1.3c-0.3-0.2-0.8-0.3-1.3-0.3
			c-0.6,0-1,0.1-1.3,0.3s-0.5,0.5-0.5,0.9c0,0.4,0.2,0.6,0.5,0.8c0.2,0.1,0.7,0.3,1.3,0.4l1.8,0.4c0.8,0.2,1.4,0.4,1.7,0.7
			c0.6,0.5,0.9,1.2,0.9,2.1c0,0.9-0.4,1.7-1.1,2.3c-0.7,0.6-1.7,0.9-3,0.9c-1.3,0-2.4-0.3-3.1-0.9c-0.8-0.6-1.1-1.4-1.1-2.5H277.3z"
			/>
		<path d="M290.9,258.5c0.5,0.4,0.7,1.1,0.7,2v5h-2V261c0-0.4-0.1-0.7-0.2-0.9c-0.2-0.4-0.6-0.6-1.1-0.6c-0.7,0-1.1,0.3-1.4,0.8
			c-0.1,0.3-0.2,0.7-0.2,1.1v4H285v-7.4h1.9v1.1c0.2-0.4,0.5-0.7,0.7-0.8c0.4-0.3,0.9-0.5,1.5-0.5
			C289.8,257.9,290.5,258.1,290.9,258.5z"/>
		<path d="M295.5,257.2h-2v-1.8h2V257.2z M293.5,258.1h2v7.5h-2V258.1z"/>
		<path d="M300.5,255.3c0.1,0,0.2,0,0.4,0v1.6c-0.1,0-0.3,0-0.6,0c-0.3,0-0.4,0-0.5,0.2c-0.1,0.1-0.1,0.3-0.1,0.4s0,0.4,0,0.6h1.3
			v1.4h-1.3v6h-1.9v-6h-1.1v-1.4h1.1v-0.5c0-0.8,0.1-1.3,0.4-1.6c0.3-0.4,1-0.7,2-0.7C300.2,255.3,300.4,255.3,300.5,255.3z"/>
		<path d="M305.1,255.3c0.1,0,0.2,0,0.4,0v1.6c-0.1,0-0.3,0-0.6,0c-0.3,0-0.4,0-0.5,0.2c-0.1,0.1-0.1,0.3-0.1,0.4s0,0.4,0,0.6h1.3
			v1.4h-1.3v6h-1.9v-6h-1.1v-1.4h1.1v-0.5c0-0.8,0.1-1.3,0.4-1.6c0.3-0.4,1-0.7,2-0.7C304.9,255.3,305,255.3,305.1,255.3z"/>
		<path d="M306.7,263.5h2.1v2h-2.1V263.5z"/>
		<path d="M316.2,262.4c0.1,0.5,0.2,0.8,0.4,1c0.3,0.4,0.9,0.6,1.8,0.6c0.5,0,0.9-0.1,1.2-0.2c0.6-0.2,0.9-0.6,0.9-1.2
			c0-0.3-0.1-0.6-0.4-0.8c-0.3-0.2-0.8-0.3-1.4-0.5l-1.1-0.2c-1.1-0.2-1.8-0.5-2.2-0.8c-0.7-0.5-1-1.2-1-2.2c0-0.9,0.3-1.7,1-2.2
			c0.7-0.6,1.6-0.9,2.9-0.9c1.1,0,2,0.3,2.8,0.8c0.8,0.6,1.2,1.4,1.2,2.5h-2c0-0.6-0.3-1-0.8-1.3c-0.3-0.2-0.8-0.3-1.3-0.3
			c-0.6,0-1,0.1-1.3,0.3s-0.5,0.5-0.5,0.9c0,0.4,0.2,0.6,0.5,0.8c0.2,0.1,0.7,0.3,1.3,0.4l1.8,0.4c0.8,0.2,1.4,0.4,1.7,0.7
			c0.6,0.5,0.9,1.2,0.9,2.1c0,0.9-0.4,1.7-1.1,2.3c-0.7,0.6-1.7,0.9-3,0.9c-1.3,0-2.4-0.3-3.1-0.9c-0.8-0.6-1.1-1.4-1.1-2.5H316.2z"
			/>
		<path d="M329.8,258.5c0.5,0.4,0.7,1.1,0.7,2v5h-2V261c0-0.4-0.1-0.7-0.2-0.9c-0.2-0.4-0.6-0.6-1.1-0.6c-0.7,0-1.1,0.3-1.4,0.8
			c-0.1,0.3-0.2,0.7-0.2,1.1v4h-1.9v-7.4h1.9v1.1c0.2-0.4,0.5-0.7,0.7-0.8c0.4-0.3,0.9-0.5,1.5-0.5
			C328.7,257.9,329.3,258.1,329.8,258.5z"/>
		<path d="M334.4,257.2h-2v-1.8h2V257.2z M332.4,258.1h2v7.5h-2V258.1z"/>
		<path d="M339.3,255.3c0.1,0,0.2,0,0.4,0v1.6c-0.1,0-0.3,0-0.6,0c-0.3,0-0.4,0-0.5,0.2c-0.1,0.1-0.1,0.3-0.1,0.4s0,0.4,0,0.6h1.3
			v1.4h-1.3v6h-1.9v-6h-1.1v-1.4h1.1v-0.5c0-0.8,0.1-1.3,0.4-1.6c0.3-0.4,1-0.7,2-0.7C339.1,255.3,339.2,255.3,339.3,255.3z"/>
		<path d="M344,255.3c0.1,0,0.2,0,0.4,0v1.6c-0.1,0-0.3,0-0.6,0c-0.3,0-0.4,0-0.5,0.2c-0.1,0.1-0.1,0.3-0.1,0.4s0,0.4,0,0.6h1.3v1.4
			h-1.3v6h-1.9v-6h-1.1v-1.4h1.1v-0.5c0-0.8,0.1-1.3,0.4-1.6c0.3-0.4,1-0.7,2-0.7C343.8,255.3,343.9,255.3,344,255.3z"/>
		<path d="M345.6,263.5h2.1v2h-2.1V263.5z"/>
		<path d="M355,262.4c0.1,0.5,0.2,0.8,0.4,1c0.3,0.4,0.9,0.6,1.8,0.6c0.5,0,0.9-0.1,1.2-0.2c0.6-0.2,0.9-0.6,0.9-1.2
			c0-0.3-0.1-0.6-0.4-0.8c-0.3-0.2-0.8-0.3-1.4-0.5l-1.1-0.2c-1.1-0.2-1.8-0.5-2.2-0.8c-0.7-0.5-1-1.2-1-2.2c0-0.9,0.3-1.7,1-2.2
			c0.7-0.6,1.6-0.9,2.9-0.9c1.1,0,2,0.3,2.8,0.8c0.8,0.6,1.2,1.4,1.2,2.5h-2c0-0.6-0.3-1-0.8-1.3c-0.3-0.2-0.8-0.3-1.3-0.3
			c-0.6,0-1,0.1-1.3,0.3s-0.5,0.5-0.5,0.9c0,0.4,0.2,0.6,0.5,0.8c0.2,0.1,0.7,0.3,1.3,0.4l1.8,0.4c0.8,0.2,1.4,0.4,1.7,0.7
			c0.6,0.5,0.9,1.2,0.9,2.1c0,0.9-0.4,1.7-1.1,2.3c-0.7,0.6-1.7,0.9-3,0.9c-1.3,0-2.4-0.3-3.1-0.9c-0.8-0.6-1.1-1.4-1.1-2.5H355z"/>
		<path d="M368.7,258.5c0.5,0.4,0.7,1.1,0.7,2v5h-2V261c0-0.4-0.1-0.7-0.2-0.9c-0.2-0.4-0.6-0.6-1.1-0.6c-0.7,0-1.1,0.3-1.4,0.8
			c-0.1,0.3-0.2,0.7-0.2,1.1v4h-1.9v-7.4h1.9v1.1c0.2-0.4,0.5-0.7,0.7-0.8c0.4-0.3,0.9-0.5,1.5-0.5
			C367.6,257.9,368.2,258.1,368.7,258.5z"/>
		<path d="M373.3,257.2h-2v-1.8h2V257.2z M371.3,258.1h2v7.5h-2V258.1z"/>
		<path d="M378.2,255.3c0.1,0,0.2,0,0.4,0v1.6c-0.1,0-0.3,0-0.6,0c-0.3,0-0.4,0-0.5,0.2c-0.1,0.1-0.1,0.3-0.1,0.4s0,0.4,0,0.6h1.3
			v1.4h-1.3v6h-1.9v-6h-1.1v-1.4h1.1v-0.5c0-0.8,0.1-1.3,0.4-1.6c0.3-0.4,1-0.7,2-0.7C378,255.3,378.1,255.3,378.2,255.3z"/>
		<path d="M382.9,255.3c0.1,0,0.2,0,0.4,0v1.6c-0.1,0-0.3,0-0.6,0c-0.3,0-0.4,0-0.5,0.2c-0.1,0.1-0.1,0.3-0.1,0.4s0,0.4,0,0.6h1.3
			v1.4h-1.3v6h-1.9v-6H379v-1.4h1.1v-0.5c0-0.8,0.1-1.3,0.4-1.6c0.3-0.4,1-0.7,2-0.7C382.7,255.3,382.8,255.3,382.9,255.3z"/>
		<path d="M384.4,263.5h2.1v2h-2.1V263.5z"/>
		<path d="M393.9,262.4c0.1,0.5,0.2,0.8,0.4,1c0.3,0.4,0.9,0.6,1.8,0.6c0.5,0,0.9-0.1,1.2-0.2c0.6-0.2,0.9-0.6,0.9-1.2
			c0-0.3-0.1-0.6-0.4-0.8c-0.3-0.2-0.8-0.3-1.4-0.5l-1.1-0.2c-1.1-0.2-1.8-0.5-2.2-0.8c-0.7-0.5-1-1.2-1-2.2c0-0.9,0.3-1.7,1-2.2
			c0.7-0.6,1.6-0.9,2.9-0.9c1.1,0,2,0.3,2.8,0.8c0.8,0.6,1.2,1.4,1.2,2.5h-2c0-0.6-0.3-1-0.8-1.3c-0.3-0.2-0.8-0.3-1.3-0.3
			c-0.6,0-1,0.1-1.3,0.3c-0.3,0.2-0.5,0.5-0.5,0.9c0,0.4,0.2,0.6,0.5,0.8c0.2,0.1,0.7,0.3,1.3,0.4l1.8,0.4c0.8,0.2,1.4,0.4,1.7,0.7
			c0.6,0.5,0.9,1.2,0.9,2.1c0,0.9-0.4,1.7-1.1,2.3c-0.7,0.6-1.7,0.9-3,0.9c-1.3,0-2.4-0.3-3.1-0.9c-0.8-0.6-1.1-1.4-1.1-2.5H393.9z"
			/>
		<path d="M407.6,258.5c0.5,0.4,0.7,1.1,0.7,2v5h-2V261c0-0.4-0.1-0.7-0.2-0.9c-0.2-0.4-0.6-0.6-1.1-0.6c-0.7,0-1.1,0.3-1.3,0.8
			c-0.1,0.3-0.2,0.7-0.2,1.1v4h-1.9v-7.4h1.9v1.1c0.2-0.4,0.5-0.7,0.7-0.8c0.4-0.3,0.9-0.5,1.5-0.5
			C406.5,257.9,407.1,258.1,407.6,258.5z"/>
		<path d="M412.1,257.2h-2v-1.8h2V257.2z M410.2,258.1h2v7.5h-2V258.1z"/>
		<path d="M417.1,255.3c0.1,0,0.2,0,0.4,0v1.6c-0.1,0-0.3,0-0.6,0c-0.3,0-0.4,0-0.5,0.2c-0.1,0.1-0.1,0.3-0.1,0.4s0,0.4,0,0.6h1.3
			v1.4h-1.3v6h-1.9v-6h-1.1v-1.4h1.1v-0.5c0-0.8,0.1-1.3,0.4-1.6c0.3-0.4,1-0.7,2-0.7C416.9,255.3,417,255.3,417.1,255.3z"/>
		<path d="M421.8,255.3c0.1,0,0.2,0,0.4,0v1.6c-0.1,0-0.3,0-0.6,0c-0.3,0-0.4,0-0.5,0.2c-0.1,0.1-0.1,0.3-0.1,0.4s0,0.4,0,0.6h1.3
			v1.4H421v6H419v-6h-1.1v-1.4h1.1v-0.5c0-0.8,0.1-1.3,0.4-1.6c0.3-0.4,1-0.7,2-0.7C421.6,255.3,421.7,255.3,421.8,255.3z"/>
		<path d="M423.3,263.5h2.1v2h-2.1V263.5z"/>
		<path d="M432.8,262.4c0.1,0.5,0.2,0.8,0.4,1c0.3,0.4,0.9,0.6,1.8,0.6c0.5,0,0.9-0.1,1.2-0.2c0.6-0.2,0.9-0.6,0.9-1.2
			c0-0.3-0.1-0.6-0.4-0.8c-0.3-0.2-0.8-0.3-1.4-0.5l-1.1-0.2c-1.1-0.2-1.8-0.5-2.2-0.8c-0.7-0.5-1-1.2-1-2.2c0-0.9,0.3-1.7,1-2.2
			c0.7-0.6,1.6-0.9,2.9-0.9c1.1,0,2,0.3,2.8,0.8c0.8,0.6,1.2,1.4,1.2,2.5h-2c0-0.6-0.3-1-0.8-1.3c-0.3-0.2-0.8-0.3-1.3-0.3
			c-0.6,0-1,0.1-1.3,0.3c-0.3,0.2-0.5,0.5-0.5,0.9c0,0.4,0.2,0.6,0.5,0.8c0.2,0.1,0.7,0.3,1.3,0.4l1.8,0.4c0.8,0.2,1.4,0.4,1.7,0.7
			c0.6,0.5,0.9,1.2,0.9,2.1c0,0.9-0.4,1.7-1.1,2.3c-0.7,0.6-1.7,0.9-3,0.9c-1.3,0-2.4-0.3-3.1-0.9c-0.8-0.6-1.1-1.4-1.1-2.5H432.8z"
			/>
		<path d="M446.5,258.5c0.5,0.4,0.7,1.1,0.7,2v5h-2V261c0-0.4-0.1-0.7-0.2-0.9c-0.2-0.4-0.6-0.6-1.1-0.6c-0.7,0-1.1,0.3-1.3,0.8
			c-0.1,0.3-0.2,0.7-0.2,1.1v4h-1.9v-7.4h1.9v1.1c0.2-0.4,0.5-0.7,0.7-0.8c0.4-0.3,0.9-0.5,1.5-0.5
			C445.4,257.9,446,258.1,446.5,258.5z"/>
		<path d="M451,257.2h-2v-1.8h2V257.2z M449,258.1h2v7.5h-2V258.1z"/>
		<path d="M456,255.3c0.1,0,0.2,0,0.4,0v1.6c-0.1,0-0.3,0-0.6,0c-0.3,0-0.4,0-0.5,0.2c-0.1,0.1-0.1,0.3-0.1,0.4s0,0.4,0,0.6h1.3v1.4
			h-1.3v6h-1.9v-6h-1.1v-1.4h1.1v-0.5c0-0.8,0.1-1.3,0.4-1.6c0.3-0.4,1-0.7,2-0.7C455.8,255.3,455.9,255.3,456,255.3z"/>
		<path d="M460.7,255.3c0.1,0,0.2,0,0.4,0v1.6c-0.1,0-0.3,0-0.6,0c-0.3,0-0.4,0-0.5,0.2c-0.1,0.1-0.1,0.3-0.1,0.4s0,0.4,0,0.6h1.3
			v1.4h-1.3v6h-1.9v-6h-1.1v-1.4h1.1v-0.5c0-0.8,0.1-1.3,0.4-1.6c0.3-0.4,1-0.7,2-0.7C460.4,255.3,460.6,255.3,460.7,255.3z"/>
		<path d="M462.2,263.5h2.1v2h-2.1V263.5z"/>
	</g>
	<g>
		<path d="M169.1,246c0.1,0.5,0.2,0.8,0.4,1c0.3,0.4,0.9,0.6,1.8,0.6c0.5,0,0.9-0.1,1.2-0.2c0.6-0.2,0.9-0.6,0.9-1.2
			c0-0.3-0.1-0.6-0.4-0.8c-0.3-0.2-0.8-0.3-1.4-0.5l-1.1-0.2c-1.1-0.2-1.8-0.5-2.2-0.8c-0.7-0.5-1-1.2-1-2.2c0-0.9,0.3-1.7,1-2.2
			s1.6-0.9,2.9-0.9c1.1,0,2,0.3,2.8,0.8c0.8,0.6,1.2,1.4,1.2,2.5h-2c0-0.6-0.3-1-0.8-1.3c-0.3-0.2-0.8-0.3-1.3-0.3
			c-0.6,0-1,0.1-1.3,0.3c-0.3,0.2-0.5,0.5-0.5,0.9c0,0.4,0.2,0.6,0.5,0.8c0.2,0.1,0.7,0.3,1.3,0.4l1.8,0.4c0.8,0.2,1.4,0.4,1.7,0.7
			c0.6,0.5,0.9,1.2,0.9,2.1c0,0.9-0.4,1.7-1.1,2.3c-0.7,0.6-1.7,0.9-3,0.9c-1.3,0-2.4-0.3-3.1-0.9c-0.8-0.6-1.1-1.4-1.1-2.5H169.1z"
			/>
		<path d="M182.8,242c0.5,0.4,0.7,1.1,0.7,2v5h-2v-4.5c0-0.4-0.1-0.7-0.2-0.9c-0.2-0.4-0.6-0.6-1.1-0.6c-0.7,0-1.1,0.3-1.4,0.8
			c-0.1,0.3-0.2,0.7-0.2,1.1v4h-1.9v-7.4h1.9v1.1c0.2-0.4,0.5-0.7,0.7-0.8c0.4-0.3,0.9-0.5,1.5-0.5
			C181.7,241.4,182.3,241.6,182.8,242z"/>
		<path d="M187.3,240.7h-2v-1.8h2V240.7z M185.4,241.6h2v7.5h-2V241.6z"/>
		<path d="M192.3,238.9c0.1,0,0.2,0,0.4,0v1.6c-0.1,0-0.3,0-0.6,0c-0.3,0-0.4,0-0.5,0.2c-0.1,0.1-0.1,0.3-0.1,0.4s0,0.4,0,0.6h1.3
			v1.4h-1.3v6h-1.9v-6h-1.1v-1.4h1.1v-0.5c0-0.8,0.1-1.3,0.4-1.6c0.3-0.4,1-0.7,2-0.7C192.1,238.9,192.2,238.9,192.3,238.9z"/>
		<path d="M197,238.9c0.1,0,0.2,0,0.4,0v1.6c-0.1,0-0.3,0-0.6,0c-0.3,0-0.4,0-0.5,0.2c-0.1,0.1-0.1,0.3-0.1,0.4s0,0.4,0,0.6h1.3v1.4
			h-1.3v6h-1.9v-6h-1.1v-1.4h1.1v-0.5c0-0.8,0.1-1.3,0.4-1.6c0.3-0.4,1-0.7,2-0.7C196.8,238.9,196.9,238.9,197,238.9z"/>
		<path d="M198.5,247h2.1v2h-2.1V247z"/>
	</g>
	<circle style="fill:#FFFFFF;" cx="368.3" cy="338.7" r="57.2"/>
	<path d="M373.7,363.2c0.2-0.1,0.4,0,0.5,0.2c0,0,0,0.1,0,0.1l0,0.1c0.2,0.5,0.5,0.9,1.1,1.1l0.5,0.2c0.2,0.1-0.3,1.7-0.4,1.8
		l-0.4,0.4c-0.2,0.2-0.2,0.4,0,0.6c0.1,0.1,0.2,0.1,0.3,0.1h0l1.2,0c0.3,0,0.5-0.2,0.5-0.5l0.7-3c0-0.1,0-0.6-0.5-0.8
		c-0.4-0.2-0.3-1.1-0.2-2.1"/>
	<path d="M362.8,362.3l0.3,4.9c0,0.1,0,0.2-0.1,0.4c-0.2,0.5-0.8,1.7-1.2,1.7h-1.4c-0.6-0.1-0.8-0.8-0.5-1.2l0.8-1
		c0.2-0.2,0.2-0.4,0.2-0.6l-1.2-5.4c0-0.1,0-0.2,0-0.3c0,0,0.4,0.7,1,1C361.5,362.2,362.8,362.3,362.8,362.3z"/>
	<path d="M367.9,356c-2.4,0-8.9,6.3-5.1,6.3h2.7c0.2,0,0.3,0.1,0.4,0.3l1.3,4.3c0,0.1,0,0.3-0.1,0.4l-1.2,1.4
		c-0.1,0.2-0.1,0.4,0,0.6c0,0,0,0,0.1,0.1c0.1,0,0.1,0.1,0.2,0.1h2.1c0.2,0,0.9-1.7,1-2.1c0-0.1,0-0.1,0-0.2l-0.5-3.2
		c0-0.2,0.1-0.4,0.3-0.5c0.1,0,0.2,0,0.2,0c1.1,0.5,2.5,0.8,4,0.8c1.7,0,3.3-0.4,4.4-1c0.2-0.1,0.4,0,0.5,0.2c0,0,0,0.1,0,0.1l0,0.1
		c0.2,0.5,0.5,0.9,1.1,1.1l0.5,0.2c0.2,0.1-0.3,1.7-0.4,1.8l-0.4,0.4c-0.2,0.2-0.2,0.4,0,0.6c0.1,0.1,0.2,0.1,0.3,0.1h0l1.2,0
		c0.3,0,0.5-0.2,0.5-0.5l0.7-3c0-0.1,0-0.6-0.5-0.8c-0.4-0.2-0.3-1.1-0.2-2.1c0.3-2.7-0.2-6.5-4.5-6.5
		C374.2,354.7,370.2,356,367.9,356z"/>
	<path d="M376.7,354.7c-2.5,0-6.5,1.2-8.8,1.2c-2.4,0-8.9,3.1-8.4,4.4c1-0.6,1.8-1.3,2.3-2.1c1.5,1.5,4.1,2.5,6.9,2.5
		c2.1,0,4-0.5,5.5-1.4c1.6,1.2,3.9,2,6.5,2c0.2,0,0.6,0,0.6,0C381.6,358.6,381,354.7,376.7,354.7z"/>
	<path id="tummy_6_" d="M369.5,363.3c0,0,1.4,0.7,3.9,0.8c2.8,0,4.4-0.9,4.4-0.9c-0.4-0.3-0.9-0.5-1.3-0.7c-2.2-1.1-4.9-0.8-6.8,0.7
		L369.5,363.3z"/>
	<path d="M381.2,349.4c-0.1,0.4-0.3,1-0.5,1.7h1c0.2-0.7,0.3-1.3,0.4-1.7C382.3,347.1,381.8,347.2,381.2,349.4z"/>
	<g>
		<path d="M381.7,351.1h-1c-0.7,2.2-1.8,5.2-1.8,5.2l1.1,0.8C380.6,355.4,381.7,350.9,381.7,351.1z"/>
	</g>
	<g id="back-on_5_">
		<circle cx="374.7" cy="355.7" r="0.2"/>
		<circle cx="376.2" cy="355.4" r="0.1"/>
		<circle cx="375.8" cy="355.9" r="0.1"/>
		<circle cx="372.6" cy="356.2" r="0.1"/>
		<circle cx="377.7" cy="355.7" r="0.1"/>
		<circle cx="377.9" cy="356.7" r="0.1"/>
		<circle cx="379.7" cy="356.7" r="0.2"/>
		<circle cx="378.6" cy="355.7" r="0.2"/>
		<circle cx="377" cy="356.2" r="0.2"/>
		<circle cx="375.9" cy="356.8" r="0.2"/>
		<circle cx="376.8" cy="355.3" r="0.2"/>
		<circle cx="373.8" cy="356" r="0.2"/>
		<circle cx="374.4" cy="356.6" r="0.1"/>
		<circle cx="372.8" cy="355.8" r="0.2"/>
		<circle cx="371.6" cy="356.1" r="0.1"/>
		<circle cx="377.8" cy="357.5" r="0.1"/>
	</g>
	<path style="stroke:#000000;" d="M361.9,366.2l0.4-6.9c0-0.7-0.5-1.3-1.3-1.4l-1.2-0.1c-0.8,0-1.5,0.5-1.7,1.2l-1.8,6.9
		c-0.4,1.4,0.3,2.6,1.4,2.7l1.8,0.1C360.8,368.7,361.8,367.5,361.9,366.2z"/>
	<path d="M362.2,357.5c0,0-2.5-0.3-4.3,0.5c-1.8,0.7-2.4,2.7-1.6,4.4l0,0l0.2,0.5c0.1,0.2,0.2,0.4,0.3,0.5l-1.5,0.7
		c-0.9,0.4-1.4,1.5-0.9,2.5l0,0l0.4,0.9c0.4,0.9,1.6,1.4,2.5,0.9l3.9-1.8c1.5,0.4,5.6-2.4,5.1-3.5l-1-4.5
		C364.6,357.4,362.2,357.5,362.2,357.5z"/>
	<path style="stroke:#000000;" d="M361.8,366.3l-0.4-7.3c0-0.8,0.6-1.4,1.5-1.4l1.3-0.1c0.9-0.1,1.7,0.5,1.9,1.2l2,7.2
		c0.4,1.4-0.3,2.8-1.7,2.8l-2.1,0.1C363.1,369,361.9,367.8,361.8,366.3z"/>
	<path id="Nose-3_9_" style="stroke:#000000;" d="M359.4,366.2c0,0-0.4,1-2,1.7c-0.6,0.3-1.3,0.4-1.8,0.4"/>
	<circle cx="359.7" cy="360.9" r="1.5"/>
	<path id="nose_12_" style="stroke:#000000;" d="M354,366.5l0.3,0.6c1.1,0.8,2.4,0.5,2.9-0.6c0.3-0.7,0.3-1.5-0.1-2.3
		c-0.1-0.3-0.3-0.6-0.6-0.8l-2,0.9C353.9,364.6,353.6,365.6,354,366.5C354,366.5,354,366.5,354,366.5z"/>
	<circle cx="356.4" cy="361.7" r="1.5"/>
	<path style="stroke:#000000;" d="M355.1,362c0,0,1.3,1.4,2.6-0.4L355.1,362z"/>
	<g>
		<path style="stroke:#000000;" d="M358.3,361.3c0,0,1.4,1.4,2.9-0.4L358.3,361.3z"/>
	</g>
	<path style="fill:none;stroke:#000000;stroke-miterlimit:10;" d="M454.9,78.1c0,0,35.3,13.4-4.3,68.6"/>
	<path style="fill:none;stroke:#000000;stroke-miterlimit:10;" d="M447.1,81.8c18.9,14.9,22.5,21.8,2.5,48.5"/>
	<path style="fill:none;stroke:#000000;stroke-miterlimit:10;" d="M113.4,285.9c0,0-11.9-19.9-23.6,12.6"/>
	<path style="fill:none;stroke:#000000;stroke-miterlimit:10;" d="M114,290.3c-11.7-3.6-15.6-3.1-21,12.8"/>
	<path style="fill:#A6AD00;" d="M98.3,141.4c-1.1-0.6-2.5-0.2-3.1,0.9c-0.1,0.2-0.2,0.3-0.2,0.5l-0.2,0.7c-0.9,3-3.1,5.4-6.1,6.3
		l-2.8,0.9c-1.3,0.5,2,9.9,2.1,10.1l2.2,2.2c0.9,0.9,0.9,2.4,0,3.3c-0.4,0.4-0.9,0.6-1.5,0.6h-0.1l-6.7,0.2c-1.6,0-2.8-1.2-2.8-2.8
		L75.4,147c-0.1-0.4,0.2-3.6,2.8-4.7c2.3-1,1.7-6.6,1-12.2"/>
	<path style="fill:#FFEBC3;" d="M160.7,136.3l-2,28.4c-0.1,0.7,0.1,1.4,0.3,2c1.3,2.7,4.9,10,7,10h8.2c3.4-0.3,4.9-4.3,2.7-6.9
		l-4.6-5.5c-0.9-1-1.2-2.4-0.9-3.6l7.1-31.2c0.1-0.5,0.1-1,0.1-1.4c0,0-2.1,4.2-6,5.8C168.1,135.9,160.7,136.3,160.7,136.3z"/>
	<path style="fill:#FFEBC3;" d="M131.8,99.9c13.6,0,51.6,36.4,29.4,36.4h-15.7c-1,0-2,0.7-2.3,1.7l-7.5,24.9
		c-0.2,0.8-0.1,1.6,0.5,2.1l6.6,8c0.8,1,0.7,2.4-0.2,3.2c-0.1,0.1-0.2,0.2-0.4,0.3c-0.4,0.2-0.8,0.3-1.2,0.3h-12
		c-1.3,0-5.1-9.8-6-12.3c-0.1-0.3-0.2-0.8-0.1-1.2l2.7-18.3c0.2-1.3-0.6-2.4-1.9-2.7c-0.5-0.1-0.9,0-1.3,0.2
		c-6.2,2.8-14.3,4.4-23.2,4.4c-10.1,0-19.1-2.1-25.5-5.5c-1.1-0.6-2.5-0.2-3.1,0.9c-0.1,0.2-0.2,0.3-0.2,0.5l-0.2,0.7
		c-0.9,3-3.1,5.4-6.1,6.3l-2.8,0.9c-1.3,0.5,2,9.9,2.1,10.1l2.2,2.2c0.9,0.9,0.9,2.4,0,3.3c-0.4,0.4-0.9,0.6-1.5,0.6H64l-6.7,0.2
		c-1.6,0-2.8-1.2-2.8-2.8l-3.8-17.4c-0.1-0.4,0.2-3.6,2.8-4.7c2.3-1,1.7-6.6,1-12.2c-1.7-15.8,1.3-37.2,26.2-37.2
		C95.2,92.7,118.2,99.9,131.8,99.9z"/>
	<path style="fill:#A6AD00;" d="M80.8,92.8c14.4-0.1,37.3,7.2,51,7.2c13.6,0,51.1,18,48.2,25.4c-5.6-3.2-10.1-7.2-13.2-11.8
		c-8.8,8.6-23.5,14.2-40.1,14.2c-12,0-23-2.9-31.5-7.8c-9,7.2-22.4,11.7-37.3,11.7c-1,0-3.2-0.1-3.2-0.1
		C52.3,115.3,56,92.8,80.8,92.8z"/>
	<path id="tummy_5_" style="fill:#EABEB5;" d="M122.3,142.3c0,0-7.9,4.3-22.6,4.4c-16.1,0.2-25.3-5.2-25.3-5.2c2.4-1.6,5-3,7.6-4.2
		c12.8-6.2,28.1-4.6,39.3,4.2L122.3,142.3z"/>
	<path style="fill:#FFEBC3;" d="M55,61.9c0.7,2.4,1.7,5.8,3,9.6h-5.9c-1-4.3-1.8-7.8-2-9.6C48.3,48.8,51.4,49.1,55,61.9z"/>
	<g>
		<path style="fill:#A6AD00;" d="M52.1,71.5H58c4.1,12.7,10.1,30.1,10.1,30.1l-6.5,4.5C58.5,96.5,51.9,70.8,52.1,71.5z"/>
	</g>
	<g id="back-on_4_">
		<circle style="fill:#D6D6D6;" cx="92.5" cy="98.1" r="1.1"/>
		<circle style="fill:#D6D6D6;" cx="83.4" cy="96.4" r="0.6"/>
		<circle style="fill:#D6D6D6;" cx="85.9" cy="99.6" r="0.6"/>
		<circle style="fill:#D6D6D6;" cx="104.1" cy="101.3" r="0.6"/>
		<circle style="fill:#D6D6D6;" cx="74.9" cy="98.6" r="0.5"/>
		<circle style="fill:#D6D6D6;" cx="73.7" cy="104.2" r="0.7"/>
		<circle style="fill:#D6D6D6;" cx="63.6" cy="104.2" r="1.1"/>
		<circle style="fill:#D6D6D6;" cx="69.6" cy="98.6" r="1.1"/>
		<circle style="fill:#D6D6D6;" cx="79.2" cy="101.3" r="1.1"/>
		<circle style="fill:#D6D6D6;" cx="85.6" cy="104.9" r="1.1"/>
		<circle style="fill:#D6D6D6;" cx="80.3" cy="95.9" r="1.1"/>
		<circle style="fill:#D6D6D6;" cx="97.2" cy="100.2" r="1.1"/>
		<circle style="fill:#D6D6D6;" cx="94.3" cy="103.4" r="0.7"/>
		<circle style="fill:#D6D6D6;" cx="103.2" cy="98.7" r="0.9"/>
		<circle style="fill:#D6D6D6;" cx="110.4" cy="100.7" r="0.7"/>
		<circle style="fill:#D6D6D6;" cx="74.3" cy="108.9" r="0.6"/>
	</g>
	<path style="stroke:#000000;" d="M165.9,158.6l-2.4-40c-0.2-4.2,3.1-7.6,7.4-7.8l6.7-0.4c4.3-0.3,8.6,2.7,9.7,6.8l10.2,39.6
		c2,7.9-1.6,15.1-8.3,15.5l-10.3,0.6C172.3,173.3,166.4,166.6,165.9,158.6z"/>
	<path style="fill:#A6AD00;" d="M164.6,108.6c0,0,14.2-1.6,24.8,2.7s13.7,15.7,9.3,25.3l0,0l-1.2,2.7c-0.5,1.1-1,2.1-1.6,3.1l8.7,4
		c5.4,2.5,7.8,8.9,5.3,14.4l0,0l-2.5,5.5c-2.5,5.4-9,7.8-14.4,5.3l-22.3-10.3c-8.6,2-32.2-13.7-29.2-20.2l5.9-26
		C150.3,108.4,164.6,108.6,164.6,108.6z"/>
	<path style="stroke:#000000;" d="M166.6,159.6l2.5-42.3c0.3-4.4-3.5-8-8.5-8.3l-7.7-0.5c-5-0.3-9.9,2.8-11.1,7.1l-11.4,41.7
		c-2.3,8.3,1.9,16,9.6,16.4l11.8,0.7C159.4,175.1,166.1,168,166.6,159.6z"/>
	<path id="Nose-3_8_" style="fill:none;stroke:#000000;" d="M180.6,159.1c0,0,2.4,5.6,11.5,9.7c3.3,1.5,7.7,2.2,10.1,2.5"/>
	<circle style="fill:#FFFFFF;" cx="178.8" cy="128.4" r="8.4"/>
	<path id="nose_11_" style="stroke:#000000;" d="M211.4,160.9l-1.6,3.4c-6.3,4.6-13.9,3-17-3.5c-1.8-3.9-1.7-8.9,0.3-13.4
		c0.8-1.8,1.9-3.4,3.2-4.8L208,148C212.2,149.9,213.8,155.6,211.4,160.9C211.4,160.8,211.4,160.8,211.4,160.9z"/>
	<circle style="fill:#FFFFFF;" cx="197.7" cy="132.7" r="8.4"/>
	<path style="stroke:#000000;" d="M205.2,134.6c0,0-7.5,7.9-15.1-2.4L205.2,134.6z"/>
	<g>
		<path style="stroke:#000000;" d="M187.1,130.9c0,0-8.2,7.9-16.7-2.4L187.1,130.9z"/>
	</g>
	<rect x="255.3" y="366.9" style="stroke:#000000;" width="229.5" height="31.6"/>
</g>
<g id="Layer_2">
</g>
</svg>
