<?xml version="1.0" encoding="utf-8"?>
<!-- Generator: Adobe Illustrator 25.2.1, SVG Export Plug-In . SVG Version: 6.00 Build 0)  -->
<svg version="1.1" xmlns="http://www.w3.org/2000/svg" xmlns:xlink="http://www.w3.org/1999/xlink" x="0px" y="0px" width="496px"
	 height="46.9px" viewBox="0 0 496 46.9" style="enable-background:new 0 0 496 46.9;" xml:space="preserve">
<g id="Layer_1">
	<rect x="6" y="1.7" style="fill:#FFFFFF;" width="481.4" height="37.6"/>
	<g>
		<path d="M29.2,15.8H17.8v4.6h10.5v3.8H17.8v5.6h12v3.9H13.4V12h15.8V15.8z"/>
		<path d="M36.7,33.6h-5.2l6.9-11L31.8,12h5.4l3.9,7l4-7h5.2l-6.6,10.4l7,11.2h-5.5l-4.1-7.4L36.7,33.6z"/>
		<path d="M67.8,24.3c-1.3,1.1-3.1,1.6-5.4,1.6h-4.5v7.8h-4.5V12h9.3c2.1,0,3.8,0.6,5.1,1.7c1.3,1.1,1.9,2.8,1.9,5.2
			C69.7,21.4,69.1,23.2,67.8,24.3z M64.3,16.5c-0.6-0.5-1.4-0.7-2.4-0.7h-4.1v6.4h4.1c1,0,1.8-0.3,2.4-0.8s0.9-1.3,0.9-2.5
			S64.9,17,64.3,16.5z"/>
		<path d="M73.3,12h4.5v17.7h10.8v3.9H73.3V12z"/>
		<path d="M108.3,31.7c-1.6,1.7-4,2.5-7.1,2.5s-5.4-0.8-7.1-2.5c-2.2-2.1-3.3-5-3.3-8.9c0-4,1.1-6.9,3.3-8.9c1.6-1.7,4-2.5,7.1-2.5
			s5.4,0.8,7.1,2.5c2.2,2,3.3,5,3.3,8.9C111.5,26.7,110.4,29.6,108.3,31.7z M105.4,28.4c1-1.3,1.6-3.2,1.6-5.6
			c0-2.4-0.5-4.3-1.6-5.6s-2.5-2-4.3-2s-3.2,0.7-4.3,2s-1.6,3.2-1.6,5.6s0.5,4.3,1.6,5.6s2.5,2,4.3,2S104.4,29.7,105.4,28.4z"/>
		<path d="M128.8,12.6c0.8,0.3,1.5,0.8,2,1.5c0.5,0.5,0.8,1.2,1.1,1.8c0.3,0.7,0.4,1.4,0.4,2.3c0,1-0.3,2-0.8,3s-1.4,1.7-2.6,2.1
			c1,0.4,1.7,1,2.1,1.7s0.6,1.9,0.6,3.4v1.5c0,1,0,1.7,0.1,2c0.1,0.6,0.4,1,0.8,1.2v0.5h-5c-0.1-0.5-0.2-0.9-0.3-1.2
			c-0.1-0.6-0.2-1.2-0.2-1.9l0-2c0-1.4-0.3-2.3-0.7-2.8c-0.5-0.5-1.3-0.7-2.6-0.7h-4.4v8.5h-4.4V12h10.3
			C126.9,12,128,12.2,128.8,12.6z M119.5,15.8v5.8h4.9c1,0,1.7-0.1,2.2-0.4c0.9-0.4,1.3-1.2,1.3-2.4c0-1.3-0.4-2.2-1.2-2.6
			c-0.5-0.3-1.2-0.4-2.1-0.4H119.5z"/>
		<path d="M152.6,15.8h-11.4v4.6h10.5v3.8h-10.5v5.6h12v3.9h-16.4V12h15.8V15.8z"/>
		<path d="M167.6,25.4v0.5c0,1.7,0.2,2.8,0.5,3.5c0.3,0.7,1,1,2,1c1,0,1.7-0.4,2-1.1c0.2-0.4,0.3-1.2,0.3-2.2V12h4.5v15
			c0,1.8-0.3,3.3-0.9,4.4c-1.1,1.8-2.9,2.7-5.7,2.7c-2.7,0-4.6-0.7-5.5-2.2c-0.9-1.5-1.4-3.5-1.4-6v-0.5H167.6z"/>
		<path d="M187.8,12h5.1l7.6,21.6h-4.9l-1.4-4.4h-8l-1.5,4.4h-4.7L187.8,12z M187.5,25.4h5.5l-2.7-8.5L187.5,25.4z"/>
		<path d="M205.4,14.3c1.7-1.8,4-2.7,6.6-2.7c3.6,0,6.2,1.2,7.9,3.6c0.9,1.3,1.4,2.7,1.5,4h-4.5c-0.3-1-0.7-1.8-1.1-2.3
			c-0.8-0.9-2-1.4-3.6-1.4c-1.6,0-2.9,0.7-3.8,2c-0.9,1.3-1.4,3.2-1.4,5.6s0.5,4.2,1.5,5.4s2.2,1.8,3.7,1.8c1.5,0,2.7-0.5,3.5-1.6
			c0.4-0.6,0.8-1.4,1.1-2.5h4.5c-0.4,2.4-1.4,4.3-3,5.7c-1.6,1.5-3.6,2.2-6.1,2.2c-3.1,0-5.5-1-7.2-3c-1.8-2-2.6-4.7-2.6-8.2
			C202.4,19.2,203.4,16.3,205.4,14.3z"/>
		<path d="M225.1,12h4.4v8.9l8.3-8.9h5.8l-8.9,8.9l9.3,12.7h-5.8l-6.7-9.4l-2.2,2.2v7.2h-4.4V12z"/>
		<path d="M246.4,18.8c1-0.3,1.7-0.8,2.1-1.5c0.2-0.4,0.3-0.9,0.3-1.3h-2.4v-3.9h4.3v3.1c0,1.5-0.4,2.6-1.1,3.5s-1.8,1.4-3.1,1.7
			V18.8z"/>
		<path d="M258.2,26.9c0.1,1,0.4,1.7,0.8,2.2c0.7,0.9,2,1.3,3.8,1.3c1.1,0,2-0.1,2.6-0.4c1.3-0.4,1.9-1.3,1.9-2.5
			c0-0.7-0.3-1.3-0.9-1.7c-0.6-0.4-1.6-0.7-3-1l-2.3-0.5c-2.3-0.5-3.9-1.1-4.7-1.7c-1.5-1-2.2-2.6-2.2-4.7c0-1.9,0.7-3.5,2.1-4.8
			c1.4-1.3,3.5-1.9,6.3-1.9c2.3,0,4.3,0.6,5.9,1.8c1.6,1.2,2.5,3,2.6,5.3h-4.3c-0.1-1.3-0.7-2.2-1.7-2.8c-0.7-0.4-1.6-0.5-2.7-0.5
			c-1.2,0-2.1,0.2-2.9,0.7c-0.7,0.5-1.1,1.1-1.1,2c0,0.8,0.4,1.3,1.1,1.7c0.5,0.3,1.4,0.6,2.9,0.9l3.8,0.9c1.7,0.4,2.9,0.9,3.7,1.6
			c1.3,1,1.9,2.5,1.9,4.4c0,2-0.8,3.6-2.3,4.9c-1.5,1.3-3.7,2-6.5,2c-2.8,0-5.1-0.6-6.7-1.9c-1.6-1.3-2.4-3-2.4-5.3H258.2z"/>
		<path d="M299.4,14.3c0.7,0.9,1,2,1,3.3c0,1.3-0.3,2.4-1,3.2c-0.4,0.4-0.9,0.9-1.6,1.2c1.1,0.4,1.9,1,2.5,1.9
			c0.6,0.9,0.8,1.9,0.8,3.2c0,1.3-0.3,2.4-1,3.4c-0.4,0.7-0.9,1.2-1.5,1.7c-0.7,0.5-1.5,0.9-2.4,1.1c-0.9,0.2-2,0.3-3.1,0.3h-9.7V12
			h10.4C296.5,12,298.3,12.8,299.4,14.3z M287.7,15.8v4.8h5.2c0.9,0,1.7-0.2,2.3-0.5c0.6-0.4,0.9-1,0.9-1.9c0-1-0.4-1.7-1.2-2
			c-0.7-0.2-1.5-0.3-2.6-0.3H287.7z M287.7,24.1v5.8h5.2c0.9,0,1.7-0.1,2.2-0.4c0.9-0.5,1.4-1.4,1.4-2.7c0-1.1-0.5-1.9-1.4-2.3
			c-0.5-0.2-1.2-0.4-2.2-0.4H287.7z"/>
		<path d="M321.6,31.7c-1.6,1.7-4,2.5-7.1,2.5s-5.4-0.8-7.1-2.5c-2.2-2.1-3.3-5-3.3-8.9c0-4,1.1-6.9,3.3-8.9c1.6-1.7,4-2.5,7.1-2.5
			s5.4,0.8,7.1,2.5c2.2,2,3.3,5,3.3,8.9C324.9,26.7,323.8,29.6,321.6,31.7z M318.8,28.4c1-1.3,1.6-3.2,1.6-5.6
			c0-2.4-0.5-4.3-1.6-5.6c-1.1-1.3-2.5-2-4.3-2s-3.2,0.7-4.3,2s-1.6,3.2-1.6,5.6s0.5,4.3,1.6,5.6s2.5,2,4.3,2S317.8,29.7,318.8,28.4
			z"/>
		<path d="M341,12.5c1.5,0.5,2.7,1.4,3.7,2.7c0.8,1.1,1.3,2.2,1.5,3.5c0.3,1.2,0.4,2.4,0.4,3.6c0,2.9-0.6,5.3-1.7,7.3
			c-1.6,2.7-4,4-7.2,4h-9.3V12h9.3C339,12,340.1,12.2,341,12.5z M332.7,15.8v14.1h4.2c2.1,0,3.6-1,4.5-3.1c0.5-1.2,0.7-2.5,0.7-4.1
			c0-2.2-0.3-3.9-1-5.1s-2.1-1.8-4.1-1.8H332.7z"/>
		<path d="M362.3,12h5.1l-7.2,13.5v8.1h-4.5v-8.1L348.2,12h5.3l4.5,9.4L362.3,12z"/>
	</g>
</g>
<g id="Layer_3">
</g>
<g id="Layer_2">
</g>
</svg>
