<?xml version="1.0" encoding="utf-8"?>
<!-- Generator: Adobe Illustrator 25.2.1, SVG Export Plug-In . SVG Version: 6.00 Build 0)  -->
<svg version="1.1" xmlns="http://www.w3.org/2000/svg" xmlns:xlink="http://www.w3.org/1999/xlink" x="0px" y="0px" width="494.5px"
	 height="399.1px" viewBox="0 0 494.5 399.1" style="enable-background:new 0 0 494.5 399.1;" xml:space="preserve">
<g id="Layer_1">
</g>
<g id="Layer_3">
	<rect x="9.2" y="0" style="fill:#D6D6D6;" width="476.9" height="398.5"/>
	<g>
		<defs>
			<rect id="SVGID_1_" x="525.9" y="0" width="476.9" height="398.5"/>
		</defs>
		<clipPath id="SVGID_2_">
			<use xlink:href="#SVGID_1_"  style="overflow:visible;"/>
		</clipPath>
		<path style="clip-path:url(#SVGID_2_);fill:none;stroke:#8BB9FF;stroke-width:4;stroke-miterlimit:10;" d="M756.4,91.9
			c0,0-50.5,44.4-168.4,5s-104.8,9.8-143.2,12.5"/>
		<path style="clip-path:url(#SVGID_2_);fill:none;stroke:#8BB9FF;stroke-width:4;stroke-miterlimit:10;" d="M488.6,175.4
			c0,0,44.2-26.4,76-37.3c31.8-10.9,32.6-38.2,32.6-38.2"/>
	</g>
	<g>
		<defs>
			<rect id="SVGID_3_" x="9.2" y="204" width="230.1" height="194.4"/>
		</defs>
		<clipPath id="SVGID_4_">
			<use xlink:href="#SVGID_3_"  style="overflow:visible;"/>
		</clipPath>
		<path style="clip-path:url(#SVGID_4_);fill:#FFEBC3;" d="M229.1,400.7c-17.8-7.9-49.9-11.4-66.7-18.7
			c-16.8-7.4-39.9-32.6-39.9-32.6c-19.9-8.7-12-19.6-20.8,0.3l0,0c-12,27.3-22.4,49.2,4.9,61.2"/>
		<path style="clip-path:url(#SVGID_4_);fill:#A6AD00;" d="M89.2,387.1c8.6-0.9,16.4-3.4,22.6-7.5c6.2,15.4,21.3,30.2,41.7,39.2
			l75.5-18.2c-17.7-7.8-49.9-11.3-66.7-18.7c-16.8-7.4-39.9-32.6-39.9-32.6c-19.9-8.7-12-19.6-20.8,0.3
			C95.4,363.8,89.6,376.5,89.2,387.1"/>
		<path style="clip-path:url(#SVGID_4_);stroke:#000000;" d="M105.7,348.4l7.6-67.4c0.8-7-3.8-12.9-10.2-13.7l-10-1.1
			c-6.4-0.7-13.1,3.9-15.1,10.8l-19.1,66.1c-3.8,13.1,0.9,25.6,10.8,26.7l15.3,1.7C94.9,372.7,104.2,361.8,105.7,348.4z"/>
		<path style="clip-path:url(#SVGID_4_);fill:#A6AD00;" d="M147.7,272.4l-38.8-4.3c-15.5-1.7-29.5,9.4-31.3,25l0,0l-0.5,4.4
			c-0.2,1.8-0.3,3.5-0.3,5.2L62.7,301c-8.8-1-16.8,5.3-17.8,14.2l0,0l-1,8.9c-1,8.8,5.4,16.8,14.2,17.8l36.3,4.1
			c9.4,9.2,21.6,14.9,34.6,16.4l8.4,0.9c10.7,1.2,20.3-6.5,21.5-17.2l5.9-52.4C166,283.1,158.3,273.5,147.7,272.4z"/>
		<path style="clip-path:url(#SVGID_4_);stroke:#000000;" d="M129.5,351.1l7.6-67.4c0.8-7,6.6-11.8,13-11.1l10,1.1
			c6.4,0.7,11.9,6.7,12.4,13.9l4,68.7c0.8,13.6-6.5,24.8-16.4,23.7l-15.3-1.7C134.7,377.1,128,364.4,129.5,351.1z"/>
		<path style="clip-path:url(#SVGID_4_);fill:none;stroke:#000000;" d="M56.3,335.5c2.9,1.3,8.1,3.5,13,4.4c0.6,0.1,1.2,0.2,1.8,0.3
			c10.8,1.2,17.6-1.2,20.5-2.6c1.1-0.5,1.6-0.9,1.6-0.9"/>
		
			<ellipse transform="matrix(0.5253 -0.8509 0.8509 0.5253 -200.1788 218.3364)" style="clip-path:url(#SVGID_4_);fill:#FFFFFF;" cx="95.6" cy="288.6" rx="12.4" ry="12.4"/>
		
			<ellipse transform="matrix(0.5253 -0.8509 0.8509 0.5253 -199.6467 245.0595)" style="clip-path:url(#SVGID_4_);fill:#FFFFFF;" cx="119.8" cy="301.5" rx="12.4" ry="12.4"/>
		<path id="Nose-2_6_" style="clip-path:url(#SVGID_4_);stroke:#000000;" d="M94.8,304.3l-24.2-2.7"/>
		<path id="nose_5_" style="clip-path:url(#SVGID_4_);stroke:#000000;" d="M44.9,315.2l-0.7,5.9c6,11.3,20,15.6,31.3,9.6
			c6.7-3.6,11.3-10.3,12.2-17.9c0.3-3,0.1-6.1-0.8-9l-24.3-2.7c-8.7-1.1-16.7,5.2-17.8,14C44.9,315,44.9,315.1,44.9,315.2z"/>
		<path style="clip-path:url(#SVGID_4_);fill:#FF848F;" d="M92,340.6v13c0,6.2-5.1,11.3-11.3,11.3c-6.2,0-11.3-5.1-11.3-11.3v-13.2
			c0.6,0.1,1.2,0.2,1.8,0.3c10.8,1.2,17.6-1.2,20.5-2.6C91.9,338.9,92,339.7,92,340.6z"/>
		
			<ellipse transform="matrix(0.1994 -0.9799 0.9799 0.1994 -203.5856 325.4867)" style="clip-path:url(#SVGID_4_);stroke:#000000;" cx="97.4" cy="287.3" rx="10.5" ry="10.5"/>
		
			<ellipse transform="matrix(0.1994 -0.9799 0.9799 0.1994 -197.1865 359.3266)" style="clip-path:url(#SVGID_4_);stroke:#000000;" cx="121.3" cy="300.3" rx="10.5" ry="10.5"/>
	</g>
	<rect x="9.2" y="0" style="fill:none;stroke:#000000;stroke-miterlimit:10;" width="476.9" height="398.5"/>
	<g>
		<path id="sock_2_" style="fill:#A6AD8A;" d="M417.8,36.3l48.3,12.9l-43.5,101.9c0,0-4.9,16-31.9,15.1c-27-0.9-33.7-10.6-55.4-16
			c-21.7-5.3-24.8-8-27.9-24.8c-3.1-16.8,14.6-27.2,25.3-20.3c10.6,7,35,21.6,45.2,19.4c10.2-2.2,16.8-19.7,13.7-12.4L417.8,36.3z"
			/>
		<polygon style="fill:#FFEBC3;" points="414.3,46.4 462,58.8 459.1,65.8 412,53.2 		"/>
		<polygon style="fill:#FFEBC3;" points="457.3,69.9 454.2,77.2 407.7,65.8 410.3,58.2 		"/>
		<path style="fill:#FFEBC3;" d="M417.8,36.3l48.3,12.9c0,0-2-4.4-22.3-9.9S417.8,36.3,417.8,36.3z"/>
	</g>
	<g>
		<path id="sock_3_" style="fill:#E1CC00;" d="M353.1,58.2l50-2.3l-10.7,110.3c0,0,0.2,16.7-25.9,24c-26.1,7.3-35.3,0-57.7,1.5
			s-26.1-0.1-34.1-15.3c-8-15.1,5.7-30.4,18-26.9c12.2,3.4,39.9,10,49,4.8c9.1-5.2,10.1-23.9,9.4-16L353.1,58.2z"/>
		<polygon style="fill:#FFEBC3;" points="352.9,68.9 402.1,66.4 401.4,73.9 352.7,76.1 		"/>
		<polygon style="fill:#FFEBC3;" points="400.9,78.3 400.2,86.3 352.3,89.4 352.5,81.3 		"/>
		<path style="fill:#FFEBC3;" d="M353.1,58.2l50-2.3c0,0-3.2-3.6-24.2-2.7S353.1,58.2,353.1,58.2z"/>
	</g>
	<g>
		<path id="sock_4_" style="fill:#7998B4;" d="M293.5,22.3l48.3,12.9l-43.5,101.9c0,0-4.9,16-31.9,15.1c-27-0.9-33.7-10.6-55.4-16
			c-21.7-5.3-24.8-8-27.9-24.8c-3.1-16.8,14.6-27.2,25.3-20.3c10.6,7,35,21.6,45.2,19.4c10.2-2.2,16.8-19.7,13.7-12.4L293.5,22.3z"
			/>
		<polygon style="fill:#FFEBC3;" points="290,32.4 337.7,44.9 334.8,51.8 287.7,39.3 		"/>
		<polygon style="fill:#FFEBC3;" points="333,55.9 329.9,63.3 283.3,51.8 285.9,44.2 		"/>
		<path style="fill:#FFEBC3;" d="M293.5,22.3l48.3,12.9c0,0-2-4.4-22.3-9.9S293.5,22.3,293.5,22.3z"/>
	</g>
	<g>
		<path id="sock_5_" style="fill:#FF848F;" d="M222.9,49.1l50,2.4l-21,108.8c0,0-1.4,16.6-28,21.5c-26.6,4.8-35.2-3.3-57.5-3.9
			s-26-2.6-32.5-18.4c-6.6-15.8,8.6-29.7,20.4-25.1s38.8,13.7,48.3,9.4c9.5-4.3,12.3-22.8,10.8-15L222.9,49.1z"/>
		<polygon style="fill:#FFEBC3;" points="221.6,59.8 270.9,61.9 269.5,69.3 220.8,66.9 		"/>
		<polygon style="fill:#FFEBC3;" points="268.6,73.6 267.1,81.5 219.2,80.1 220.1,72.1 		"/>
		<path style="fill:#FFEBC3;" d="M222.9,49.1l50,2.4c0,0-2.9-3.9-23.9-5S222.9,49.1,222.9,49.1z"/>
	</g>
	<g>
		<path id="sock_6_" style="fill:#A6AD8A;" d="M148.6,14.4L197,27.3l-43.5,101.9c0,0-4.9,16-31.9,15.1s-33.7-10.6-55.4-16
			c-21.7-5.3-24.8-8-27.9-24.8c-3.1-16.8,14.6-27.2,25.3-20.3c10.6,7,35,21.6,45.2,19.4c10.2-2.2,16.8-19.7,13.7-12.4L148.6,14.4z"
			/>
		<polygon style="fill:#FFEBC3;" points="145.2,24.6 192.9,37 189.9,43.9 142.8,31.4 		"/>
		<polygon style="fill:#FFEBC3;" points="188.2,48 185,55.4 138.5,43.9 141.1,36.3 		"/>
		<path style="fill:#FFEBC3;" d="M148.6,14.4L197,27.3c0,0-2-4.4-22.3-9.9S148.6,14.4,148.6,14.4z"/>
	</g>
	<g>
		<path id="sock_9_" style="fill:#A6AD00;" d="M427.7,119.3l44.5,22.8l-63.9,90.5c0,0-8.1,14.6-34.4,8
			c-26.3-6.6-30.7-17.5-50.8-27.3c-20.1-9.8-22.6-13-22.1-30.2c0.5-17.1,20-23.5,29-14.5c8.9,9,29.7,28.5,40.1,28.5
			c10.4,0,20.6-15.7,16.1-9.2L427.7,119.3z"/>
		<polygon style="fill:#FFEBC3;" points="422.2,128.5 466.2,150.7 461.9,156.9 418.5,134.7 		"/>
		<polygon style="fill:#FFEBC3;" points="459.3,160.5 454.6,167.1 411.6,146 415.7,139.2 		"/>
		<path style="fill:#FFEBC3;" d="M427.7,119.3l44.5,22.8c0,0-1-4.7-19.7-14.4C433.9,118.1,427.7,119.3,427.7,119.3z"/>
	</g>
	<g>
		<path id="sock_8_" style="fill:#A6DDC4;" d="M219.3,286l35.4,35.3l66.3-88.8c0,0,11.4-12.2-3-35.2c-14.3-22.9-26.1-23.8-41.6-39.9
			S257.1,140,241,145.8c-16.1,5.8-16.2,26.3-4.8,32c11.4,5.7,36.3,19.5,39.5,29.4c3.2,9.9-8.6,24.5-3.8,18.1L219.3,286z"/>
		<polygon style="fill:#FFEBC3;" points="226.3,277.9 261,312.9 265.6,306.9 231,272.5 		"/>
		<polygon style="fill:#FFEBC3;" points="268.2,303.3 273,296.9 239.7,262.4 234.5,268.5 		"/>
		<path style="fill:#FFEBC3;" d="M219.3,286l35.4,35.3c0,0-4.8,0.5-19.8-14.3C220.1,292.3,219.3,286,219.3,286z"/>
	</g>
	<g>
		<path id="sock_10_" style="fill:#FF848F;" d="M400.3,174.1l48.3,12.9l-43.5,101.9c0,0-4.9,16-31.9,15.1c-27-0.9-33.7-10.6-55.4-16
			s-24.8-8-27.9-24.8c-3.1-16.8,14.6-27.2,25.3-20.3c10.6,7,35,21.6,45.2,19.4c10.2-2.2,16.8-19.7,13.7-12.4L400.3,174.1z"/>
		<polygon style="fill:#FFEBC3;" points="396.8,184.2 444.5,196.6 441.6,203.6 394.5,191 		"/>
		<polygon style="fill:#FFEBC3;" points="439.8,207.6 436.7,215 390.1,203.6 392.8,196 		"/>
		<path style="fill:#FFEBC3;" d="M400.3,174.1l48.3,12.9c0,0-2-4.4-22.3-9.9C406.1,171.6,400.3,174.1,400.3,174.1z"/>
	</g>
	<g>
		<path id="sock_11_" style="fill:#A6AD00;" d="M152.8,60l48.3,12.9l-43.5,101.9c0,0-4.9,16-31.9,15.1s-33.7-10.6-55.4-16
			c-21.7-5.3-24.8-8-27.9-24.8c-3.1-16.8,14.6-27.2,25.3-20.3c10.6,7,35,21.6,45.2,19.4c10.2-2.2,16.8-19.7,13.7-12.4L152.8,60z"/>
		<polygon style="fill:#FFEBC3;" points="149.3,70.1 197,82.6 194.1,89.5 146.9,77 		"/>
		<polygon style="fill:#FFEBC3;" points="192.3,93.6 189.2,101 142.6,89.5 145.2,81.9 		"/>
		<path style="fill:#FFEBC3;" d="M152.8,60l48.3,12.9c0,0-2-4.4-22.3-9.9S152.8,60,152.8,60z"/>
	</g>
	<g>
		<path id="sock_7_" style="fill:#7998B4;" d="M331.9,197.5l49.8-5L377,303.2c0,0,1.1,16.7-24.6,25.4s-35.3,1.9-57.5,4.6
			s-26,1.3-34.9-13.4c-8.8-14.7,4.1-30.6,16.5-27.9s40.4,7.9,49.2,2.2s8.8-24.4,8.5-16.5L331.9,197.5z"/>
		<polygon style="fill:#FFEBC3;" points="332.2,208.2 381.2,203 380.9,210.5 332.4,215.4 		"/>
		<polygon style="fill:#FFEBC3;" points="380.7,215 380.4,223 332.8,228.7 332.6,220.7 		"/>
		<path style="fill:#FFEBC3;" d="M331.9,197.5l49.8-5c0,0-3.4-3.4-24.4-1.4C336.4,193.1,331.9,197.5,331.9,197.5z"/>
	</g>
	<g>
		<path id="sock_12_" style="fill:#577700;" d="M402,254.4l48.3,12.9l-43.5,101.9c0,0-4.9,16-31.9,15.1s-33.7-10.6-55.4-16
			c-21.7-5.3-24.8-8-27.9-24.8c-3.1-16.8,14.6-27.2,25.3-20.3c10.6,7,35,21.6,45.2,19.4c10.2-2.2,16.8-19.7,13.7-12.4L402,254.4z"/>
		<polygon style="fill:#FFEBC3;" points="398.5,264.5 446.2,276.9 443.2,283.9 396.1,271.3 		"/>
		<polygon style="fill:#FFEBC3;" points="441.5,288 438.4,295.3 391.8,283.9 394.4,276.3 		"/>
		<path style="fill:#FFEBC3;" d="M402,254.4l48.3,12.9c0,0-2-4.4-22.3-9.9C407.7,251.9,402,254.4,402,254.4z"/>
	</g>
	<g>
		<path d="M33.2,214.4l1.3,5.8l0.3,1.6l0.3-1.6l1.1-5.8h2.2l1.2,5.8l0.3,1.6l0.3-1.5l1.3-5.8h2.1L41,224.5h-2l-1.2-5.9l-0.4-1.9
			l-0.4,1.9l-1.2,5.9h-2L31,214.4H33.2z"/>
		<path d="M49.5,217.2c0.5,0.2,0.9,0.6,1.3,1.1c0.3,0.4,0.5,1,0.6,1.5c0.1,0.3,0.1,0.8,0.1,1.5H46c0,0.7,0.3,1.3,0.8,1.6
			c0.3,0.2,0.7,0.3,1.1,0.3c0.4,0,0.8-0.1,1.1-0.3c0.2-0.1,0.3-0.3,0.4-0.5h2c-0.1,0.4-0.3,0.9-0.7,1.3c-0.7,0.7-1.6,1.1-2.8,1.1
			c-1,0-1.9-0.3-2.6-0.9c-0.8-0.6-1.1-1.6-1.1-3c0-1.3,0.3-2.3,1-3c0.7-0.7,1.6-1,2.7-1C48.4,216.8,49,217,49.5,217.2z M46.6,218.9
			c-0.3,0.3-0.4,0.7-0.5,1.2h3.4c0-0.5-0.2-0.9-0.5-1.2c-0.3-0.3-0.7-0.4-1.2-0.4C47.3,218.5,46.9,218.6,46.6,218.9z"/>
		<path d="M59.3,220c0.4,0,0.6-0.1,0.8-0.2c0.3-0.1,0.4-0.3,0.4-0.6c0-0.3-0.1-0.5-0.3-0.6c-0.2-0.1-0.5-0.2-0.9-0.2
			c-0.5,0-0.8,0.1-1,0.3c-0.1,0.2-0.2,0.4-0.3,0.7h-1.9c0-0.7,0.2-1.2,0.5-1.6c0.5-0.7,1.4-1,2.7-1c0.8,0,1.5,0.2,2.2,0.5
			c0.6,0.3,1,0.9,1,1.8v3.4c0,0.2,0,0.5,0,0.9c0,0.3,0.1,0.4,0.1,0.5c0.1,0.1,0.2,0.2,0.3,0.2v0.3h-2.1c-0.1-0.2-0.1-0.3-0.1-0.4
			c0-0.1,0-0.3-0.1-0.5c-0.3,0.3-0.6,0.5-0.9,0.7c-0.4,0.2-0.9,0.4-1.4,0.4c-0.7,0-1.2-0.2-1.7-0.6c-0.4-0.4-0.7-0.9-0.7-1.6
			c0-0.9,0.4-1.6,1.1-2c0.4-0.2,1-0.4,1.7-0.5L59.3,220z M60.5,220.9c-0.1,0.1-0.3,0.1-0.4,0.2c-0.1,0-0.3,0.1-0.5,0.1l-0.4,0.1
			c-0.4,0.1-0.7,0.2-0.9,0.3c-0.3,0.2-0.5,0.5-0.5,0.8c0,0.3,0.1,0.6,0.3,0.7c0.2,0.1,0.4,0.2,0.7,0.2c0.4,0,0.8-0.1,1.2-0.4
			s0.5-0.7,0.6-1.3V220.9z"/>
		<path d="M66.1,224.5h-1.9v-10.1h1.9V224.5z"/>
		<path d="M71.5,217h2l1.1,5.4l1.2-5.4h2l-2.2,7.5h-2l-1.2-5.4l-1.2,5.4h-2l-2.1-7.5h2.1l1.2,5.3L71.5,217z"/>
		<path d="M81.8,220c0.4,0,0.6-0.1,0.8-0.2c0.3-0.1,0.4-0.3,0.4-0.6c0-0.3-0.1-0.5-0.3-0.6c-0.2-0.1-0.5-0.2-0.9-0.2
			c-0.5,0-0.8,0.1-1,0.3c-0.1,0.2-0.2,0.4-0.3,0.7h-1.9c0-0.7,0.2-1.2,0.5-1.6c0.5-0.7,1.4-1,2.7-1c0.8,0,1.5,0.2,2.2,0.5
			c0.6,0.3,1,0.9,1,1.8v3.4c0,0.2,0,0.5,0,0.9c0,0.3,0.1,0.4,0.1,0.5c0.1,0.1,0.2,0.2,0.3,0.2v0.3h-2.1c-0.1-0.2-0.1-0.3-0.1-0.4
			c0-0.1,0-0.3-0.1-0.5c-0.3,0.3-0.6,0.5-0.9,0.7c-0.4,0.2-0.9,0.4-1.4,0.4c-0.7,0-1.2-0.2-1.7-0.6c-0.4-0.4-0.7-0.9-0.7-1.6
			c0-0.9,0.4-1.6,1.1-2c0.4-0.2,1-0.4,1.7-0.5L81.8,220z M83,220.9c-0.1,0.1-0.3,0.1-0.4,0.2c-0.1,0-0.3,0.1-0.5,0.1l-0.4,0.1
			c-0.4,0.1-0.7,0.2-0.9,0.3c-0.3,0.2-0.5,0.5-0.5,0.8c0,0.3,0.1,0.6,0.3,0.7c0.2,0.1,0.4,0.2,0.7,0.2c0.4,0,0.8-0.1,1.2-0.4
			s0.5-0.7,0.6-1.3V220.9z"/>
		<path d="M87,225.9l0.2,0c0.2,0,0.4,0,0.5,0c0.2,0,0.3-0.1,0.4-0.2c0.1-0.1,0.2-0.2,0.3-0.5c0.1-0.2,0.1-0.4,0.1-0.5l-2.7-7.8h2.2
			l1.6,5.5l1.5-5.5h2.1l-2.6,7.3c-0.5,1.4-0.9,2.3-1.2,2.6c-0.3,0.3-0.9,0.5-1.7,0.5c-0.2,0-0.3,0-0.4,0c-0.1,0-0.3,0-0.5,0V225.9z"
			/>
		<path d="M96,222.1c0,0.3,0.1,0.6,0.3,0.7c0.2,0.3,0.7,0.4,1.3,0.4c0.4,0,0.7-0.1,0.9-0.2s0.3-0.3,0.3-0.5c0-0.2-0.1-0.4-0.3-0.5
			s-0.9-0.3-2-0.6c-0.8-0.2-1.4-0.5-1.8-0.8c-0.3-0.3-0.5-0.8-0.5-1.3c0-0.7,0.3-1.3,0.8-1.8c0.5-0.5,1.3-0.7,2.3-0.7
			c0.9,0,1.7,0.2,2.3,0.6c0.6,0.4,0.9,1,1,1.9h-1.9c0-0.3-0.1-0.4-0.2-0.6c-0.2-0.3-0.6-0.4-1.1-0.4c-0.4,0-0.7,0.1-0.9,0.2
			c-0.2,0.1-0.3,0.3-0.3,0.5c0,0.2,0.1,0.4,0.3,0.5c0.2,0.1,0.9,0.3,2,0.5c0.8,0.2,1.4,0.5,1.7,0.8c0.4,0.4,0.6,0.8,0.6,1.4
			c0,0.7-0.3,1.3-0.8,1.8c-0.6,0.5-1.4,0.7-2.6,0.7c-1.2,0-2-0.2-2.6-0.7c-0.6-0.5-0.8-1.1-0.8-1.9H96z"/>
		<path d="M109.7,217h2l1.1,5.4l1.2-5.4h2l-2.2,7.5h-2l-1.2-5.4l-1.2,5.4h-2l-2.1-7.5h2.1l1.2,5.3L109.7,217z"/>
		<path d="M123.2,223.6c-0.6,0.8-1.6,1.2-2.9,1.2c-1.3,0-2.2-0.4-2.9-1.2s-0.9-1.7-0.9-2.8c0-1.1,0.3-2,0.9-2.8s1.6-1.2,2.9-1.2
			c1.3,0,2.2,0.4,2.9,1.2s0.9,1.7,0.9,2.8C124.2,221.9,123.9,222.8,123.2,223.6z M121.7,222.5c0.3-0.4,0.5-1,0.5-1.7
			c0-0.7-0.2-1.3-0.5-1.7c-0.3-0.4-0.7-0.6-1.3-0.6c-0.6,0-1,0.2-1.3,0.6c-0.3,0.4-0.5,1-0.5,1.7c0,0.7,0.2,1.3,0.5,1.7
			s0.7,0.6,1.3,0.6C120.9,223.1,121.4,222.9,121.7,222.5z"/>
		<path d="M131.6,217.5c0.5,0.4,0.7,1.1,0.7,2v5h-2V220c0-0.4-0.1-0.7-0.2-0.9c-0.2-0.4-0.6-0.6-1.1-0.6c-0.7,0-1.1,0.3-1.4,0.8
			c-0.1,0.3-0.2,0.7-0.2,1.1v4h-1.9v-7.4h1.9v1.1c0.2-0.4,0.5-0.7,0.7-0.8c0.4-0.3,0.9-0.5,1.5-0.5
			C130.5,216.9,131.1,217.1,131.6,217.5z"/>
		<path d="M138.1,217.2c0.4,0.2,0.6,0.5,0.9,0.8v-3.6h2v10.1H139v-1c-0.3,0.4-0.6,0.8-1,1s-0.8,0.3-1.3,0.3c-0.9,0-1.6-0.4-2.2-1.1
			c-0.6-0.7-0.9-1.6-0.9-2.7c0-1.3,0.3-2.3,0.9-3c0.6-0.7,1.4-1.1,2.3-1.1C137.3,216.9,137.7,217,138.1,217.2z M138.6,222.5
			c0.3-0.4,0.4-0.9,0.4-1.6c0-0.9-0.2-1.6-0.7-2c-0.3-0.2-0.6-0.4-1-0.4c-0.6,0-1,0.2-1.3,0.6c-0.3,0.4-0.4,1-0.4,1.6
			c0,0.7,0.1,1.2,0.4,1.7c0.3,0.4,0.7,0.6,1.2,0.6C137.9,223.1,138.3,222.9,138.6,222.5z"/>
		<path d="M147.5,217.2c0.5,0.2,0.9,0.6,1.3,1.1c0.3,0.4,0.5,1,0.6,1.5c0.1,0.3,0.1,0.8,0.1,1.5h-5.4c0,0.7,0.3,1.3,0.8,1.6
			c0.3,0.2,0.7,0.3,1.1,0.3c0.4,0,0.8-0.1,1.1-0.3c0.2-0.1,0.3-0.3,0.4-0.5h2c-0.1,0.4-0.3,0.9-0.7,1.3c-0.7,0.7-1.6,1.1-2.8,1.1
			c-1,0-1.9-0.3-2.6-0.9c-0.8-0.6-1.1-1.6-1.1-3c0-1.3,0.3-2.3,1-3c0.7-0.7,1.6-1,2.7-1C146.4,216.8,147,217,147.5,217.2z
			 M144.6,218.9c-0.3,0.3-0.4,0.7-0.5,1.2h3.4c0-0.5-0.2-0.9-0.5-1.2c-0.3-0.3-0.7-0.4-1.2-0.4C145.3,218.5,144.9,218.6,144.6,218.9
			z"/>
		<path d="M154.6,216.9c0,0,0.1,0,0.2,0v2c-0.1,0-0.2,0-0.3,0s-0.2,0-0.2,0c-0.8,0-1.3,0.3-1.6,0.8c-0.2,0.3-0.2,0.7-0.2,1.3v3.6h-2
			V217h1.9v1.3c0.3-0.5,0.6-0.8,0.8-1C153.5,217,153.9,216.9,154.6,216.9C154.6,216.9,154.6,216.9,154.6,216.9z"/>
		<path d="M165.2,217.1c0.4,0.2,0.7,0.4,0.9,0.7c0.2,0.3,0.3,0.6,0.4,0.9c0,0.3,0.1,0.8,0.1,1.4v4.4h-2V220c0-0.4-0.1-0.7-0.2-1
			c-0.2-0.3-0.5-0.5-1-0.5c-0.5,0-0.9,0.2-1.2,0.5s-0.4,0.8-0.4,1.5v4h-1.9v-10h1.9v3.6c0.3-0.4,0.6-0.7,1-0.9
			c0.4-0.2,0.8-0.3,1.2-0.3C164.4,216.8,164.8,216.9,165.2,217.1z"/>
		<path d="M174.6,223.6c-0.6,0.8-1.6,1.2-2.9,1.2c-1.3,0-2.2-0.4-2.9-1.2s-0.9-1.7-0.9-2.8c0-1.1,0.3-2,0.9-2.8s1.6-1.2,2.9-1.2
			c1.3,0,2.2,0.4,2.9,1.2s0.9,1.7,0.9,2.8C175.5,221.9,175.2,222.8,174.6,223.6z M173,222.5c0.3-0.4,0.5-1,0.5-1.7
			c0-0.7-0.2-1.3-0.5-1.7c-0.3-0.4-0.7-0.6-1.3-0.6c-0.6,0-1,0.2-1.3,0.6c-0.3,0.4-0.5,1-0.5,1.7c0,0.7,0.2,1.3,0.5,1.7
			s0.7,0.6,1.3,0.6C172.3,223.1,172.7,222.9,173,222.5z"/>
		<path d="M180.4,217h2l1.1,5.4l1.2-5.4h2l-2.2,7.5h-2l-1.2-5.4l-1.2,5.4h-2l-2.1-7.5h2.1l1.2,5.3L180.4,217z"/>
		<path d="M201,217.1c0.3,0.1,0.6,0.4,0.9,0.7c0.2,0.3,0.4,0.6,0.4,1c0,0.3,0.1,0.6,0.1,1.1l0,4.7h-2v-4.7c0-0.3,0-0.5-0.1-0.7
			c-0.2-0.3-0.5-0.5-1-0.5c-0.5,0-0.9,0.2-1.1,0.7c-0.1,0.2-0.2,0.5-0.2,0.9v4.4h-2v-4.4c0-0.4,0-0.8-0.1-1c-0.2-0.4-0.5-0.5-1-0.5
			c-0.6,0-0.9,0.2-1.1,0.5c-0.1,0.2-0.2,0.5-0.2,0.9v4.5h-2v-7.4h1.9v1.1c0.2-0.4,0.5-0.7,0.7-0.8c0.4-0.3,0.9-0.4,1.5-0.4
			c0.6,0,1,0.1,1.4,0.4c0.3,0.2,0.5,0.5,0.6,0.9c0.3-0.4,0.6-0.8,1-1c0.4-0.2,0.8-0.3,1.3-0.3C200.3,216.9,200.7,216.9,201,217.1z"
			/>
		<path d="M207.1,220c0.4,0,0.6-0.1,0.8-0.2c0.3-0.1,0.4-0.3,0.4-0.6c0-0.3-0.1-0.5-0.3-0.6c-0.2-0.1-0.5-0.2-0.9-0.2
			c-0.5,0-0.8,0.1-1,0.3c-0.1,0.2-0.2,0.4-0.3,0.7h-1.9c0-0.7,0.2-1.2,0.5-1.6c0.5-0.7,1.4-1,2.7-1c0.8,0,1.5,0.2,2.2,0.5
			c0.6,0.3,1,0.9,1,1.8v3.4c0,0.2,0,0.5,0,0.9c0,0.3,0.1,0.4,0.1,0.5c0.1,0.1,0.2,0.2,0.3,0.2v0.3h-2.1c-0.1-0.2-0.1-0.3-0.1-0.4
			c0-0.1,0-0.3-0.1-0.5c-0.3,0.3-0.6,0.5-0.9,0.7c-0.4,0.2-0.9,0.4-1.4,0.4c-0.7,0-1.2-0.2-1.7-0.6c-0.4-0.4-0.7-0.9-0.7-1.6
			c0-0.9,0.4-1.6,1.1-2c0.4-0.2,1-0.4,1.7-0.5L207.1,220z M208.3,220.9c-0.1,0.1-0.3,0.1-0.4,0.2c-0.1,0-0.3,0.1-0.5,0.1l-0.4,0.1
			c-0.4,0.1-0.7,0.2-0.9,0.3c-0.3,0.2-0.5,0.5-0.5,0.8c0,0.3,0.1,0.6,0.3,0.7c0.2,0.1,0.4,0.2,0.7,0.2c0.4,0,0.8-0.1,1.2-0.4
			s0.5-0.7,0.6-1.3V220.9z"/>
		<path d="M217.9,217.5c0.5,0.4,0.7,1.1,0.7,2v5h-2V220c0-0.4-0.1-0.7-0.2-0.9c-0.2-0.4-0.6-0.6-1.1-0.6c-0.7,0-1.1,0.3-1.4,0.8
			c-0.1,0.3-0.2,0.7-0.2,1.1v4h-1.9v-7.4h1.9v1.1c0.2-0.4,0.5-0.7,0.7-0.8c0.4-0.3,0.9-0.5,1.5-0.5
			C216.8,216.9,217.4,217.1,217.9,217.5z"/>
		<path d="M220.8,225.9l0.2,0c0.2,0,0.4,0,0.5,0s0.3-0.1,0.4-0.2c0.1-0.1,0.2-0.2,0.3-0.5c0.1-0.2,0.1-0.4,0.1-0.5l-2.7-7.8h2.2
			l1.6,5.5l1.5-5.5h2.1l-2.6,7.3c-0.5,1.4-0.9,2.3-1.2,2.6c-0.3,0.3-0.9,0.5-1.7,0.5c-0.2,0-0.3,0-0.4,0c-0.1,0-0.3,0-0.5,0V225.9z"
			/>
		<path d="M33.2,238.9c0,0.3,0.1,0.6,0.3,0.7c0.2,0.3,0.7,0.4,1.3,0.4c0.4,0,0.7-0.1,0.9-0.2s0.3-0.3,0.3-0.5c0-0.2-0.1-0.4-0.3-0.5
			s-0.9-0.3-2-0.6c-0.8-0.2-1.4-0.5-1.8-0.8c-0.3-0.3-0.5-0.8-0.5-1.3c0-0.7,0.3-1.3,0.8-1.8c0.5-0.5,1.3-0.7,2.3-0.7
			c0.9,0,1.7,0.2,2.3,0.6c0.6,0.4,0.9,1,1,1.9h-1.9c0-0.3-0.1-0.4-0.2-0.6c-0.2-0.3-0.6-0.4-1.1-0.4c-0.4,0-0.7,0.1-0.9,0.2
			c-0.2,0.1-0.3,0.3-0.3,0.5c0,0.2,0.1,0.4,0.3,0.5c0.2,0.1,0.9,0.3,2,0.5c0.8,0.2,1.4,0.5,1.7,0.8c0.4,0.4,0.6,0.8,0.6,1.4
			c0,0.7-0.3,1.3-0.8,1.8c-0.6,0.5-1.4,0.7-2.6,0.7c-1.2,0-2-0.2-2.6-0.7c-0.6-0.5-0.8-1.1-0.8-1.9H33.2z"/>
		<path d="M45.7,240.4c-0.6,0.8-1.6,1.2-2.9,1.2c-1.3,0-2.2-0.4-2.9-1.2s-0.9-1.7-0.9-2.8c0-1.1,0.3-2,0.9-2.8s1.6-1.2,2.9-1.2
			c1.3,0,2.2,0.4,2.9,1.2s0.9,1.7,0.9,2.8C46.6,238.7,46.3,239.6,45.7,240.4z M44.1,239.3c0.3-0.4,0.5-1,0.5-1.7
			c0-0.7-0.2-1.3-0.5-1.7c-0.3-0.4-0.7-0.6-1.3-0.6c-0.6,0-1,0.2-1.3,0.6c-0.3,0.4-0.5,1-0.5,1.7c0,0.7,0.2,1.3,0.5,1.7
			s0.7,0.6,1.3,0.6C43.4,239.9,43.8,239.7,44.1,239.3z"/>
		<path d="M52.5,236.5c0-0.3-0.1-0.5-0.3-0.8c-0.2-0.3-0.6-0.5-1-0.5c-0.7,0-1.1,0.3-1.3,1c-0.1,0.3-0.2,0.8-0.2,1.4
			c0,0.5,0.1,1,0.2,1.3c0.2,0.6,0.7,0.9,1.3,0.9c0.5,0,0.8-0.1,1-0.4c0.2-0.2,0.3-0.6,0.3-1h2c0,0.6-0.3,1.2-0.6,1.7
			c-0.6,0.9-1.5,1.3-2.7,1.3c-1.2,0-2.1-0.4-2.6-1.1s-0.8-1.6-0.8-2.8c0-1.3,0.3-2.3,0.9-3s1.5-1.1,2.6-1.1c0.9,0,1.7,0.2,2.3,0.6
			c0.6,0.4,0.9,1.2,1.1,2.2H52.5z"/>
		<path d="M55.8,231.3h1.9v5.4l2.5-2.8h2.4l-2.7,2.8l2.8,4.6h-2.4l-1.8-3.2l-0.8,0.8v2.3h-1.9V231.3z"/>
		<path d="M65.1,238.9c0,0.3,0.1,0.6,0.3,0.7c0.2,0.3,0.7,0.4,1.3,0.4c0.4,0,0.7-0.1,0.9-0.2s0.3-0.3,0.3-0.5c0-0.2-0.1-0.4-0.3-0.5
			s-0.9-0.3-2-0.6c-0.8-0.2-1.4-0.5-1.8-0.8c-0.3-0.3-0.5-0.8-0.5-1.3c0-0.7,0.3-1.3,0.8-1.8c0.5-0.5,1.3-0.7,2.3-0.7
			c0.9,0,1.7,0.2,2.3,0.6c0.6,0.4,0.9,1,1,1.9h-1.9c0-0.3-0.1-0.4-0.2-0.6c-0.2-0.3-0.6-0.4-1.1-0.4c-0.4,0-0.7,0.1-0.9,0.2
			c-0.2,0.1-0.3,0.3-0.3,0.5c0,0.2,0.1,0.4,0.3,0.5c0.2,0.1,0.9,0.3,2,0.5c0.8,0.2,1.4,0.5,1.7,0.8c0.4,0.4,0.6,0.8,0.6,1.4
			c0,0.7-0.3,1.3-0.8,1.8c-0.6,0.5-1.4,0.7-2.6,0.7c-1.2,0-2-0.2-2.6-0.7c-0.6-0.5-0.8-1.1-0.8-1.9H65.1z"/>
		<path d="M78.8,233.8h2l1.1,5.4l1.2-5.4h2l-2.2,7.5h-2l-1.2-5.4l-1.2,5.4h-2l-2.1-7.5h2.1l1.2,5.3L78.8,233.8z"/>
		<path d="M91,234c0.5,0.2,0.9,0.6,1.3,1.1c0.3,0.4,0.5,1,0.6,1.5c0.1,0.3,0.1,0.8,0.1,1.5h-5.4c0,0.7,0.3,1.3,0.8,1.6
			c0.3,0.2,0.7,0.3,1.1,0.3c0.4,0,0.8-0.1,1.1-0.3c0.2-0.1,0.3-0.3,0.4-0.5h2c-0.1,0.4-0.3,0.9-0.7,1.3c-0.7,0.7-1.6,1.1-2.8,1.1
			c-1,0-1.9-0.3-2.6-0.9c-0.8-0.6-1.1-1.6-1.1-3c0-1.3,0.3-2.3,1-3c0.7-0.7,1.6-1,2.7-1C89.9,233.6,90.5,233.8,91,234z M88.1,235.7
			c-0.3,0.3-0.4,0.7-0.5,1.2h3.4c0-0.5-0.2-0.9-0.5-1.2c-0.3-0.3-0.7-0.4-1.2-0.4C88.8,235.3,88.4,235.4,88.1,235.7z"/>
		<path d="M98.1,233.7c0,0,0.1,0,0.2,0v2c-0.1,0-0.2,0-0.3,0s-0.2,0-0.2,0c-0.8,0-1.3,0.3-1.6,0.8c-0.2,0.3-0.2,0.7-0.2,1.3v3.6h-2
			v-7.5h1.9v1.3c0.3-0.5,0.6-0.8,0.8-1C96.9,233.8,97.4,233.7,98.1,233.7C98,233.7,98.1,233.7,98.1,233.7z"/>
		<path d="M104.2,234c0.5,0.2,0.9,0.6,1.3,1.1c0.3,0.4,0.5,1,0.6,1.5c0.1,0.3,0.1,0.8,0.1,1.5h-5.4c0,0.7,0.3,1.3,0.8,1.6
			c0.3,0.2,0.7,0.3,1.1,0.3c0.4,0,0.8-0.1,1.1-0.3c0.2-0.1,0.3-0.3,0.4-0.5h2c-0.1,0.4-0.3,0.9-0.7,1.3c-0.7,0.7-1.6,1.1-2.8,1.1
			c-1,0-1.9-0.3-2.6-0.9c-0.8-0.6-1.1-1.6-1.1-3c0-1.3,0.3-2.3,1-3c0.7-0.7,1.6-1,2.7-1C103.1,233.6,103.7,233.8,104.2,234z
			 M101.3,235.7c-0.3,0.3-0.4,0.7-0.5,1.2h3.4c0-0.5-0.2-0.9-0.5-1.2c-0.3-0.3-0.7-0.4-1.2-0.4C102,235.3,101.6,235.4,101.3,235.7z"
			/>
		<path d="M114.2,231.1c0.1,0,0.2,0,0.4,0v1.6c-0.1,0-0.3,0-0.5,0c-0.3,0-0.4,0-0.5,0.2c-0.1,0.1-0.1,0.3-0.1,0.4s0,0.4,0,0.6h1.3
			v1.4h-1.3v6h-1.9v-6h-1.1v-1.4h1.1v-0.5c0-0.8,0.1-1.3,0.4-1.6c0.3-0.4,1-0.7,2-0.7C113.9,231.1,114.1,231.1,114.2,231.1z"/>
		<path d="M121.9,240.4c-0.6,0.8-1.6,1.2-2.9,1.2c-1.3,0-2.2-0.4-2.9-1.2s-0.9-1.7-0.9-2.8c0-1.1,0.3-2,0.9-2.8s1.6-1.2,2.9-1.2
			c1.3,0,2.2,0.4,2.9,1.2s0.9,1.7,0.9,2.8C122.9,238.7,122.6,239.6,121.9,240.4z M120.4,239.3c0.3-0.4,0.5-1,0.5-1.7
			c0-0.7-0.2-1.3-0.5-1.7c-0.3-0.4-0.7-0.6-1.3-0.6c-0.6,0-1,0.2-1.3,0.6c-0.3,0.4-0.5,1-0.5,1.7c0,0.7,0.2,1.3,0.5,1.7
			s0.7,0.6,1.3,0.6C119.6,239.9,120.1,239.7,120.4,239.3z"/>
		<path d="M126.2,233.8v4.5c0,0.4,0,0.7,0.1,1c0.2,0.4,0.5,0.6,1,0.6c0.7,0,1.1-0.3,1.4-0.8c0.1-0.3,0.2-0.7,0.2-1.2v-4.1h2v7.5H129
			v-1.1c0,0-0.1,0.1-0.1,0.2c-0.1,0.1-0.2,0.2-0.3,0.3c-0.3,0.3-0.6,0.5-0.9,0.6c-0.3,0.1-0.6,0.2-1,0.2c-1.1,0-1.8-0.4-2.2-1.2
			c-0.2-0.4-0.3-1.1-0.3-1.9v-4.5H126.2z"/>
		<path d="M138.8,234.3c0.5,0.4,0.7,1.1,0.7,2v5h-2v-4.5c0-0.4-0.1-0.7-0.2-0.9c-0.2-0.4-0.6-0.6-1.1-0.6c-0.7,0-1.1,0.3-1.4,0.8
			c-0.1,0.3-0.2,0.7-0.2,1.1v4h-1.9v-7.4h1.9v1.1c0.2-0.4,0.5-0.7,0.7-0.8c0.4-0.3,0.9-0.5,1.5-0.5
			C137.7,233.7,138.4,233.9,138.8,234.3z"/>
		<path d="M145.3,234c0.4,0.2,0.6,0.5,0.9,0.8v-3.6h2v10.1h-1.9v-1c-0.3,0.4-0.6,0.8-1,1s-0.8,0.3-1.3,0.3c-0.9,0-1.6-0.4-2.2-1.1
			c-0.6-0.7-0.9-1.6-0.9-2.7c0-1.3,0.3-2.3,0.9-3c0.6-0.7,1.4-1.1,2.3-1.1C144.6,233.7,145,233.8,145.3,234z M145.8,239.3
			c0.3-0.4,0.4-0.9,0.4-1.6c0-0.9-0.2-1.6-0.7-2c-0.3-0.2-0.6-0.4-1-0.4c-0.6,0-1,0.2-1.3,0.6c-0.3,0.4-0.4,1-0.4,1.6
			c0,0.7,0.1,1.2,0.4,1.7c0.3,0.4,0.7,0.6,1.2,0.6C145.1,239.9,145.5,239.7,145.8,239.3z"/>
		<path d="M155.8,233h-2v-1.8h2V233z M153.9,233.8h2v7.5h-2V233.8z"/>
		<path d="M163.7,234.3c0.5,0.4,0.7,1.1,0.7,2v5h-2v-4.5c0-0.4-0.1-0.7-0.2-0.9c-0.2-0.4-0.6-0.6-1.1-0.6c-0.7,0-1.1,0.3-1.4,0.8
			c-0.1,0.3-0.2,0.7-0.2,1.1v4h-1.9v-7.4h1.9v1.1c0.2-0.4,0.5-0.7,0.7-0.8c0.4-0.3,0.9-0.5,1.5-0.5
			C162.6,233.7,163.2,233.9,163.7,234.3z"/>
		<path d="M169.4,235.3v-1.4h1v-2.1h1.9v2.1h1.2v1.4h-1.2v3.9c0,0.3,0,0.5,0.1,0.6c0.1,0.1,0.3,0.1,0.7,0.1c0.1,0,0.1,0,0.2,0
			c0.1,0,0.1,0,0.2,0v1.5l-0.9,0c-0.9,0-1.5-0.1-1.9-0.5c-0.2-0.2-0.3-0.6-0.3-1v-4.6H169.4z"/>
		<path d="M180.2,233.9c0.4,0.2,0.7,0.4,0.9,0.7c0.2,0.3,0.3,0.6,0.4,0.9c0,0.3,0.1,0.8,0.1,1.4v4.4h-2v-4.5c0-0.4-0.1-0.7-0.2-1
			c-0.2-0.3-0.5-0.5-1-0.5c-0.5,0-0.9,0.2-1.2,0.5s-0.4,0.8-0.4,1.5v4h-1.9v-10h1.9v3.6c0.3-0.4,0.6-0.7,1-0.9
			c0.4-0.2,0.8-0.3,1.2-0.3C179.4,233.6,179.8,233.7,180.2,233.9z"/>
		<path d="M188.2,234c0.5,0.2,0.9,0.6,1.3,1.1c0.3,0.4,0.5,1,0.6,1.5c0.1,0.3,0.1,0.8,0.1,1.5h-5.4c0,0.7,0.3,1.3,0.8,1.6
			c0.3,0.2,0.7,0.3,1.1,0.3c0.4,0,0.8-0.1,1.1-0.3c0.2-0.1,0.3-0.3,0.4-0.5h2c-0.1,0.4-0.3,0.9-0.7,1.3c-0.7,0.7-1.6,1.1-2.8,1.1
			c-1,0-1.9-0.3-2.6-0.9c-0.8-0.6-1.1-1.6-1.1-3c0-1.3,0.3-2.3,1-3c0.7-0.7,1.6-1,2.7-1C187.1,233.6,187.7,233.8,188.2,234z
			 M185.3,235.7c-0.3,0.3-0.4,0.7-0.5,1.2h3.4c0-0.5-0.2-0.9-0.5-1.2c-0.3-0.3-0.7-0.4-1.2-0.4C186,235.3,185.6,235.4,185.3,235.7z"
			/>
		<path d="M195.3,233.7c0,0,0.1,0,0.2,0v2c-0.1,0-0.2,0-0.3,0s-0.2,0-0.2,0c-0.8,0-1.3,0.3-1.6,0.8c-0.2,0.3-0.2,0.7-0.2,1.3v3.6h-2
			v-7.5h1.9v1.3c0.3-0.5,0.6-0.8,0.8-1C194.2,233.8,194.6,233.7,195.3,233.7C195.2,233.7,195.3,233.7,195.3,233.7z"/>
		<path d="M201.5,234c0.5,0.2,0.9,0.6,1.3,1.1c0.3,0.4,0.5,1,0.6,1.5c0.1,0.3,0.1,0.8,0.1,1.5H198c0,0.7,0.3,1.3,0.8,1.6
			c0.3,0.2,0.7,0.3,1.1,0.3c0.4,0,0.8-0.1,1.1-0.3c0.2-0.1,0.3-0.3,0.4-0.5h2c-0.1,0.4-0.3,0.9-0.7,1.3c-0.7,0.7-1.6,1.1-2.8,1.1
			c-1,0-1.9-0.3-2.6-0.9c-0.8-0.6-1.1-1.6-1.1-3c0-1.3,0.3-2.3,1-3c0.7-0.7,1.6-1,2.7-1C200.4,233.6,200.9,233.8,201.5,234z
			 M198.5,235.7c-0.3,0.3-0.4,0.7-0.5,1.2h3.4c0-0.5-0.2-0.9-0.5-1.2c-0.3-0.3-0.7-0.4-1.2-0.4C199.2,235.3,198.8,235.4,198.5,235.7
			z"/>
		<path d="M205.7,231.6c0.5-0.3,1.2-0.5,2-0.5c1,0,1.9,0.2,2.6,0.7c0.7,0.5,1,1.2,1,2.2c0,0.6-0.1,1.1-0.4,1.5
			c-0.2,0.2-0.5,0.6-1,0.9l-0.5,0.4c-0.3,0.2-0.4,0.4-0.5,0.7c-0.1,0.2-0.1,0.4-0.1,0.8h-1.9c0-0.8,0.1-1.3,0.2-1.6
			c0.1-0.3,0.4-0.6,0.9-1l0.5-0.4c0.2-0.1,0.3-0.3,0.4-0.4c0.2-0.3,0.3-0.5,0.3-0.8c0-0.3-0.1-0.7-0.3-0.9c-0.2-0.3-0.6-0.4-1.1-0.4
			c-0.5,0-0.9,0.2-1.1,0.5s-0.3,0.7-0.3,1.1h-2C204.4,233.1,204.8,232.2,205.7,231.6z M206.8,239.3h2v2h-2V239.3z"/>
	</g>
</g>
<g id="Layer_2">
</g>
</svg>
