<?xml version="1.0" encoding="utf-8"?>
<!-- Generator: Adobe Illustrator 25.2.1, SVG Export Plug-In . SVG Version: 6.00 Build 0)  -->
<svg version="1.1" xmlns="http://www.w3.org/2000/svg" xmlns:xlink="http://www.w3.org/1999/xlink" x="0px" y="0px" width="494.5px"
	 height="399.1px" viewBox="0 0 494.5 399.1" style="enable-background:new 0 0 494.5 399.1;" xml:space="preserve">
<g id="Layer_1">
	<rect x="255.3" y="204" style="fill:#7998B4;" width="230.1" height="193.7"/>
	<g>
		<path style="fill:#FFEBC3;" d="M485.3,398.5v-10.7c-9.2-2.1-13.2-4.4-19.6-7.2c-17.5-7.7-41.5-33.9-41.5-33.9
			c-20.6-9.1-12.5-20.4-21.6,0.3c-9.1,20.8-17.4,38.6-10,51.5H485.3z"/>
		<path style="fill:#A6AD00;" d="M426.2,397.8h59.1v-10c-9.2-2.1-13.2-4.4-19.6-7.2c-17.5-7.7-41.5-33.9-41.5-33.9
			c-20.6-9.1-12.5-20.4-21.6,0.3c-6.5,14.7-12.5,27.9-12.9,39c9-0.9,17-3.6,23.5-7.8C416.1,385,420.5,391.6,426.2,397.8z"/>
		<path style="stroke:#000000;" d="M407,345.7l7.8-70c0.8-7.3-3.9-13.4-10.6-14.2l-10.4-1.2c-6.7-0.7-13.6,4.1-15.7,11.2l-19.8,68.7
			c-4,13.6,0.9,26.6,11.2,27.8l15.9,1.8C395.7,371,405.4,359.6,407,345.7z"/>
		<path style="fill:#A6AD00;" d="M450.6,266.7l-40.3-4.5c-16.1-1.8-30.7,9.8-32.5,25.9l0,0l-0.5,4.6c-0.2,1.8-0.3,3.6-0.4,5.4
			l-14.7-1.6c-9.2-1-17.4,5.5-18.5,14.8l0,0l-1,9.2c-1,9.2,5.6,17.5,14.8,18.5l37.7,4.2c9.7,9.5,22.4,15.5,36,17l8.8,1
			c11.1,1.2,21.1-6.7,22.3-17.8l6.1-54.4C469.6,277.9,461.6,268,450.6,266.7z"/>
		<path style="fill:none;stroke:#000000;" d="M355.7,332.4c3,1.4,8.4,3.6,13.5,4.5c0.6,0.1,1.2,0.2,1.8,0.3
			c11.2,1.3,18.3-1.3,21.3-2.7c1.1-0.5,1.7-0.9,1.7-0.9"/>
		
			<ellipse transform="matrix(0.5279 -0.8493 0.8493 0.5279 -53.6637 470.6082)" style="fill:#FFFFFF;" cx="396.5" cy="283.6" rx="12.9" ry="12.9"/>
		
			<ellipse transform="matrix(0.5279 -0.8493 0.8493 0.5279 -53.1544 498.3009)" style="fill:#FFFFFF;" cx="421.6" cy="297" rx="12.9" ry="12.9"/>
		<path id="Nose-2_4_" style="stroke:#000000;" d="M395.7,299.9l-25.1-2.8"/>
		<path id="nose_10_" style="stroke:#000000;" d="M343.8,311.2l-0.7,6.1c6.2,11.8,20.8,16.2,32.5,10c7-3.8,11.8-10.7,12.7-18.6
			c0.4-3.1,0.1-6.3-0.8-9.4l-25.2-2.8c-9.1-1.1-17.3,5.4-18.5,14.5C343.8,311.1,343.8,311.2,343.8,311.2z"/>
		<path style="fill:#FF848F;" d="M392.7,337.7v13.5c0,6.5-5.3,11.7-11.7,11.7c-6.5,0-11.8-5.3-11.8-11.7v-13.7
			c0.6,0.1,1.2,0.2,1.8,0.3c11.2,1.3,18.3-1.3,21.3-2.7C392.6,335.8,392.7,336.7,392.7,337.7z"/>
		<path style="stroke:#000000;" d="M431.7,348.5l7.8-70c0.8-7.3,6.8-12.2,13.5-11.5l10.4,1.2c6.7,0.7,12.4,7,12.9,14.4l4.1,71.3
			c0.9,14.2-6.8,25.7-17.1,24.6l-15.9-1.8C437.1,375.6,430.1,362.4,431.7,348.5z"/>
	</g>
	<g>
		<path style="fill:#A6AD00;" d="M333.2,307.2c-1-1.5-4.3-7.8-11.8-13.9s-10.4-6-10.4-6l-48-13.2l-8.1-7.2l0.4,37.2v11l6.7,5.4
			l10.5,11.1c0,0,1.3,7.6,2.2,12.8s5.8,7,5.8,7l6.2-0.3l0.9-6.8l-1-9.4l2.5,2.6c0,0,0.8,7.9,2.2,12.8s5.8,7,5.8,7l7.3-1.8l-0.2-5.2
			l-0.9-16.2l0,0c0,0,2.9,10.2,4.8,15.1c1.9,4.8,5.2,6.4,5.2,6.4l6.3-2.6l0.9-3l6.2-0.3l3.5-7.6l-1.9-18.1l-8.8-15.4l3.8,6.3
			l7.8,1.9C331.3,317,338.1,314.4,333.2,307.2z"/>
		<polyline style="fill:none;stroke:#000000;" points="305.9,308.8 315.8,322.8 319.7,339.7 320.9,348.5 		"/>
		<polyline style="fill:none;stroke:#000000;" points="291.1,312.3 302.3,325.3 303.4,334.1 		"/>
		<polyline style="fill:none;stroke:#000000;" points="276.8,314 285.6,329.1 286.7,335 		"/>
		<polyline style="fill:none;stroke:#000000;" points="301.3,293 315.1,298.7 318.8,305.9 323.5,315.1 		"/>
	</g>
	<path style="stroke:#000000;" d="M409.3,293c0,0,6.9,13.7,25.2,5.4"/>
	<path style="stroke:#000000;" d="M383.3,280c0,0,6.9,13.7,25.2,5.4"/>
</g>
<g id="Layer_3">
	<rect x="8.6" y="0.6" style="fill:#FF848F;" width="230.1" height="194.4"/>
	<rect x="9.2" y="204" style="fill:#D6D6D6;" width="230.1" height="194.4"/>
	<rect x="255.3" y="0.6" style="fill:#D6D6D6;" width="230.1" height="194.4"/>
	<path style="fill:#FFEBC3;" d="M255.3,27.7c0.1,0.2,0.3,0.2,0.3,0.2l-0.3,0.8v166.5h37c3.1-6.2,2.7-14.2-2.4-20.2l-20.2-24.2
		c-3.8-4.3-5-10.3-3.8-15.9c0,0,21.9-124.3,5.3-117c-12.5,5.5-15.5,8.1-16,9.2V27.7z"/>
	<path style="stroke:#000000;" d="M379.8,117.5l-30-116.8h-94.6v163.9c10.6,14.9,26.3,24.3,43.2,23.3l45.1-2.7
		C372.8,183.5,388.7,151.8,379.8,117.5z"/>
	<path style="fill:#A6AD00;" d="M255.3,137.9c2.4,0,4.7-0.3,6.7-0.8l97.4,44.9c23.6,10.9,51.8,0.5,62.7-23.1l11-23.8l0,0
		c11-23.8,0.5-51.8-23.1-62.7L372,54.9c2.5-4.4,4.8-8.8,7-13.6l5.4-11.8l0,0c3.7-8.1,7.9-28.7,7.9-28.7L255.3,0.4"/>
	<path id="Nose-3_6_" style="fill:none;stroke:#000000;" d="M305.6,128.1c0,0,10.7,24.3,50.3,42.5c14.5,6.7,33.8,9.5,44.3,10.9"/>
	<path style="fill:#FFFFFF;" d="M414.7,0.8h-68.9c-5.1,14.6-0.5,31.5,12.6,41.3c16.1,12.1,39,8.8,51.1-7.3
		c7.6-10.1,9.1-22.8,5.3-33.9C414.7,0.8,414.7,0.8,414.7,0.8z"/>
	<path id="nose_8_" style="stroke:#000000;" d="M425.1,152.4c-12,19.6-52.5,11.4-66-17.2c-8-17.1-7.5-38.9,1.4-58.3
		c3.6-7.7,8.4-14.8,14.1-20.8l50.7,23.4c18.3,8.2,30.7,23.8,13.6,51.6C431.9,142.6,437.1,132.8,425.1,152.4z"/>
	<path style="fill:#FFFFFF;" d="M261.9,1.1c1.7,8.6,6.4,16.6,13.9,22.2c16.1,12.1,39,8.8,51.1-7.3c3.4-4.6,5.6-9.7,6.6-14.9H261.9z"
		/>
	<path style="stroke:#000000;" d="M412.9,21c0,0-32.5,34.5-65.9-10.7L412.9,21z"/>
	<path style="stroke:#000000;" d="M267.2,0.6c34.7,35,66.9,4.1,66.9,4.1l-28.3-4.1H267.2z"/>
	<rect x="255.3" y="0.6" style="fill:none;stroke:#000000;stroke-miterlimit:10;" width="230.1" height="194.4"/>
	<rect x="9.2" y="204" style="fill:none;stroke:#000000;stroke-miterlimit:10;" width="230.1" height="194.4"/>
	<rect x="9.2" y="0.6" style="fill:none;" width="230.1" height="57.4"/>
	<text transform="matrix(1 0 0 1 70.5338 34.3072)" style="font-family:'Helvetica-Bold'; font-size:14px;">He likes to sniff.</text>
	<rect x="9.2" y="0.6" style="fill:none;stroke:#000000;stroke-miterlimit:10;" width="230.1" height="194.4"/>
	<rect x="255.3" y="204" style="fill:none;stroke:#000000;stroke-miterlimit:10;" width="230.1" height="194.4"/>
	<rect x="324" y="20.7" style="fill:none;" width="230.1" height="57.4"/>
	<text transform="matrix(1 0 0 1 406.749 54.4106)" style="font-family:'Helvetica-Bold'; font-size:14px;">And sniff.</text>
	<rect x="24.5" y="222" style="fill:none;" width="198.9" height="50.1"/>
	<text transform="matrix(1 0 0 1 28.6175 235.2697)"><tspan x="0" y="0" style="font-family:'Helvetica-Bold'; font-size:14px;">Sniff. Sniff. Sniff. Sniff. Sniff. </tspan><tspan x="0" y="16.8" style="font-family:'Helvetica-Bold'; font-size:14px;">Sniff. Sniff. Sniff. Sniff. Sniff. </tspan><tspan x="0" y="33.6" style="font-family:'Helvetica-Bold'; font-size:14px;">Sniff. Sniff. Sniff. Sniff. Sniff.</tspan></text>
	<rect x="316.5" y="215.3" style="fill:none;" width="230.1" height="57.4"/>
	<text transform="matrix(1 0 0 1 413.9809 249.0643)" style="font-family:'Helvetica-Bold'; font-size:14px;">Sniff.</text>
	<path d="M133.1,356.7c0.5-0.3,1.2-0.1,1.5,0.4c0.1,0.1,0.1,0.2,0.1,0.2l0.1,0.3c0.4,1.4,1.5,2.6,2.9,3l1.4,0.4
		c0.6,0.2-0.9,4.7-1,4.8l-1,1c-0.4,0.4-0.4,1.1,0,1.6c0.2,0.2,0.4,0.3,0.7,0.3h0l3.2,0.1c0.7,0,1.3-0.6,1.3-1.3l1.8-8.3
		c0-0.2-0.1-1.7-1.4-2.3c-1.1-0.5-0.8-3.1-0.5-5.8"/>
	<path d="M103.3,354.3l0.9,13.6c0,0.3,0,0.7-0.2,1c-0.6,1.3-2.3,4.8-3.3,4.8h-3.9c-1.6-0.1-2.3-2.1-1.3-3.3l2.2-2.7
		c0.4-0.5,0.6-1.1,0.4-1.7L94.8,351c-0.1-0.2-0.1-0.5,0-0.7c0,0,1,2,2.8,2.8C99.8,354.1,103.3,354.3,103.3,354.3z"/>
	<path d="M117.1,336.9c-6.5,0-24.6,17.4-14,17.4h7.5c0.5,0,0.9,0.3,1.1,0.8l3.6,11.9c0.1,0.4,0,0.7-0.2,1l-3.2,3.8
		c-0.4,0.5-0.3,1.2,0.1,1.5c0.1,0.1,0.1,0.1,0.2,0.1c0.2,0.1,0.4,0.1,0.6,0.1h5.7c0.6,0,2.4-4.7,2.9-5.9c0.1-0.2,0.1-0.4,0.1-0.6
		l-1.3-8.8c-0.1-0.6,0.3-1.2,0.9-1.3c0.2,0,0.4,0,0.6,0.1c3,1.3,6.8,2.1,11.1,2.1c4.8,0,9.1-1,12.2-2.7c0.5-0.3,1.2-0.1,1.5,0.4
		c0.1,0.1,0.1,0.2,0.1,0.2l0.1,0.3c0.4,1.4,1.5,2.6,2.9,3l1.4,0.4c0.6,0.2-0.9,4.7-1,4.8l-1,1c-0.4,0.4-0.4,1.1,0,1.6
		c0.2,0.2,0.4,0.3,0.7,0.3h0l3.2,0.1c0.7,0,1.3-0.6,1.3-1.3l1.8-8.3c0-0.2-0.1-1.7-1.4-2.3c-1.1-0.5-0.8-3.1-0.5-5.8
		c0.8-7.5-0.6-17.8-12.5-17.8C134.6,333.5,123.6,336.9,117.1,336.9z"/>
	<path d="M141.5,333.5c-6.9,0-17.8,3.4-24.4,3.4s-24.4,8.6-23,12.1c2.7-1.5,4.8-3.5,6.3-5.7c4.2,4.1,11.2,6.8,19.1,6.8
		c5.7,0,11-1.4,15-3.7c4.3,3.4,10.7,5.6,17.8,5.6c0.5,0,1.5,0,1.5,0C155.1,344.2,153.4,333.5,141.5,333.5z"/>
	<path id="tummy_4_" d="M121.7,357.1c0,0,3.8,2,10.8,2.1c7.7,0.1,12.1-2.5,12.1-2.5c-1.2-0.7-2.4-1.4-3.6-2c-6.1-3-13.4-2.2-18.8,2
		L121.7,357.1z"/>
	<path d="M153.8,318.7c-0.3,1.1-0.8,2.8-1.4,4.6h2.8c0.5-2,0.8-3.7,1-4.6C157,312.5,155.5,312.6,153.8,318.7z"/>
	<g>
		<path d="M155.2,323.3h-2.8c-2,6.1-4.8,14.4-4.8,14.4l3.1,2.2C152.1,335.2,155.3,323,155.2,323.3z"/>
	</g>
	<g id="back-on_3_">
		<circle cx="135.9" cy="336" r="0.5"/>
		<circle cx="140.2" cy="335.2" r="0.3"/>
		<circle cx="139.1" cy="336.7" r="0.3"/>
		<circle cx="130.3" cy="337.5" r="0.3"/>
		<circle cx="144.3" cy="336.3" r="0.3"/>
		<circle cx="144.9" cy="338.9" r="0.3"/>
		<circle cx="149.7" cy="338.9" r="0.5"/>
		<circle cx="146.8" cy="336.3" r="0.5"/>
		<circle cx="142.3" cy="337.5" r="0.5"/>
		<circle cx="139.2" cy="339.3" r="0.5"/>
		<circle cx="141.7" cy="335" r="0.5"/>
		<circle cx="133.6" cy="337" r="0.5"/>
		<circle cx="135" cy="338.6" r="0.3"/>
		<circle cx="130.8" cy="336.3" r="0.5"/>
		<circle cx="127.4" cy="337.2" r="0.3"/>
		<circle cx="144.6" cy="341.2" r="0.3"/>
	</g>
	<path style="stroke:#000000;" d="M100.8,364.9l1.1-19.1c0.1-2-1.5-3.6-3.5-3.7l-3.2-0.2c-2.1-0.1-4.1,1.3-4.7,3.2L85.7,364
		c-1,3.8,0.8,7.2,4,7.4l4.9,0.3C97.8,371.9,100.6,368.7,100.8,364.9z"/>
	<path d="M101.5,341c0,0-6.8-0.7-11.8,1.3c-5,2-6.6,7.5-4.5,12.1l0,0l0.6,1.3c0.2,0.5,0.5,1,0.8,1.5l-4.2,1.9
		c-2.6,1.2-3.7,4.3-2.5,6.9l0,0l1.2,2.6c1.2,2.6,4.3,3.7,6.9,2.5l10.7-4.9c4.1,1,15.4-6.5,13.9-9.7l-2.8-12.4
		C108.3,340.9,101.5,341,101.5,341z"/>
	<path style="stroke:#000000;" d="M100.5,365.4l-1.2-20.2c-0.1-2.1,1.7-3.8,4.1-4l3.7-0.2c2.4-0.1,4.7,1.3,5.3,3.4l5.5,19.9
		c1.1,4-0.9,7.6-4.6,7.9l-5.7,0.3C103.9,372.8,100.7,369.4,100.5,365.4z"/>
	<path id="Nose-3_7_" style="stroke:#000000;" d="M93.8,365.2c0,0-1.2,2.7-5.5,4.7c-1.6,0.7-3.7,1-4.8,1.2"/>
	<circle cx="94.7" cy="350.5" r="4"/>
	<path id="nose_9_" style="stroke:#000000;" d="M79.1,366l0.8,1.6c3,2.2,6.6,1.4,8.1-1.7c0.9-1.9,0.8-4.3-0.2-6.4
		c-0.4-0.8-0.9-1.6-1.5-2.3l-5.6,2.6C78.7,360.8,78,363.5,79.1,366C79.1,366,79.1,366,79.1,366z"/>
	<circle cx="85.6" cy="352.6" r="4"/>
	<path style="stroke:#000000;" d="M82.1,353.5c0,0,3.6,3.8,7.2-1.2L82.1,353.5z"/>
	<g>
		<path style="stroke:#000000;" d="M90.7,351.7c0,0,3.9,3.8,8-1.2L90.7,351.7z"/>
	</g>
	<path style="fill:none;stroke:#000000;stroke-miterlimit:10;" d="M454.9,78.1c0,0,35.3,13.4-4.3,68.6"/>
	<path style="fill:none;stroke:#000000;stroke-miterlimit:10;" d="M447.1,81.8c18.9,14.9,22.5,21.8,2.5,48.5"/>
	<path style="fill:none;stroke:#000000;stroke-miterlimit:10;" d="M360.8,285.9c0,0-11.9-19.9-23.6,12.6"/>
	<path style="fill:none;stroke:#000000;stroke-miterlimit:10;" d="M361.5,290.3c-11.7-3.6-15.6-3.1-21,12.8"/>
	<path style="fill:#A6AD00;" d="M98.3,141.4c-1.1-0.6-2.5-0.2-3.1,0.9c-0.1,0.2-0.2,0.3-0.2,0.5l-0.2,0.7c-0.9,3-3.1,5.4-6.1,6.3
		l-2.8,0.9c-1.3,0.5,2,9.9,2.1,10.1l2.2,2.2c0.9,0.9,0.9,2.4,0,3.3c-0.4,0.4-0.9,0.6-1.5,0.6h-0.1l-6.7,0.2c-1.6,0-2.8-1.2-2.8-2.8
		L75.4,147c-0.1-0.4,0.2-3.6,2.8-4.7c2.3-1,1.7-6.6,1-12.2"/>
	<path style="fill:#FFEBC3;" d="M160.7,136.3l-2,28.4c-0.1,0.7,0.1,1.4,0.3,2c1.3,2.7,4.9,10,7,10h8.2c3.4-0.3,4.9-4.3,2.7-6.9
		l-4.6-5.5c-0.9-1-1.2-2.4-0.9-3.6l7.1-31.2c0.1-0.5,0.1-1,0.1-1.4c0,0-2.1,4.2-6,5.8C168.1,135.9,160.7,136.3,160.7,136.3z"/>
	<path style="fill:#FFEBC3;" d="M131.8,99.9c13.6,0,51.6,36.4,29.4,36.4h-15.7c-1,0-2,0.7-2.3,1.7l-7.5,24.9
		c-0.2,0.8-0.1,1.6,0.5,2.1l6.6,8c0.8,1,0.7,2.4-0.2,3.2c-0.1,0.1-0.2,0.2-0.4,0.3c-0.4,0.2-0.8,0.3-1.2,0.3h-12
		c-1.3,0-5.1-9.8-6-12.3c-0.1-0.3-0.2-0.8-0.1-1.2l2.7-18.3c0.2-1.3-0.6-2.4-1.9-2.7c-0.5-0.1-0.9,0-1.3,0.2
		c-6.2,2.8-14.3,4.4-23.2,4.4c-10.1,0-19.1-2.1-25.5-5.5c-1.1-0.6-2.5-0.2-3.1,0.9c-0.1,0.2-0.2,0.3-0.2,0.5l-0.2,0.7
		c-0.9,3-3.1,5.4-6.1,6.3l-2.8,0.9c-1.3,0.5,2,9.9,2.1,10.1l2.2,2.2c0.9,0.9,0.9,2.4,0,3.3c-0.4,0.4-0.9,0.6-1.5,0.6H64l-6.7,0.2
		c-1.6,0-2.8-1.2-2.8-2.8l-3.8-17.4c-0.1-0.4,0.2-3.6,2.8-4.7c2.3-1,1.7-6.6,1-12.2c-1.7-15.8,1.3-37.2,26.2-37.2
		C95.2,92.7,118.2,99.9,131.8,99.9z"/>
	<path style="fill:#A6AD00;" d="M80.8,92.8c14.4-0.1,37.3,7.2,51,7.2c13.6,0,51.1,18,48.2,25.4c-5.6-3.2-10.1-7.2-13.2-11.8
		c-8.8,8.6-23.5,14.2-40.1,14.2c-12,0-23-2.9-31.5-7.8c-9,7.2-22.4,11.7-37.3,11.7c-1,0-3.2-0.1-3.2-0.1
		C52.3,115.3,56,92.8,80.8,92.8z"/>
	<path id="tummy_2_" style="fill:#EABEB5;" d="M122.3,142.3c0,0-7.9,4.3-22.6,4.4c-16.1,0.2-25.3-5.2-25.3-5.2c2.4-1.6,5-3,7.6-4.2
		c12.8-6.2,28.1-4.6,39.3,4.2L122.3,142.3z"/>
	<path style="fill:#FFEBC3;" d="M55,61.9c0.7,2.4,1.7,5.8,3,9.6h-5.9c-1-4.3-1.8-7.8-2-9.6C48.3,48.8,51.4,49.1,55,61.9z"/>
	<g>
		<path style="fill:#A6AD00;" d="M52.1,71.5H58c4.1,12.7,10.1,30.1,10.1,30.1l-6.5,4.5C58.5,96.5,51.9,70.8,52.1,71.5z"/>
	</g>
	<g id="back-on_1_">
		<circle style="fill:#D6D6D6;" cx="92.5" cy="98.1" r="1.1"/>
		<circle style="fill:#D6D6D6;" cx="83.4" cy="96.4" r="0.6"/>
		<circle style="fill:#D6D6D6;" cx="85.9" cy="99.6" r="0.6"/>
		<circle style="fill:#D6D6D6;" cx="104.1" cy="101.3" r="0.6"/>
		<circle style="fill:#D6D6D6;" cx="74.9" cy="98.6" r="0.5"/>
		<circle style="fill:#D6D6D6;" cx="73.7" cy="104.2" r="0.7"/>
		<circle style="fill:#D6D6D6;" cx="63.6" cy="104.2" r="1.1"/>
		<circle style="fill:#D6D6D6;" cx="69.6" cy="98.6" r="1.1"/>
		<circle style="fill:#D6D6D6;" cx="79.2" cy="101.3" r="1.1"/>
		<circle style="fill:#D6D6D6;" cx="85.6" cy="104.9" r="1.1"/>
		<circle style="fill:#D6D6D6;" cx="80.3" cy="95.9" r="1.1"/>
		<circle style="fill:#D6D6D6;" cx="97.2" cy="100.2" r="1.1"/>
		<circle style="fill:#D6D6D6;" cx="94.3" cy="103.4" r="0.7"/>
		<circle style="fill:#D6D6D6;" cx="103.2" cy="98.7" r="0.9"/>
		<circle style="fill:#D6D6D6;" cx="110.4" cy="100.7" r="0.7"/>
		<circle style="fill:#D6D6D6;" cx="74.3" cy="108.9" r="0.6"/>
	</g>
	<path style="stroke:#000000;" d="M165.9,158.6l-2.4-40c-0.2-4.2,3.1-7.6,7.4-7.8l6.7-0.4c4.3-0.3,8.6,2.7,9.7,6.8l10.2,39.6
		c2,7.9-1.6,15.1-8.3,15.5l-10.3,0.6C172.3,173.3,166.4,166.6,165.9,158.6z"/>
	<path style="fill:#A6AD00;" d="M164.6,108.6c0,0,14.2-1.6,24.8,2.7s13.7,15.7,9.3,25.3l0,0l-1.2,2.7c-0.5,1.1-1,2.1-1.6,3.1l8.7,4
		c5.4,2.5,7.8,8.9,5.3,14.4l0,0l-2.5,5.5c-2.5,5.4-9,7.8-14.4,5.3l-22.3-10.3c-8.6,2-32.2-13.7-29.2-20.2l5.9-26
		C150.3,108.4,164.6,108.6,164.6,108.6z"/>
	<path style="stroke:#000000;" d="M166.6,159.6l2.5-42.3c0.3-4.4-3.5-8-8.5-8.3l-7.7-0.5c-5-0.3-9.9,2.8-11.1,7.1l-11.4,41.7
		c-2.3,8.3,1.9,16,9.6,16.4l11.8,0.7C159.4,175.1,166.1,168,166.6,159.6z"/>
	<path id="Nose-3_4_" style="fill:none;stroke:#000000;" d="M180.6,159.1c0,0,2.4,5.6,11.5,9.7c3.3,1.5,7.7,2.2,10.1,2.5"/>
	<circle style="fill:#FFFFFF;" cx="178.8" cy="128.4" r="8.4"/>
	<path id="nose_7_" style="stroke:#000000;" d="M211.4,160.9l-1.6,3.4c-6.3,4.6-13.9,3-17-3.5c-1.8-3.9-1.7-8.9,0.3-13.4
		c0.8-1.8,1.9-3.4,3.2-4.8L208,148C212.2,149.9,213.8,155.6,211.4,160.9C211.4,160.8,211.4,160.8,211.4,160.9z"/>
	<circle style="fill:#FFFFFF;" cx="197.7" cy="132.7" r="8.4"/>
	<path style="stroke:#000000;" d="M205.2,134.6c0,0-7.5,7.9-15.1-2.4L205.2,134.6z"/>
	<g>
		<path style="stroke:#000000;" d="M187.1,130.9c0,0-8.2,7.9-16.7-2.4L187.1,130.9z"/>
	</g>
</g>
<g id="Layer_2">
</g>
</svg>
