<?xml version="1.0" encoding="utf-8"?>
<!-- Generator: Adobe Illustrator 25.2.1, SVG Export Plug-In . SVG Version: 6.00 Build 0)  -->
<svg version="1.1" xmlns="http://www.w3.org/2000/svg" xmlns:xlink="http://www.w3.org/1999/xlink" x="0px" y="0px" width="494.5px"
	 height="399.1px" viewBox="0 0 494.5 399.1" style="enable-background:new 0 0 494.5 399.1;" xml:space="preserve">
<g id="Layer_1">
	<rect x="255.3" y="204" style="fill:#7998B4;" width="230.1" height="193.7"/>
	<g>
		<path style="fill:#FFEBC3;" d="M485.3,398.5v-10.7c-9.2-2.1-13.2-4.4-19.6-7.2c-17.5-7.7-41.5-33.9-41.5-33.9
			c-20.6-9.1-12.5-20.4-21.6,0.3c-9.1,20.8-17.4,38.6-10,51.5H485.3z"/>
		<path style="fill:#A6AD00;" d="M426.2,397.8h59.1v-10c-9.2-2.1-13.2-4.4-19.6-7.2c-17.5-7.7-41.5-33.9-41.5-33.9
			c-20.6-9.1-12.5-20.4-21.6,0.3c-6.5,14.7-12.5,27.9-12.9,39c9-0.9,17-3.6,23.5-7.8C416.1,385,420.5,391.6,426.2,397.8z"/>
		<path style="stroke:#000000;" d="M407,345.7l7.8-70c0.8-7.3-3.9-13.4-10.6-14.2l-10.4-1.2c-6.7-0.7-13.6,4.1-15.7,11.2l-19.8,68.7
			c-4,13.6,0.9,26.6,11.2,27.8l15.9,1.8C395.7,371,405.4,359.6,407,345.7z"/>
		<path style="fill:#A6AD00;" d="M450.6,266.7l-40.3-4.5c-16.1-1.8-30.7,9.8-32.5,25.9l0,0l-0.5,4.6c-0.2,1.8-0.3,3.6-0.4,5.4
			l-14.7-1.6c-9.2-1-17.4,5.5-18.5,14.8l0,0l-1,9.2c-1,9.2,5.6,17.5,14.8,18.5l37.7,4.2c9.7,9.5,22.4,15.5,36,17l8.8,1
			c11.1,1.2,21.1-6.7,22.3-17.8l6.1-54.4C469.6,277.9,461.6,268,450.6,266.7z"/>
		<path style="fill:none;stroke:#000000;" d="M355.7,332.4c3,1.4,8.4,3.6,13.5,4.5c0.6,0.1,1.2,0.2,1.8,0.3
			c11.2,1.3,18.3-1.3,21.3-2.7c1.1-0.5,1.7-0.9,1.7-0.9"/>
		
			<ellipse transform="matrix(0.5279 -0.8493 0.8493 0.5279 -53.6637 470.6082)" style="fill:#FFFFFF;" cx="396.5" cy="283.6" rx="12.9" ry="12.9"/>
		
			<ellipse transform="matrix(0.5279 -0.8493 0.8493 0.5279 -53.1544 498.3009)" style="fill:#FFFFFF;" cx="421.6" cy="297" rx="12.9" ry="12.9"/>
		<path id="Nose-2_4_" style="stroke:#000000;" d="M395.7,299.9l-25.1-2.8"/>
		<path id="nose_10_" style="stroke:#000000;" d="M343.8,311.2l-0.7,6.1c6.2,11.8,20.8,16.2,32.5,10c7-3.8,11.8-10.7,12.7-18.6
			c0.4-3.1,0.1-6.3-0.8-9.4l-25.2-2.8c-9.1-1.1-17.3,5.4-18.5,14.5C343.8,311.1,343.8,311.2,343.8,311.2z"/>
		<path style="fill:#FF848F;" d="M392.7,337.7v13.5c0,6.5-5.3,11.7-11.7,11.7c-6.5,0-11.8-5.3-11.8-11.7v-13.7
			c0.6,0.1,1.2,0.2,1.8,0.3c11.2,1.3,18.3-1.3,21.3-2.7C392.6,335.8,392.7,336.7,392.7,337.7z"/>
		<path style="stroke:#000000;" d="M431.7,348.5l7.8-70c0.8-7.3,6.8-12.2,13.5-11.5l10.4,1.2c6.7,0.7,12.4,7,12.9,14.4l4.1,71.3
			c0.9,14.2-6.8,25.7-17.1,24.6l-15.9-1.8C437.1,375.6,430.1,362.4,431.7,348.5z"/>
	</g>
	<g>
		<path style="fill:#A6AD00;" d="M333.2,307.2c-1-1.5-4.3-7.8-11.8-13.9s-10.4-6-10.4-6l-48-13.2l-8.1-7.2l0.4,37.2v11l6.7,5.4
			l10.5,11.1c0,0,1.3,7.6,2.2,12.8s5.8,7,5.8,7l6.2-0.3l0.9-6.8l-1-9.4l2.5,2.6c0,0,0.8,7.9,2.2,12.8s5.8,7,5.8,7l7.3-1.8l-0.2-5.2
			l-0.9-16.2l0,0c0,0,2.9,10.2,4.8,15.1c1.9,4.8,5.2,6.4,5.2,6.4l6.3-2.6l0.9-3l6.2-0.3l3.5-7.6l-1.9-18.1l-8.8-15.4l3.8,6.3
			l7.8,1.9C331.3,317,338.1,314.4,333.2,307.2z"/>
		<polyline style="fill:none;stroke:#000000;" points="305.9,308.8 315.8,322.8 319.7,339.7 320.9,348.5 		"/>
		<polyline style="fill:none;stroke:#000000;" points="291.1,312.3 302.3,325.3 303.4,334.1 		"/>
		<polyline style="fill:none;stroke:#000000;" points="276.8,314 285.6,329.1 286.7,335 		"/>
		<polyline style="fill:none;stroke:#000000;" points="301.3,293 315.1,298.7 318.8,305.9 323.5,315.1 		"/>
	</g>
	<path style="stroke:#000000;" d="M409.3,293c0,0,6.9,13.7,25.2,5.4"/>
	<path style="stroke:#000000;" d="M383.3,280c0,0,6.9,13.7,25.2,5.4"/>
</g>
<g id="Layer_3">
	<rect x="8.6" y="0.6" style="fill:#FF848F;" width="230.1" height="194.4"/>
	<rect x="9.2" y="204" style="fill:#D6D6D6;" width="230.1" height="194.4"/>
	<rect x="255.3" y="0.6" style="fill:#D6D6D6;" width="230.1" height="194.4"/>
	<path style="fill:#FFEBC3;" d="M255.3,27.7c0.1,0.2,0.3,0.2,0.3,0.2l-0.3,0.8v166.5h37c3.1-6.2,2.7-14.2-2.4-20.2l-20.2-24.2
		c-3.8-4.3-5-10.3-3.8-15.9c0,0,21.9-124.3,5.3-117c-12.5,5.5-15.5,8.1-16,9.2V27.7z"/>
	<path style="stroke:#000000;" d="M379.8,117.5l-30-116.8h-94.6v163.9c10.6,14.9,26.3,24.3,43.2,23.3l45.1-2.7
		C372.8,183.5,388.7,151.8,379.8,117.5z"/>
	<path style="fill:#A6AD00;" d="M255.3,137.9c2.4,0,4.7-0.3,6.7-0.8l97.4,44.9c23.6,10.9,51.8,0.5,62.7-23.1l11-23.8l0,0
		c11-23.8,0.5-51.8-23.1-62.7L372,54.9c2.5-4.4,4.8-8.8,7-13.6l5.4-11.8l0,0c3.7-8.1,7.9-28.7,7.9-28.7L255.3,0.4"/>
	<path id="Nose-3_6_" style="fill:none;stroke:#000000;" d="M305.6,128.1c0,0,10.7,24.3,50.3,42.5c14.5,6.7,33.8,9.5,44.3,10.9"/>
	<path style="fill:#FFFFFF;" d="M414.7,0.8h-68.9c-5.1,14.6-0.5,31.5,12.6,41.3c16.1,12.1,39,8.8,51.1-7.3
		c7.6-10.1,9.1-22.8,5.3-33.9C414.7,0.8,414.7,0.8,414.7,0.8z"/>
	<path id="nose_8_" style="stroke:#000000;" d="M425.1,152.4c-12,19.6-52.5,11.4-66-17.2c-8-17.1-7.5-38.9,1.4-58.3
		c3.6-7.7,8.4-14.8,14.1-20.8l50.7,23.4c18.3,8.2,30.7,23.8,13.6,51.6C431.9,142.6,437.1,132.8,425.1,152.4z"/>
	<path style="fill:#FFFFFF;" d="M261.9,1.1c1.7,8.6,6.4,16.6,13.9,22.2c16.1,12.1,39,8.8,51.1-7.3c3.4-4.6,5.6-9.7,6.6-14.9H261.9z"
		/>
	<path style="stroke:#000000;" d="M412.9,21c0,0-32.5,34.5-65.9-10.7L412.9,21z"/>
	<path style="stroke:#000000;" d="M267.2,0.6c34.7,35,66.9,4.1,66.9,4.1l-28.3-4.1H267.2z"/>
	<rect x="255.3" y="0.6" style="fill:none;stroke:#000000;stroke-miterlimit:10;" width="230.1" height="194.4"/>
	<rect x="9.2" y="204" style="fill:none;stroke:#000000;stroke-miterlimit:10;" width="230.1" height="194.4"/>
	<g>
		<path d="M71.6,34.3V24.2h2.1v3.8h3.9v-3.8h2.1v10.1h-2.1v-4.5h-3.9v4.5H71.6z"/>
		<path d="M86.4,27c0.5,0.2,0.9,0.6,1.3,1.1c0.3,0.4,0.5,1,0.6,1.5c0.1,0.3,0.1,0.8,0.1,1.5h-5.4c0,0.7,0.3,1.3,0.8,1.6
			c0.3,0.2,0.7,0.3,1.1,0.3c0.4,0,0.8-0.1,1.1-0.3c0.2-0.1,0.3-0.3,0.4-0.5h2c-0.1,0.4-0.3,0.9-0.7,1.3c-0.7,0.7-1.6,1.1-2.8,1.1
			c-1,0-1.9-0.3-2.6-0.9C81.3,33,81,32,81,30.7c0-1.3,0.3-2.3,1-3c0.7-0.7,1.6-1,2.7-1C85.3,26.7,85.9,26.8,86.4,27z M83.5,28.7
			C83.2,29,83,29.4,83,29.8h3.4c0-0.5-0.2-0.9-0.5-1.2c-0.3-0.3-0.7-0.4-1.2-0.4C84.2,28.3,83.8,28.4,83.5,28.7z"/>
		<path d="M95.2,34.3h-1.9V24.2h1.9V34.3z"/>
		<path d="M99.1,26h-2v-1.8h2V26z M97.1,26.9h2v7.5h-2V26.9z"/>
		<path d="M101,24.3h1.9v5.4l2.5-2.8h2.4l-2.7,2.8l2.8,4.6h-2.4l-1.8-3.2l-0.8,0.8v2.3H101V24.3z"/>
		<path d="M113.7,27c0.5,0.2,0.9,0.6,1.3,1.1c0.3,0.4,0.5,1,0.6,1.5c0.1,0.3,0.1,0.8,0.1,1.5h-5.4c0,0.7,0.3,1.3,0.8,1.6
			c0.3,0.2,0.7,0.3,1.1,0.3c0.4,0,0.8-0.1,1.1-0.3c0.2-0.1,0.3-0.3,0.4-0.5h2c-0.1,0.4-0.3,0.9-0.7,1.3c-0.7,0.7-1.6,1.1-2.8,1.1
			c-1,0-1.9-0.3-2.6-0.9c-0.8-0.6-1.1-1.6-1.1-3c0-1.3,0.3-2.3,1-3c0.7-0.7,1.6-1,2.7-1C112.5,26.7,113.1,26.8,113.7,27z
			 M110.7,28.7c-0.3,0.3-0.4,0.7-0.5,1.2h3.4c0-0.5-0.2-0.9-0.5-1.2c-0.3-0.3-0.7-0.4-1.2-0.4C111.4,28.3,111,28.4,110.7,28.7z"/>
		<path d="M118.1,31.9c0,0.3,0.1,0.6,0.3,0.7c0.2,0.3,0.7,0.4,1.3,0.4c0.4,0,0.7-0.1,0.9-0.2s0.3-0.3,0.3-0.5c0-0.2-0.1-0.4-0.3-0.5
			s-0.9-0.3-2-0.6c-0.8-0.2-1.4-0.5-1.8-0.8c-0.3-0.3-0.5-0.8-0.5-1.3c0-0.7,0.3-1.3,0.8-1.8c0.5-0.5,1.3-0.7,2.3-0.7
			c0.9,0,1.7,0.2,2.3,0.6c0.6,0.4,0.9,1,1,1.9h-1.9c0-0.3-0.1-0.4-0.2-0.6c-0.2-0.3-0.6-0.4-1.1-0.4c-0.4,0-0.7,0.1-0.9,0.2
			c-0.2,0.1-0.3,0.3-0.3,0.5c0,0.2,0.1,0.4,0.3,0.5c0.2,0.1,0.9,0.3,2,0.5c0.8,0.2,1.4,0.5,1.7,0.8c0.4,0.4,0.6,0.8,0.6,1.4
			c0,0.7-0.3,1.3-0.8,1.8c-0.6,0.5-1.4,0.7-2.6,0.7c-1.2,0-2-0.2-2.6-0.7c-0.6-0.5-0.8-1.1-0.8-1.9H118.1z"/>
		<path d="M127.5,28.3v-1.4h1v-2.1h1.9v2.1h1.2v1.4h-1.2v3.9c0,0.3,0,0.5,0.1,0.6c0.1,0.1,0.3,0.1,0.7,0.1c0.1,0,0.1,0,0.2,0
			c0.1,0,0.1,0,0.2,0v1.5l-0.9,0c-0.9,0-1.5-0.1-1.9-0.5c-0.2-0.2-0.3-0.6-0.3-1v-4.6H127.5z"/>
		<path d="M139.1,33.4c-0.6,0.8-1.6,1.2-2.9,1.2s-2.2-0.4-2.9-1.2s-0.9-1.7-0.9-2.8c0-1.1,0.3-2,0.9-2.8s1.6-1.2,2.9-1.2
			s2.2,0.4,2.9,1.2s0.9,1.7,0.9,2.8C140.1,31.7,139.8,32.6,139.1,33.4z M137.6,32.3c0.3-0.4,0.5-1,0.5-1.7c0-0.7-0.2-1.3-0.5-1.7
			c-0.3-0.4-0.7-0.6-1.3-0.6s-1,0.2-1.3,0.6c-0.3,0.4-0.5,1-0.5,1.7c0,0.7,0.2,1.3,0.5,1.7s0.7,0.6,1.3,0.6S137.3,32.7,137.6,32.3z"
			/>
		<path d="M146.9,31.9c0,0.3,0.1,0.6,0.3,0.7c0.2,0.3,0.7,0.4,1.3,0.4c0.4,0,0.7-0.1,0.9-0.2s0.3-0.3,0.3-0.5c0-0.2-0.1-0.4-0.3-0.5
			s-0.9-0.3-2-0.6c-0.8-0.2-1.4-0.5-1.8-0.8c-0.3-0.3-0.5-0.8-0.5-1.3c0-0.7,0.3-1.3,0.8-1.8c0.5-0.5,1.3-0.7,2.3-0.7
			c0.9,0,1.7,0.2,2.3,0.6c0.6,0.4,0.9,1,1,1.9h-1.9c0-0.3-0.1-0.4-0.2-0.6c-0.2-0.3-0.6-0.4-1.1-0.4c-0.4,0-0.7,0.1-0.9,0.2
			c-0.2,0.1-0.3,0.3-0.3,0.5c0,0.2,0.1,0.4,0.3,0.5c0.2,0.1,0.9,0.3,2,0.5c0.8,0.2,1.4,0.5,1.7,0.8c0.4,0.4,0.6,0.8,0.6,1.4
			c0,0.7-0.3,1.3-0.8,1.8c-0.6,0.5-1.4,0.7-2.6,0.7c-1.2,0-2-0.2-2.6-0.7c-0.6-0.5-0.8-1.1-0.8-1.9H146.9z"/>
		<path d="M159.2,27.3c0.5,0.4,0.7,1.1,0.7,2v5h-2v-4.5c0-0.4-0.1-0.7-0.2-0.9c-0.2-0.4-0.6-0.6-1.1-0.6c-0.7,0-1.1,0.3-1.4,0.8
			c-0.1,0.3-0.2,0.7-0.2,1.1v4h-1.9v-7.4h1.9V28c0.2-0.4,0.5-0.7,0.7-0.8c0.4-0.3,0.9-0.5,1.5-0.5C158,26.7,158.7,26.9,159.2,27.3z"
			/>
		<path d="M163.7,26h-2v-1.8h2V26z M161.7,26.9h2v7.5h-2V26.9z"/>
		<path d="M168.7,24.1c0.1,0,0.2,0,0.4,0v1.6c-0.1,0-0.3,0-0.6,0c-0.3,0-0.4,0-0.5,0.2c-0.1,0.1-0.1,0.3-0.1,0.4s0,0.4,0,0.6h1.3
			v1.4h-1.3v6h-1.9v-6h-1.1v-1.4h1.1v-0.5c0-0.8,0.1-1.3,0.4-1.6c0.3-0.4,1-0.7,2-0.7C168.5,24.1,168.6,24.1,168.7,24.1z"/>
		<path d="M173.3,24.1c0.1,0,0.2,0,0.4,0v1.6c-0.1,0-0.3,0-0.6,0c-0.3,0-0.4,0-0.5,0.2c-0.1,0.1-0.1,0.3-0.1,0.4s0,0.4,0,0.6h1.3
			v1.4h-1.3v6h-1.9v-6h-1.1v-1.4h1.1v-0.5c0-0.8,0.1-1.3,0.4-1.6c0.3-0.4,1-0.7,2-0.7C173.1,24.1,173.2,24.1,173.3,24.1z"/>
		<path d="M174.9,32.3h2.1v2h-2.1V32.3z"/>
	</g>
	<rect x="9.2" y="0.6" style="fill:none;stroke:#000000;stroke-miterlimit:10;" width="230.1" height="194.4"/>
	<rect x="255.3" y="204" style="fill:none;stroke:#000000;stroke-miterlimit:10;" width="230.1" height="194.4"/>
	<g>
		<path d="M410.7,44.3h2.4l3.6,10.1h-2.3l-0.7-2.1H410l-0.7,2.1h-2.2L410.7,44.3z M410.6,50.6h2.6l-1.3-4L410.6,50.6z"/>
		<path d="M423.8,47.4c0.5,0.4,0.7,1.1,0.7,2v5h-2v-4.5c0-0.4-0.1-0.7-0.2-0.9c-0.2-0.4-0.6-0.6-1.1-0.6c-0.7,0-1.1,0.3-1.4,0.8
			c-0.1,0.3-0.2,0.7-0.2,1.1v4h-1.9V47h1.9v1.1c0.2-0.4,0.5-0.7,0.7-0.8c0.4-0.3,0.9-0.5,1.5-0.5C422.7,46.8,423.3,47,423.8,47.4z"
			/>
		<path d="M430.3,47.1c0.4,0.2,0.6,0.5,0.9,0.8v-3.6h2v10.1h-1.9v-1c-0.3,0.4-0.6,0.8-1,1s-0.8,0.3-1.3,0.3c-0.9,0-1.6-0.4-2.2-1.1
			c-0.6-0.7-0.9-1.6-0.9-2.7c0-1.3,0.3-2.3,0.9-3c0.6-0.7,1.4-1.1,2.3-1.1C429.5,46.8,429.9,46.9,430.3,47.1z M430.7,52.4
			c0.3-0.4,0.4-0.9,0.4-1.6c0-0.9-0.2-1.6-0.7-2c-0.3-0.2-0.6-0.4-1-0.4c-0.6,0-1,0.2-1.3,0.6c-0.3,0.4-0.4,1-0.4,1.6
			c0,0.7,0.1,1.2,0.4,1.7c0.3,0.4,0.7,0.6,1.2,0.6C430,53,430.5,52.8,430.7,52.4z"/>
		<path d="M440.3,52c0,0.3,0.1,0.6,0.3,0.7c0.2,0.3,0.7,0.4,1.3,0.4c0.4,0,0.7-0.1,0.9-0.2s0.3-0.3,0.3-0.5c0-0.2-0.1-0.4-0.3-0.5
			s-0.9-0.3-2-0.6c-0.8-0.2-1.4-0.5-1.8-0.8c-0.3-0.3-0.5-0.8-0.5-1.3c0-0.7,0.3-1.3,0.8-1.8c0.5-0.5,1.3-0.7,2.3-0.7
			c0.9,0,1.7,0.2,2.3,0.6c0.6,0.4,0.9,1,1,1.9H443c0-0.3-0.1-0.4-0.2-0.6c-0.2-0.3-0.6-0.4-1.1-0.4c-0.4,0-0.7,0.1-0.9,0.2
			c-0.2,0.1-0.3,0.3-0.3,0.5c0,0.2,0.1,0.4,0.3,0.5c0.2,0.1,0.9,0.3,2,0.5c0.8,0.2,1.4,0.5,1.7,0.8c0.4,0.4,0.6,0.8,0.6,1.4
			c0,0.7-0.3,1.3-0.8,1.8c-0.6,0.5-1.4,0.7-2.6,0.7c-1.2,0-2-0.2-2.6-0.7c-0.6-0.5-0.8-1.1-0.8-1.9H440.3z"/>
		<path d="M452.6,47.4c0.5,0.4,0.7,1.1,0.7,2v5h-2v-4.5c0-0.4-0.1-0.7-0.2-0.9c-0.2-0.4-0.6-0.6-1.1-0.6c-0.7,0-1.1,0.3-1.4,0.8
			c-0.1,0.3-0.2,0.7-0.2,1.1v4h-1.9V47h1.9v1.1c0.2-0.4,0.5-0.7,0.7-0.8c0.4-0.3,0.9-0.5,1.5-0.5C451.4,46.8,452.1,47,452.6,47.4z"
			/>
		<path d="M457.1,46.1h-2v-1.8h2V46.1z M455.1,47h2v7.5h-2V47z"/>
		<path d="M462.1,44.2c0.1,0,0.2,0,0.4,0v1.6c-0.1,0-0.3,0-0.5,0c-0.3,0-0.4,0-0.5,0.2c-0.1,0.1-0.1,0.3-0.1,0.4s0,0.4,0,0.6h1.3
			v1.4h-1.3v6h-1.9v-6h-1.1V47h1.1v-0.5c0-0.8,0.1-1.3,0.4-1.6c0.3-0.4,1-0.7,2-0.7C461.9,44.2,462,44.2,462.1,44.2z"/>
		<path d="M466.7,44.2c0.1,0,0.2,0,0.4,0v1.6c-0.1,0-0.3,0-0.5,0c-0.3,0-0.4,0-0.5,0.2c-0.1,0.1-0.1,0.3-0.1,0.4s0,0.4,0,0.6h1.3
			v1.4h-1.3v6H464v-6h-1.1V47h1.1v-0.5c0-0.8,0.1-1.3,0.4-1.6c0.3-0.4,1-0.7,2-0.7C466.5,44.2,466.6,44.2,466.7,44.2z"/>
		<path d="M468.3,52.4h2.1v2h-2.1V52.4z"/>
	</g>
	<g>
		<path d="M31.2,232.2c0.1,0.5,0.2,0.8,0.4,1c0.3,0.4,0.9,0.6,1.8,0.6c0.5,0,0.9-0.1,1.2-0.2c0.6-0.2,0.9-0.6,0.9-1.2
			c0-0.3-0.1-0.6-0.4-0.8c-0.3-0.2-0.8-0.3-1.4-0.5l-1.1-0.2c-1.1-0.2-1.8-0.5-2.2-0.8c-0.7-0.5-1-1.2-1-2.2c0-0.9,0.3-1.7,1-2.2
			c0.7-0.6,1.6-0.9,2.9-0.9c1.1,0,2,0.3,2.8,0.8c0.8,0.6,1.2,1.4,1.2,2.5h-2c0-0.6-0.3-1-0.8-1.3c-0.3-0.2-0.8-0.3-1.3-0.3
			c-0.6,0-1,0.1-1.3,0.3c-0.3,0.2-0.5,0.5-0.5,0.9c0,0.4,0.2,0.6,0.5,0.8c0.2,0.1,0.7,0.3,1.3,0.4l1.8,0.4c0.8,0.2,1.4,0.4,1.7,0.7
			c0.6,0.5,0.9,1.2,0.9,2.1c0,0.9-0.4,1.7-1.1,2.3c-0.7,0.6-1.7,0.9-3,0.9c-1.3,0-2.4-0.3-3.1-0.9c-0.8-0.6-1.1-1.4-1.1-2.5H31.2z"
			/>
		<path d="M44.9,228.2c0.5,0.4,0.7,1.1,0.7,2v5h-2v-4.5c0-0.4-0.1-0.7-0.2-0.9c-0.2-0.4-0.6-0.6-1.1-0.6c-0.7,0-1.1,0.3-1.4,0.8
			c-0.1,0.3-0.2,0.7-0.2,1.1v4h-1.9v-7.4h1.9v1.1c0.2-0.4,0.5-0.7,0.7-0.8c0.4-0.3,0.9-0.5,1.5-0.5
			C43.8,227.6,44.4,227.8,44.9,228.2z"/>
		<path d="M49.4,226.9h-2v-1.8h2V226.9z M47.4,227.8h2v7.5h-2V227.8z"/>
		<path d="M54.4,225.1c0.1,0,0.2,0,0.4,0v1.6c-0.1,0-0.3,0-0.6,0c-0.3,0-0.4,0-0.5,0.2c-0.1,0.1-0.1,0.3-0.1,0.4s0,0.4,0,0.6h1.3
			v1.4h-1.3v6h-1.9v-6h-1.1v-1.4h1.1v-0.5c0-0.8,0.1-1.3,0.4-1.6c0.3-0.4,1-0.7,2-0.7C54.2,225.1,54.3,225.1,54.4,225.1z"/>
		<path d="M59.1,225.1c0.1,0,0.2,0,0.4,0v1.6c-0.1,0-0.3,0-0.6,0c-0.3,0-0.4,0-0.5,0.2c-0.1,0.1-0.1,0.3-0.1,0.4s0,0.4,0,0.6h1.3
			v1.4h-1.3v6h-1.9v-6h-1.1v-1.4h1.1v-0.5c0-0.8,0.1-1.3,0.4-1.6c0.3-0.4,1-0.7,2-0.7C58.8,225.1,59,225.1,59.1,225.1z"/>
		<path d="M60.6,233.2h2.1v2h-2.1V233.2z"/>
		<path d="M70.1,232.2c0.1,0.5,0.2,0.8,0.4,1c0.3,0.4,0.9,0.6,1.8,0.6c0.5,0,0.9-0.1,1.2-0.2c0.6-0.2,0.9-0.6,0.9-1.2
			c0-0.3-0.1-0.6-0.4-0.8c-0.3-0.2-0.8-0.3-1.4-0.5l-1.1-0.2c-1.1-0.2-1.8-0.5-2.2-0.8c-0.7-0.5-1-1.2-1-2.2c0-0.9,0.3-1.7,1-2.2
			c0.7-0.6,1.6-0.9,2.9-0.9c1.1,0,2,0.3,2.8,0.8c0.8,0.6,1.2,1.4,1.2,2.5h-2c0-0.6-0.3-1-0.8-1.3c-0.3-0.2-0.8-0.3-1.3-0.3
			c-0.6,0-1,0.1-1.3,0.3s-0.5,0.5-0.5,0.9c0,0.4,0.2,0.6,0.5,0.8c0.2,0.1,0.7,0.3,1.3,0.4l1.8,0.4c0.8,0.2,1.4,0.4,1.7,0.7
			c0.6,0.5,0.9,1.2,0.9,2.1c0,0.9-0.4,1.7-1.1,2.3c-0.7,0.6-1.7,0.9-3,0.9c-1.3,0-2.4-0.3-3.1-0.9c-0.8-0.6-1.1-1.4-1.1-2.5H70.1z"
			/>
		<path d="M83.8,228.2c0.5,0.4,0.7,1.1,0.7,2v5h-2v-4.5c0-0.4-0.1-0.7-0.2-0.9c-0.2-0.4-0.6-0.6-1.1-0.6c-0.7,0-1.1,0.3-1.4,0.8
			c-0.1,0.3-0.2,0.7-0.2,1.1v4h-1.9v-7.4h1.9v1.1c0.2-0.4,0.5-0.7,0.7-0.8c0.4-0.3,0.9-0.5,1.5-0.5
			C82.6,227.6,83.3,227.8,83.8,228.2z"/>
		<path d="M88.3,226.9h-2v-1.8h2V226.9z M86.3,227.8h2v7.5h-2V227.8z"/>
		<path d="M93.3,225.1c0.1,0,0.2,0,0.4,0v1.6c-0.1,0-0.3,0-0.6,0c-0.3,0-0.4,0-0.5,0.2c-0.1,0.1-0.1,0.3-0.1,0.4s0,0.4,0,0.6h1.3
			v1.4h-1.3v6h-1.9v-6h-1.1v-1.4h1.1v-0.5c0-0.8,0.1-1.3,0.4-1.6c0.3-0.4,1-0.7,2-0.7C93.1,225.1,93.2,225.1,93.3,225.1z"/>
		<path d="M97.9,225.1c0.1,0,0.2,0,0.4,0v1.6c-0.1,0-0.3,0-0.6,0c-0.3,0-0.4,0-0.5,0.2c-0.1,0.1-0.1,0.3-0.1,0.4s0,0.4,0,0.6h1.3
			v1.4h-1.3v6h-1.9v-6h-1.1v-1.4h1.1v-0.5c0-0.8,0.1-1.3,0.4-1.6c0.3-0.4,1-0.7,2-0.7C97.7,225.1,97.8,225.1,97.9,225.1z"/>
		<path d="M99.5,233.2h2.1v2h-2.1V233.2z"/>
		<path d="M109,232.2c0.1,0.5,0.2,0.8,0.4,1c0.3,0.4,0.9,0.6,1.8,0.6c0.5,0,0.9-0.1,1.2-0.2c0.6-0.2,0.9-0.6,0.9-1.2
			c0-0.3-0.1-0.6-0.4-0.8c-0.3-0.2-0.8-0.3-1.4-0.5l-1.1-0.2c-1.1-0.2-1.8-0.5-2.2-0.8c-0.7-0.5-1-1.2-1-2.2c0-0.9,0.3-1.7,1-2.2
			c0.7-0.6,1.6-0.9,2.9-0.9c1.1,0,2,0.3,2.8,0.8c0.8,0.6,1.2,1.4,1.2,2.5h-2c0-0.6-0.3-1-0.8-1.3c-0.3-0.2-0.8-0.3-1.3-0.3
			c-0.6,0-1,0.1-1.3,0.3s-0.5,0.5-0.5,0.9c0,0.4,0.2,0.6,0.5,0.8c0.2,0.1,0.7,0.3,1.3,0.4l1.8,0.4c0.8,0.2,1.4,0.4,1.7,0.7
			c0.6,0.5,0.9,1.2,0.9,2.1c0,0.9-0.4,1.7-1.1,2.3c-0.7,0.6-1.7,0.9-3,0.9c-1.3,0-2.4-0.3-3.1-0.9c-0.8-0.6-1.1-1.4-1.1-2.5H109z"/>
		<path d="M122.6,228.2c0.5,0.4,0.7,1.1,0.7,2v5h-2v-4.5c0-0.4-0.1-0.7-0.2-0.9c-0.2-0.4-0.6-0.6-1.1-0.6c-0.7,0-1.1,0.3-1.4,0.8
			c-0.1,0.3-0.2,0.7-0.2,1.1v4h-1.9v-7.4h1.9v1.1c0.2-0.4,0.5-0.7,0.7-0.8c0.4-0.3,0.9-0.5,1.5-0.5
			C121.5,227.6,122.2,227.8,122.6,228.2z"/>
		<path d="M127.2,226.9h-2v-1.8h2V226.9z M125.2,227.8h2v7.5h-2V227.8z"/>
		<path d="M132.2,225.1c0.1,0,0.2,0,0.4,0v1.6c-0.1,0-0.3,0-0.6,0c-0.3,0-0.4,0-0.5,0.2c-0.1,0.1-0.1,0.3-0.1,0.4s0,0.4,0,0.6h1.3
			v1.4h-1.3v6h-1.9v-6h-1.1v-1.4h1.1v-0.5c0-0.8,0.1-1.3,0.4-1.6c0.3-0.4,1-0.7,2-0.7C131.9,225.1,132.1,225.1,132.2,225.1z"/>
		<path d="M136.8,225.1c0.1,0,0.2,0,0.4,0v1.6c-0.1,0-0.3,0-0.6,0c-0.3,0-0.4,0-0.5,0.2c-0.1,0.1-0.1,0.3-0.1,0.4s0,0.4,0,0.6h1.3
			v1.4H136v6h-1.9v-6H133v-1.4h1.1v-0.5c0-0.8,0.1-1.3,0.4-1.6c0.3-0.4,1-0.7,2-0.7C136.6,225.1,136.7,225.1,136.8,225.1z"/>
		<path d="M138.4,233.2h2.1v2h-2.1V233.2z"/>
		<path d="M147.8,232.2c0.1,0.5,0.2,0.8,0.4,1c0.3,0.4,0.9,0.6,1.8,0.6c0.5,0,0.9-0.1,1.2-0.2c0.6-0.2,0.9-0.6,0.9-1.2
			c0-0.3-0.1-0.6-0.4-0.8c-0.3-0.2-0.8-0.3-1.4-0.5l-1.1-0.2c-1.1-0.2-1.8-0.5-2.2-0.8c-0.7-0.5-1-1.2-1-2.2c0-0.9,0.3-1.7,1-2.2
			c0.7-0.6,1.6-0.9,2.9-0.9c1.1,0,2,0.3,2.8,0.8c0.8,0.6,1.2,1.4,1.2,2.5h-2c0-0.6-0.3-1-0.8-1.3c-0.3-0.2-0.8-0.3-1.3-0.3
			c-0.6,0-1,0.1-1.3,0.3c-0.3,0.2-0.5,0.5-0.5,0.9c0,0.4,0.2,0.6,0.5,0.8c0.2,0.1,0.7,0.3,1.3,0.4l1.8,0.4c0.8,0.2,1.4,0.4,1.7,0.7
			c0.6,0.5,0.9,1.2,0.9,2.1c0,0.9-0.4,1.7-1.1,2.3c-0.7,0.6-1.7,0.9-3,0.9c-1.3,0-2.4-0.3-3.1-0.9c-0.8-0.6-1.1-1.4-1.1-2.5H147.8z"
			/>
		<path d="M161.5,228.2c0.5,0.4,0.7,1.1,0.7,2v5h-2v-4.5c0-0.4-0.1-0.7-0.2-0.9c-0.2-0.4-0.6-0.6-1.1-0.6c-0.7,0-1.1,0.3-1.3,0.8
			c-0.1,0.3-0.2,0.7-0.2,1.1v4h-1.9v-7.4h1.9v1.1c0.2-0.4,0.5-0.7,0.7-0.8c0.4-0.3,0.9-0.5,1.5-0.5
			C160.4,227.6,161,227.8,161.5,228.2z"/>
		<path d="M166.1,226.9h-2v-1.8h2V226.9z M164.1,227.8h2v7.5h-2V227.8z"/>
		<path d="M171,225.1c0.1,0,0.2,0,0.4,0v1.6c-0.1,0-0.3,0-0.6,0c-0.3,0-0.4,0-0.5,0.2c-0.1,0.1-0.1,0.3-0.1,0.4s0,0.4,0,0.6h1.3v1.4
			h-1.3v6h-1.9v-6h-1.1v-1.4h1.1v-0.5c0-0.8,0.1-1.3,0.4-1.6c0.3-0.4,1-0.7,2-0.7C170.8,225.1,170.9,225.1,171,225.1z"/>
		<path d="M175.7,225.1c0.1,0,0.2,0,0.4,0v1.6c-0.1,0-0.3,0-0.6,0c-0.3,0-0.4,0-0.5,0.2c-0.1,0.1-0.1,0.3-0.1,0.4s0,0.4,0,0.6h1.3
			v1.4h-1.3v6h-1.9v-6h-1.1v-1.4h1.1v-0.5c0-0.8,0.1-1.3,0.4-1.6c0.3-0.4,1-0.7,2-0.7C175.5,225.1,175.6,225.1,175.7,225.1z"/>
		<path d="M177.2,233.2h2.1v2h-2.1V233.2z"/>
		<path d="M186.7,232.2c0.1,0.5,0.2,0.8,0.4,1c0.3,0.4,0.9,0.6,1.8,0.6c0.5,0,0.9-0.1,1.2-0.2c0.6-0.2,0.9-0.6,0.9-1.2
			c0-0.3-0.1-0.6-0.4-0.8c-0.3-0.2-0.8-0.3-1.4-0.5l-1.1-0.2c-1.1-0.2-1.8-0.5-2.2-0.8c-0.7-0.5-1-1.2-1-2.2c0-0.9,0.3-1.7,1-2.2
			c0.7-0.6,1.6-0.9,2.9-0.9c1.1,0,2,0.3,2.8,0.8c0.8,0.6,1.2,1.4,1.2,2.5h-2c0-0.6-0.3-1-0.8-1.3c-0.3-0.2-0.8-0.3-1.3-0.3
			c-0.6,0-1,0.1-1.3,0.3c-0.3,0.2-0.5,0.5-0.5,0.9c0,0.4,0.2,0.6,0.5,0.8c0.2,0.1,0.7,0.3,1.3,0.4l1.8,0.4c0.8,0.2,1.4,0.4,1.7,0.7
			c0.6,0.5,0.9,1.2,0.9,2.1c0,0.9-0.4,1.7-1.1,2.3c-0.7,0.6-1.7,0.9-3,0.9c-1.3,0-2.4-0.3-3.1-0.9c-0.8-0.6-1.1-1.4-1.1-2.5H186.7z"
			/>
		<path d="M200.4,228.2c0.5,0.4,0.7,1.1,0.7,2v5h-2v-4.5c0-0.4-0.1-0.7-0.2-0.9c-0.2-0.4-0.6-0.6-1.1-0.6c-0.7,0-1.1,0.3-1.3,0.8
			c-0.1,0.3-0.2,0.7-0.2,1.1v4h-1.9v-7.4h1.9v1.1c0.2-0.4,0.5-0.7,0.7-0.8c0.4-0.3,0.9-0.5,1.5-0.5
			C199.3,227.6,199.9,227.8,200.4,228.2z"/>
		<path d="M204.9,226.9h-2v-1.8h2V226.9z M203,227.8h2v7.5h-2V227.8z"/>
		<path d="M209.9,225.1c0.1,0,0.2,0,0.4,0v1.6c-0.1,0-0.3,0-0.6,0c-0.3,0-0.4,0-0.5,0.2c-0.1,0.1-0.1,0.3-0.1,0.4s0,0.4,0,0.6h1.3
			v1.4h-1.3v6h-1.9v-6h-1.1v-1.4h1.1v-0.5c0-0.8,0.1-1.3,0.4-1.6c0.3-0.4,1-0.7,2-0.7C209.7,225.1,209.8,225.1,209.9,225.1z"/>
		<path d="M214.6,225.1c0.1,0,0.2,0,0.4,0v1.6c-0.1,0-0.3,0-0.6,0c-0.3,0-0.4,0-0.5,0.2c-0.1,0.1-0.1,0.3-0.1,0.4s0,0.4,0,0.6h1.3
			v1.4h-1.3v6h-1.9v-6h-1.1v-1.4h1.1v-0.5c0-0.8,0.1-1.3,0.4-1.6c0.3-0.4,1-0.7,2-0.7C214.4,225.1,214.5,225.1,214.6,225.1z"/>
		<path d="M216.1,233.2h2.1v2h-2.1V233.2z"/>
		<path d="M31.2,249c0.1,0.5,0.2,0.8,0.4,1c0.3,0.4,0.9,0.6,1.8,0.6c0.5,0,0.9-0.1,1.2-0.2c0.6-0.2,0.9-0.6,0.9-1.2
			c0-0.3-0.1-0.6-0.4-0.8c-0.3-0.2-0.8-0.3-1.4-0.5l-1.1-0.2c-1.1-0.2-1.8-0.5-2.2-0.8c-0.7-0.5-1-1.2-1-2.2c0-0.9,0.3-1.7,1-2.2
			c0.7-0.6,1.6-0.9,2.9-0.9c1.1,0,2,0.3,2.8,0.8c0.8,0.6,1.2,1.4,1.2,2.5h-2c0-0.6-0.3-1-0.8-1.3c-0.3-0.2-0.8-0.3-1.3-0.3
			c-0.6,0-1,0.1-1.3,0.3c-0.3,0.2-0.5,0.5-0.5,0.9c0,0.4,0.2,0.6,0.5,0.8c0.2,0.1,0.7,0.3,1.3,0.4l1.8,0.4c0.8,0.2,1.4,0.4,1.7,0.7
			c0.6,0.5,0.9,1.2,0.9,2.1c0,0.9-0.4,1.7-1.1,2.3c-0.7,0.6-1.7,0.9-3,0.9c-1.3,0-2.4-0.3-3.1-0.9c-0.8-0.6-1.1-1.4-1.1-2.5H31.2z"
			/>
		<path d="M44.9,245c0.5,0.4,0.7,1.1,0.7,2v5h-2v-4.5c0-0.4-0.1-0.7-0.2-0.9c-0.2-0.4-0.6-0.6-1.1-0.6c-0.7,0-1.1,0.3-1.4,0.8
			c-0.1,0.3-0.2,0.7-0.2,1.1v4h-1.9v-7.4h1.9v1.1c0.2-0.4,0.5-0.7,0.7-0.8c0.4-0.3,0.9-0.5,1.5-0.5C43.8,244.4,44.4,244.6,44.9,245z
			"/>
		<path d="M49.4,243.7h-2v-1.8h2V243.7z M47.4,244.6h2v7.5h-2V244.6z"/>
		<path d="M54.4,241.9c0.1,0,0.2,0,0.4,0v1.6c-0.1,0-0.3,0-0.6,0c-0.3,0-0.4,0-0.5,0.2c-0.1,0.1-0.1,0.3-0.1,0.4s0,0.4,0,0.6h1.3
			v1.4h-1.3v6h-1.9v-6h-1.1v-1.4h1.1v-0.5c0-0.8,0.1-1.3,0.4-1.6c0.3-0.4,1-0.7,2-0.7C54.2,241.9,54.3,241.9,54.4,241.9z"/>
		<path d="M59.1,241.9c0.1,0,0.2,0,0.4,0v1.6c-0.1,0-0.3,0-0.6,0c-0.3,0-0.4,0-0.5,0.2c-0.1,0.1-0.1,0.3-0.1,0.4s0,0.4,0,0.6h1.3
			v1.4h-1.3v6h-1.9v-6h-1.1v-1.4h1.1v-0.5c0-0.8,0.1-1.3,0.4-1.6c0.3-0.4,1-0.7,2-0.7C58.8,241.9,59,241.9,59.1,241.9z"/>
		<path d="M60.6,250h2.1v2h-2.1V250z"/>
		<path d="M70.1,249c0.1,0.5,0.2,0.8,0.4,1c0.3,0.4,0.9,0.6,1.8,0.6c0.5,0,0.9-0.1,1.2-0.2c0.6-0.2,0.9-0.6,0.9-1.2
			c0-0.3-0.1-0.6-0.4-0.8c-0.3-0.2-0.8-0.3-1.4-0.5l-1.1-0.2c-1.1-0.2-1.8-0.5-2.2-0.8c-0.7-0.5-1-1.2-1-2.2c0-0.9,0.3-1.7,1-2.2
			c0.7-0.6,1.6-0.9,2.9-0.9c1.1,0,2,0.3,2.8,0.8c0.8,0.6,1.2,1.4,1.2,2.5h-2c0-0.6-0.3-1-0.8-1.3c-0.3-0.2-0.8-0.3-1.3-0.3
			c-0.6,0-1,0.1-1.3,0.3s-0.5,0.5-0.5,0.9c0,0.4,0.2,0.6,0.5,0.8c0.2,0.1,0.7,0.3,1.3,0.4l1.8,0.4c0.8,0.2,1.4,0.4,1.7,0.7
			c0.6,0.5,0.9,1.2,0.9,2.1c0,0.9-0.4,1.7-1.1,2.3c-0.7,0.6-1.7,0.9-3,0.9c-1.3,0-2.4-0.3-3.1-0.9c-0.8-0.6-1.1-1.4-1.1-2.5H70.1z"
			/>
		<path d="M83.8,245c0.5,0.4,0.7,1.1,0.7,2v5h-2v-4.5c0-0.4-0.1-0.7-0.2-0.9c-0.2-0.4-0.6-0.6-1.1-0.6c-0.7,0-1.1,0.3-1.4,0.8
			c-0.1,0.3-0.2,0.7-0.2,1.1v4h-1.9v-7.4h1.9v1.1c0.2-0.4,0.5-0.7,0.7-0.8c0.4-0.3,0.9-0.5,1.5-0.5C82.6,244.4,83.3,244.6,83.8,245z
			"/>
		<path d="M88.3,243.7h-2v-1.8h2V243.7z M86.3,244.6h2v7.5h-2V244.6z"/>
		<path d="M93.3,241.9c0.1,0,0.2,0,0.4,0v1.6c-0.1,0-0.3,0-0.6,0c-0.3,0-0.4,0-0.5,0.2c-0.1,0.1-0.1,0.3-0.1,0.4s0,0.4,0,0.6h1.3
			v1.4h-1.3v6h-1.9v-6h-1.1v-1.4h1.1v-0.5c0-0.8,0.1-1.3,0.4-1.6c0.3-0.4,1-0.7,2-0.7C93.1,241.9,93.2,241.9,93.3,241.9z"/>
		<path d="M97.9,241.9c0.1,0,0.2,0,0.4,0v1.6c-0.1,0-0.3,0-0.6,0c-0.3,0-0.4,0-0.5,0.2c-0.1,0.1-0.1,0.3-0.1,0.4s0,0.4,0,0.6h1.3
			v1.4h-1.3v6h-1.9v-6h-1.1v-1.4h1.1v-0.5c0-0.8,0.1-1.3,0.4-1.6c0.3-0.4,1-0.7,2-0.7C97.7,241.9,97.8,241.9,97.9,241.9z"/>
		<path d="M99.5,250h2.1v2h-2.1V250z"/>
		<path d="M109,249c0.1,0.5,0.2,0.8,0.4,1c0.3,0.4,0.9,0.6,1.8,0.6c0.5,0,0.9-0.1,1.2-0.2c0.6-0.2,0.9-0.6,0.9-1.2
			c0-0.3-0.1-0.6-0.4-0.8c-0.3-0.2-0.8-0.3-1.4-0.5l-1.1-0.2c-1.1-0.2-1.8-0.5-2.2-0.8c-0.7-0.5-1-1.2-1-2.2c0-0.9,0.3-1.7,1-2.2
			c0.7-0.6,1.6-0.9,2.9-0.9c1.1,0,2,0.3,2.8,0.8c0.8,0.6,1.2,1.4,1.2,2.5h-2c0-0.6-0.3-1-0.8-1.3c-0.3-0.2-0.8-0.3-1.3-0.3
			c-0.6,0-1,0.1-1.3,0.3s-0.5,0.5-0.5,0.9c0,0.4,0.2,0.6,0.5,0.8c0.2,0.1,0.7,0.3,1.3,0.4l1.8,0.4c0.8,0.2,1.4,0.4,1.7,0.7
			c0.6,0.5,0.9,1.2,0.9,2.1c0,0.9-0.4,1.7-1.1,2.3c-0.7,0.6-1.7,0.9-3,0.9c-1.3,0-2.4-0.3-3.1-0.9c-0.8-0.6-1.1-1.4-1.1-2.5H109z"/>
		<path d="M122.6,245c0.5,0.4,0.7,1.1,0.7,2v5h-2v-4.5c0-0.4-0.1-0.7-0.2-0.9c-0.2-0.4-0.6-0.6-1.1-0.6c-0.7,0-1.1,0.3-1.4,0.8
			c-0.1,0.3-0.2,0.7-0.2,1.1v4h-1.9v-7.4h1.9v1.1c0.2-0.4,0.5-0.7,0.7-0.8c0.4-0.3,0.9-0.5,1.5-0.5
			C121.5,244.4,122.2,244.6,122.6,245z"/>
		<path d="M127.2,243.7h-2v-1.8h2V243.7z M125.2,244.6h2v7.5h-2V244.6z"/>
		<path d="M132.2,241.9c0.1,0,0.2,0,0.4,0v1.6c-0.1,0-0.3,0-0.6,0c-0.3,0-0.4,0-0.5,0.2c-0.1,0.1-0.1,0.3-0.1,0.4s0,0.4,0,0.6h1.3
			v1.4h-1.3v6h-1.9v-6h-1.1v-1.4h1.1v-0.5c0-0.8,0.1-1.3,0.4-1.6c0.3-0.4,1-0.7,2-0.7C131.9,241.9,132.1,241.9,132.2,241.9z"/>
		<path d="M136.8,241.9c0.1,0,0.2,0,0.4,0v1.6c-0.1,0-0.3,0-0.6,0c-0.3,0-0.4,0-0.5,0.2c-0.1,0.1-0.1,0.3-0.1,0.4s0,0.4,0,0.6h1.3
			v1.4H136v6h-1.9v-6H133v-1.4h1.1v-0.5c0-0.8,0.1-1.3,0.4-1.6c0.3-0.4,1-0.7,2-0.7C136.6,241.9,136.7,241.9,136.8,241.9z"/>
		<path d="M138.4,250h2.1v2h-2.1V250z"/>
		<path d="M147.8,249c0.1,0.5,0.2,0.8,0.4,1c0.3,0.4,0.9,0.6,1.8,0.6c0.5,0,0.9-0.1,1.2-0.2c0.6-0.2,0.9-0.6,0.9-1.2
			c0-0.3-0.1-0.6-0.4-0.8c-0.3-0.2-0.8-0.3-1.4-0.5l-1.1-0.2c-1.1-0.2-1.8-0.5-2.2-0.8c-0.7-0.5-1-1.2-1-2.2c0-0.9,0.3-1.7,1-2.2
			c0.7-0.6,1.6-0.9,2.9-0.9c1.1,0,2,0.3,2.8,0.8c0.8,0.6,1.2,1.4,1.2,2.5h-2c0-0.6-0.3-1-0.8-1.3c-0.3-0.2-0.8-0.3-1.3-0.3
			c-0.6,0-1,0.1-1.3,0.3c-0.3,0.2-0.5,0.5-0.5,0.9c0,0.4,0.2,0.6,0.5,0.8c0.2,0.1,0.7,0.3,1.3,0.4l1.8,0.4c0.8,0.2,1.4,0.4,1.7,0.7
			c0.6,0.5,0.9,1.2,0.9,2.1c0,0.9-0.4,1.7-1.1,2.3c-0.7,0.6-1.7,0.9-3,0.9c-1.3,0-2.4-0.3-3.1-0.9c-0.8-0.6-1.1-1.4-1.1-2.5H147.8z"
			/>
		<path d="M161.5,245c0.5,0.4,0.7,1.1,0.7,2v5h-2v-4.5c0-0.4-0.1-0.7-0.2-0.9c-0.2-0.4-0.6-0.6-1.1-0.6c-0.7,0-1.1,0.3-1.3,0.8
			c-0.1,0.3-0.2,0.7-0.2,1.1v4h-1.9v-7.4h1.9v1.1c0.2-0.4,0.5-0.7,0.7-0.8c0.4-0.3,0.9-0.5,1.5-0.5C160.4,244.4,161,244.6,161.5,245
			z"/>
		<path d="M166.1,243.7h-2v-1.8h2V243.7z M164.1,244.6h2v7.5h-2V244.6z"/>
		<path d="M171,241.9c0.1,0,0.2,0,0.4,0v1.6c-0.1,0-0.3,0-0.6,0c-0.3,0-0.4,0-0.5,0.2c-0.1,0.1-0.1,0.3-0.1,0.4s0,0.4,0,0.6h1.3v1.4
			h-1.3v6h-1.9v-6h-1.1v-1.4h1.1v-0.5c0-0.8,0.1-1.3,0.4-1.6c0.3-0.4,1-0.7,2-0.7C170.8,241.9,170.9,241.9,171,241.9z"/>
		<path d="M175.7,241.9c0.1,0,0.2,0,0.4,0v1.6c-0.1,0-0.3,0-0.6,0c-0.3,0-0.4,0-0.5,0.2c-0.1,0.1-0.1,0.3-0.1,0.4s0,0.4,0,0.6h1.3
			v1.4h-1.3v6h-1.9v-6h-1.1v-1.4h1.1v-0.5c0-0.8,0.1-1.3,0.4-1.6c0.3-0.4,1-0.7,2-0.7C175.5,241.9,175.6,241.9,175.7,241.9z"/>
		<path d="M177.2,250h2.1v2h-2.1V250z"/>
		<path d="M186.7,249c0.1,0.5,0.2,0.8,0.4,1c0.3,0.4,0.9,0.6,1.8,0.6c0.5,0,0.9-0.1,1.2-0.2c0.6-0.2,0.9-0.6,0.9-1.2
			c0-0.3-0.1-0.6-0.4-0.8c-0.3-0.2-0.8-0.3-1.4-0.5l-1.1-0.2c-1.1-0.2-1.8-0.5-2.2-0.8c-0.7-0.5-1-1.2-1-2.2c0-0.9,0.3-1.7,1-2.2
			c0.7-0.6,1.6-0.9,2.9-0.9c1.1,0,2,0.3,2.8,0.8c0.8,0.6,1.2,1.4,1.2,2.5h-2c0-0.6-0.3-1-0.8-1.3c-0.3-0.2-0.8-0.3-1.3-0.3
			c-0.6,0-1,0.1-1.3,0.3c-0.3,0.2-0.5,0.5-0.5,0.9c0,0.4,0.2,0.6,0.5,0.8c0.2,0.1,0.7,0.3,1.3,0.4l1.8,0.4c0.8,0.2,1.4,0.4,1.7,0.7
			c0.6,0.5,0.9,1.2,0.9,2.1c0,0.9-0.4,1.7-1.1,2.3c-0.7,0.6-1.7,0.9-3,0.9c-1.3,0-2.4-0.3-3.1-0.9c-0.8-0.6-1.1-1.4-1.1-2.5H186.7z"
			/>
		<path d="M200.4,245c0.5,0.4,0.7,1.1,0.7,2v5h-2v-4.5c0-0.4-0.1-0.7-0.2-0.9c-0.2-0.4-0.6-0.6-1.1-0.6c-0.7,0-1.1,0.3-1.3,0.8
			c-0.1,0.3-0.2,0.7-0.2,1.1v4h-1.9v-7.4h1.9v1.1c0.2-0.4,0.5-0.7,0.7-0.8c0.4-0.3,0.9-0.5,1.5-0.5
			C199.3,244.4,199.9,244.6,200.4,245z"/>
		<path d="M204.9,243.7h-2v-1.8h2V243.7z M203,244.6h2v7.5h-2V244.6z"/>
		<path d="M209.9,241.9c0.1,0,0.2,0,0.4,0v1.6c-0.1,0-0.3,0-0.6,0c-0.3,0-0.4,0-0.5,0.2c-0.1,0.1-0.1,0.3-0.1,0.4s0,0.4,0,0.6h1.3
			v1.4h-1.3v6h-1.9v-6h-1.1v-1.4h1.1v-0.5c0-0.8,0.1-1.3,0.4-1.6c0.3-0.4,1-0.7,2-0.7C209.7,241.9,209.8,241.9,209.9,241.9z"/>
		<path d="M214.6,241.9c0.1,0,0.2,0,0.4,0v1.6c-0.1,0-0.3,0-0.6,0c-0.3,0-0.4,0-0.5,0.2c-0.1,0.1-0.1,0.3-0.1,0.4s0,0.4,0,0.6h1.3
			v1.4h-1.3v6h-1.9v-6h-1.1v-1.4h1.1v-0.5c0-0.8,0.1-1.3,0.4-1.6c0.3-0.4,1-0.7,2-0.7C214.4,241.9,214.5,241.9,214.6,241.9z"/>
		<path d="M216.1,250h2.1v2h-2.1V250z"/>
		<path d="M31.2,265.8c0.1,0.5,0.2,0.8,0.4,1c0.3,0.4,0.9,0.6,1.8,0.6c0.5,0,0.9-0.1,1.2-0.2c0.6-0.2,0.9-0.6,0.9-1.2
			c0-0.3-0.1-0.6-0.4-0.8c-0.3-0.2-0.8-0.3-1.4-0.5l-1.1-0.2c-1.1-0.2-1.8-0.5-2.2-0.8c-0.7-0.5-1-1.2-1-2.2c0-0.9,0.3-1.7,1-2.2
			c0.7-0.6,1.6-0.9,2.9-0.9c1.1,0,2,0.3,2.8,0.8c0.8,0.6,1.2,1.4,1.2,2.5h-2c0-0.6-0.3-1-0.8-1.3c-0.3-0.2-0.8-0.3-1.3-0.3
			c-0.6,0-1,0.1-1.3,0.3c-0.3,0.2-0.5,0.5-0.5,0.9c0,0.4,0.2,0.6,0.5,0.8c0.2,0.1,0.7,0.3,1.3,0.4l1.8,0.4c0.8,0.2,1.4,0.4,1.7,0.7
			c0.6,0.5,0.9,1.2,0.9,2.1c0,0.9-0.4,1.7-1.1,2.3c-0.7,0.6-1.7,0.9-3,0.9c-1.3,0-2.4-0.3-3.1-0.9c-0.8-0.6-1.1-1.4-1.1-2.5H31.2z"
			/>
		<path d="M44.9,261.8c0.5,0.4,0.7,1.1,0.7,2v5h-2v-4.5c0-0.4-0.1-0.7-0.2-0.9c-0.2-0.4-0.6-0.6-1.1-0.6c-0.7,0-1.1,0.3-1.4,0.8
			c-0.1,0.3-0.2,0.7-0.2,1.1v4h-1.9v-7.4h1.9v1.1c0.2-0.4,0.5-0.7,0.7-0.8c0.4-0.3,0.9-0.5,1.5-0.5
			C43.8,261.2,44.4,261.4,44.9,261.8z"/>
		<path d="M49.4,260.5h-2v-1.8h2V260.5z M47.4,261.4h2v7.5h-2V261.4z"/>
		<path d="M54.4,258.7c0.1,0,0.2,0,0.4,0v1.6c-0.1,0-0.3,0-0.6,0c-0.3,0-0.4,0-0.5,0.2c-0.1,0.1-0.1,0.3-0.1,0.4s0,0.4,0,0.6h1.3
			v1.4h-1.3v6h-1.9v-6h-1.1v-1.4h1.1V261c0-0.8,0.1-1.3,0.4-1.6c0.3-0.4,1-0.7,2-0.7C54.2,258.7,54.3,258.7,54.4,258.7z"/>
		<path d="M59.1,258.7c0.1,0,0.2,0,0.4,0v1.6c-0.1,0-0.3,0-0.6,0c-0.3,0-0.4,0-0.5,0.2c-0.1,0.1-0.1,0.3-0.1,0.4s0,0.4,0,0.6h1.3
			v1.4h-1.3v6h-1.9v-6h-1.1v-1.4h1.1V261c0-0.8,0.1-1.3,0.4-1.6c0.3-0.4,1-0.7,2-0.7C58.8,258.7,59,258.7,59.1,258.7z"/>
		<path d="M60.6,266.8h2.1v2h-2.1V266.8z"/>
		<path d="M70.1,265.8c0.1,0.5,0.2,0.8,0.4,1c0.3,0.4,0.9,0.6,1.8,0.6c0.5,0,0.9-0.1,1.2-0.2c0.6-0.2,0.9-0.6,0.9-1.2
			c0-0.3-0.1-0.6-0.4-0.8c-0.3-0.2-0.8-0.3-1.4-0.5l-1.1-0.2c-1.1-0.2-1.8-0.5-2.2-0.8c-0.7-0.5-1-1.2-1-2.2c0-0.9,0.3-1.7,1-2.2
			c0.7-0.6,1.6-0.9,2.9-0.9c1.1,0,2,0.3,2.8,0.8c0.8,0.6,1.2,1.4,1.2,2.5h-2c0-0.6-0.3-1-0.8-1.3c-0.3-0.2-0.8-0.3-1.3-0.3
			c-0.6,0-1,0.1-1.3,0.3s-0.5,0.5-0.5,0.9c0,0.4,0.2,0.6,0.5,0.8c0.2,0.1,0.7,0.3,1.3,0.4l1.8,0.4c0.8,0.2,1.4,0.4,1.7,0.7
			c0.6,0.5,0.9,1.2,0.9,2.1c0,0.9-0.4,1.7-1.1,2.3c-0.7,0.6-1.7,0.9-3,0.9c-1.3,0-2.4-0.3-3.1-0.9c-0.8-0.6-1.1-1.4-1.1-2.5H70.1z"
			/>
		<path d="M83.8,261.8c0.5,0.4,0.7,1.1,0.7,2v5h-2v-4.5c0-0.4-0.1-0.7-0.2-0.9c-0.2-0.4-0.6-0.6-1.1-0.6c-0.7,0-1.1,0.3-1.4,0.8
			c-0.1,0.3-0.2,0.7-0.2,1.1v4h-1.9v-7.4h1.9v1.1c0.2-0.4,0.5-0.7,0.7-0.8c0.4-0.3,0.9-0.5,1.5-0.5
			C82.6,261.2,83.3,261.4,83.8,261.8z"/>
		<path d="M88.3,260.5h-2v-1.8h2V260.5z M86.3,261.4h2v7.5h-2V261.4z"/>
		<path d="M93.3,258.7c0.1,0,0.2,0,0.4,0v1.6c-0.1,0-0.3,0-0.6,0c-0.3,0-0.4,0-0.5,0.2c-0.1,0.1-0.1,0.3-0.1,0.4s0,0.4,0,0.6h1.3
			v1.4h-1.3v6h-1.9v-6h-1.1v-1.4h1.1V261c0-0.8,0.1-1.3,0.4-1.6c0.3-0.4,1-0.7,2-0.7C93.1,258.7,93.2,258.7,93.3,258.7z"/>
		<path d="M97.9,258.7c0.1,0,0.2,0,0.4,0v1.6c-0.1,0-0.3,0-0.6,0c-0.3,0-0.4,0-0.5,0.2c-0.1,0.1-0.1,0.3-0.1,0.4s0,0.4,0,0.6h1.3
			v1.4h-1.3v6h-1.9v-6h-1.1v-1.4h1.1V261c0-0.8,0.1-1.3,0.4-1.6c0.3-0.4,1-0.7,2-0.7C97.7,258.7,97.8,258.7,97.9,258.7z"/>
		<path d="M99.5,266.8h2.1v2h-2.1V266.8z"/>
		<path d="M109,265.8c0.1,0.5,0.2,0.8,0.4,1c0.3,0.4,0.9,0.6,1.8,0.6c0.5,0,0.9-0.1,1.2-0.2c0.6-0.2,0.9-0.6,0.9-1.2
			c0-0.3-0.1-0.6-0.4-0.8c-0.3-0.2-0.8-0.3-1.4-0.5l-1.1-0.2c-1.1-0.2-1.8-0.5-2.2-0.8c-0.7-0.5-1-1.2-1-2.2c0-0.9,0.3-1.7,1-2.2
			c0.7-0.6,1.6-0.9,2.9-0.9c1.1,0,2,0.3,2.8,0.8c0.8,0.6,1.2,1.4,1.2,2.5h-2c0-0.6-0.3-1-0.8-1.3c-0.3-0.2-0.8-0.3-1.3-0.3
			c-0.6,0-1,0.1-1.3,0.3s-0.5,0.5-0.5,0.9c0,0.4,0.2,0.6,0.5,0.8c0.2,0.1,0.7,0.3,1.3,0.4l1.8,0.4c0.8,0.2,1.4,0.4,1.7,0.7
			c0.6,0.5,0.9,1.2,0.9,2.1c0,0.9-0.4,1.7-1.1,2.3c-0.7,0.6-1.7,0.9-3,0.9c-1.3,0-2.4-0.3-3.1-0.9c-0.8-0.6-1.1-1.4-1.1-2.5H109z"/>
		<path d="M122.6,261.8c0.5,0.4,0.7,1.1,0.7,2v5h-2v-4.5c0-0.4-0.1-0.7-0.2-0.9c-0.2-0.4-0.6-0.6-1.1-0.6c-0.7,0-1.1,0.3-1.4,0.8
			c-0.1,0.3-0.2,0.7-0.2,1.1v4h-1.9v-7.4h1.9v1.1c0.2-0.4,0.5-0.7,0.7-0.8c0.4-0.3,0.9-0.5,1.5-0.5
			C121.5,261.2,122.2,261.4,122.6,261.8z"/>
		<path d="M127.2,260.5h-2v-1.8h2V260.5z M125.2,261.4h2v7.5h-2V261.4z"/>
		<path d="M132.2,258.7c0.1,0,0.2,0,0.4,0v1.6c-0.1,0-0.3,0-0.6,0c-0.3,0-0.4,0-0.5,0.2c-0.1,0.1-0.1,0.3-0.1,0.4s0,0.4,0,0.6h1.3
			v1.4h-1.3v6h-1.9v-6h-1.1v-1.4h1.1V261c0-0.8,0.1-1.3,0.4-1.6c0.3-0.4,1-0.7,2-0.7C131.9,258.7,132.1,258.7,132.2,258.7z"/>
		<path d="M136.8,258.7c0.1,0,0.2,0,0.4,0v1.6c-0.1,0-0.3,0-0.6,0c-0.3,0-0.4,0-0.5,0.2c-0.1,0.1-0.1,0.3-0.1,0.4s0,0.4,0,0.6h1.3
			v1.4H136v6h-1.9v-6H133v-1.4h1.1V261c0-0.8,0.1-1.3,0.4-1.6c0.3-0.4,1-0.7,2-0.7C136.6,258.7,136.7,258.7,136.8,258.7z"/>
		<path d="M138.4,266.8h2.1v2h-2.1V266.8z"/>
		<path d="M147.8,265.8c0.1,0.5,0.2,0.8,0.4,1c0.3,0.4,0.9,0.6,1.8,0.6c0.5,0,0.9-0.1,1.2-0.2c0.6-0.2,0.9-0.6,0.9-1.2
			c0-0.3-0.1-0.6-0.4-0.8c-0.3-0.2-0.8-0.3-1.4-0.5l-1.1-0.2c-1.1-0.2-1.8-0.5-2.2-0.8c-0.7-0.5-1-1.2-1-2.2c0-0.9,0.3-1.7,1-2.2
			c0.7-0.6,1.6-0.9,2.9-0.9c1.1,0,2,0.3,2.8,0.8c0.8,0.6,1.2,1.4,1.2,2.5h-2c0-0.6-0.3-1-0.8-1.3c-0.3-0.2-0.8-0.3-1.3-0.3
			c-0.6,0-1,0.1-1.3,0.3c-0.3,0.2-0.5,0.5-0.5,0.9c0,0.4,0.2,0.6,0.5,0.8c0.2,0.1,0.7,0.3,1.3,0.4l1.8,0.4c0.8,0.2,1.4,0.4,1.7,0.7
			c0.6,0.5,0.9,1.2,0.9,2.1c0,0.9-0.4,1.7-1.1,2.3c-0.7,0.6-1.7,0.9-3,0.9c-1.3,0-2.4-0.3-3.1-0.9c-0.8-0.6-1.1-1.4-1.1-2.5H147.8z"
			/>
		<path d="M161.5,261.8c0.5,0.4,0.7,1.1,0.7,2v5h-2v-4.5c0-0.4-0.1-0.7-0.2-0.9c-0.2-0.4-0.6-0.6-1.1-0.6c-0.7,0-1.1,0.3-1.3,0.8
			c-0.1,0.3-0.2,0.7-0.2,1.1v4h-1.9v-7.4h1.9v1.1c0.2-0.4,0.5-0.7,0.7-0.8c0.4-0.3,0.9-0.5,1.5-0.5
			C160.4,261.2,161,261.4,161.5,261.8z"/>
		<path d="M166.1,260.5h-2v-1.8h2V260.5z M164.1,261.4h2v7.5h-2V261.4z"/>
		<path d="M171,258.7c0.1,0,0.2,0,0.4,0v1.6c-0.1,0-0.3,0-0.6,0c-0.3,0-0.4,0-0.5,0.2c-0.1,0.1-0.1,0.3-0.1,0.4s0,0.4,0,0.6h1.3v1.4
			h-1.3v6h-1.9v-6h-1.1v-1.4h1.1V261c0-0.8,0.1-1.3,0.4-1.6c0.3-0.4,1-0.7,2-0.7C170.8,258.7,170.9,258.7,171,258.7z"/>
		<path d="M175.7,258.7c0.1,0,0.2,0,0.4,0v1.6c-0.1,0-0.3,0-0.6,0c-0.3,0-0.4,0-0.5,0.2c-0.1,0.1-0.1,0.3-0.1,0.4s0,0.4,0,0.6h1.3
			v1.4h-1.3v6h-1.9v-6h-1.1v-1.4h1.1V261c0-0.8,0.1-1.3,0.4-1.6c0.3-0.4,1-0.7,2-0.7C175.5,258.7,175.6,258.7,175.7,258.7z"/>
		<path d="M177.2,266.8h2.1v2h-2.1V266.8z"/>
		<path d="M186.7,265.8c0.1,0.5,0.2,0.8,0.4,1c0.3,0.4,0.9,0.6,1.8,0.6c0.5,0,0.9-0.1,1.2-0.2c0.6-0.2,0.9-0.6,0.9-1.2
			c0-0.3-0.1-0.6-0.4-0.8c-0.3-0.2-0.8-0.3-1.4-0.5l-1.1-0.2c-1.1-0.2-1.8-0.5-2.2-0.8c-0.7-0.5-1-1.2-1-2.2c0-0.9,0.3-1.7,1-2.2
			c0.7-0.6,1.6-0.9,2.9-0.9c1.1,0,2,0.3,2.8,0.8c0.8,0.6,1.2,1.4,1.2,2.5h-2c0-0.6-0.3-1-0.8-1.3c-0.3-0.2-0.8-0.3-1.3-0.3
			c-0.6,0-1,0.1-1.3,0.3c-0.3,0.2-0.5,0.5-0.5,0.9c0,0.4,0.2,0.6,0.5,0.8c0.2,0.1,0.7,0.3,1.3,0.4l1.8,0.4c0.8,0.2,1.4,0.4,1.7,0.7
			c0.6,0.5,0.9,1.2,0.9,2.1c0,0.9-0.4,1.7-1.1,2.3c-0.7,0.6-1.7,0.9-3,0.9c-1.3,0-2.4-0.3-3.1-0.9c-0.8-0.6-1.1-1.4-1.1-2.5H186.7z"
			/>
		<path d="M200.4,261.8c0.5,0.4,0.7,1.1,0.7,2v5h-2v-4.5c0-0.4-0.1-0.7-0.2-0.9c-0.2-0.4-0.6-0.6-1.1-0.6c-0.7,0-1.1,0.3-1.3,0.8
			c-0.1,0.3-0.2,0.7-0.2,1.1v4h-1.9v-7.4h1.9v1.1c0.2-0.4,0.5-0.7,0.7-0.8c0.4-0.3,0.9-0.5,1.5-0.5
			C199.3,261.2,199.9,261.4,200.4,261.8z"/>
		<path d="M204.9,260.5h-2v-1.8h2V260.5z M203,261.4h2v7.5h-2V261.4z"/>
		<path d="M209.9,258.7c0.1,0,0.2,0,0.4,0v1.6c-0.1,0-0.3,0-0.6,0c-0.3,0-0.4,0-0.5,0.2c-0.1,0.1-0.1,0.3-0.1,0.4s0,0.4,0,0.6h1.3
			v1.4h-1.3v6h-1.9v-6h-1.1v-1.4h1.1V261c0-0.8,0.1-1.3,0.4-1.6c0.3-0.4,1-0.7,2-0.7C209.7,258.7,209.8,258.7,209.9,258.7z"/>
		<path d="M214.6,258.7c0.1,0,0.2,0,0.4,0v1.6c-0.1,0-0.3,0-0.6,0c-0.3,0-0.4,0-0.5,0.2c-0.1,0.1-0.1,0.3-0.1,0.4s0,0.4,0,0.6h1.3
			v1.4h-1.3v6h-1.9v-6h-1.1v-1.4h1.1V261c0-0.8,0.1-1.3,0.4-1.6c0.3-0.4,1-0.7,2-0.7C214.4,258.7,214.5,258.7,214.6,258.7z"/>
		<path d="M216.1,266.8h2.1v2h-2.1V266.8z"/>
	</g>
	<g>
		<path d="M416.6,246c0.1,0.5,0.2,0.8,0.4,1c0.3,0.4,0.9,0.6,1.8,0.6c0.5,0,0.9-0.1,1.2-0.2c0.6-0.2,0.9-0.6,0.9-1.2
			c0-0.3-0.1-0.6-0.4-0.8c-0.3-0.2-0.8-0.3-1.4-0.5l-1.1-0.2c-1.1-0.2-1.8-0.5-2.2-0.8c-0.7-0.5-1-1.2-1-2.2c0-0.9,0.3-1.7,1-2.2
			s1.6-0.9,2.9-0.9c1.1,0,2,0.3,2.8,0.8c0.8,0.6,1.2,1.4,1.2,2.5h-2c0-0.6-0.3-1-0.8-1.3c-0.3-0.2-0.8-0.3-1.3-0.3
			c-0.6,0-1,0.1-1.3,0.3c-0.3,0.2-0.5,0.5-0.5,0.9c0,0.4,0.2,0.6,0.5,0.8c0.2,0.1,0.7,0.3,1.3,0.4l1.8,0.4c0.8,0.2,1.4,0.4,1.7,0.7
			c0.6,0.5,0.9,1.2,0.9,2.1c0,0.9-0.4,1.7-1.1,2.3c-0.7,0.6-1.7,0.9-3,0.9c-1.3,0-2.4-0.3-3.1-0.9c-0.8-0.6-1.1-1.4-1.1-2.5H416.6z"
			/>
		<path d="M430.2,242c0.5,0.4,0.7,1.1,0.7,2v5h-2v-4.5c0-0.4-0.1-0.7-0.2-0.9c-0.2-0.4-0.6-0.6-1.1-0.6c-0.7,0-1.1,0.3-1.4,0.8
			c-0.1,0.3-0.2,0.7-0.2,1.1v4h-1.9v-7.4h1.9v1.1c0.2-0.4,0.5-0.7,0.7-0.8c0.4-0.3,0.9-0.5,1.5-0.5
			C429.1,241.4,429.7,241.6,430.2,242z"/>
		<path d="M434.8,240.7h-2v-1.8h2V240.7z M432.8,241.6h2v7.5h-2V241.6z"/>
		<path d="M439.8,238.9c0.1,0,0.2,0,0.4,0v1.6c-0.1,0-0.3,0-0.6,0c-0.3,0-0.4,0-0.5,0.2c-0.1,0.1-0.1,0.3-0.1,0.4s0,0.4,0,0.6h1.3
			v1.4h-1.3v6H437v-6h-1.1v-1.4h1.1v-0.5c0-0.8,0.1-1.3,0.4-1.6c0.3-0.4,1-0.7,2-0.7C439.5,238.9,439.7,238.9,439.8,238.9z"/>
		<path d="M444.4,238.9c0.1,0,0.2,0,0.4,0v1.6c-0.1,0-0.3,0-0.6,0c-0.3,0-0.4,0-0.5,0.2c-0.1,0.1-0.1,0.3-0.1,0.4s0,0.4,0,0.6h1.3
			v1.4h-1.3v6h-1.9v-6h-1.1v-1.4h1.1v-0.5c0-0.8,0.1-1.3,0.4-1.6c0.3-0.4,1-0.7,2-0.7C444.2,238.9,444.3,238.9,444.4,238.9z"/>
		<path d="M446,247h2.1v2H446V247z"/>
	</g>
	<path d="M133.1,356.7c0.5-0.3,1.2-0.1,1.5,0.4c0.1,0.1,0.1,0.2,0.1,0.2l0.1,0.3c0.4,1.4,1.5,2.6,2.9,3l1.4,0.4
		c0.6,0.2-0.9,4.7-1,4.8l-1,1c-0.4,0.4-0.4,1.1,0,1.6c0.2,0.2,0.4,0.3,0.7,0.3h0l3.2,0.1c0.7,0,1.3-0.6,1.3-1.3l1.8-8.3
		c0-0.2-0.1-1.7-1.4-2.3c-1.1-0.5-0.8-3.1-0.5-5.8"/>
	<path d="M103.3,354.3l0.9,13.6c0,0.3,0,0.7-0.2,1c-0.6,1.3-2.3,4.8-3.3,4.8h-3.9c-1.6-0.1-2.3-2.1-1.3-3.3l2.2-2.7
		c0.4-0.5,0.6-1.1,0.4-1.7L94.8,351c-0.1-0.2-0.1-0.5,0-0.7c0,0,1,2,2.8,2.8C99.8,354.1,103.3,354.3,103.3,354.3z"/>
	<path d="M117.1,336.9c-6.5,0-24.6,17.4-14,17.4h7.5c0.5,0,0.9,0.3,1.1,0.8l3.6,11.9c0.1,0.4,0,0.7-0.2,1l-3.2,3.8
		c-0.4,0.5-0.3,1.2,0.1,1.5c0.1,0.1,0.1,0.1,0.2,0.1c0.2,0.1,0.4,0.1,0.6,0.1h5.7c0.6,0,2.4-4.7,2.9-5.9c0.1-0.2,0.1-0.4,0.1-0.6
		l-1.3-8.8c-0.1-0.6,0.3-1.2,0.9-1.3c0.2,0,0.4,0,0.6,0.1c3,1.3,6.8,2.1,11.1,2.1c4.8,0,9.1-1,12.2-2.7c0.5-0.3,1.2-0.1,1.5,0.4
		c0.1,0.1,0.1,0.2,0.1,0.2l0.1,0.3c0.4,1.4,1.5,2.6,2.9,3l1.4,0.4c0.6,0.2-0.9,4.7-1,4.8l-1,1c-0.4,0.4-0.4,1.1,0,1.6
		c0.2,0.2,0.4,0.3,0.7,0.3h0l3.2,0.1c0.7,0,1.3-0.6,1.3-1.3l1.8-8.3c0-0.2-0.1-1.7-1.4-2.3c-1.1-0.5-0.8-3.1-0.5-5.8
		c0.8-7.5-0.6-17.8-12.5-17.8C134.6,333.5,123.6,336.9,117.1,336.9z"/>
	<path d="M141.5,333.5c-6.9,0-17.8,3.4-24.4,3.4s-24.4,8.6-23,12.1c2.7-1.5,4.8-3.5,6.3-5.7c4.2,4.1,11.2,6.8,19.1,6.8
		c5.7,0,11-1.4,15-3.7c4.3,3.4,10.7,5.6,17.8,5.6c0.5,0,1.5,0,1.5,0C155.1,344.2,153.4,333.5,141.5,333.5z"/>
	<path id="tummy_4_" d="M121.7,357.1c0,0,3.8,2,10.8,2.1c7.7,0.1,12.1-2.5,12.1-2.5c-1.2-0.7-2.4-1.4-3.6-2c-6.1-3-13.4-2.2-18.8,2
		L121.7,357.1z"/>
	<path d="M153.8,318.7c-0.3,1.1-0.8,2.8-1.4,4.6h2.8c0.5-2,0.8-3.7,1-4.6C157,312.5,155.5,312.6,153.8,318.7z"/>
	<g>
		<path d="M155.2,323.3h-2.8c-2,6.1-4.8,14.4-4.8,14.4l3.1,2.2C152.1,335.2,155.3,323,155.2,323.3z"/>
	</g>
	<g id="back-on_3_">
		<circle cx="135.9" cy="336" r="0.5"/>
		<circle cx="140.2" cy="335.2" r="0.3"/>
		<circle cx="139.1" cy="336.7" r="0.3"/>
		<circle cx="130.3" cy="337.5" r="0.3"/>
		<circle cx="144.3" cy="336.3" r="0.3"/>
		<circle cx="144.9" cy="338.9" r="0.3"/>
		<circle cx="149.7" cy="338.9" r="0.5"/>
		<circle cx="146.8" cy="336.3" r="0.5"/>
		<circle cx="142.3" cy="337.5" r="0.5"/>
		<circle cx="139.2" cy="339.3" r="0.5"/>
		<circle cx="141.7" cy="335" r="0.5"/>
		<circle cx="133.6" cy="337" r="0.5"/>
		<circle cx="135" cy="338.6" r="0.3"/>
		<circle cx="130.8" cy="336.3" r="0.5"/>
		<circle cx="127.4" cy="337.2" r="0.3"/>
		<circle cx="144.6" cy="341.2" r="0.3"/>
	</g>
	<path style="stroke:#000000;" d="M100.8,364.9l1.1-19.1c0.1-2-1.5-3.6-3.5-3.7l-3.2-0.2c-2.1-0.1-4.1,1.3-4.7,3.2L85.7,364
		c-1,3.8,0.8,7.2,4,7.4l4.9,0.3C97.8,371.9,100.6,368.7,100.8,364.9z"/>
	<path d="M101.5,341c0,0-6.8-0.7-11.8,1.3c-5,2-6.6,7.5-4.5,12.1l0,0l0.6,1.3c0.2,0.5,0.5,1,0.8,1.5l-4.2,1.9
		c-2.6,1.2-3.7,4.3-2.5,6.9l0,0l1.2,2.6c1.2,2.6,4.3,3.7,6.9,2.5l10.7-4.9c4.1,1,15.4-6.5,13.9-9.7l-2.8-12.4
		C108.3,340.9,101.5,341,101.5,341z"/>
	<path style="stroke:#000000;" d="M100.5,365.4l-1.2-20.2c-0.1-2.1,1.7-3.8,4.1-4l3.7-0.2c2.4-0.1,4.7,1.3,5.3,3.4l5.5,19.9
		c1.1,4-0.9,7.6-4.6,7.9l-5.7,0.3C103.9,372.8,100.7,369.4,100.5,365.4z"/>
	<path id="Nose-3_7_" style="stroke:#000000;" d="M93.8,365.2c0,0-1.2,2.7-5.5,4.7c-1.6,0.7-3.7,1-4.8,1.2"/>
	<circle cx="94.7" cy="350.5" r="4"/>
	<path id="nose_9_" style="stroke:#000000;" d="M79.1,366l0.8,1.6c3,2.2,6.6,1.4,8.1-1.7c0.9-1.9,0.8-4.3-0.2-6.4
		c-0.4-0.8-0.9-1.6-1.5-2.3l-5.6,2.6C78.7,360.8,78,363.5,79.1,366C79.1,366,79.1,366,79.1,366z"/>
	<circle cx="85.6" cy="352.6" r="4"/>
	<path style="stroke:#000000;" d="M82.1,353.5c0,0,3.6,3.8,7.2-1.2L82.1,353.5z"/>
	<g>
		<path style="stroke:#000000;" d="M90.7,351.7c0,0,3.9,3.8,8-1.2L90.7,351.7z"/>
	</g>
	<path style="fill:none;stroke:#000000;stroke-miterlimit:10;" d="M454.9,78.1c0,0,35.3,13.4-4.3,68.6"/>
	<path style="fill:none;stroke:#000000;stroke-miterlimit:10;" d="M447.1,81.8c18.9,14.9,22.5,21.8,2.5,48.5"/>
	<path style="fill:none;stroke:#000000;stroke-miterlimit:10;" d="M360.8,285.9c0,0-11.9-19.9-23.6,12.6"/>
	<path style="fill:none;stroke:#000000;stroke-miterlimit:10;" d="M361.5,290.3c-11.7-3.6-15.6-3.1-21,12.8"/>
	<path style="fill:#A6AD00;" d="M98.3,141.4c-1.1-0.6-2.5-0.2-3.1,0.9c-0.1,0.2-0.2,0.3-0.2,0.5l-0.2,0.7c-0.9,3-3.1,5.4-6.1,6.3
		l-2.8,0.9c-1.3,0.5,2,9.9,2.1,10.1l2.2,2.2c0.9,0.9,0.9,2.4,0,3.3c-0.4,0.4-0.9,0.6-1.5,0.6h-0.1l-6.7,0.2c-1.6,0-2.8-1.2-2.8-2.8
		L75.4,147c-0.1-0.4,0.2-3.6,2.8-4.7c2.3-1,1.7-6.6,1-12.2"/>
	<path style="fill:#FFEBC3;" d="M160.7,136.3l-2,28.4c-0.1,0.7,0.1,1.4,0.3,2c1.3,2.7,4.9,10,7,10h8.2c3.4-0.3,4.9-4.3,2.7-6.9
		l-4.6-5.5c-0.9-1-1.2-2.4-0.9-3.6l7.1-31.2c0.1-0.5,0.1-1,0.1-1.4c0,0-2.1,4.2-6,5.8C168.1,135.9,160.7,136.3,160.7,136.3z"/>
	<path style="fill:#FFEBC3;" d="M131.8,99.9c13.6,0,51.6,36.4,29.4,36.4h-15.7c-1,0-2,0.7-2.3,1.7l-7.5,24.9
		c-0.2,0.8-0.1,1.6,0.5,2.1l6.6,8c0.8,1,0.7,2.4-0.2,3.2c-0.1,0.1-0.2,0.2-0.4,0.3c-0.4,0.2-0.8,0.3-1.2,0.3h-12
		c-1.3,0-5.1-9.8-6-12.3c-0.1-0.3-0.2-0.8-0.1-1.2l2.7-18.3c0.2-1.3-0.6-2.4-1.9-2.7c-0.5-0.1-0.9,0-1.3,0.2
		c-6.2,2.8-14.3,4.4-23.2,4.4c-10.1,0-19.1-2.1-25.5-5.5c-1.1-0.6-2.5-0.2-3.1,0.9c-0.1,0.2-0.2,0.3-0.2,0.5l-0.2,0.7
		c-0.9,3-3.1,5.4-6.1,6.3l-2.8,0.9c-1.3,0.5,2,9.9,2.1,10.1l2.2,2.2c0.9,0.9,0.9,2.4,0,3.3c-0.4,0.4-0.9,0.6-1.5,0.6H64l-6.7,0.2
		c-1.6,0-2.8-1.2-2.8-2.8l-3.8-17.4c-0.1-0.4,0.2-3.6,2.8-4.7c2.3-1,1.7-6.6,1-12.2c-1.7-15.8,1.3-37.2,26.2-37.2
		C95.2,92.7,118.2,99.9,131.8,99.9z"/>
	<path style="fill:#A6AD00;" d="M80.8,92.8c14.4-0.1,37.3,7.2,51,7.2c13.6,0,51.1,18,48.2,25.4c-5.6-3.2-10.1-7.2-13.2-11.8
		c-8.8,8.6-23.5,14.2-40.1,14.2c-12,0-23-2.9-31.5-7.8c-9,7.2-22.4,11.7-37.3,11.7c-1,0-3.2-0.1-3.2-0.1
		C52.3,115.3,56,92.8,80.8,92.8z"/>
	<path id="tummy_2_" style="fill:#EABEB5;" d="M122.3,142.3c0,0-7.9,4.3-22.6,4.4c-16.1,0.2-25.3-5.2-25.3-5.2c2.4-1.6,5-3,7.6-4.2
		c12.8-6.2,28.1-4.6,39.3,4.2L122.3,142.3z"/>
	<path style="fill:#FFEBC3;" d="M55,61.9c0.7,2.4,1.7,5.8,3,9.6h-5.9c-1-4.3-1.8-7.8-2-9.6C48.3,48.8,51.4,49.1,55,61.9z"/>
	<g>
		<path style="fill:#A6AD00;" d="M52.1,71.5H58c4.1,12.7,10.1,30.1,10.1,30.1l-6.5,4.5C58.5,96.5,51.9,70.8,52.1,71.5z"/>
	</g>
	<g id="back-on_1_">
		<circle style="fill:#D6D6D6;" cx="92.5" cy="98.1" r="1.1"/>
		<circle style="fill:#D6D6D6;" cx="83.4" cy="96.4" r="0.6"/>
		<circle style="fill:#D6D6D6;" cx="85.9" cy="99.6" r="0.6"/>
		<circle style="fill:#D6D6D6;" cx="104.1" cy="101.3" r="0.6"/>
		<circle style="fill:#D6D6D6;" cx="74.9" cy="98.6" r="0.5"/>
		<circle style="fill:#D6D6D6;" cx="73.7" cy="104.2" r="0.7"/>
		<circle style="fill:#D6D6D6;" cx="63.6" cy="104.2" r="1.1"/>
		<circle style="fill:#D6D6D6;" cx="69.6" cy="98.6" r="1.1"/>
		<circle style="fill:#D6D6D6;" cx="79.2" cy="101.3" r="1.1"/>
		<circle style="fill:#D6D6D6;" cx="85.6" cy="104.9" r="1.1"/>
		<circle style="fill:#D6D6D6;" cx="80.3" cy="95.9" r="1.1"/>
		<circle style="fill:#D6D6D6;" cx="97.2" cy="100.2" r="1.1"/>
		<circle style="fill:#D6D6D6;" cx="94.3" cy="103.4" r="0.7"/>
		<circle style="fill:#D6D6D6;" cx="103.2" cy="98.7" r="0.9"/>
		<circle style="fill:#D6D6D6;" cx="110.4" cy="100.7" r="0.7"/>
		<circle style="fill:#D6D6D6;" cx="74.3" cy="108.9" r="0.6"/>
	</g>
	<path style="stroke:#000000;" d="M165.9,158.6l-2.4-40c-0.2-4.2,3.1-7.6,7.4-7.8l6.7-0.4c4.3-0.3,8.6,2.7,9.7,6.8l10.2,39.6
		c2,7.9-1.6,15.1-8.3,15.5l-10.3,0.6C172.3,173.3,166.4,166.6,165.9,158.6z"/>
	<path style="fill:#A6AD00;" d="M164.6,108.6c0,0,14.2-1.6,24.8,2.7s13.7,15.7,9.3,25.3l0,0l-1.2,2.7c-0.5,1.1-1,2.1-1.6,3.1l8.7,4
		c5.4,2.5,7.8,8.9,5.3,14.4l0,0l-2.5,5.5c-2.5,5.4-9,7.8-14.4,5.3l-22.3-10.3c-8.6,2-32.2-13.7-29.2-20.2l5.9-26
		C150.3,108.4,164.6,108.6,164.6,108.6z"/>
	<path style="stroke:#000000;" d="M166.6,159.6l2.5-42.3c0.3-4.4-3.5-8-8.5-8.3l-7.7-0.5c-5-0.3-9.9,2.8-11.1,7.1l-11.4,41.7
		c-2.3,8.3,1.9,16,9.6,16.4l11.8,0.7C159.4,175.1,166.1,168,166.6,159.6z"/>
	<path id="Nose-3_4_" style="fill:none;stroke:#000000;" d="M180.6,159.1c0,0,2.4,5.6,11.5,9.7c3.3,1.5,7.7,2.2,10.1,2.5"/>
	<circle style="fill:#FFFFFF;" cx="178.8" cy="128.4" r="8.4"/>
	<path id="nose_7_" style="stroke:#000000;" d="M211.4,160.9l-1.6,3.4c-6.3,4.6-13.9,3-17-3.5c-1.8-3.9-1.7-8.9,0.3-13.4
		c0.8-1.8,1.9-3.4,3.2-4.8L208,148C212.2,149.9,213.8,155.6,211.4,160.9C211.4,160.8,211.4,160.8,211.4,160.9z"/>
	<circle style="fill:#FFFFFF;" cx="197.7" cy="132.7" r="8.4"/>
	<path style="stroke:#000000;" d="M205.2,134.6c0,0-7.5,7.9-15.1-2.4L205.2,134.6z"/>
	<g>
		<path style="stroke:#000000;" d="M187.1,130.9c0,0-8.2,7.9-16.7-2.4L187.1,130.9z"/>
	</g>
</g>
<g id="Layer_2">
</g>
</svg>
