<?xml version="1.0" encoding="utf-8"?>
<!-- Generator: Adobe Illustrator 25.2.1, SVG Export Plug-In . SVG Version: 6.00 Build 0)  -->
<svg version="1.1" xmlns="http://www.w3.org/2000/svg" xmlns:xlink="http://www.w3.org/1999/xlink" x="0px" y="0px" width="494.5px"
	 height="399.1px" viewBox="0 0 494.5 399.1" style="enable-background:new 0 0 494.5 399.1;" xml:space="preserve">
<g id="Layer_1">
</g>
<g id="Layer_3">
	<rect x="9.2" y="0" style="fill:#D6D6D6;" width="476.9" height="398.5"/>
	<g>
		<defs>
			<rect id="SVGID_1_" x="525.9" y="0" width="476.9" height="398.5"/>
		</defs>
		<clipPath id="SVGID_2_">
			<use xlink:href="#SVGID_1_"  style="overflow:visible;"/>
		</clipPath>
		<path style="clip-path:url(#SVGID_2_);fill:none;stroke:#8BB9FF;stroke-width:4;stroke-miterlimit:10;" d="M756.4,91.9
			c0,0-50.5,44.4-168.4,5s-104.8,9.8-143.2,12.5"/>
		<path style="clip-path:url(#SVGID_2_);fill:none;stroke:#8BB9FF;stroke-width:4;stroke-miterlimit:10;" d="M488.6,175.4
			c0,0,44.2-26.4,76-37.3c31.8-10.9,32.6-38.2,32.6-38.2"/>
	</g>
	<g>
		<defs>
			<rect id="SVGID_3_" x="9.2" y="204" width="230.1" height="194.4"/>
		</defs>
		<clipPath id="SVGID_4_">
			<use xlink:href="#SVGID_3_"  style="overflow:visible;"/>
		</clipPath>
		<path style="clip-path:url(#SVGID_4_);fill:#FFEBC3;" d="M229.1,400.7c-17.8-7.9-49.9-11.4-66.7-18.7
			c-16.8-7.4-39.9-32.6-39.9-32.6c-19.9-8.7-12-19.6-20.8,0.3l0,0c-12,27.3-22.4,49.2,4.9,61.2"/>
		<path style="clip-path:url(#SVGID_4_);fill:#A6AD00;" d="M89.2,387.1c8.6-0.9,16.4-3.4,22.6-7.5c6.2,15.4,21.3,30.2,41.7,39.2
			l75.5-18.2c-17.7-7.8-49.9-11.3-66.7-18.7c-16.8-7.4-39.9-32.6-39.9-32.6c-19.9-8.7-12-19.6-20.8,0.3
			C95.4,363.8,89.6,376.5,89.2,387.1"/>
		<path style="clip-path:url(#SVGID_4_);stroke:#000000;" d="M105.7,348.4l7.6-67.4c0.8-7-3.8-12.9-10.2-13.7l-10-1.1
			c-6.4-0.7-13.1,3.9-15.1,10.8l-19.1,66.1c-3.8,13.1,0.9,25.6,10.8,26.7l15.3,1.7C94.9,372.7,104.2,361.8,105.7,348.4z"/>
		<path style="clip-path:url(#SVGID_4_);fill:#A6AD00;" d="M147.7,272.4l-38.8-4.3c-15.5-1.7-29.5,9.4-31.3,25l0,0l-0.5,4.4
			c-0.2,1.8-0.3,3.5-0.3,5.2L62.7,301c-8.8-1-16.8,5.3-17.8,14.2l0,0l-1,8.9c-1,8.8,5.4,16.8,14.2,17.8l36.3,4.1
			c9.4,9.2,21.6,14.9,34.6,16.4l8.4,0.9c10.7,1.2,20.3-6.5,21.5-17.2l5.9-52.4C166,283.1,158.3,273.5,147.7,272.4z"/>
		<path style="clip-path:url(#SVGID_4_);stroke:#000000;" d="M129.5,351.1l7.6-67.4c0.8-7,6.6-11.8,13-11.1l10,1.1
			c6.4,0.7,11.9,6.7,12.4,13.9l4,68.7c0.8,13.6-6.5,24.8-16.4,23.7l-15.3-1.7C134.7,377.1,128,364.4,129.5,351.1z"/>
		<path style="clip-path:url(#SVGID_4_);fill:none;stroke:#000000;" d="M56.3,335.5c2.9,1.3,8.1,3.5,13,4.4c0.6,0.1,1.2,0.2,1.8,0.3
			c10.8,1.2,17.6-1.2,20.5-2.6c1.1-0.5,1.6-0.9,1.6-0.9"/>
		
			<ellipse transform="matrix(0.5253 -0.8509 0.8509 0.5253 -200.1788 218.3364)" style="clip-path:url(#SVGID_4_);fill:#FFFFFF;" cx="95.6" cy="288.6" rx="12.4" ry="12.4"/>
		
			<ellipse transform="matrix(0.5253 -0.8509 0.8509 0.5253 -199.6467 245.0595)" style="clip-path:url(#SVGID_4_);fill:#FFFFFF;" cx="119.8" cy="301.5" rx="12.4" ry="12.4"/>
		<path id="Nose-2_6_" style="clip-path:url(#SVGID_4_);stroke:#000000;" d="M94.8,304.3l-24.2-2.7"/>
		<path id="nose_5_" style="clip-path:url(#SVGID_4_);stroke:#000000;" d="M44.9,315.2l-0.7,5.9c6,11.3,20,15.6,31.3,9.6
			c6.7-3.6,11.3-10.3,12.2-17.9c0.3-3,0.1-6.1-0.8-9l-24.3-2.7c-8.7-1.1-16.7,5.2-17.8,14C44.9,315,44.9,315.1,44.9,315.2z"/>
		<path style="clip-path:url(#SVGID_4_);fill:#FF848F;" d="M92,340.6v13c0,6.2-5.1,11.3-11.3,11.3c-6.2,0-11.3-5.1-11.3-11.3v-13.2
			c0.6,0.1,1.2,0.2,1.8,0.3c10.8,1.2,17.6-1.2,20.5-2.6C91.9,338.9,92,339.7,92,340.6z"/>
		
			<ellipse transform="matrix(0.1994 -0.9799 0.9799 0.1994 -203.5856 325.4867)" style="clip-path:url(#SVGID_4_);stroke:#000000;" cx="97.4" cy="287.3" rx="10.5" ry="10.5"/>
		
			<ellipse transform="matrix(0.1994 -0.9799 0.9799 0.1994 -197.1865 359.3266)" style="clip-path:url(#SVGID_4_);stroke:#000000;" cx="121.3" cy="300.3" rx="10.5" ry="10.5"/>
	</g>
	<rect x="9.2" y="0" style="fill:none;stroke:#000000;stroke-miterlimit:10;" width="476.9" height="398.5"/>
	<g>
		<path id="sock_2_" style="fill:#A6AD8A;" d="M417.8,36.3l48.3,12.9l-43.5,101.9c0,0-4.9,16-31.9,15.1c-27-0.9-33.7-10.6-55.4-16
			c-21.7-5.3-24.8-8-27.9-24.8c-3.1-16.8,14.6-27.2,25.3-20.3c10.6,7,35,21.6,45.2,19.4c10.2-2.2,16.8-19.7,13.7-12.4L417.8,36.3z"
			/>
		<polygon style="fill:#FFEBC3;" points="414.3,46.4 462,58.8 459.1,65.8 412,53.2 		"/>
		<polygon style="fill:#FFEBC3;" points="457.3,69.9 454.2,77.2 407.7,65.8 410.3,58.2 		"/>
		<path style="fill:#FFEBC3;" d="M417.8,36.3l48.3,12.9c0,0-2-4.4-22.3-9.9S417.8,36.3,417.8,36.3z"/>
	</g>
	<g>
		<path id="sock_3_" style="fill:#E1CC00;" d="M353.1,58.2l50-2.3l-10.7,110.3c0,0,0.2,16.7-25.9,24c-26.1,7.3-35.3,0-57.7,1.5
			s-26.1-0.1-34.1-15.3c-8-15.1,5.7-30.4,18-26.9c12.2,3.4,39.9,10,49,4.8c9.1-5.2,10.1-23.9,9.4-16L353.1,58.2z"/>
		<polygon style="fill:#FFEBC3;" points="352.9,68.9 402.1,66.4 401.4,73.9 352.7,76.1 		"/>
		<polygon style="fill:#FFEBC3;" points="400.9,78.3 400.2,86.3 352.3,89.4 352.5,81.3 		"/>
		<path style="fill:#FFEBC3;" d="M353.1,58.2l50-2.3c0,0-3.2-3.6-24.2-2.7S353.1,58.2,353.1,58.2z"/>
	</g>
	<g>
		<path id="sock_4_" style="fill:#7998B4;" d="M293.5,22.3l48.3,12.9l-43.5,101.9c0,0-4.9,16-31.9,15.1c-27-0.9-33.7-10.6-55.4-16
			c-21.7-5.3-24.8-8-27.9-24.8c-3.1-16.8,14.6-27.2,25.3-20.3c10.6,7,35,21.6,45.2,19.4c10.2-2.2,16.8-19.7,13.7-12.4L293.5,22.3z"
			/>
		<polygon style="fill:#FFEBC3;" points="290,32.4 337.7,44.9 334.8,51.8 287.7,39.3 		"/>
		<polygon style="fill:#FFEBC3;" points="333,55.9 329.9,63.3 283.3,51.8 285.9,44.2 		"/>
		<path style="fill:#FFEBC3;" d="M293.5,22.3l48.3,12.9c0,0-2-4.4-22.3-9.9S293.5,22.3,293.5,22.3z"/>
	</g>
	<g>
		<path id="sock_5_" style="fill:#FF848F;" d="M222.9,49.1l50,2.4l-21,108.8c0,0-1.4,16.6-28,21.5c-26.6,4.8-35.2-3.3-57.5-3.9
			s-26-2.6-32.5-18.4c-6.6-15.8,8.6-29.7,20.4-25.1s38.8,13.7,48.3,9.4c9.5-4.3,12.3-22.8,10.8-15L222.9,49.1z"/>
		<polygon style="fill:#FFEBC3;" points="221.6,59.8 270.9,61.9 269.5,69.3 220.8,66.9 		"/>
		<polygon style="fill:#FFEBC3;" points="268.6,73.6 267.1,81.5 219.2,80.1 220.1,72.1 		"/>
		<path style="fill:#FFEBC3;" d="M222.9,49.1l50,2.4c0,0-2.9-3.9-23.9-5S222.9,49.1,222.9,49.1z"/>
	</g>
	<g>
		<path id="sock_6_" style="fill:#A6AD8A;" d="M148.6,14.4L197,27.3l-43.5,101.9c0,0-4.9,16-31.9,15.1s-33.7-10.6-55.4-16
			c-21.7-5.3-24.8-8-27.9-24.8c-3.1-16.8,14.6-27.2,25.3-20.3c10.6,7,35,21.6,45.2,19.4c10.2-2.2,16.8-19.7,13.7-12.4L148.6,14.4z"
			/>
		<polygon style="fill:#FFEBC3;" points="145.2,24.6 192.9,37 189.9,43.9 142.8,31.4 		"/>
		<polygon style="fill:#FFEBC3;" points="188.2,48 185,55.4 138.5,43.9 141.1,36.3 		"/>
		<path style="fill:#FFEBC3;" d="M148.6,14.4L197,27.3c0,0-2-4.4-22.3-9.9S148.6,14.4,148.6,14.4z"/>
	</g>
	<g>
		<path id="sock_9_" style="fill:#A6AD00;" d="M427.7,119.3l44.5,22.8l-63.9,90.5c0,0-8.1,14.6-34.4,8
			c-26.3-6.6-30.7-17.5-50.8-27.3c-20.1-9.8-22.6-13-22.1-30.2c0.5-17.1,20-23.5,29-14.5c8.9,9,29.7,28.5,40.1,28.5
			c10.4,0,20.6-15.7,16.1-9.2L427.7,119.3z"/>
		<polygon style="fill:#FFEBC3;" points="422.2,128.5 466.2,150.7 461.9,156.9 418.5,134.7 		"/>
		<polygon style="fill:#FFEBC3;" points="459.3,160.5 454.6,167.1 411.6,146 415.7,139.2 		"/>
		<path style="fill:#FFEBC3;" d="M427.7,119.3l44.5,22.8c0,0-1-4.7-19.7-14.4C433.9,118.1,427.7,119.3,427.7,119.3z"/>
	</g>
	<g>
		<path id="sock_8_" style="fill:#A6DDC4;" d="M219.3,286l35.4,35.3l66.3-88.8c0,0,11.4-12.2-3-35.2c-14.3-22.9-26.1-23.8-41.6-39.9
			S257.1,140,241,145.8c-16.1,5.8-16.2,26.3-4.8,32c11.4,5.7,36.3,19.5,39.5,29.4c3.2,9.9-8.6,24.5-3.8,18.1L219.3,286z"/>
		<polygon style="fill:#FFEBC3;" points="226.3,277.9 261,312.9 265.6,306.9 231,272.5 		"/>
		<polygon style="fill:#FFEBC3;" points="268.2,303.3 273,296.9 239.7,262.4 234.5,268.5 		"/>
		<path style="fill:#FFEBC3;" d="M219.3,286l35.4,35.3c0,0-4.8,0.5-19.8-14.3C220.1,292.3,219.3,286,219.3,286z"/>
	</g>
	<g>
		<path id="sock_10_" style="fill:#FF848F;" d="M400.3,174.1l48.3,12.9l-43.5,101.9c0,0-4.9,16-31.9,15.1c-27-0.9-33.7-10.6-55.4-16
			s-24.8-8-27.9-24.8c-3.1-16.8,14.6-27.2,25.3-20.3c10.6,7,35,21.6,45.2,19.4c10.2-2.2,16.8-19.7,13.7-12.4L400.3,174.1z"/>
		<polygon style="fill:#FFEBC3;" points="396.8,184.2 444.5,196.6 441.6,203.6 394.5,191 		"/>
		<polygon style="fill:#FFEBC3;" points="439.8,207.6 436.7,215 390.1,203.6 392.8,196 		"/>
		<path style="fill:#FFEBC3;" d="M400.3,174.1l48.3,12.9c0,0-2-4.4-22.3-9.9C406.1,171.6,400.3,174.1,400.3,174.1z"/>
	</g>
	<g>
		<path id="sock_11_" style="fill:#A6AD00;" d="M152.8,60l48.3,12.9l-43.5,101.9c0,0-4.9,16-31.9,15.1s-33.7-10.6-55.4-16
			c-21.7-5.3-24.8-8-27.9-24.8c-3.1-16.8,14.6-27.2,25.3-20.3c10.6,7,35,21.6,45.2,19.4c10.2-2.2,16.8-19.7,13.7-12.4L152.8,60z"/>
		<polygon style="fill:#FFEBC3;" points="149.3,70.1 197,82.6 194.1,89.5 146.9,77 		"/>
		<polygon style="fill:#FFEBC3;" points="192.3,93.6 189.2,101 142.6,89.5 145.2,81.9 		"/>
		<path style="fill:#FFEBC3;" d="M152.8,60l48.3,12.9c0,0-2-4.4-22.3-9.9S152.8,60,152.8,60z"/>
	</g>
	<g>
		<path id="sock_7_" style="fill:#7998B4;" d="M331.9,197.5l49.8-5L377,303.2c0,0,1.1,16.7-24.6,25.4s-35.3,1.9-57.5,4.6
			s-26,1.3-34.9-13.4c-8.8-14.7,4.1-30.6,16.5-27.9s40.4,7.9,49.2,2.2s8.8-24.4,8.5-16.5L331.9,197.5z"/>
		<polygon style="fill:#FFEBC3;" points="332.2,208.2 381.2,203 380.9,210.5 332.4,215.4 		"/>
		<polygon style="fill:#FFEBC3;" points="380.7,215 380.4,223 332.8,228.7 332.6,220.7 		"/>
		<path style="fill:#FFEBC3;" d="M331.9,197.5l49.8-5c0,0-3.4-3.4-24.4-1.4C336.4,193.1,331.9,197.5,331.9,197.5z"/>
	</g>
	<g>
		<path id="sock_12_" style="fill:#577700;" d="M402,254.4l48.3,12.9l-43.5,101.9c0,0-4.9,16-31.9,15.1s-33.7-10.6-55.4-16
			c-21.7-5.3-24.8-8-27.9-24.8c-3.1-16.8,14.6-27.2,25.3-20.3c10.6,7,35,21.6,45.2,19.4c10.2-2.2,16.8-19.7,13.7-12.4L402,254.4z"/>
		<polygon style="fill:#FFEBC3;" points="398.5,264.5 446.2,276.9 443.2,283.9 396.1,271.3 		"/>
		<polygon style="fill:#FFEBC3;" points="441.5,288 438.4,295.3 391.8,283.9 394.4,276.3 		"/>
		<path style="fill:#FFEBC3;" d="M402,254.4l48.3,12.9c0,0-2-4.4-22.3-9.9C407.7,251.9,402,254.4,402,254.4z"/>
	</g>
	<rect x="30.8" y="214.4" style="fill:none;" width="209.7" height="77.8"/>
	<text transform="matrix(1 0 0 1 30.7756 224.4976)"><tspan x="0" y="0" style="font-family:'Helvetica-Bold'; font-size:14px;">We always wonder how many </tspan><tspan x="0" y="16.8" style="font-family:'Helvetica-Bold'; font-size:14px;">socks were found in there?</tspan></text>
	<g>
		<defs>
			<rect id="SVGID_5_" x="-259.3" y="-3.2" width="230.5" height="194.4"/>
		</defs>
		<clipPath id="SVGID_6_">
			<use xlink:href="#SVGID_5_"  style="overflow:visible;"/>
		</clipPath>
		<path style="clip-path:url(#SVGID_6_);fill:none;stroke:#8BB9FF;stroke-width:4;stroke-miterlimit:10;" d="M64.2,37.5
			c0,0-24.4,21.7-81.4,2.4s-50.7,4.8-69.2,6.1"/>
	</g>
</g>
<g id="Layer_2">
</g>
</svg>
