<?xml version="1.0" encoding="utf-8"?>
<!-- Generator: Adobe Illustrator 25.2.1, SVG Export Plug-In . SVG Version: 6.00 Build 0)  -->
<svg version="1.1" xmlns="http://www.w3.org/2000/svg" xmlns:xlink="http://www.w3.org/1999/xlink" x="0px" y="0px" width="494.5px"
	 height="399.1px" viewBox="0 0 494.5 399.1" style="enable-background:new 0 0 494.5 399.1;" xml:space="preserve">
<g id="Layer_1">
</g>
<g id="Layer_3">
	<g>
		<defs>
			<rect id="SVGID_1_" x="9.2" y="0" width="476.9" height="398.5"/>
		</defs>
		<clipPath id="SVGID_2_">
			<use xlink:href="#SVGID_1_"  style="overflow:visible;"/>
		</clipPath>
		<rect x="9.2" y="0" style="clip-path:url(#SVGID_2_);fill:#EABEB5;" width="476.9" height="398.5"/>
		<path style="clip-path:url(#SVGID_2_);fill:none;stroke:#8BB9FF;stroke-width:4;stroke-miterlimit:10;" d="M9.2,294.9
			c20.2,7.4,43.4,19.1,69.1,37.2c101.3,71.4,103.2,20.6,140.8,28.9"/>
		<path style="clip-path:url(#SVGID_2_);fill:none;stroke:#8BB9FF;stroke-width:4;stroke-miterlimit:10;" d="M112.7,299.5
			c-33.7,1.3-42.4,27.3-42.4,27.3"/>
		<path style="clip-path:url(#SVGID_2_);fill:none;stroke:#8BB9FF;stroke-width:4;stroke-miterlimit:10;" d="M239.7,91.9
			c0,0-50.5,44.4-168.4,5s-104.8,9.8-143.2,12.5"/>
		<path style="clip-path:url(#SVGID_2_);fill:none;stroke:#8BB9FF;stroke-width:4;stroke-miterlimit:10;" d="M-28.1,175.4
			c0,0,44.2-26.4,76-37.3s32.6-38.2,32.6-38.2"/>
		<path style="clip-path:url(#SVGID_2_);fill:none;stroke:#8BB9FF;stroke-width:4;stroke-miterlimit:10;" d="M557.8,221.2
			c0,0-36.6,56.4-160.8,50.2s-98.3,37.7-134.5,50.7"/>
		<path style="clip-path:url(#SVGID_2_);fill:none;stroke:#8BB9FF;stroke-width:4;stroke-miterlimit:10;" d="M322.5,373.8
			c0,0,35.4-37.4,63.1-56.5s21.1-45.6,21.1-45.6"/>
		<path style="clip-path:url(#SVGID_2_);fill:none;stroke:#8BB9FF;stroke-width:4;stroke-miterlimit:10;" d="M678.5,83.4
			c0,0-50.5,44.4-168.4,5s-104.8,9.8-143.2,12.5"/>
		<path style="clip-path:url(#SVGID_2_);fill:none;stroke:#FF848F;stroke-width:11;stroke-linecap:round;stroke-miterlimit:10;" d="
			M431.8,124.7c-30.9,28.4-46.9,47.8-171.6,71.3c-90.8,17.1-153.1,32.8-206.5,66.5"/>
		
			<line style="clip-path:url(#SVGID_2_);fill:none;stroke:#FF848F;stroke-width:11;stroke-linecap:round;stroke-miterlimit:10;" x1="366.9" y1="130.7" x2="413.8" y2="180.8"/>
		
			<line style="clip-path:url(#SVGID_2_);fill:none;stroke:#FF848F;stroke-width:11;stroke-linecap:round;stroke-miterlimit:10;" x1="308" y1="159.3" x2="325" y2="209.2"/>
		
			<line style="clip-path:url(#SVGID_2_);fill:none;stroke:#FF848F;stroke-width:11;stroke-linecap:round;stroke-miterlimit:10;" x1="246" y1="167.1" x2="273" y2="215"/>
		
			<line style="clip-path:url(#SVGID_2_);fill:none;stroke:#FF848F;stroke-width:11;stroke-linecap:round;stroke-miterlimit:10;" x1="192.6" y1="173.5" x2="209.9" y2="230.8"/>
		
			<line style="clip-path:url(#SVGID_2_);fill:none;stroke:#FF848F;stroke-width:11;stroke-linecap:round;stroke-miterlimit:10;" x1="141.4" y1="184.2" x2="175.3" y2="242.9"/>
		
			<line style="clip-path:url(#SVGID_2_);fill:none;stroke:#FF848F;stroke-width:11;stroke-linecap:round;stroke-miterlimit:10;" x1="88.6" y1="203" x2="116.5" y2="264.8"/>
	</g>
	<rect x="9.2" y="0" style="fill:none;stroke:#000000;stroke-miterlimit:10;" width="476.9" height="398.5"/>
	<rect x="48.9" y="30.3" style="fill:none;" width="409.7" height="77.8"/>
	<text transform="matrix(1 0 0 1 58.1563 40.4045)"><tspan x="0" y="0" style="font-family:'Helvetica-Bold'; font-size:14px;">In fact, he has stitches on his tummy from eating too many </tspan><tspan x="42.4" y="16.8" style="font-family:'Helvetica-Bold'; font-size:14px;">socks. This happened before we adopted him.</tspan></text>
	<g id="next-tummy-2">
		<path style="fill:#FF5700;" d="M456.1,381.6c-1.6,0-3-1.3-3-2.9v-2.2l-11.1,1.4H442c-2.5,0-4.5-2-4.5-4.5V357c0-2.5,2-4.5,4.5-4.5
			h0.1l11.1,1.4v-2.4c0-1.6,1.3-2.9,3-2.9c0.8,0,1.6,0.3,2.1,0.9l12.2,13.1c1,1.1,1.1,2.8,0.1,3.9l-12.2,14
			C457.8,381.2,457,381.6,456.1,381.6L456.1,381.6z"/>
		<path style="fill:#FFFFFF;" d="M456.1,350.1c0.4,0,0.7,0.1,1,0.5l12.2,13.1c0.5,0.5,0.5,1.4,0,1.9l-12.2,14
			c-0.3,0.3-0.7,0.5-1.1,0.5c-0.7,0-1.5-0.6-1.5-1.4v-3.9l-12.7,1.6c-1.7,0-3-1.3-3-3V357c0-1.7,1.3-3,3-3l12.7,1.6v-4.1
			C454.7,350.7,455.4,350.1,456.1,350.1 M456.1,347.1c-2.5,0-4.5,2-4.5,4.4v0.7l-9.3-1.2l-0.2,0H442c-3.3,0-6,2.7-6,6v16.3
			c0,3.3,2.7,6,6,6h0.2l0.2,0l9.3-1.2v0.5c0,2.5,2,4.4,4.5,4.4c1.3,0,2.5-0.6,3.3-1.5l12.2-14c1.5-1.7,1.5-4.3-0.1-6l-12.2-13.1
			C458.5,347.6,457.4,347.1,456.1,347.1L456.1,347.1z"/>
	</g>
</g>
<g id="Layer_2">
</g>
</svg>
