<?xml version="1.0" encoding="utf-8"?>
<!-- Generator: Adobe Illustrator 25.2.1, SVG Export Plug-In . SVG Version: 6.00 Build 0)  -->
<svg version="1.1" xmlns="http://www.w3.org/2000/svg" xmlns:xlink="http://www.w3.org/1999/xlink" x="0px" y="0px" width="494.5px"
	 height="399.1px" viewBox="0 0 494.5 399.1" style="enable-background:new 0 0 494.5 399.1;" xml:space="preserve">
<g id="Layer_1">
</g>
<g id="Layer_3">
	<g>
		<defs>
			<rect id="SVGID_5_" x="255.3" y="0.6" width="230.5" height="194.4"/>
		</defs>
		<clipPath id="SVGID_2_">
			<use xlink:href="#SVGID_5_"  style="overflow:visible;"/>
		</clipPath>
		<rect x="255.3" y="0.6" style="clip-path:url(#SVGID_2_);fill:#EABEB5;" width="230.5" height="194.4"/>
		<path style="clip-path:url(#SVGID_2_);fill:none;stroke:#8BB9FF;stroke-width:4;stroke-miterlimit:10;" d="M255.3,144.5
			c9.8,3.6,21,9.3,33.4,18.2c49,34.8,49.9,10,68,14.1"/>
		<path style="clip-path:url(#SVGID_2_);fill:none;stroke:#8BB9FF;stroke-width:4;stroke-miterlimit:10;" d="M305.3,146.7
			c-16.3,0.7-20.5,13.3-20.5,13.3"/>
		<path style="clip-path:url(#SVGID_2_);fill:none;stroke:#8BB9FF;stroke-width:4;stroke-miterlimit:10;" d="M373.1,3.2
			c0,0-24.4,21.7-81.4,2.4s-50.7,4.8-69.2,6.1"/>
		<path style="clip-path:url(#SVGID_2_);fill:none;stroke:#8BB9FF;stroke-width:4;stroke-miterlimit:10;" d="M243.7,44
			c0,0,21.4-12.9,36.7-18.2s15.7-18.6,15.7-18.6"/>
		<path style="clip-path:url(#SVGID_2_);fill:none;stroke:#8BB9FF;stroke-width:4;stroke-miterlimit:10;" d="M578.7,41.3
			c0,0-24.4,21.7-81.4,2.4s-50.7,4.8-69.2,6.1"/>
		<path style="clip-path:url(#SVGID_2_);fill:none;stroke:#FF848F;stroke-width:9;stroke-linecap:round;stroke-miterlimit:10;" d="
			M459.5,61.4c-14.9,13.9-22.7,23.3-82.9,34.8c-43.9,8.3-74,16-99.8,32.4"/>
		
			<line style="clip-path:url(#SVGID_2_);fill:none;stroke:#FF848F;stroke-width:9;stroke-linecap:round;stroke-miterlimit:10;" x1="428.1" y1="64.4" x2="450.8" y2="88.8"/>
		
			<line style="clip-path:url(#SVGID_2_);fill:none;stroke:#FF848F;stroke-width:9;stroke-linecap:round;stroke-miterlimit:10;" x1="399.7" y1="78.3" x2="407.9" y2="102.7"/>
		
			<line style="clip-path:url(#SVGID_2_);fill:none;stroke:#FF848F;stroke-width:9;stroke-linecap:round;stroke-miterlimit:10;" x1="369.7" y1="82.1" x2="382.7" y2="105.5"/>
		
			<line style="clip-path:url(#SVGID_2_);fill:none;stroke:#FF848F;stroke-width:9;stroke-linecap:round;stroke-miterlimit:10;" x1="343.9" y1="85.2" x2="352.2" y2="113.2"/>
		
			<line style="clip-path:url(#SVGID_2_);fill:none;stroke:#FF848F;stroke-width:9;stroke-linecap:round;stroke-miterlimit:10;" x1="319.2" y1="90.5" x2="335.5" y2="119.1"/>
		
			<line style="clip-path:url(#SVGID_2_);fill:none;stroke:#FF848F;stroke-width:9;stroke-linecap:round;stroke-miterlimit:10;" x1="293.6" y1="99.6" x2="307.1" y2="129.8"/>
	</g>
	<rect x="9.2" y="0.6" style="fill:#D6D6D6;" width="230.1" height="194.4"/>
	<g>
		<defs>
			<rect id="SVGID_7_" x="9.2" y="204" width="230.1" height="194.4"/>
		</defs>
		<clipPath id="SVGID_4_">
			<use xlink:href="#SVGID_7_"  style="overflow:visible;"/>
		</clipPath>
		<path style="clip-path:url(#SVGID_4_);fill:#FFEBC3;" d="M229.1,400.7c-17.8-7.9-49.9-11.4-66.7-18.7
			c-16.8-7.4-39.9-32.6-39.9-32.6c-19.9-8.7-12-19.6-20.8,0.3l0,0c-12,27.3-22.4,49.2,4.9,61.2"/>
		<path style="clip-path:url(#SVGID_4_);fill:#A6AD00;" d="M89.2,387.1c8.6-0.9,16.4-3.4,22.6-7.5c6.2,15.4,21.3,30.2,41.7,39.2
			l75.5-18.2c-17.7-7.8-49.9-11.3-66.7-18.7c-16.8-7.4-39.9-32.6-39.9-32.6c-19.9-8.7-12-19.6-20.8,0.3
			C95.4,363.8,89.6,376.5,89.2,387.1"/>
		<path style="clip-path:url(#SVGID_4_);stroke:#000000;" d="M105.7,348.4l7.6-67.4c0.8-7-3.8-12.9-10.2-13.7l-10-1.1
			c-6.4-0.7-13.1,3.9-15.1,10.8l-19.1,66.1c-3.8,13.1,0.9,25.6,10.8,26.7l15.3,1.7C94.9,372.7,104.2,361.8,105.7,348.4z"/>
		<path style="clip-path:url(#SVGID_4_);fill:#A6AD00;" d="M147.7,272.4l-38.8-4.3c-15.5-1.7-29.5,9.4-31.3,25l0,0l-0.5,4.4
			c-0.2,1.8-0.3,3.5-0.3,5.2L62.7,301c-8.8-1-16.8,5.3-17.8,14.2l0,0l-1,8.9c-1,8.8,5.4,16.8,14.2,17.8l36.3,4.1
			c9.4,9.2,21.6,14.9,34.6,16.4l8.4,0.9c10.7,1.2,20.3-6.5,21.5-17.2l5.9-52.4C166,283.1,158.3,273.5,147.7,272.4z"/>
		<path style="clip-path:url(#SVGID_4_);stroke:#000000;" d="M129.5,351.1l7.6-67.4c0.8-7,6.6-11.8,13-11.1l10,1.1
			c6.4,0.7,11.9,6.7,12.4,13.9l4,68.7c0.8,13.6-6.5,24.8-16.4,23.7l-15.3-1.7C134.7,377.1,128,364.4,129.5,351.1z"/>
		<path style="clip-path:url(#SVGID_4_);fill:none;stroke:#000000;" d="M56.3,335.5c2.9,1.3,8.1,3.5,13,4.4c0.6,0.1,1.2,0.2,1.8,0.3
			c10.8,1.2,17.6-1.2,20.5-2.6c1.1-0.5,1.6-0.9,1.6-0.9"/>
		
			<ellipse transform="matrix(0.5253 -0.8509 0.8509 0.5253 -200.1788 218.3364)" style="clip-path:url(#SVGID_4_);fill:#FFFFFF;" cx="95.6" cy="288.6" rx="12.4" ry="12.4"/>
		
			<ellipse transform="matrix(0.5253 -0.8509 0.8509 0.5253 -199.6467 245.0595)" style="clip-path:url(#SVGID_4_);fill:#FFFFFF;" cx="119.8" cy="301.5" rx="12.4" ry="12.4"/>
		<path id="Nose-2_7_" style="clip-path:url(#SVGID_4_);stroke:#000000;" d="M94.8,304.3l-24.2-2.7"/>
		<path id="nose_6_" style="clip-path:url(#SVGID_4_);stroke:#000000;" d="M44.9,315.2l-0.7,5.9c6,11.3,20,15.6,31.3,9.6
			c6.7-3.6,11.3-10.3,12.2-17.9c0.3-3,0.1-6.1-0.8-9l-24.3-2.7c-8.7-1.1-16.7,5.2-17.8,14C44.9,315,44.9,315.1,44.9,315.2z"/>
		<path style="clip-path:url(#SVGID_4_);fill:none;stroke:#000000;" d="M82.8,288.6c0,0,10.4-8,25.2,1.4"/>
		<path style="clip-path:url(#SVGID_4_);fill:none;stroke:#000000;" d="M107.2,301.9c0,0,10.4-8,25.2,1.4"/>
		<path style="clip-path:url(#SVGID_4_);fill:#FF848F;" d="M92,340.6v13c0,6.2-5.1,11.3-11.3,11.3c-6.2,0-11.3-5.1-11.3-11.3v-13.2
			c0.6,0.1,1.2,0.2,1.8,0.3c10.8,1.2,17.6-1.2,20.5-2.6C91.9,338.9,92,339.7,92,340.6z"/>
	</g>
	<path style="fill:#A6AD00;" d="M113.8,96.3c3.4-2,7.9-0.7,9.7,2.7c0.4,0.5,0.5,1.1,0.7,1.6l0.5,2.2c2.7,9.3,9.7,16.7,18.9,19.6
		l8.8,2.9c4.1,1.4-6.1,30.9-6.6,31.4l-6.8,6.8c-2.9,2.9-2.7,7.4,0,10.2c1.3,1.3,2.9,2,4.7,2h0.2l20.8,0.5c4.9,0,8.6-3.8,8.6-8.6
		l11.9-54.1c0.2-1.3-0.5-11.1-8.8-14.7c-7.2-3.1-5.2-20.5-3.2-37.9"/>
	<path style="fill:#FFEBC3;" d="M65.8,0.6L9.2,31.2V195h16.7c4.5-9.5,9.5-22.3,11.2-27c0.4-1.1,0.5-2.3,0.4-3.6l-8.4-57
		c-0.7-4,2-7.5,5.9-8.3c1.4-0.2,2.9,0,4.1,0.5c19.4,8.6,44.6,13.7,72.1,13.7c31.3,0,59.5-6.6,79.4-17.3c3.4-2,7.9-0.7,9.7,2.7
		c0.4,0.5,0.5,1.1,0.7,1.6l0.5,2.2c2.7,9.3,9.7,16.7,18.9,19.6l8.8,2.9c4.1,1.4-6.1,30.9-6.6,31.4l-6.8,6.8c-2.9,2.9-2.7,7.4,0,10.2
		c1.3,1.3,2.9,2,4.7,2h0.2l18.7,0.5V0.6H65.8z"/>
	<path style="fill:#A6AD00;" d="M9.2,0.6l0,52.4c5.3,0.4,10.7,0.6,16.2,0.6c37.4,0,71.5-9.2,97.9-24.3
		c27.9,22.3,69.5,36.5,115.9,36.5l0-65.2H9.2z"/>
	<path id="tummy-on_3_" style="fill:#EABEB5;" d="M39.4,98.8c0,0,24.4,13.3,70.3,13.7c50.1,0.5,78.5-16.2,78.5-16.2
		c-7.5-4.9-15.5-9.3-23.5-13.1C124.8,63.8,77.3,69,42.5,96.3L39.4,98.8z"/>
	<rect x="9.2" y="0.6" style="fill:none;" width="230.1" height="194.4"/>
	<rect x="255.3" y="0.6" style="fill:none;stroke:#000000;stroke-miterlimit:10;" width="230.1" height="194.4"/>
	<rect x="9.2" y="204" style="fill:none;stroke:#000000;stroke-miterlimit:10;" width="230.1" height="194.4"/>
	<rect x="255.3" y="204" style="fill:#D6D6D6;" width="230.1" height="194.4"/>
	<path style="fill:none;stroke:#C06AEA;stroke-miterlimit:10;" d="M95.3,84.4c0,0,10-7.6,8.3,10.4c-1.5,15.6,8.1,12.4,12.8,13.6"/>
	<path style="fill:none;stroke:#C06AEA;stroke-miterlimit:10;" d="M124.8,102.8c0,0-13-2.9-15.4-6.5s-5.7-2.8-5.7-2.8"/>
	<path style="fill:none;stroke:#C06AEA;stroke-miterlimit:10;" d="M71.3,87.6c1.9,2,3.9,4.6,5.8,8.1c7.6,13.7,10.6,8,14.4,11"/>
	<path style="fill:none;stroke:#C06AEA;stroke-miterlimit:10;" d="M82.8,93.7c-3.9-1.7-6.3,0.8-6.3,0.8"/>
	<path style="fill:none;stroke:#C06AEA;stroke-miterlimit:10;" d="M159,99.7c0,0-7.5,2.7-15.4-1.7s-10-0.6-13.6-0.9"/>
	<path style="fill:none;stroke:#C06AEA;stroke-miterlimit:10;" d="M143.4,87.6c0,0-4.7-4.5-7-8.1"/>
	<path style="fill:none;stroke:#C06AEA;stroke-miterlimit:10;" d="M67.2,94.3c0,0-4.5,4.7-8.1,7"/>
	<path style="fill:none;stroke:#C06AEA;stroke-miterlimit:10;" d="M159,87.6c0,0-4.5,4.7-8.1,7"/>
	<rect x="9.2" y="0.6" style="fill:none;" width="230.1" height="57.4"/>
	<text transform="matrix(1 0 0 1 23.8482 25.9068)"><tspan x="0" y="0" style="font-family:'Helvetica-Bold'; font-size:14px;">Up close, Jack’s tummy might </tspan><tspan x="34.2" y="16.8" style="font-family:'Helvetica-Bold'; font-size:14px;">look gross to some.</tspan></text>
	<rect x="277.9" y="46.9" style="fill:none;" width="59.4" height="46.1"/>
	<text transform="matrix(1 0 0 1 277.8877 56.9596)" style="font-family:'Helvetica-Bold'; font-size:14px;">It’s bald.</text>
	<rect x="20.9" y="220" style="fill:none;" width="209.7" height="46.1"/>
	<text transform="matrix(1 0 0 1 24.6139 230.1054)"><tspan x="0" y="0" style="font-family:'Helvetica-Bold'; font-size:14px;">But he doesn’t care as long as </tspan><tspan x="32.3" y="16.8" style="font-family:'Helvetica-Bold'; font-size:14px;">he can put food in it! </tspan></text>
	<g>
		<rect x="272.3" y="220" style="fill:none;" width="209.7" height="16.9"/>
		<text transform="matrix(1 0 0 1 272.2986 230.1055)" style="font-family:'Helvetica-Bold'; font-size:14px;">Especially socks.</text>
	</g>
	<text transform="matrix(1 0 0 1 395.9258 173.2384)" style="font-family:'Helvetica-Bold'; font-size:14px;"> And veiny.</text>
	<g>
		<path id="sock_1_" style="fill:#A6AD00;" d="M408.4,246.7l48.3,12.9l-43.5,101.9c0,0-4.9,16-31.9,15.1c-27-0.9-33.7-10.6-55.4-16
			s-24.8-8-27.9-24.8c-3.1-16.8,14.6-27.2,25.3-20.3c10.6,7,35,21.6,45.2,19.4c10.2-2.2,16.8-19.7,13.7-12.4L408.4,246.7z"/>
		<polygon style="fill:#FFEBC3;" points="404.9,256.8 452.6,269.2 449.6,276.2 402.5,263.6 		"/>
		<polygon style="fill:#FFEBC3;" points="447.9,280.3 444.7,287.6 398.2,276.2 400.8,268.6 		"/>
		<path style="fill:#FFEBC3;" d="M408.4,246.7l48.3,12.9c0,0-2-4.4-22.3-9.9C414.1,244.2,408.4,246.7,408.4,246.7z"/>
	</g>
	<circle style="fill:#FF848F;" cx="437.6" cy="18.2" r="7.6"/>
	<circle style="fill:#FF848F;" cx="277.9" cy="108.7" r="3.8"/>
	<circle style="fill:#FF848F;" cx="321.8" cy="156" r="3.8"/>
	<circle style="fill:#FF848F;" cx="386.6" cy="31.1" r="3.8"/>
	<circle style="fill:#FF848F;" cx="269.6" cy="13.8" r="3.8"/>
	<circle style="fill:#FF848F;" cx="468.3" cy="124.9" r="3.8"/>
	<circle style="fill:#FF848F;" cx="464.3" cy="13.8" r="3.8"/>
	<circle style="fill:#FF848F;" cx="475.9" cy="106.6" r="3.8"/>
	<circle style="fill:#FF848F;" cx="277.9" cy="177.8" r="3.8"/>
	<rect x="9.2" y="0.6" style="fill:none;stroke:#000000;stroke-miterlimit:10;" width="230.1" height="194.4"/>
	<circle style="fill:#FF848F;" cx="352.1" cy="148.1" r="3.8"/>
	<rect x="255.3" y="204" style="fill:none;stroke:#000000;stroke-miterlimit:10;" width="230.1" height="194.4"/>
	<g id="next-tummy-1">
		<path style="fill:#FF5700;" d="M458,385.3c-1.6,0-3-1.3-3-2.9v-2.2l-11.1,1.4h-0.1c-2.5,0-4.5-2-4.5-4.5v-16.3
			c0-2.5,2-4.5,4.5-4.5h0.1l11.1,1.4v-2.4c0-1.6,1.3-2.9,3-2.9c0.8,0,1.6,0.3,2.1,0.9l12.2,13.1c1,1.1,1.1,2.8,0.1,3.9l-12.2,14
			C459.6,385,458.8,385.3,458,385.3L458,385.3z"/>
		<path style="fill:#FFFFFF;" d="M458,353.9c0.4,0,0.7,0.1,1,0.5l12.2,13.1c0.5,0.5,0.5,1.4,0,1.9l-12.2,14
			c-0.3,0.3-0.7,0.5-1.1,0.5c-0.7,0-1.5-0.6-1.5-1.4v-3.9l-12.7,1.6c-1.7,0-3-1.3-3-3v-16.3c0-1.7,1.3-3,3-3l12.7,1.6v-4.1
			C456.5,354.5,457.2,353.9,458,353.9 M458,350.9c-2.5,0-4.5,2-4.5,4.4v0.7l-9.3-1.2l-0.2,0h-0.2c-3.3,0-6,2.7-6,6v16.3
			c0,3.3,2.7,6,6,6h0.2l0.2,0l9.3-1.2v0.5c0,2.5,2,4.4,4.5,4.4c1.3,0,2.5-0.6,3.3-1.5l12.2-14c1.5-1.7,1.5-4.3-0.1-6l-12.2-13.1
			C460.3,351.4,459.2,350.9,458,350.9L458,350.9z"/>
	</g>
</g>
<g id="Layer_2">
</g>
</svg>
