<?xml version="1.0" encoding="utf-8"?>
<!-- Generator: Adobe Illustrator 25.2.1, SVG Export Plug-In . SVG Version: 6.00 Build 0)  -->
<svg version="1.1" xmlns="http://www.w3.org/2000/svg" xmlns:xlink="http://www.w3.org/1999/xlink" x="0px" y="0px" width="494.5px"
	 height="399.1px" viewBox="0 0 494.5 399.1" style="enable-background:new 0 0 494.5 399.1;" xml:space="preserve">
<g id="Layer_1">
</g>
<g id="Layer_3">
	<g>
		<defs>
			<polyline id="SVGID_5_" points="485.7,40.1 485.7,195 255.3,195 255.3,0.6 485.7,0.6 485.7,40.1 			"/>
		</defs>
		<clipPath id="SVGID_2_">
			<use xlink:href="#SVGID_5_"  style="overflow:visible;"/>
		</clipPath>
		<rect x="255.3" y="0.6" style="clip-path:url(#SVGID_2_);fill:#EABEB5;" width="230.5" height="194.4"/>
		<path style="clip-path:url(#SVGID_2_);fill:none;stroke:#8BB9FF;stroke-width:4;stroke-miterlimit:10;" d="M255.3,144.5
			c9.8,3.6,21,9.3,33.4,18.2c49,34.8,49.9,10,68,14.1"/>
		<path style="clip-path:url(#SVGID_2_);fill:none;stroke:#8BB9FF;stroke-width:4;stroke-miterlimit:10;" d="M305.3,146.7
			c-16.3,0.7-20.5,13.3-20.5,13.3"/>
		<path style="clip-path:url(#SVGID_2_);fill:none;stroke:#8BB9FF;stroke-width:4;stroke-miterlimit:10;" d="M373.1,3.2
			c0,0-24.4,21.7-81.4,2.4C283.9,3,277.2,1.2,271.5,0"/>
		<path style="clip-path:url(#SVGID_2_);fill:none;stroke:#8BB9FF;stroke-width:4;stroke-miterlimit:10;" d="M243.7,44
			c0,0,21.4-12.9,36.7-18.2s15.7-18.6,15.7-18.6"/>
		<path style="clip-path:url(#SVGID_2_);fill:none;stroke:#8BB9FF;stroke-width:4;stroke-miterlimit:10;" d="M485.7,40.1
			c-44.6-12.2-40.4,8.4-57.6,9.7"/>
		<path style="clip-path:url(#SVGID_2_);fill:none;stroke:#FF848F;stroke-width:9;stroke-linecap:round;stroke-miterlimit:10;" d="
			M459.5,61.4c-14.9,13.9-22.7,23.3-82.9,34.8c-43.9,8.3-74,16-99.8,32.4"/>
		
			<line style="clip-path:url(#SVGID_2_);fill:none;stroke:#FF848F;stroke-width:9;stroke-linecap:round;stroke-miterlimit:10;" x1="428.1" y1="64.4" x2="450.8" y2="88.8"/>
		
			<line style="clip-path:url(#SVGID_2_);fill:none;stroke:#FF848F;stroke-width:9;stroke-linecap:round;stroke-miterlimit:10;" x1="399.7" y1="78.3" x2="407.9" y2="102.7"/>
		
			<line style="clip-path:url(#SVGID_2_);fill:none;stroke:#FF848F;stroke-width:9;stroke-linecap:round;stroke-miterlimit:10;" x1="369.7" y1="82.1" x2="382.7" y2="105.5"/>
		
			<line style="clip-path:url(#SVGID_2_);fill:none;stroke:#FF848F;stroke-width:9;stroke-linecap:round;stroke-miterlimit:10;" x1="343.9" y1="85.2" x2="352.2" y2="113.2"/>
		
			<line style="clip-path:url(#SVGID_2_);fill:none;stroke:#FF848F;stroke-width:9;stroke-linecap:round;stroke-miterlimit:10;" x1="319.2" y1="90.5" x2="335.5" y2="119.1"/>
		
			<line style="clip-path:url(#SVGID_2_);fill:none;stroke:#FF848F;stroke-width:9;stroke-linecap:round;stroke-miterlimit:10;" x1="293.6" y1="99.6" x2="307.1" y2="129.8"/>
	</g>
	<rect x="9.2" y="0.6" style="fill:#D6D6D6;" width="230.1" height="194.4"/>
	<g>
		<defs>
			<rect id="SVGID_7_" x="9.2" y="204" width="230.1" height="194.4"/>
		</defs>
		<clipPath id="SVGID_4_">
			<use xlink:href="#SVGID_7_"  style="overflow:visible;"/>
		</clipPath>
		<path style="clip-path:url(#SVGID_4_);fill:#FFEBC3;" d="M229.1,400.7c-17.8-7.9-49.9-11.4-66.7-18.7
			c-16.8-7.4-39.9-32.6-39.9-32.6c-19.9-8.7-12-19.6-20.8,0.3l0,0c-12,27.3-22.4,49.2,4.9,61.2"/>
		<path style="clip-path:url(#SVGID_4_);fill:#A6AD00;" d="M89.2,387.1c8.6-0.9,16.4-3.4,22.6-7.5c6.2,15.4,21.3,30.2,41.7,39.2
			l75.5-18.2c-17.7-7.8-49.9-11.3-66.7-18.7c-16.8-7.4-39.9-32.6-39.9-32.6c-19.9-8.7-12-19.6-20.8,0.3
			C95.4,363.8,89.6,376.5,89.2,387.1"/>
		<path style="clip-path:url(#SVGID_4_);stroke:#000000;" d="M105.7,348.4l7.6-67.4c0.8-7-3.8-12.9-10.2-13.7l-10-1.1
			c-6.4-0.7-13.1,3.9-15.1,10.8l-19.1,66.1c-3.8,13.1,0.9,25.6,10.8,26.7l15.3,1.7C94.9,372.7,104.2,361.8,105.7,348.4z"/>
		<path style="clip-path:url(#SVGID_4_);fill:#A6AD00;" d="M147.7,272.4l-38.8-4.3c-15.5-1.7-29.5,9.4-31.3,25l0,0l-0.5,4.4
			c-0.2,1.8-0.3,3.5-0.3,5.2L62.7,301c-8.8-1-16.8,5.3-17.8,14.2l0,0l-1,8.9c-1,8.8,5.4,16.8,14.2,17.8l36.3,4.1
			c9.4,9.2,21.6,14.9,34.6,16.4l8.4,0.9c10.7,1.2,20.3-6.5,21.5-17.2l5.9-52.4C166,283.1,158.3,273.5,147.7,272.4z"/>
		<path style="clip-path:url(#SVGID_4_);stroke:#000000;" d="M129.5,351.1l7.6-67.4c0.8-7,6.6-11.8,13-11.1l10,1.1
			c6.4,0.7,11.9,6.7,12.4,13.9l4,68.7c0.8,13.6-6.5,24.8-16.4,23.7l-15.3-1.7C134.7,377.1,128,364.4,129.5,351.1z"/>
		<path style="clip-path:url(#SVGID_4_);fill:none;stroke:#000000;" d="M56.3,335.5c2.9,1.3,8.1,3.5,13,4.4c0.6,0.1,1.2,0.2,1.8,0.3
			c10.8,1.2,17.6-1.2,20.5-2.6c1.1-0.5,1.6-0.9,1.6-0.9"/>
		
			<ellipse transform="matrix(0.5253 -0.8509 0.8509 0.5253 -200.1788 218.3364)" style="clip-path:url(#SVGID_4_);fill:#FFFFFF;" cx="95.6" cy="288.6" rx="12.4" ry="12.4"/>
		
			<ellipse transform="matrix(0.5253 -0.8509 0.8509 0.5253 -199.6467 245.0595)" style="clip-path:url(#SVGID_4_);fill:#FFFFFF;" cx="119.8" cy="301.5" rx="12.4" ry="12.4"/>
		<path id="Nose-2_7_" style="clip-path:url(#SVGID_4_);stroke:#000000;" d="M94.8,304.3l-24.2-2.7"/>
		<path id="nose_6_" style="clip-path:url(#SVGID_4_);stroke:#000000;" d="M44.9,315.2l-0.7,5.9c6,11.3,20,15.6,31.3,9.6
			c6.7-3.6,11.3-10.3,12.2-17.9c0.3-3,0.1-6.1-0.8-9l-24.3-2.7c-8.7-1.1-16.7,5.2-17.8,14C44.9,315,44.9,315.1,44.9,315.2z"/>
		<path style="clip-path:url(#SVGID_4_);fill:none;stroke:#000000;" d="M82.8,288.6c0,0,10.4-8,25.2,1.4"/>
		<path style="clip-path:url(#SVGID_4_);fill:none;stroke:#000000;" d="M107.2,301.9c0,0,10.4-8,25.2,1.4"/>
		<path style="clip-path:url(#SVGID_4_);fill:#FF848F;" d="M92,340.6v13c0,6.2-5.1,11.3-11.3,11.3c-6.2,0-11.3-5.1-11.3-11.3v-13.2
			c0.6,0.1,1.2,0.2,1.8,0.3c10.8,1.2,17.6-1.2,20.5-2.6C91.9,338.9,92,339.7,92,340.6z"/>
	</g>
	<path style="fill:#A6AD00;" d="M113.8,96.3c3.4-2,7.9-0.7,9.7,2.7c0.4,0.5,0.5,1.1,0.7,1.6l0.5,2.2c2.7,9.3,9.7,16.7,18.9,19.6
		l8.8,2.9c4.1,1.4-6.1,30.9-6.6,31.4l-6.8,6.8c-2.9,2.9-2.7,7.4,0,10.2c1.3,1.3,2.9,2,4.7,2h0.2l20.8,0.5c4.9,0,8.6-3.8,8.6-8.6
		l11.9-54.1c0.2-1.3-0.5-11.1-8.8-14.7c-7.2-3.1-5.2-20.5-3.2-37.9"/>
	<path style="fill:#FFEBC3;" d="M65.8,0.6L9.2,31.2V195h16.7c4.5-9.5,9.5-22.3,11.2-27c0.4-1.1,0.5-2.3,0.4-3.6l-8.4-57
		c-0.7-4,2-7.5,5.9-8.3c1.4-0.2,2.9,0,4.1,0.5c19.4,8.6,44.6,13.7,72.1,13.7c31.3,0,59.5-6.6,79.4-17.3c3.4-2,7.9-0.7,9.7,2.7
		c0.4,0.5,0.5,1.1,0.7,1.6l0.5,2.2c2.7,9.3,9.7,16.7,18.9,19.6l8.8,2.9c4.1,1.4-6.1,30.9-6.6,31.4l-6.8,6.8c-2.9,2.9-2.7,7.4,0,10.2
		c1.3,1.3,2.9,2,4.7,2h0.2l18.7,0.5V0.6H65.8z"/>
	<path style="fill:#A6AD00;" d="M9.2,0.6l0,52.4c5.3,0.4,10.7,0.6,16.2,0.6c37.4,0,71.5-9.2,97.9-24.3
		c27.9,22.3,69.5,36.5,115.9,36.5l0-65.2H9.2z"/>
	<path id="tummy-on_3_" style="fill:#EABEB5;" d="M39.4,98.8c0,0,24.4,13.3,70.3,13.7c50.1,0.5,78.5-16.2,78.5-16.2
		c-7.5-4.9-15.5-9.3-23.5-13.1C124.8,63.8,77.3,69,42.5,96.3L39.4,98.8z"/>
	<rect x="9.2" y="0.6" style="fill:none;" width="230.1" height="194.4"/>
	<rect x="255.3" y="0.6" style="fill:none;stroke:#000000;stroke-miterlimit:10;" width="230.1" height="194.4"/>
	<rect x="9.2" y="204" style="fill:none;stroke:#000000;stroke-miterlimit:10;" width="230.1" height="194.4"/>
	<rect x="255.3" y="204" style="fill:#D6D6D6;" width="230.1" height="194.4"/>
	<path style="fill:none;stroke:#C06AEA;stroke-miterlimit:10;" d="M95.3,84.4c0,0,10-7.6,8.3,10.4c-1.5,15.6,8.1,12.4,12.8,13.6"/>
	<path style="fill:none;stroke:#C06AEA;stroke-miterlimit:10;" d="M124.8,102.8c0,0-13-2.9-15.4-6.5s-5.7-2.8-5.7-2.8"/>
	<path style="fill:none;stroke:#C06AEA;stroke-miterlimit:10;" d="M71.3,87.6c1.9,2,3.9,4.6,5.8,8.1c7.6,13.7,10.6,8,14.4,11"/>
	<path style="fill:none;stroke:#C06AEA;stroke-miterlimit:10;" d="M82.8,93.7c-3.9-1.7-6.3,0.8-6.3,0.8"/>
	<path style="fill:none;stroke:#C06AEA;stroke-miterlimit:10;" d="M159,99.7c0,0-7.5,2.7-15.4-1.7s-10-0.6-13.6-0.9"/>
	<path style="fill:none;stroke:#C06AEA;stroke-miterlimit:10;" d="M143.4,87.6c0,0-4.7-4.5-7-8.1"/>
	<path style="fill:none;stroke:#C06AEA;stroke-miterlimit:10;" d="M67.2,94.3c0,0-4.5,4.7-8.1,7"/>
	<path style="fill:none;stroke:#C06AEA;stroke-miterlimit:10;" d="M159,87.6c0,0-4.5,4.7-8.1,7"/>
	<g>
		<path d="M25.2,15.8h2.1V22c0,0.7,0.1,1.2,0.2,1.5c0.3,0.6,0.8,0.8,1.7,0.8c0.8,0,1.4-0.3,1.7-0.8c0.2-0.3,0.2-0.8,0.2-1.5v-6.2
			h2.1V22c0,1.1-0.2,1.9-0.5,2.5c-0.6,1.1-1.8,1.6-3.5,1.6s-2.9-0.5-3.5-1.6c-0.3-0.6-0.5-1.4-0.5-2.5V15.8z"/>
		<path d="M41.4,19.3c0.6,0.6,0.9,1.6,0.9,2.8c0,1.3-0.3,2.3-0.9,3c-0.6,0.7-1.4,1-2.3,1c-0.6,0-1.1-0.1-1.5-0.4
			c-0.2-0.2-0.4-0.4-0.6-0.7v3.9h-1.9V18.5h1.9v1.1c0.2-0.3,0.4-0.6,0.7-0.8c0.4-0.3,1-0.5,1.6-0.5C40,18.3,40.8,18.6,41.4,19.3z
			 M39.9,20.7c-0.3-0.4-0.7-0.7-1.3-0.7c-0.7,0-1.2,0.3-1.5,1c-0.1,0.4-0.2,0.8-0.2,1.4c0,0.9,0.2,1.5,0.7,1.8
			c0.3,0.2,0.6,0.3,1,0.3c0.5,0,1-0.2,1.3-0.6c0.3-0.4,0.4-1,0.4-1.7C40.3,21.6,40.2,21.1,39.9,20.7z"/>
		<path d="M52,21.1c0-0.3-0.1-0.5-0.3-0.8c-0.2-0.3-0.6-0.5-1-0.5c-0.7,0-1.1,0.3-1.4,1c-0.1,0.3-0.2,0.8-0.2,1.4
			c0,0.5,0.1,1,0.2,1.3c0.2,0.6,0.7,0.9,1.3,0.9c0.5,0,0.8-0.1,1-0.4s0.3-0.6,0.3-1h2c0,0.6-0.3,1.2-0.6,1.7
			c-0.6,0.9-1.5,1.3-2.7,1.3s-2.1-0.4-2.6-1.1c-0.6-0.7-0.8-1.6-0.8-2.8c0-1.3,0.3-2.3,0.9-3s1.5-1.1,2.6-1.1c0.9,0,1.7,0.2,2.3,0.6
			s0.9,1.2,1.1,2.2H52z"/>
		<path d="M57.3,25.9h-1.9V15.8h1.9V25.9z"/>
		<path d="M65.5,25c-0.6,0.8-1.6,1.2-2.9,1.2s-2.2-0.4-2.9-1.2s-0.9-1.7-0.9-2.8c0-1.1,0.3-2,0.9-2.8s1.6-1.2,2.9-1.2
			s2.2,0.4,2.9,1.2s0.9,1.7,0.9,2.8C66.4,23.3,66.1,24.2,65.5,25z M63.9,23.9c0.3-0.4,0.5-1,0.5-1.7c0-0.7-0.2-1.3-0.5-1.7
			c-0.3-0.4-0.7-0.6-1.3-0.6s-1,0.2-1.3,0.6c-0.3,0.4-0.5,1-0.5,1.7c0,0.7,0.2,1.3,0.5,1.7s0.7,0.6,1.3,0.6S63.6,24.3,63.9,23.9z"/>
		<path d="M69.3,23.5c0,0.3,0.1,0.6,0.3,0.7c0.2,0.3,0.7,0.4,1.3,0.4c0.4,0,0.7-0.1,0.9-0.2s0.3-0.3,0.3-0.5c0-0.2-0.1-0.4-0.3-0.5
			s-0.9-0.3-2-0.6c-0.8-0.2-1.4-0.5-1.8-0.8c-0.3-0.3-0.5-0.8-0.5-1.3c0-0.7,0.3-1.3,0.8-1.8c0.5-0.5,1.3-0.7,2.3-0.7
			c0.9,0,1.7,0.2,2.3,0.6c0.6,0.4,0.9,1,1,1.9H72c0-0.3-0.1-0.4-0.2-0.6c-0.2-0.3-0.6-0.4-1.1-0.4c-0.4,0-0.7,0.1-0.9,0.2
			c-0.2,0.1-0.3,0.3-0.3,0.5c0,0.2,0.1,0.4,0.3,0.5c0.2,0.1,0.9,0.3,2,0.5c0.8,0.2,1.4,0.5,1.7,0.8c0.4,0.4,0.6,0.8,0.6,1.4
			c0,0.7-0.3,1.3-0.8,1.8c-0.6,0.5-1.4,0.7-2.6,0.7c-1.2,0-2-0.2-2.6-0.7c-0.6-0.5-0.8-1.1-0.8-1.9H69.3z"/>
		<path d="M80.4,18.6c0.5,0.2,0.9,0.6,1.3,1.1c0.3,0.4,0.5,1,0.6,1.5c0.1,0.3,0.1,0.8,0.1,1.5H77c0,0.7,0.3,1.3,0.8,1.6
			c0.3,0.2,0.7,0.3,1.1,0.3c0.4,0,0.8-0.1,1.1-0.3c0.2-0.1,0.3-0.3,0.4-0.5h2c-0.1,0.4-0.3,0.9-0.7,1.3c-0.7,0.7-1.6,1.1-2.8,1.1
			c-1,0-1.9-0.3-2.6-0.9c-0.8-0.6-1.1-1.6-1.1-3c0-1.3,0.3-2.3,1-3c0.7-0.7,1.6-1,2.7-1C79.3,18.3,79.9,18.4,80.4,18.6z M77.5,20.3
			c-0.3,0.3-0.4,0.7-0.5,1.2h3.4c0-0.5-0.2-0.9-0.5-1.2c-0.3-0.3-0.7-0.4-1.2-0.4C78.2,19.9,77.8,20,77.5,20.3z"/>
		<path d="M83.3,27.5c0.4-0.1,0.7-0.3,0.9-0.5s0.3-0.6,0.3-1.1h-1.2v-2h2.1v1.8c0,0.3,0,0.6-0.1,1s-0.2,0.6-0.5,0.9
			c-0.2,0.3-0.5,0.5-0.9,0.6c-0.3,0.1-0.6,0.2-0.7,0.2V27.5z"/>
		<path d="M92.5,22.1v0.2c0,0.8,0.1,1.3,0.2,1.6c0.1,0.3,0.5,0.5,0.9,0.5c0.5,0,0.8-0.2,0.9-0.5c0.1-0.2,0.1-0.6,0.1-1v-7h2.1v7
			c0,0.9-0.1,1.5-0.4,2c-0.5,0.8-1.4,1.3-2.7,1.3c-1.3,0-2.1-0.3-2.6-1c-0.4-0.7-0.7-1.6-0.7-2.8v-0.2H92.5z"/>
		<path d="M101.9,21.4c0.4,0,0.6-0.1,0.8-0.2c0.3-0.1,0.4-0.3,0.4-0.6c0-0.3-0.1-0.5-0.3-0.6c-0.2-0.1-0.5-0.2-0.9-0.2
			c-0.5,0-0.8,0.1-1,0.3c-0.1,0.2-0.2,0.4-0.3,0.7h-1.9c0-0.7,0.2-1.2,0.5-1.6c0.5-0.7,1.4-1,2.7-1c0.8,0,1.5,0.2,2.2,0.5
			s1,0.9,1,1.8V24c0,0.2,0,0.5,0,0.9c0,0.3,0.1,0.4,0.1,0.5s0.2,0.2,0.3,0.2v0.3h-2.1c-0.1-0.2-0.1-0.3-0.1-0.4s0-0.3-0.1-0.5
			c-0.3,0.3-0.6,0.5-0.9,0.7c-0.4,0.2-0.9,0.4-1.4,0.4c-0.7,0-1.2-0.2-1.7-0.6c-0.4-0.4-0.7-0.9-0.7-1.6c0-0.9,0.4-1.6,1.1-2
			c0.4-0.2,1-0.4,1.7-0.5L101.9,21.4z M103.1,22.3c-0.1,0.1-0.3,0.1-0.4,0.2c-0.1,0-0.3,0.1-0.5,0.1l-0.4,0.1
			c-0.4,0.1-0.7,0.2-0.9,0.3c-0.3,0.2-0.5,0.5-0.5,0.8c0,0.3,0.1,0.6,0.3,0.7c0.2,0.1,0.4,0.2,0.7,0.2c0.4,0,0.8-0.1,1.2-0.4
			c0.4-0.2,0.5-0.7,0.6-1.3V22.3z"/>
		<path d="M111.2,21.1c0-0.3-0.1-0.5-0.3-0.8c-0.2-0.3-0.6-0.5-1-0.5c-0.7,0-1.1,0.3-1.4,1c-0.1,0.3-0.2,0.8-0.2,1.4
			c0,0.5,0.1,1,0.2,1.3c0.2,0.6,0.7,0.9,1.3,0.9c0.5,0,0.8-0.1,1-0.4s0.3-0.6,0.3-1h2c0,0.6-0.3,1.2-0.6,1.7
			c-0.6,0.9-1.5,1.3-2.7,1.3s-2.1-0.4-2.6-1.1c-0.6-0.7-0.8-1.6-0.8-2.8c0-1.3,0.3-2.3,0.9-3s1.5-1.1,2.6-1.1c0.9,0,1.7,0.2,2.3,0.6
			s0.9,1.2,1.1,2.2H111.2z"/>
		<path d="M114.5,15.9h1.9v5.4l2.5-2.8h2.4l-2.7,2.8l2.8,4.6H119l-1.8-3.2l-0.8,0.8v2.3h-1.9V15.9z"/>
		<path d="M122.3,19c0.5-0.1,0.8-0.4,1-0.7c0.1-0.2,0.1-0.4,0.1-0.6h-1.1v-1.8h2v1.4c0,0.7-0.2,1.2-0.5,1.6s-0.8,0.7-1.5,0.8V19z"/>
		<path d="M127.2,23.5c0,0.3,0.1,0.6,0.3,0.7c0.2,0.3,0.7,0.4,1.3,0.4c0.4,0,0.7-0.1,0.9-0.2s0.3-0.3,0.3-0.5c0-0.2-0.1-0.4-0.3-0.5
			s-0.9-0.3-2-0.6c-0.8-0.2-1.4-0.5-1.8-0.8c-0.3-0.3-0.5-0.8-0.5-1.3c0-0.7,0.3-1.3,0.8-1.8c0.5-0.5,1.3-0.7,2.3-0.7
			c0.9,0,1.7,0.2,2.3,0.6c0.6,0.4,0.9,1,1,1.9h-1.9c0-0.3-0.1-0.4-0.2-0.6c-0.2-0.3-0.6-0.4-1.1-0.4c-0.4,0-0.7,0.1-0.9,0.2
			c-0.2,0.1-0.3,0.3-0.3,0.5c0,0.2,0.1,0.4,0.3,0.5c0.2,0.1,0.9,0.3,2,0.5c0.8,0.2,1.4,0.5,1.7,0.8c0.4,0.4,0.6,0.8,0.6,1.4
			c0,0.7-0.3,1.3-0.8,1.8c-0.6,0.5-1.4,0.7-2.6,0.7c-1.2,0-2-0.2-2.6-0.7c-0.6-0.5-0.8-1.1-0.8-1.9H127.2z"/>
		<path d="M136.6,19.9v-1.4h1v-2.1h1.9v2.1h1.2v1.4h-1.2v3.9c0,0.3,0,0.5,0.1,0.6c0.1,0.1,0.3,0.1,0.7,0.1c0.1,0,0.1,0,0.2,0
			c0.1,0,0.1,0,0.2,0V26l-0.9,0c-0.9,0-1.5-0.1-1.9-0.5c-0.2-0.2-0.3-0.6-0.3-1v-4.6H136.6z"/>
		<path d="M143.9,18.5v4.5c0,0.4,0,0.7,0.1,1c0.2,0.4,0.5,0.6,1,0.6c0.7,0,1.1-0.3,1.4-0.8c0.1-0.3,0.2-0.7,0.2-1.2v-4.1h2v7.5h-1.9
			v-1.1c0,0-0.1,0.1-0.1,0.2s-0.2,0.2-0.3,0.3c-0.3,0.3-0.6,0.5-0.9,0.6c-0.3,0.1-0.6,0.2-1,0.2c-1.1,0-1.8-0.4-2.2-1.2
			c-0.2-0.4-0.3-1.1-0.3-1.9v-4.5H143.9z"/>
		<path d="M159.9,18.5c0.3,0.1,0.6,0.4,0.9,0.7c0.2,0.3,0.4,0.6,0.4,1c0,0.3,0.1,0.6,0.1,1.1l0,4.7h-2v-4.7c0-0.3,0-0.5-0.1-0.7
			c-0.2-0.3-0.5-0.5-1-0.5c-0.5,0-0.9,0.2-1.1,0.7c-0.1,0.2-0.2,0.5-0.2,0.9v4.4h-2v-4.4c0-0.4,0-0.8-0.1-1c-0.2-0.4-0.5-0.5-1-0.5
			c-0.6,0-0.9,0.2-1.1,0.5c-0.1,0.2-0.2,0.5-0.2,0.9v4.5h-2v-7.4h1.9v1.1c0.2-0.4,0.5-0.7,0.7-0.8c0.4-0.3,0.9-0.4,1.5-0.4
			c0.6,0,1,0.1,1.4,0.4c0.3,0.2,0.5,0.5,0.6,0.9c0.3-0.4,0.6-0.8,1-1c0.4-0.2,0.8-0.3,1.3-0.3C159.2,18.3,159.5,18.4,159.9,18.5z"/>
		<path d="M172.3,18.5c0.3,0.1,0.6,0.4,0.9,0.7c0.2,0.3,0.4,0.6,0.4,1c0,0.3,0.1,0.6,0.1,1.1l0,4.7h-2v-4.7c0-0.3,0-0.5-0.1-0.7
			c-0.2-0.3-0.5-0.5-1-0.5c-0.5,0-0.9,0.2-1.1,0.7c-0.1,0.2-0.2,0.5-0.2,0.9v4.4h-2v-4.4c0-0.4,0-0.8-0.1-1c-0.2-0.4-0.5-0.5-1-0.5
			c-0.6,0-0.9,0.2-1.1,0.5c-0.1,0.2-0.2,0.5-0.2,0.9v4.5h-2v-7.4h1.9v1.1c0.2-0.4,0.5-0.7,0.7-0.8c0.4-0.3,0.9-0.4,1.5-0.4
			c0.6,0,1,0.1,1.4,0.4c0.3,0.2,0.5,0.5,0.6,0.9c0.3-0.4,0.6-0.8,1-1c0.4-0.2,0.8-0.3,1.3-0.3C171.7,18.3,172,18.4,172.3,18.5z"/>
		<path d="M175.7,27.3l0.2,0c0.2,0,0.4,0,0.5,0s0.3-0.1,0.4-0.2c0.1-0.1,0.2-0.2,0.3-0.5s0.1-0.4,0.1-0.5l-2.7-7.8h2.2l1.6,5.5
			l1.5-5.5h2.1l-2.6,7.3c-0.5,1.4-0.9,2.3-1.2,2.6c-0.3,0.3-0.9,0.5-1.7,0.5c-0.2,0-0.3,0-0.4,0c-0.1,0-0.3,0-0.5,0V27.3z"/>
		<path d="M196.4,18.5c0.3,0.1,0.6,0.4,0.9,0.7c0.2,0.3,0.4,0.6,0.4,1c0,0.3,0.1,0.6,0.1,1.1l0,4.7h-2v-4.7c0-0.3,0-0.5-0.1-0.7
			c-0.2-0.3-0.5-0.5-1-0.5c-0.5,0-0.9,0.2-1.1,0.7c-0.1,0.2-0.2,0.5-0.2,0.9v4.4h-2v-4.4c0-0.4,0-0.8-0.1-1c-0.2-0.4-0.5-0.5-1-0.5
			c-0.6,0-0.9,0.2-1.1,0.5c-0.1,0.2-0.2,0.5-0.2,0.9v4.5h-2v-7.4h1.9v1.1c0.2-0.4,0.5-0.7,0.7-0.8c0.4-0.3,0.9-0.4,1.5-0.4
			c0.6,0,1,0.1,1.4,0.4c0.3,0.2,0.5,0.5,0.6,0.9c0.3-0.4,0.6-0.8,1-1c0.4-0.2,0.8-0.3,1.3-0.3C195.8,18.3,196.1,18.4,196.4,18.5z"/>
		<path d="M201.6,17.6h-2v-1.8h2V17.6z M199.6,18.5h2v7.5h-2V18.5z"/>
		<path d="M207.2,18.4c0.5,0.2,0.9,0.6,1.1,1.1v-1.1h1.9v7.1c0,1-0.2,1.7-0.5,2.2c-0.6,0.8-1.6,1.3-3.2,1.3c-1,0-1.7-0.2-2.3-0.6
			s-0.9-0.9-1-1.7h2.1c0.1,0.2,0.1,0.4,0.3,0.5c0.2,0.2,0.6,0.3,1.1,0.3c0.7,0,1.2-0.2,1.4-0.7c0.2-0.3,0.2-0.8,0.2-1.5v-0.5
			c-0.2,0.3-0.4,0.6-0.6,0.7c-0.4,0.3-0.9,0.4-1.5,0.4c-1,0-1.7-0.3-2.3-1c-0.6-0.7-0.9-1.6-0.9-2.7c0-1.1,0.3-2,0.8-2.8
			c0.6-0.8,1.3-1.1,2.3-1.1C206.5,18.3,206.9,18.3,207.2,18.4z M207.8,23.8c0.3-0.3,0.5-0.9,0.5-1.6c0-0.7-0.1-1.2-0.4-1.6
			c-0.3-0.4-0.7-0.6-1.2-0.6c-0.7,0-1.2,0.3-1.4,1c-0.1,0.3-0.2,0.8-0.2,1.3c0,0.4,0.1,0.8,0.2,1.2c0.3,0.6,0.7,0.9,1.4,0.9
			C207.1,24.3,207.5,24.1,207.8,23.8z"/>
		<path d="M217.4,18.5c0.4,0.2,0.7,0.4,0.9,0.7c0.2,0.3,0.3,0.6,0.4,0.9c0,0.3,0.1,0.8,0.1,1.4v4.4h-2v-4.5c0-0.4-0.1-0.7-0.2-1
			c-0.2-0.3-0.5-0.5-1-0.5c-0.5,0-0.9,0.2-1.2,0.5s-0.4,0.8-0.4,1.5v4H212v-10h1.9v3.6c0.3-0.4,0.6-0.7,1-0.9
			c0.4-0.2,0.8-0.3,1.2-0.3C216.6,18.3,217,18.3,217.4,18.5z"/>
		<path d="M219.8,19.9v-1.4h1v-2.1h1.9v2.1h1.2v1.4h-1.2v3.9c0,0.3,0,0.5,0.1,0.6c0.1,0.1,0.3,0.1,0.7,0.1c0.1,0,0.1,0,0.2,0
			c0.1,0,0.1,0,0.2,0V26l-0.9,0c-0.9,0-1.5-0.1-1.9-0.5c-0.2-0.2-0.3-0.6-0.3-1v-4.6H219.8z"/>
		<path d="M61,42.7H59V32.6H61V42.7z"/>
		<path d="M69.1,41.8c-0.6,0.8-1.6,1.2-2.9,1.2s-2.2-0.4-2.9-1.2s-0.9-1.7-0.9-2.8c0-1.1,0.3-2,0.9-2.8S65,35,66.2,35
			s2.2,0.4,2.9,1.2S70,37.9,70,39C70,40.1,69.7,41,69.1,41.8z M67.5,40.7c0.3-0.4,0.5-1,0.5-1.7c0-0.7-0.2-1.3-0.5-1.7
			c-0.3-0.4-0.7-0.6-1.3-0.6s-1,0.2-1.3,0.6c-0.3,0.4-0.5,1-0.5,1.7c0,0.7,0.2,1.3,0.5,1.7s0.7,0.6,1.3,0.6S67.2,41.1,67.5,40.7z"/>
		<path d="M77.7,41.8C77,42.6,76.1,43,74.8,43s-2.2-0.4-2.9-1.2S71,40.1,71,39c0-1.1,0.3-2,0.9-2.8s1.6-1.2,2.9-1.2s2.2,0.4,2.9,1.2
			s0.9,1.7,0.9,2.8C78.6,40.1,78.3,41,77.7,41.8z M76.1,40.7c0.3-0.4,0.5-1,0.5-1.7c0-0.7-0.2-1.3-0.5-1.7c-0.3-0.4-0.7-0.6-1.3-0.6
			s-1,0.2-1.3,0.6c-0.3,0.4-0.5,1-0.5,1.7c0,0.7,0.2,1.3,0.5,1.7s0.7,0.6,1.3,0.6S75.8,41.1,76.1,40.7z"/>
		<path d="M80,32.7h1.9v5.4l2.5-2.8h2.4l-2.7,2.8l2.8,4.6h-2.4l-1.8-3.2l-0.8,0.8v2.3H80V32.7z"/>
		<path d="M95.4,35.2c0.5,0.2,0.9,0.6,1.1,1.1v-1.1h1.9v7.1c0,1-0.2,1.7-0.5,2.2c-0.6,0.8-1.6,1.3-3.2,1.3c-1,0-1.7-0.2-2.3-0.6
			s-0.9-0.9-1-1.7h2.1c0.1,0.2,0.1,0.4,0.3,0.5c0.2,0.2,0.6,0.3,1.1,0.3c0.7,0,1.2-0.2,1.4-0.7c0.2-0.3,0.2-0.8,0.2-1.5v-0.5
			c-0.2,0.3-0.4,0.6-0.6,0.7c-0.4,0.3-0.9,0.4-1.5,0.4c-1,0-1.7-0.3-2.3-1c-0.6-0.7-0.9-1.6-0.9-2.7c0-1.1,0.3-2,0.8-2.8
			c0.6-0.8,1.3-1.1,2.3-1.1C94.8,35.1,95.1,35.1,95.4,35.2z M96,40.6c0.3-0.3,0.5-0.9,0.5-1.6c0-0.7-0.1-1.2-0.4-1.6
			s-0.7-0.6-1.2-0.6c-0.7,0-1.2,0.3-1.4,1c-0.1,0.3-0.2,0.8-0.2,1.3c0,0.4,0.1,0.8,0.2,1.2c0.3,0.6,0.7,0.9,1.4,0.9
			C95.3,41.1,95.7,40.9,96,40.6z"/>
		<path d="M104.4,35.1c0,0,0.1,0,0.2,0v2c-0.1,0-0.2,0-0.3,0s-0.2,0-0.2,0c-0.8,0-1.3,0.3-1.6,0.8c-0.2,0.3-0.2,0.7-0.2,1.3v3.6h-2
			v-7.5h1.9v1.3c0.3-0.5,0.6-0.8,0.8-1C103.2,35.2,103.7,35.1,104.4,35.1C104.3,35.1,104.3,35.1,104.4,35.1z"/>
		<path d="M111.9,41.8c-0.6,0.8-1.6,1.2-2.9,1.2s-2.2-0.4-2.9-1.2s-0.9-1.7-0.9-2.8c0-1.1,0.3-2,0.9-2.8s1.6-1.2,2.9-1.2
			s2.2,0.4,2.9,1.2s0.9,1.7,0.9,2.8C112.8,40.1,112.5,41,111.9,41.8z M110.3,40.7c0.3-0.4,0.5-1,0.5-1.7c0-0.7-0.2-1.3-0.5-1.7
			c-0.3-0.4-0.7-0.6-1.3-0.6s-1,0.2-1.3,0.6c-0.3,0.4-0.5,1-0.5,1.7c0,0.7,0.2,1.3,0.5,1.7s0.7,0.6,1.3,0.6S110,41.1,110.3,40.7z"/>
		<path d="M115.7,40.3c0,0.3,0.1,0.6,0.3,0.7c0.2,0.3,0.7,0.4,1.3,0.4c0.4,0,0.7-0.1,0.9-0.2s0.3-0.3,0.3-0.5c0-0.2-0.1-0.4-0.3-0.5
			s-0.9-0.3-2-0.6c-0.8-0.2-1.4-0.5-1.8-0.8c-0.3-0.3-0.5-0.8-0.5-1.3c0-0.7,0.3-1.3,0.8-1.8c0.5-0.5,1.3-0.7,2.3-0.7
			c0.9,0,1.7,0.2,2.3,0.6c0.6,0.4,0.9,1,1,1.9h-1.9c0-0.3-0.1-0.4-0.2-0.6c-0.2-0.3-0.6-0.4-1.1-0.4c-0.4,0-0.7,0.1-0.9,0.2
			c-0.2,0.1-0.3,0.3-0.3,0.5c0,0.2,0.1,0.4,0.3,0.5c0.2,0.1,0.9,0.3,2,0.5c0.8,0.2,1.4,0.5,1.7,0.8c0.4,0.4,0.6,0.8,0.6,1.4
			c0,0.7-0.3,1.3-0.8,1.8c-0.6,0.5-1.4,0.7-2.6,0.7c-1.2,0-2-0.2-2.6-0.7c-0.6-0.5-0.8-1.1-0.8-1.9H115.7z"/>
		<path d="M123.5,40.3c0,0.3,0.1,0.6,0.3,0.7c0.2,0.3,0.7,0.4,1.3,0.4c0.4,0,0.7-0.1,0.9-0.2s0.3-0.3,0.3-0.5c0-0.2-0.1-0.4-0.3-0.5
			s-0.9-0.3-2-0.6c-0.8-0.2-1.4-0.5-1.8-0.8c-0.3-0.3-0.5-0.8-0.5-1.3c0-0.7,0.3-1.3,0.8-1.8c0.5-0.5,1.3-0.7,2.3-0.7
			c0.9,0,1.7,0.2,2.3,0.6c0.6,0.4,0.9,1,1,1.9h-1.9c0-0.3-0.1-0.4-0.2-0.6c-0.2-0.3-0.6-0.4-1.1-0.4c-0.4,0-0.7,0.1-0.9,0.2
			c-0.2,0.1-0.3,0.3-0.3,0.5c0,0.2,0.1,0.4,0.3,0.5c0.2,0.1,0.9,0.3,2,0.5c0.8,0.2,1.4,0.5,1.7,0.8c0.4,0.4,0.6,0.8,0.6,1.4
			c0,0.7-0.3,1.3-0.8,1.8c-0.6,0.5-1.4,0.7-2.6,0.7c-1.2,0-2-0.2-2.6-0.7c-0.6-0.5-0.8-1.1-0.8-1.9H123.5z"/>
		<path d="M132.9,36.7v-1.4h1v-2.1h1.9v2.1h1.2v1.4h-1.2v3.9c0,0.3,0,0.5,0.1,0.6c0.1,0.1,0.3,0.1,0.7,0.1c0.1,0,0.1,0,0.2,0
			c0.1,0,0.1,0,0.2,0v1.5l-0.9,0c-0.9,0-1.5-0.1-1.9-0.5c-0.2-0.2-0.3-0.6-0.3-1v-4.6H132.9z"/>
		<path d="M144.6,41.8c-0.6,0.8-1.6,1.2-2.9,1.2s-2.2-0.4-2.9-1.2s-0.9-1.7-0.9-2.8c0-1.1,0.3-2,0.9-2.8s1.6-1.2,2.9-1.2
			s2.2,0.4,2.9,1.2s0.9,1.7,0.9,2.8C145.5,40.1,145.2,41,144.6,41.8z M143,40.7c0.3-0.4,0.5-1,0.5-1.7c0-0.7-0.2-1.3-0.5-1.7
			c-0.3-0.4-0.7-0.6-1.3-0.6s-1,0.2-1.3,0.6c-0.3,0.4-0.5,1-0.5,1.7c0,0.7,0.2,1.3,0.5,1.7s0.7,0.6,1.3,0.6S142.7,41.1,143,40.7z"/>
		<path d="M152.3,40.3c0,0.3,0.1,0.6,0.3,0.7c0.2,0.3,0.7,0.4,1.3,0.4c0.4,0,0.7-0.1,0.9-0.2s0.3-0.3,0.3-0.5c0-0.2-0.1-0.4-0.3-0.5
			s-0.9-0.3-2-0.6c-0.8-0.2-1.4-0.5-1.8-0.8c-0.3-0.3-0.5-0.8-0.5-1.3c0-0.7,0.3-1.3,0.8-1.8c0.5-0.5,1.3-0.7,2.3-0.7
			c0.9,0,1.7,0.2,2.3,0.6c0.6,0.4,0.9,1,1,1.9H155c0-0.3-0.1-0.4-0.2-0.6c-0.2-0.3-0.6-0.4-1.1-0.4c-0.4,0-0.7,0.1-0.9,0.2
			c-0.2,0.1-0.3,0.3-0.3,0.5c0,0.2,0.1,0.4,0.3,0.5c0.2,0.1,0.9,0.3,2,0.5c0.8,0.2,1.4,0.5,1.7,0.8c0.4,0.4,0.6,0.8,0.6,1.4
			c0,0.7-0.3,1.3-0.8,1.8c-0.6,0.5-1.4,0.7-2.6,0.7c-1.2,0-2-0.2-2.6-0.7c-0.6-0.5-0.8-1.1-0.8-1.9H152.3z"/>
		<path d="M164.8,41.8c-0.6,0.8-1.6,1.2-2.9,1.2s-2.2-0.4-2.9-1.2s-0.9-1.7-0.9-2.8c0-1.1,0.3-2,0.9-2.8s1.6-1.2,2.9-1.2
			s2.2,0.4,2.9,1.2s0.9,1.7,0.9,2.8C165.7,40.1,165.4,41,164.8,41.8z M163.2,40.7c0.3-0.4,0.5-1,0.5-1.7c0-0.7-0.2-1.3-0.5-1.7
			c-0.3-0.4-0.7-0.6-1.3-0.6s-1,0.2-1.3,0.6c-0.3,0.4-0.5,1-0.5,1.7c0,0.7,0.2,1.3,0.5,1.7s0.7,0.6,1.3,0.6S162.9,41.1,163.2,40.7z"
			/>
		<path d="M176.4,35.3c0.3,0.1,0.6,0.4,0.9,0.7c0.2,0.3,0.4,0.6,0.4,1c0,0.3,0.1,0.6,0.1,1.1l0,4.7h-2V38c0-0.3,0-0.5-0.1-0.7
			c-0.2-0.3-0.5-0.5-1-0.5c-0.5,0-0.9,0.2-1.1,0.7c-0.1,0.2-0.2,0.5-0.2,0.9v4.4h-2v-4.4c0-0.4,0-0.8-0.1-1c-0.2-0.4-0.5-0.5-1-0.5
			c-0.6,0-0.9,0.2-1.1,0.5c-0.1,0.2-0.2,0.5-0.2,0.9v4.5h-2v-7.4h1.9v1.1c0.2-0.4,0.5-0.7,0.7-0.8c0.4-0.3,0.9-0.4,1.5-0.4
			c0.6,0,1,0.1,1.4,0.4c0.3,0.2,0.5,0.5,0.6,0.9c0.3-0.4,0.6-0.8,1-1c0.4-0.2,0.8-0.3,1.3-0.3C175.8,35.1,176.1,35.2,176.4,35.3z"/>
		<path d="M184.4,35.4c0.5,0.2,0.9,0.6,1.3,1.1c0.3,0.4,0.5,1,0.6,1.5c0.1,0.3,0.1,0.8,0.1,1.5h-5.4c0,0.7,0.3,1.3,0.8,1.6
			c0.3,0.2,0.7,0.3,1.1,0.3c0.4,0,0.8-0.1,1.1-0.3c0.2-0.1,0.3-0.3,0.4-0.5h2c-0.1,0.4-0.3,0.9-0.7,1.3c-0.7,0.7-1.6,1.1-2.8,1.1
			c-1,0-1.9-0.3-2.6-0.9c-0.8-0.6-1.1-1.6-1.1-3c0-1.3,0.3-2.3,1-3c0.7-0.7,1.6-1,2.7-1C183.3,35.1,183.9,35.2,184.4,35.4z
			 M181.5,37.1c-0.3,0.3-0.4,0.7-0.5,1.2h3.4c0-0.5-0.2-0.9-0.5-1.2c-0.3-0.3-0.7-0.4-1.2-0.4C182.2,36.7,181.8,36.8,181.5,37.1z"/>
		<path d="M187.3,40.7h2.1v2h-2.1V40.7z"/>
	</g>
	<g>
		<path d="M280.9,57h-2.1V46.9h2.1V57z"/>
		<path d="M281.9,51v-1.4h1v-2.1h1.9v2.1h1.2V51h-1.2v3.9c0,0.3,0,0.5,0.1,0.6c0.1,0.1,0.3,0.1,0.7,0.1c0.1,0,0.1,0,0.2,0
			c0.1,0,0.1,0,0.2,0V57l-0.9,0c-0.9,0-1.5-0.1-1.9-0.5c-0.2-0.2-0.3-0.6-0.3-1V51H281.9z"/>
		<path d="M287.4,50c0.5-0.1,0.8-0.4,1-0.7c0.1-0.2,0.1-0.4,0.1-0.6h-1.1v-1.8h2v1.4c0,0.7-0.2,1.2-0.5,1.6s-0.8,0.7-1.5,0.8V50z"/>
		<path d="M292.2,54.6c0,0.3,0.1,0.6,0.3,0.7c0.2,0.3,0.7,0.4,1.3,0.4c0.4,0,0.7-0.1,0.9-0.2s0.3-0.3,0.3-0.5c0-0.2-0.1-0.4-0.3-0.5
			s-0.9-0.3-2-0.6c-0.8-0.2-1.4-0.5-1.8-0.8c-0.3-0.3-0.5-0.8-0.5-1.3c0-0.7,0.3-1.3,0.8-1.8c0.5-0.5,1.3-0.7,2.3-0.7
			c0.9,0,1.7,0.2,2.3,0.6c0.6,0.4,0.9,1,1,1.9h-1.9c0-0.3-0.1-0.4-0.2-0.6c-0.2-0.3-0.6-0.4-1.1-0.4c-0.4,0-0.7,0.1-0.9,0.2
			c-0.2,0.1-0.3,0.3-0.3,0.5c0,0.2,0.1,0.4,0.3,0.5c0.2,0.1,0.9,0.3,2,0.5c0.8,0.2,1.4,0.5,1.7,0.8c0.4,0.4,0.6,0.8,0.6,1.4
			c0,0.7-0.3,1.3-0.8,1.8c-0.6,0.5-1.4,0.7-2.6,0.7c-1.2,0-2-0.2-2.6-0.7c-0.6-0.5-0.8-1.1-0.8-1.9H292.2z"/>
		<path d="M308.8,50.4c0.6,0.7,0.8,1.6,0.8,2.7c0,1.2-0.3,2.1-0.8,2.9s-1.3,1.1-2.3,1.1c-0.6,0-1.1-0.1-1.5-0.4
			c-0.2-0.1-0.5-0.4-0.7-0.8V57h-1.9V46.9h1.9v3.6c0.2-0.3,0.5-0.6,0.8-0.8c0.4-0.2,0.8-0.3,1.3-0.3
			C307.4,49.3,308.2,49.7,308.8,50.4z M307.1,54.9c0.3-0.4,0.4-0.9,0.4-1.6c0-0.5-0.1-1-0.2-1.3c-0.3-0.7-0.7-1-1.4-1
			c-0.7,0-1.2,0.3-1.5,1c-0.1,0.3-0.2,0.8-0.2,1.3c0,0.6,0.1,1.2,0.4,1.6s0.7,0.6,1.3,0.6C306.5,55.6,306.9,55.3,307.1,54.9z"/>
		<path d="M313.9,52.4c0.4,0,0.6-0.1,0.8-0.2c0.3-0.1,0.4-0.3,0.4-0.6c0-0.3-0.1-0.5-0.3-0.6c-0.2-0.1-0.5-0.2-0.9-0.2
			c-0.5,0-0.8,0.1-1,0.3c-0.1,0.2-0.2,0.4-0.3,0.7h-1.9c0-0.7,0.2-1.2,0.5-1.6c0.5-0.7,1.4-1,2.7-1c0.8,0,1.5,0.2,2.2,0.5
			c0.6,0.3,1,0.9,1,1.8v3.4c0,0.2,0,0.5,0,0.9c0,0.3,0.1,0.4,0.1,0.5c0.1,0.1,0.2,0.2,0.3,0.2V57h-2.1c-0.1-0.2-0.1-0.3-0.1-0.4
			c0-0.1,0-0.3-0.1-0.5c-0.3,0.3-0.6,0.5-0.9,0.7c-0.4,0.2-0.9,0.4-1.4,0.4c-0.7,0-1.2-0.2-1.7-0.6c-0.4-0.4-0.7-0.9-0.7-1.6
			c0-0.9,0.4-1.6,1.1-2c0.4-0.2,1-0.4,1.7-0.5L313.9,52.4z M315.1,53.3c-0.1,0.1-0.3,0.1-0.4,0.2c-0.1,0-0.3,0.1-0.5,0.1l-0.4,0.1
			c-0.4,0.1-0.7,0.2-0.9,0.3c-0.3,0.2-0.5,0.5-0.5,0.8c0,0.3,0.1,0.6,0.3,0.7c0.2,0.1,0.4,0.2,0.7,0.2c0.4,0,0.8-0.1,1.2-0.4
			s0.5-0.7,0.6-1.3V53.3z"/>
		<path d="M320.7,57h-1.9V46.9h1.9V57z"/>
		<path d="M326.6,49.6c0.4,0.2,0.6,0.5,0.9,0.8v-3.6h2V57h-1.9v-1c-0.3,0.4-0.6,0.8-1,1s-0.8,0.3-1.3,0.3c-0.9,0-1.6-0.4-2.2-1.1
			c-0.6-0.7-0.9-1.6-0.9-2.7c0-1.3,0.3-2.3,0.9-3c0.6-0.7,1.4-1.1,2.3-1.1C325.8,49.3,326.2,49.4,326.6,49.6z M327.1,54.9
			c0.3-0.4,0.4-0.9,0.4-1.6c0-0.9-0.2-1.6-0.7-2c-0.3-0.2-0.6-0.4-1-0.4c-0.6,0-1,0.2-1.3,0.6c-0.3,0.4-0.4,1-0.4,1.6
			c0,0.7,0.1,1.2,0.4,1.7c0.3,0.4,0.7,0.6,1.2,0.6C326.4,55.6,326.8,55.3,327.1,54.9z"/>
		<path d="M331.1,54.9h2.1v2h-2.1V54.9z"/>
	</g>
	<g>
		<path d="M33.2,221.1c0.3,0.4,0.5,0.9,0.5,1.5c0,0.6-0.2,1.1-0.5,1.5c-0.2,0.2-0.4,0.4-0.8,0.6c0.5,0.2,0.9,0.5,1.2,0.9
			s0.4,0.9,0.4,1.5c0,0.6-0.1,1.1-0.4,1.6c-0.2,0.3-0.4,0.6-0.7,0.8c-0.3,0.2-0.7,0.4-1.1,0.5c-0.4,0.1-0.9,0.1-1.4,0.1h-4.5V220
			h4.9C31.8,220,32.7,220.4,33.2,221.1z M27.7,221.8v2.2h2.4c0.4,0,0.8-0.1,1.1-0.2c0.3-0.2,0.4-0.5,0.4-0.9c0-0.5-0.2-0.8-0.5-0.9
			c-0.3-0.1-0.7-0.2-1.2-0.2H27.7z M27.7,225.7v2.7h2.4c0.4,0,0.8-0.1,1-0.2c0.4-0.2,0.7-0.6,0.7-1.3c0-0.5-0.2-0.9-0.6-1.1
			c-0.2-0.1-0.6-0.2-1-0.2H27.7z"/>
		<path d="M37.6,222.7v4.5c0,0.4,0,0.7,0.1,1c0.2,0.4,0.5,0.6,1,0.6c0.7,0,1.1-0.3,1.4-0.8c0.1-0.3,0.2-0.7,0.2-1.2v-4.1h2v7.5h-1.9
			v-1.1c0,0-0.1,0.1-0.1,0.2s-0.2,0.2-0.3,0.3c-0.3,0.3-0.6,0.5-0.9,0.6c-0.3,0.1-0.6,0.2-1,0.2c-1.1,0-1.8-0.4-2.2-1.2
			c-0.2-0.4-0.3-1.1-0.3-1.9v-4.5H37.6z"/>
		<path d="M43.4,224.1v-1.4h1v-2.1h1.9v2.1h1.2v1.4h-1.2v3.9c0,0.3,0,0.5,0.1,0.6c0.1,0.1,0.3,0.1,0.7,0.1c0.1,0,0.1,0,0.2,0
			c0.1,0,0.1,0,0.2,0v1.5l-0.9,0c-0.9,0-1.5-0.1-1.9-0.5c-0.2-0.2-0.3-0.6-0.3-1v-4.6H43.4z"/>
		<path d="M58.1,222.7c0.4,0.2,0.7,0.4,0.9,0.7c0.2,0.3,0.3,0.6,0.4,0.9s0.1,0.8,0.1,1.4v4.4h-2v-4.5c0-0.4-0.1-0.7-0.2-1
			c-0.2-0.3-0.5-0.5-1-0.5c-0.5,0-0.9,0.2-1.2,0.5s-0.4,0.8-0.4,1.5v4h-1.9v-10h1.9v3.6c0.3-0.4,0.6-0.7,1-0.9
			c0.4-0.2,0.8-0.3,1.2-0.3C57.3,222.5,57.7,222.5,58.1,222.7z"/>
		<path d="M66.1,222.8c0.5,0.2,0.9,0.6,1.3,1.1c0.3,0.4,0.5,1,0.6,1.5c0.1,0.3,0.1,0.8,0.1,1.5h-5.4c0,0.7,0.3,1.3,0.8,1.6
			c0.3,0.2,0.7,0.3,1.1,0.3c0.4,0,0.8-0.1,1.1-0.3c0.2-0.1,0.3-0.3,0.4-0.5h2c-0.1,0.4-0.3,0.9-0.7,1.3c-0.7,0.7-1.6,1.1-2.8,1.1
			c-1,0-1.9-0.3-2.6-0.9c-0.8-0.6-1.1-1.6-1.1-3c0-1.3,0.3-2.3,1-3c0.7-0.7,1.6-1,2.7-1C65,222.5,65.6,222.6,66.1,222.8z
			 M63.2,224.5c-0.3,0.3-0.4,0.7-0.5,1.2h3.4c0-0.5-0.2-0.9-0.5-1.2c-0.3-0.3-0.7-0.4-1.2-0.4C63.9,224.1,63.5,224.2,63.2,224.5z"/>
		<path d="M76.9,222.8c0.4,0.2,0.6,0.5,0.9,0.8V220h2v10.1h-1.9v-1c-0.3,0.4-0.6,0.8-1,1s-0.8,0.3-1.3,0.3c-0.9,0-1.6-0.4-2.2-1.1
			c-0.6-0.7-0.9-1.6-0.9-2.7c0-1.3,0.3-2.3,0.9-3s1.4-1.1,2.3-1.1C76.2,222.5,76.6,222.6,76.9,222.8z M77.4,228.1
			c0.3-0.4,0.4-0.9,0.4-1.6c0-0.9-0.2-1.6-0.7-2c-0.3-0.2-0.6-0.4-1-0.4c-0.6,0-1,0.2-1.3,0.6c-0.3,0.4-0.4,1-0.4,1.6
			c0,0.7,0.1,1.2,0.4,1.7c0.3,0.4,0.7,0.6,1.2,0.6S77.1,228.5,77.4,228.1z"/>
		<path d="M87.7,229.2c-0.6,0.8-1.6,1.2-2.9,1.2s-2.2-0.4-2.9-1.2s-0.9-1.7-0.9-2.8c0-1.1,0.3-2,0.9-2.8s1.6-1.2,2.9-1.2
			s2.2,0.4,2.9,1.2s0.9,1.7,0.9,2.8C88.7,227.5,88.4,228.4,87.7,229.2z M86.2,228.1c0.3-0.4,0.5-1,0.5-1.7c0-0.7-0.2-1.3-0.5-1.7
			c-0.3-0.4-0.7-0.6-1.3-0.6s-1,0.2-1.3,0.6c-0.3,0.4-0.5,1-0.5,1.7c0,0.7,0.2,1.3,0.5,1.7s0.7,0.6,1.3,0.6S85.9,228.5,86.2,228.1z"
			/>
		<path d="M94.9,222.8c0.5,0.2,0.9,0.6,1.3,1.1c0.3,0.4,0.5,1,0.6,1.5c0.1,0.3,0.1,0.8,0.1,1.5h-5.4c0,0.7,0.3,1.3,0.8,1.6
			c0.3,0.2,0.7,0.3,1.1,0.3c0.4,0,0.8-0.1,1.1-0.3c0.2-0.1,0.3-0.3,0.4-0.5h2c-0.1,0.4-0.3,0.9-0.7,1.3c-0.7,0.7-1.6,1.1-2.8,1.1
			c-1,0-1.9-0.3-2.6-0.9c-0.8-0.6-1.1-1.6-1.1-3c0-1.3,0.3-2.3,1-3c0.7-0.7,1.6-1,2.7-1C93.8,222.5,94.4,222.6,94.9,222.8z
			 M92,224.5c-0.3,0.3-0.4,0.7-0.5,1.2h3.4c0-0.5-0.2-0.9-0.5-1.2c-0.3-0.3-0.7-0.4-1.2-0.4C92.7,224.1,92.3,224.2,92,224.5z"/>
		<path d="M99.4,227.7c0,0.3,0.1,0.6,0.3,0.7c0.2,0.3,0.7,0.4,1.3,0.4c0.4,0,0.7-0.1,0.9-0.2s0.3-0.3,0.3-0.5c0-0.2-0.1-0.4-0.3-0.5
			s-0.9-0.3-2-0.6c-0.8-0.2-1.4-0.5-1.8-0.8c-0.3-0.3-0.5-0.8-0.5-1.3c0-0.7,0.3-1.3,0.8-1.8c0.5-0.5,1.3-0.7,2.3-0.7
			c0.9,0,1.7,0.2,2.3,0.6c0.6,0.4,0.9,1,1,1.9h-1.9c0-0.3-0.1-0.4-0.2-0.6c-0.2-0.3-0.6-0.4-1.1-0.4c-0.4,0-0.7,0.1-0.9,0.2
			c-0.2,0.1-0.3,0.3-0.3,0.5c0,0.2,0.1,0.4,0.3,0.5c0.2,0.1,0.9,0.3,2,0.5c0.8,0.2,1.4,0.5,1.7,0.8c0.4,0.4,0.6,0.8,0.6,1.4
			c0,0.7-0.3,1.3-0.8,1.8c-0.6,0.5-1.4,0.7-2.6,0.7c-1.2,0-2-0.2-2.6-0.7c-0.6-0.5-0.8-1.1-0.8-1.9H99.4z"/>
		<path d="M111.6,223.1c0.5,0.4,0.7,1.1,0.7,2v5h-2v-4.5c0-0.4-0.1-0.7-0.2-0.9c-0.2-0.4-0.6-0.6-1.1-0.6c-0.7,0-1.1,0.3-1.4,0.8
			c-0.1,0.3-0.2,0.7-0.2,1.1v4h-1.9v-7.4h1.9v1.1c0.2-0.4,0.5-0.7,0.7-0.8c0.4-0.3,0.9-0.5,1.5-0.5
			C110.5,222.5,111.2,222.7,111.6,223.1z"/>
		<path d="M114.2,223.2c0.5-0.1,0.8-0.4,1-0.7c0.1-0.2,0.1-0.4,0.1-0.6h-1.1v-1.8h2v1.4c0,0.7-0.2,1.2-0.5,1.6s-0.8,0.7-1.5,0.8
			V223.2z"/>
		<path d="M117.3,224.1v-1.4h1v-2.1h1.9v2.1h1.2v1.4h-1.2v3.9c0,0.3,0,0.5,0.1,0.6c0.1,0.1,0.3,0.1,0.7,0.1c0.1,0,0.1,0,0.2,0
			c0.1,0,0.1,0,0.2,0v1.5l-0.9,0c-0.9,0-1.5-0.1-1.9-0.5c-0.2-0.2-0.3-0.6-0.3-1v-4.6H117.3z"/>
		<path d="M131.1,225.3c0-0.3-0.1-0.5-0.3-0.8c-0.2-0.3-0.6-0.5-1-0.5c-0.7,0-1.1,0.3-1.4,1c-0.1,0.3-0.2,0.8-0.2,1.4
			c0,0.5,0.1,1,0.2,1.3c0.2,0.6,0.7,0.9,1.3,0.9c0.5,0,0.8-0.1,1-0.4s0.3-0.6,0.3-1h2c0,0.6-0.3,1.2-0.6,1.7
			c-0.6,0.9-1.5,1.3-2.7,1.3s-2.1-0.4-2.6-1.1c-0.6-0.7-0.8-1.6-0.8-2.8c0-1.3,0.3-2.3,0.9-3s1.5-1.1,2.6-1.1c0.9,0,1.7,0.2,2.3,0.6
			s0.9,1.2,1.1,2.2H131.1z"/>
		<path d="M137.4,225.6c0.4,0,0.6-0.1,0.8-0.2c0.3-0.1,0.4-0.3,0.4-0.6c0-0.3-0.1-0.5-0.3-0.6c-0.2-0.1-0.5-0.2-0.9-0.2
			c-0.5,0-0.8,0.1-1,0.3c-0.1,0.2-0.2,0.4-0.3,0.7h-1.9c0-0.7,0.2-1.2,0.5-1.6c0.5-0.7,1.4-1,2.7-1c0.8,0,1.5,0.2,2.2,0.5
			s1,0.9,1,1.8v3.4c0,0.2,0,0.5,0,0.9c0,0.3,0.1,0.4,0.1,0.5s0.2,0.2,0.3,0.2v0.3h-2.1c-0.1-0.2-0.1-0.3-0.1-0.4s0-0.3-0.1-0.5
			c-0.3,0.3-0.6,0.5-0.9,0.7c-0.4,0.2-0.9,0.4-1.4,0.4c-0.7,0-1.2-0.2-1.7-0.6c-0.4-0.4-0.7-0.9-0.7-1.6c0-0.9,0.4-1.6,1.1-2
			c0.4-0.2,1-0.4,1.7-0.5L137.4,225.6z M138.6,226.5c-0.1,0.1-0.3,0.1-0.4,0.2c-0.1,0-0.3,0.1-0.5,0.1l-0.4,0.1
			c-0.4,0.1-0.7,0.2-0.9,0.3c-0.3,0.2-0.5,0.5-0.5,0.8c0,0.3,0.1,0.6,0.3,0.7c0.2,0.1,0.4,0.2,0.7,0.2c0.4,0,0.8-0.1,1.2-0.4
			c0.4-0.2,0.5-0.7,0.6-1.3V226.5z"/>
		<path d="M146.3,222.5c0,0,0.1,0,0.2,0v2c-0.1,0-0.2,0-0.3,0s-0.2,0-0.2,0c-0.8,0-1.3,0.3-1.6,0.8c-0.2,0.3-0.2,0.7-0.2,1.3v3.6h-2
			v-7.5h1.9v1.3c0.3-0.5,0.6-0.8,0.8-1C145.2,222.6,145.7,222.5,146.3,222.5C146.3,222.5,146.3,222.5,146.3,222.5z"/>
		<path d="M152.5,222.8c0.5,0.2,0.9,0.6,1.3,1.1c0.3,0.4,0.5,1,0.6,1.5c0.1,0.3,0.1,0.8,0.1,1.5H149c0,0.7,0.3,1.3,0.8,1.6
			c0.3,0.2,0.7,0.3,1.1,0.3c0.4,0,0.8-0.1,1.1-0.3c0.2-0.1,0.3-0.3,0.4-0.5h2c-0.1,0.4-0.3,0.9-0.7,1.3c-0.7,0.7-1.6,1.1-2.8,1.1
			c-1,0-1.9-0.3-2.6-0.9c-0.8-0.6-1.1-1.6-1.1-3c0-1.3,0.3-2.3,1-3c0.7-0.7,1.6-1,2.7-1C151.4,222.5,152,222.6,152.5,222.8z
			 M149.6,224.5c-0.3,0.3-0.4,0.7-0.5,1.2h3.4c0-0.5-0.2-0.9-0.5-1.2c-0.3-0.3-0.7-0.4-1.2-0.4C150.3,224.1,149.9,224.2,149.6,224.5
			z"/>
		<path d="M162.3,225.6c0.4,0,0.6-0.1,0.8-0.2c0.3-0.1,0.4-0.3,0.4-0.6c0-0.3-0.1-0.5-0.3-0.6c-0.2-0.1-0.5-0.2-0.9-0.2
			c-0.5,0-0.8,0.1-1,0.3c-0.1,0.2-0.2,0.4-0.3,0.7h-1.9c0-0.7,0.2-1.2,0.5-1.6c0.5-0.7,1.4-1,2.7-1c0.8,0,1.5,0.2,2.2,0.5
			s1,0.9,1,1.8v3.4c0,0.2,0,0.5,0,0.9c0,0.3,0.1,0.4,0.1,0.5s0.2,0.2,0.3,0.2v0.3h-2.1c-0.1-0.2-0.1-0.3-0.1-0.4s0-0.3-0.1-0.5
			c-0.3,0.3-0.6,0.5-0.9,0.7c-0.4,0.2-0.9,0.4-1.4,0.4c-0.7,0-1.2-0.2-1.7-0.6c-0.4-0.4-0.7-0.9-0.7-1.6c0-0.9,0.4-1.6,1.1-2
			c0.4-0.2,1-0.4,1.7-0.5L162.3,225.6z M163.5,226.5c-0.1,0.1-0.3,0.1-0.4,0.2c-0.1,0-0.3,0.1-0.5,0.1l-0.4,0.1
			c-0.4,0.1-0.7,0.2-0.9,0.3c-0.3,0.2-0.5,0.5-0.5,0.8c0,0.3,0.1,0.6,0.3,0.7c0.2,0.1,0.4,0.2,0.7,0.2c0.4,0,0.8-0.1,1.2-0.4
			c0.4-0.2,0.5-0.7,0.6-1.3V226.5z"/>
		<path d="M168.6,227.7c0,0.3,0.1,0.6,0.3,0.7c0.2,0.3,0.7,0.4,1.3,0.4c0.4,0,0.7-0.1,0.9-0.2s0.3-0.3,0.3-0.5
			c0-0.2-0.1-0.4-0.3-0.5s-0.9-0.3-2-0.6c-0.8-0.2-1.4-0.5-1.8-0.8c-0.3-0.3-0.5-0.8-0.5-1.3c0-0.7,0.3-1.3,0.8-1.8
			c0.5-0.5,1.3-0.7,2.3-0.7c0.9,0,1.7,0.2,2.3,0.6c0.6,0.4,0.9,1,1,1.9h-1.9c0-0.3-0.1-0.4-0.2-0.6c-0.2-0.3-0.6-0.4-1.1-0.4
			c-0.4,0-0.7,0.1-0.9,0.2c-0.2,0.1-0.3,0.3-0.3,0.5c0,0.2,0.1,0.4,0.3,0.5c0.2,0.1,0.9,0.3,2,0.5c0.8,0.2,1.4,0.5,1.7,0.8
			c0.4,0.4,0.6,0.8,0.6,1.4c0,0.7-0.3,1.3-0.8,1.8c-0.6,0.5-1.4,0.7-2.6,0.7c-1.2,0-2-0.2-2.6-0.7c-0.6-0.5-0.8-1.1-0.8-1.9H168.6z"
			/>
		<path d="M180.8,230.1h-1.9V220h1.9V230.1z"/>
		<path d="M188.9,229.2c-0.6,0.8-1.6,1.2-2.9,1.2s-2.2-0.4-2.9-1.2s-0.9-1.7-0.9-2.8c0-1.1,0.3-2,0.9-2.8s1.6-1.2,2.9-1.2
			s2.2,0.4,2.9,1.2s0.9,1.7,0.9,2.8C189.8,227.5,189.5,228.4,188.9,229.2z M187.3,228.1c0.3-0.4,0.5-1,0.5-1.7
			c0-0.7-0.2-1.3-0.5-1.7c-0.3-0.4-0.7-0.6-1.3-0.6s-1,0.2-1.3,0.6c-0.3,0.4-0.5,1-0.5,1.7c0,0.7,0.2,1.3,0.5,1.7s0.7,0.6,1.3,0.6
			S187,228.5,187.3,228.1z"/>
		<path d="M197.2,223.1c0.5,0.4,0.7,1.1,0.7,2v5h-2v-4.5c0-0.4-0.1-0.7-0.2-0.9c-0.2-0.4-0.6-0.6-1.1-0.6c-0.7,0-1.1,0.3-1.4,0.8
			c-0.1,0.3-0.2,0.7-0.2,1.1v4h-1.9v-7.4h1.9v1.1c0.2-0.4,0.5-0.7,0.7-0.8c0.4-0.3,0.9-0.5,1.5-0.5
			C196.1,222.5,196.8,222.7,197.2,223.1z"/>
		<path d="M203.5,222.6c0.5,0.2,0.9,0.6,1.1,1.1v-1.1h1.9v7.1c0,1-0.2,1.7-0.5,2.2c-0.6,0.8-1.6,1.3-3.2,1.3c-1,0-1.7-0.2-2.3-0.6
			s-0.9-0.9-1-1.7h2.1c0.1,0.2,0.1,0.4,0.3,0.5c0.2,0.2,0.6,0.3,1.1,0.3c0.7,0,1.2-0.2,1.4-0.7c0.2-0.3,0.2-0.8,0.2-1.5V229
			c-0.2,0.3-0.4,0.6-0.6,0.7c-0.4,0.3-0.9,0.4-1.5,0.4c-1,0-1.7-0.3-2.3-1c-0.6-0.7-0.9-1.6-0.9-2.7c0-1.1,0.3-2,0.8-2.8
			c0.6-0.8,1.3-1.1,2.3-1.1C202.9,222.5,203.2,222.5,203.5,222.6z M204.1,228c0.3-0.3,0.5-0.9,0.5-1.6c0-0.7-0.1-1.2-0.4-1.6
			s-0.7-0.6-1.2-0.6c-0.7,0-1.2,0.3-1.4,1c-0.1,0.3-0.2,0.8-0.2,1.3c0,0.4,0.1,0.8,0.2,1.2c0.3,0.6,0.7,0.9,1.4,0.9
			C203.4,228.5,203.8,228.3,204.1,228z"/>
		<path d="M215.2,225.6c0.4,0,0.6-0.1,0.8-0.2c0.3-0.1,0.4-0.3,0.4-0.6c0-0.3-0.1-0.5-0.3-0.6c-0.2-0.1-0.5-0.2-0.9-0.2
			c-0.5,0-0.8,0.1-1,0.3c-0.1,0.2-0.2,0.4-0.3,0.7H212c0-0.7,0.2-1.2,0.5-1.6c0.5-0.7,1.4-1,2.7-1c0.8,0,1.5,0.2,2.2,0.5
			c0.6,0.3,1,0.9,1,1.8v3.4c0,0.2,0,0.5,0,0.9c0,0.3,0.1,0.4,0.1,0.5s0.2,0.2,0.3,0.2v0.3h-2.1c-0.1-0.2-0.1-0.3-0.1-0.4
			s0-0.3-0.1-0.5c-0.3,0.3-0.6,0.5-0.9,0.7c-0.4,0.2-0.9,0.4-1.4,0.4c-0.7,0-1.2-0.2-1.7-0.6c-0.4-0.4-0.7-0.9-0.7-1.6
			c0-0.9,0.4-1.6,1.1-2c0.4-0.2,1-0.4,1.7-0.5L215.2,225.6z M216.4,226.5c-0.1,0.1-0.3,0.1-0.4,0.2c-0.1,0-0.3,0.1-0.5,0.1l-0.4,0.1
			c-0.4,0.1-0.7,0.2-0.9,0.3c-0.3,0.2-0.5,0.5-0.5,0.8c0,0.3,0.1,0.6,0.3,0.7c0.2,0.1,0.4,0.2,0.7,0.2c0.4,0,0.8-0.1,1.2-0.4
			c0.4-0.2,0.5-0.7,0.6-1.3V226.5z"/>
		<path d="M221.5,227.7c0,0.3,0.1,0.6,0.3,0.7c0.2,0.3,0.7,0.4,1.3,0.4c0.4,0,0.7-0.1,0.9-0.2s0.3-0.3,0.3-0.5
			c0-0.2-0.1-0.4-0.3-0.5c-0.2-0.1-0.9-0.3-2-0.6c-0.8-0.2-1.4-0.5-1.8-0.8c-0.3-0.3-0.5-0.8-0.5-1.3c0-0.7,0.3-1.3,0.8-1.8
			c0.5-0.5,1.3-0.7,2.3-0.7c0.9,0,1.7,0.2,2.3,0.6c0.6,0.4,0.9,1,1,1.9h-1.9c0-0.3-0.1-0.4-0.2-0.6c-0.2-0.3-0.6-0.4-1.1-0.4
			c-0.4,0-0.7,0.1-0.9,0.2s-0.3,0.3-0.3,0.5c0,0.2,0.1,0.4,0.3,0.5c0.2,0.1,0.9,0.3,2,0.5c0.8,0.2,1.4,0.5,1.7,0.8
			c0.4,0.4,0.6,0.8,0.6,1.4c0,0.7-0.3,1.3-0.8,1.8c-0.6,0.5-1.4,0.7-2.6,0.7c-1.2,0-2-0.2-2.6-0.7c-0.6-0.5-0.8-1.1-0.8-1.9H221.5z"
			/>
		<path d="M63.2,239.5c0.4,0.2,0.7,0.4,0.9,0.7c0.2,0.3,0.3,0.6,0.4,0.9s0.1,0.8,0.1,1.4v4.4h-2v-4.5c0-0.4-0.1-0.7-0.2-1
			c-0.2-0.3-0.5-0.5-1-0.5c-0.5,0-0.9,0.2-1.2,0.5s-0.4,0.8-0.4,1.5v4h-1.9v-10h1.9v3.6c0.3-0.4,0.6-0.7,1-0.9
			c0.4-0.2,0.8-0.3,1.2-0.3C62.4,239.3,62.8,239.3,63.2,239.5z"/>
		<path d="M71.2,239.6c0.5,0.2,0.9,0.6,1.3,1.1c0.3,0.4,0.5,1,0.6,1.5c0.1,0.3,0.1,0.8,0.1,1.5h-5.4c0,0.7,0.3,1.3,0.8,1.6
			c0.3,0.2,0.7,0.3,1.1,0.3c0.4,0,0.8-0.1,1.1-0.3c0.2-0.1,0.3-0.3,0.4-0.5h2c-0.1,0.4-0.3,0.9-0.7,1.3c-0.7,0.7-1.6,1.1-2.8,1.1
			c-1,0-1.9-0.3-2.6-0.9c-0.8-0.6-1.1-1.6-1.1-3c0-1.3,0.3-2.3,1-3c0.7-0.7,1.6-1,2.7-1C70.1,239.3,70.7,239.4,71.2,239.6z
			 M68.3,241.3c-0.3,0.3-0.4,0.7-0.5,1.2h3.4c0-0.5-0.2-0.9-0.5-1.2c-0.3-0.3-0.7-0.4-1.2-0.4C69,240.9,68.6,241,68.3,241.3z"/>
		<path d="M82.5,242.1c0-0.3-0.1-0.5-0.3-0.8c-0.2-0.3-0.6-0.5-1-0.5c-0.7,0-1.1,0.3-1.4,1c-0.1,0.3-0.2,0.8-0.2,1.4
			c0,0.5,0.1,1,0.2,1.3c0.2,0.6,0.7,0.9,1.3,0.9c0.5,0,0.8-0.1,1-0.4s0.3-0.6,0.3-1h2c0,0.6-0.3,1.2-0.6,1.7
			c-0.6,0.9-1.5,1.3-2.7,1.3s-2.1-0.4-2.6-1.1c-0.6-0.7-0.8-1.6-0.8-2.8c0-1.3,0.3-2.3,0.9-3s1.5-1.1,2.6-1.1c0.9,0,1.7,0.2,2.3,0.6
			s0.9,1.2,1.1,2.2H82.5z"/>
		<path d="M88.8,242.4c0.4,0,0.6-0.1,0.8-0.2c0.3-0.1,0.4-0.3,0.4-0.6c0-0.3-0.1-0.5-0.3-0.6c-0.2-0.1-0.5-0.2-0.9-0.2
			c-0.5,0-0.8,0.1-1,0.3c-0.1,0.2-0.2,0.4-0.3,0.7h-1.9c0-0.7,0.2-1.2,0.5-1.6c0.5-0.7,1.4-1,2.7-1c0.8,0,1.5,0.2,2.2,0.5
			s1,0.9,1,1.8v3.4c0,0.2,0,0.5,0,0.9c0,0.3,0.1,0.4,0.1,0.5s0.2,0.2,0.3,0.2v0.3h-2.1c-0.1-0.2-0.1-0.3-0.1-0.4s0-0.3-0.1-0.5
			c-0.3,0.3-0.6,0.5-0.9,0.7c-0.4,0.2-0.9,0.4-1.4,0.4c-0.7,0-1.2-0.2-1.7-0.6c-0.4-0.4-0.7-0.9-0.7-1.6c0-0.9,0.4-1.6,1.1-2
			c0.4-0.2,1-0.4,1.7-0.5L88.8,242.4z M90,243.3c-0.1,0.1-0.3,0.1-0.4,0.2c-0.1,0-0.3,0.1-0.5,0.1l-0.4,0.1
			c-0.4,0.1-0.7,0.2-0.9,0.3c-0.3,0.2-0.5,0.5-0.5,0.8c0,0.3,0.1,0.6,0.3,0.7c0.2,0.1,0.4,0.2,0.7,0.2c0.4,0,0.8-0.1,1.2-0.4
			c0.4-0.2,0.5-0.7,0.6-1.3V243.3z"/>
		<path d="M99.6,239.9c0.5,0.4,0.7,1.1,0.7,2v5h-2v-4.5c0-0.4-0.1-0.7-0.2-0.9c-0.2-0.4-0.6-0.6-1.1-0.6c-0.7,0-1.1,0.3-1.4,0.8
			c-0.1,0.3-0.2,0.7-0.2,1.1v4h-1.9v-7.4h1.9v1.1c0.2-0.4,0.5-0.7,0.7-0.8c0.4-0.3,0.9-0.5,1.5-0.5
			C98.5,239.3,99.2,239.5,99.6,239.9z"/>
		<path d="M112.3,240.3c0.6,0.6,0.9,1.6,0.9,2.8c0,1.3-0.3,2.3-0.9,3c-0.6,0.7-1.4,1-2.3,1c-0.6,0-1.1-0.1-1.5-0.4
			c-0.2-0.2-0.4-0.4-0.6-0.7v3.9H106v-10.4h1.9v1.1c0.2-0.3,0.4-0.6,0.7-0.8c0.4-0.3,1-0.5,1.6-0.5
			C111,239.3,111.7,239.6,112.3,240.3z M110.8,241.7c-0.3-0.4-0.7-0.7-1.3-0.7c-0.7,0-1.2,0.3-1.5,1c-0.1,0.4-0.2,0.8-0.2,1.4
			c0,0.9,0.2,1.5,0.7,1.8c0.3,0.2,0.6,0.3,1,0.3c0.5,0,1-0.2,1.3-0.6c0.3-0.4,0.4-1,0.4-1.7C111.2,242.6,111.1,242.1,110.8,241.7z"
			/>
		<path d="M116.6,239.5v4.5c0,0.4,0,0.7,0.1,1c0.2,0.4,0.5,0.6,1,0.6c0.7,0,1.1-0.3,1.4-0.8c0.1-0.3,0.2-0.7,0.2-1.2v-4.1h2v7.5
			h-1.9v-1.1c0,0-0.1,0.1-0.1,0.2s-0.2,0.2-0.3,0.3c-0.3,0.3-0.6,0.5-0.9,0.6c-0.3,0.1-0.6,0.2-1,0.2c-1.1,0-1.8-0.4-2.2-1.2
			c-0.2-0.4-0.3-1.1-0.3-1.9v-4.5H116.6z"/>
		<path d="M122.4,240.9v-1.4h1v-2.1h1.9v2.1h1.2v1.4h-1.2v3.9c0,0.3,0,0.5,0.1,0.6c0.1,0.1,0.3,0.1,0.7,0.1c0.1,0,0.1,0,0.2,0
			c0.1,0,0.1,0,0.2,0v1.5l-0.9,0c-0.9,0-1.5-0.1-1.9-0.5c-0.2-0.2-0.3-0.6-0.3-1v-4.6H122.4z"/>
		<path d="M134.8,236.7c0.1,0,0.2,0,0.4,0v1.6c-0.1,0-0.3,0-0.6,0c-0.3,0-0.4,0-0.5,0.2c-0.1,0.1-0.1,0.3-0.1,0.4s0,0.4,0,0.6h1.3
			v1.4H134v6h-1.9v-6H131v-1.4h1.1V239c0-0.8,0.1-1.3,0.4-1.6c0.3-0.4,1-0.7,2-0.7C134.6,236.7,134.7,236.7,134.8,236.7z"/>
		<path d="M142.6,246c-0.6,0.8-1.6,1.2-2.9,1.2s-2.2-0.4-2.9-1.2s-0.9-1.7-0.9-2.8c0-1.1,0.3-2,0.9-2.8s1.6-1.2,2.9-1.2
			s2.2,0.4,2.9,1.2s0.9,1.7,0.9,2.8C143.6,244.3,143.2,245.2,142.6,246z M141.1,244.9c0.3-0.4,0.5-1,0.5-1.7c0-0.7-0.2-1.3-0.5-1.7
			c-0.3-0.4-0.7-0.6-1.3-0.6s-1,0.2-1.3,0.6c-0.3,0.4-0.5,1-0.5,1.7c0,0.7,0.2,1.3,0.5,1.7s0.7,0.6,1.3,0.6S140.7,245.3,141.1,244.9
			z"/>
		<path d="M151.2,246c-0.6,0.8-1.6,1.2-2.9,1.2s-2.2-0.4-2.9-1.2s-0.9-1.7-0.9-2.8c0-1.1,0.3-2,0.9-2.8s1.6-1.2,2.9-1.2
			s2.2,0.4,2.9,1.2s0.9,1.7,0.9,2.8C152.1,244.3,151.8,245.2,151.2,246z M149.6,244.9c0.3-0.4,0.5-1,0.5-1.7c0-0.7-0.2-1.3-0.5-1.7
			c-0.3-0.4-0.7-0.6-1.3-0.6s-1,0.2-1.3,0.6c-0.3,0.4-0.5,1-0.5,1.7c0,0.7,0.2,1.3,0.5,1.7s0.7,0.6,1.3,0.6S149.3,245.3,149.6,244.9
			z"/>
		<path d="M157.4,239.6c0.4,0.2,0.6,0.5,0.9,0.8v-3.6h2v10.1h-1.9v-1c-0.3,0.4-0.6,0.8-1,1s-0.8,0.3-1.3,0.3c-0.9,0-1.6-0.4-2.2-1.1
			c-0.6-0.7-0.9-1.6-0.9-2.7c0-1.3,0.3-2.3,0.9-3s1.4-1.1,2.3-1.1C156.7,239.3,157.1,239.4,157.4,239.6z M157.9,244.9
			c0.3-0.4,0.4-0.9,0.4-1.6c0-0.9-0.2-1.6-0.7-2c-0.3-0.2-0.6-0.4-1-0.4c-0.6,0-1,0.2-1.3,0.6c-0.3,0.4-0.4,1-0.4,1.6
			c0,0.7,0.1,1.2,0.4,1.7c0.3,0.4,0.7,0.6,1.2,0.6S157.6,245.3,157.9,244.9z"/>
		<path d="M167.9,238.6h-2v-1.8h2V238.6z M166,239.5h2v7.5h-2V239.5z"/>
		<path d="M175.8,239.9c0.5,0.4,0.7,1.1,0.7,2v5h-2v-4.5c0-0.4-0.1-0.7-0.2-0.9c-0.2-0.4-0.6-0.6-1.1-0.6c-0.7,0-1.1,0.3-1.4,0.8
			c-0.1,0.3-0.2,0.7-0.2,1.1v4h-1.9v-7.4h1.9v1.1c0.2-0.4,0.5-0.7,0.7-0.8c0.4-0.3,0.9-0.5,1.5-0.5
			C174.7,239.3,175.4,239.5,175.8,239.9z"/>
		<path d="M184.3,238.6h-2v-1.8h2V238.6z M182.3,239.5h2v7.5h-2V239.5z"/>
		<path d="M185.4,240.9v-1.4h1v-2.1h1.9v2.1h1.2v1.4h-1.2v3.9c0,0.3,0,0.5,0.1,0.6c0.1,0.1,0.3,0.1,0.7,0.1c0.1,0,0.1,0,0.2,0
			c0.1,0,0.1,0,0.2,0v1.5l-0.9,0c-0.9,0-1.5-0.1-1.9-0.5c-0.2-0.2-0.3-0.6-0.3-1v-4.6H185.4z"/>
		<path d="M191.5,236.9h2.1v2.6l-0.6,4.7h-1l-0.6-4.7V236.9z M191.5,244.9h2v2h-2V244.9z"/>
	</g>
	<g>
		<g>
			<path d="M280.8,221.8h-5.3v2.1h4.9v1.8h-4.9v2.6h5.6v1.8h-7.6V220h7.4V221.8z"/>
			<path d="M284.1,227.7c0,0.3,0.1,0.6,0.3,0.7c0.2,0.3,0.7,0.4,1.3,0.4c0.4,0,0.7-0.1,0.9-0.2s0.3-0.3,0.3-0.5
				c0-0.2-0.1-0.4-0.3-0.5s-0.9-0.3-2-0.6c-0.8-0.2-1.4-0.5-1.8-0.8c-0.3-0.3-0.5-0.8-0.5-1.3c0-0.7,0.3-1.3,0.8-1.8
				c0.5-0.5,1.3-0.7,2.3-0.7c0.9,0,1.7,0.2,2.3,0.6c0.6,0.4,0.9,1,1,1.9h-1.9c0-0.3-0.1-0.4-0.2-0.6c-0.2-0.3-0.6-0.4-1.1-0.4
				c-0.4,0-0.7,0.1-0.9,0.2c-0.2,0.1-0.3,0.3-0.3,0.5c0,0.2,0.1,0.4,0.3,0.5c0.2,0.1,0.9,0.3,2,0.5c0.8,0.2,1.4,0.5,1.7,0.8
				c0.4,0.4,0.6,0.8,0.6,1.4c0,0.7-0.3,1.3-0.8,1.8c-0.6,0.5-1.4,0.7-2.6,0.7c-1.2,0-2-0.2-2.6-0.7c-0.6-0.5-0.8-1.1-0.8-1.9H284.1z
				"/>
			<path d="M296.6,223.5c0.6,0.6,0.9,1.6,0.9,2.8c0,1.3-0.3,2.3-0.9,3s-1.4,1-2.3,1c-0.6,0-1.1-0.1-1.5-0.4
				c-0.2-0.2-0.4-0.4-0.6-0.7v3.9h-1.9v-10.4h1.9v1.1c0.2-0.3,0.4-0.6,0.7-0.8c0.4-0.3,1-0.5,1.6-0.5
				C295.2,222.5,296,222.8,296.6,223.5z M295.1,224.9c-0.3-0.4-0.7-0.7-1.3-0.7c-0.7,0-1.2,0.3-1.5,1c-0.1,0.4-0.2,0.8-0.2,1.4
				c0,0.9,0.2,1.5,0.7,1.8c0.3,0.2,0.6,0.3,1,0.3c0.5,0,1-0.2,1.3-0.6s0.4-1,0.4-1.7C295.5,225.8,295.4,225.3,295.1,224.9z"/>
			<path d="M303.7,222.8c0.5,0.2,0.9,0.6,1.3,1.1c0.3,0.4,0.5,1,0.6,1.5c0.1,0.3,0.1,0.8,0.1,1.5h-5.4c0,0.7,0.3,1.3,0.8,1.6
				c0.3,0.2,0.7,0.3,1.1,0.3c0.4,0,0.8-0.1,1.1-0.3c0.2-0.1,0.3-0.3,0.4-0.5h2c-0.1,0.4-0.3,0.9-0.7,1.3c-0.7,0.7-1.6,1.1-2.8,1.1
				c-1,0-1.9-0.3-2.6-0.9c-0.8-0.6-1.1-1.6-1.1-3c0-1.3,0.3-2.3,1-3c0.7-0.7,1.6-1,2.7-1C302.6,222.5,303.2,222.6,303.7,222.8z
				 M300.8,224.5c-0.3,0.3-0.4,0.7-0.5,1.2h3.4c0-0.5-0.2-0.9-0.5-1.2c-0.3-0.3-0.7-0.4-1.2-0.4
				C301.5,224.1,301.1,224.2,300.8,224.5z"/>
			<path d="M311.1,225.3c0-0.3-0.1-0.5-0.3-0.8c-0.2-0.3-0.6-0.5-1-0.5c-0.7,0-1.1,0.3-1.3,1c-0.1,0.3-0.2,0.8-0.2,1.4
				c0,0.5,0.1,1,0.2,1.3c0.2,0.6,0.7,0.9,1.3,0.9c0.5,0,0.8-0.1,1-0.4c0.2-0.2,0.3-0.6,0.3-1h2c0,0.6-0.3,1.2-0.6,1.7
				c-0.6,0.9-1.5,1.3-2.7,1.3c-1.2,0-2.1-0.4-2.6-1.1s-0.8-1.6-0.8-2.8c0-1.3,0.3-2.3,0.9-3s1.5-1.1,2.6-1.1c0.9,0,1.7,0.2,2.3,0.6
				c0.6,0.4,0.9,1.2,1.1,2.2H311.1z"/>
			<path d="M316.5,221.8h-2V220h2V221.8z M314.5,222.7h2v7.5h-2V222.7z"/>
			<path d="M321.3,225.6c0.4,0,0.6-0.1,0.8-0.2c0.3-0.1,0.4-0.3,0.4-0.6c0-0.3-0.1-0.5-0.3-0.6c-0.2-0.1-0.5-0.2-0.9-0.2
				c-0.5,0-0.8,0.1-1,0.3c-0.1,0.2-0.2,0.4-0.3,0.7h-1.9c0-0.7,0.2-1.2,0.5-1.6c0.5-0.7,1.4-1,2.7-1c0.8,0,1.5,0.2,2.2,0.5
				c0.6,0.3,1,0.9,1,1.8v3.4c0,0.2,0,0.5,0,0.9c0,0.3,0.1,0.4,0.1,0.5c0.1,0.1,0.2,0.2,0.3,0.2v0.3h-2.1c-0.1-0.2-0.1-0.3-0.1-0.4
				c0-0.1,0-0.3-0.1-0.5c-0.3,0.3-0.6,0.5-0.9,0.7c-0.4,0.2-0.9,0.4-1.4,0.4c-0.7,0-1.2-0.2-1.7-0.6c-0.4-0.4-0.7-0.9-0.7-1.6
				c0-0.9,0.4-1.6,1.1-2c0.4-0.2,1-0.4,1.7-0.5L321.3,225.6z M322.5,226.5c-0.1,0.1-0.3,0.1-0.4,0.2c-0.1,0-0.3,0.1-0.5,0.1
				l-0.4,0.1c-0.4,0.1-0.7,0.2-0.9,0.3c-0.3,0.2-0.5,0.5-0.5,0.8c0,0.3,0.1,0.6,0.3,0.7c0.2,0.1,0.4,0.2,0.7,0.2
				c0.4,0,0.8-0.1,1.2-0.4s0.5-0.7,0.6-1.3V226.5z"/>
			<path d="M328.1,230.1h-1.9V220h1.9V230.1z"/>
			<path d="M332,230.1h-1.9V220h1.9V230.1z"/>
			<path d="M334.2,231.5l0.2,0c0.2,0,0.4,0,0.5,0c0.2,0,0.3-0.1,0.4-0.2c0.1-0.1,0.2-0.2,0.3-0.5c0.1-0.2,0.1-0.4,0.1-0.5l-2.7-7.8
				h2.2l1.6,5.5l1.5-5.5h2.1L338,230c-0.5,1.4-0.9,2.3-1.2,2.6c-0.3,0.3-0.9,0.5-1.7,0.5c-0.2,0-0.3,0-0.4,0c-0.1,0-0.3,0-0.5,0
				V231.5z"/>
			<path d="M347.1,227.7c0,0.3,0.1,0.6,0.3,0.7c0.2,0.3,0.7,0.4,1.3,0.4c0.4,0,0.7-0.1,0.9-0.2s0.3-0.3,0.3-0.5
				c0-0.2-0.1-0.4-0.3-0.5s-0.9-0.3-2-0.6c-0.8-0.2-1.4-0.5-1.8-0.8c-0.3-0.3-0.5-0.8-0.5-1.3c0-0.7,0.3-1.3,0.8-1.8
				c0.5-0.5,1.3-0.7,2.3-0.7c0.9,0,1.7,0.2,2.3,0.6c0.6,0.4,0.9,1,1,1.9h-1.9c0-0.3-0.1-0.4-0.2-0.6c-0.2-0.3-0.6-0.4-1.1-0.4
				c-0.4,0-0.7,0.1-0.9,0.2c-0.2,0.1-0.3,0.3-0.3,0.5c0,0.2,0.1,0.4,0.3,0.5c0.2,0.1,0.9,0.3,2,0.5c0.8,0.2,1.4,0.5,1.7,0.8
				c0.4,0.4,0.6,0.8,0.6,1.4c0,0.7-0.3,1.3-0.8,1.8c-0.6,0.5-1.4,0.7-2.6,0.7c-1.2,0-2-0.2-2.6-0.7c-0.6-0.5-0.8-1.1-0.8-1.9H347.1z
				"/>
			<path d="M359.6,229.2c-0.6,0.8-1.6,1.2-2.9,1.2c-1.3,0-2.2-0.4-2.9-1.2s-0.9-1.7-0.9-2.8c0-1.1,0.3-2,0.9-2.8s1.6-1.2,2.9-1.2
				c1.3,0,2.2,0.4,2.9,1.2s0.9,1.7,0.9,2.8C360.5,227.5,360.2,228.4,359.6,229.2z M358,228.1c0.3-0.4,0.5-1,0.5-1.7
				c0-0.7-0.2-1.3-0.5-1.7c-0.3-0.4-0.7-0.6-1.3-0.6c-0.6,0-1,0.2-1.3,0.6c-0.3,0.4-0.5,1-0.5,1.7c0,0.7,0.2,1.3,0.5,1.7
				s0.7,0.6,1.3,0.6C357.3,228.7,357.7,228.5,358,228.1z"/>
			<path d="M366.4,225.3c0-0.3-0.1-0.5-0.3-0.8c-0.2-0.3-0.6-0.5-1-0.5c-0.7,0-1.1,0.3-1.3,1c-0.1,0.3-0.2,0.8-0.2,1.4
				c0,0.5,0.1,1,0.2,1.3c0.2,0.6,0.7,0.9,1.3,0.9c0.5,0,0.8-0.1,1-0.4c0.2-0.2,0.3-0.6,0.3-1h2c0,0.6-0.3,1.2-0.6,1.7
				c-0.6,0.9-1.5,1.3-2.7,1.3c-1.2,0-2.1-0.4-2.6-1.1s-0.8-1.6-0.8-2.8c0-1.3,0.3-2.3,0.9-3s1.5-1.1,2.6-1.1c0.9,0,1.7,0.2,2.3,0.6
				c0.6,0.4,0.9,1.2,1.1,2.2H366.4z"/>
			<path d="M369.7,220.1h1.9v5.4l2.5-2.8h2.4l-2.7,2.8l2.8,4.6h-2.4l-1.8-3.2l-0.8,0.8v2.3h-1.9V220.1z"/>
			<path d="M379,227.7c0,0.3,0.1,0.6,0.3,0.7c0.2,0.3,0.7,0.4,1.3,0.4c0.4,0,0.7-0.1,0.9-0.2s0.3-0.3,0.3-0.5c0-0.2-0.1-0.4-0.3-0.5
				s-0.9-0.3-2-0.6c-0.8-0.2-1.4-0.5-1.8-0.8c-0.3-0.3-0.5-0.8-0.5-1.3c0-0.7,0.3-1.3,0.8-1.8c0.5-0.5,1.3-0.7,2.3-0.7
				c0.9,0,1.7,0.2,2.3,0.6c0.6,0.4,0.9,1,1,1.9h-1.9c0-0.3-0.1-0.4-0.2-0.6c-0.2-0.3-0.6-0.4-1.1-0.4c-0.4,0-0.7,0.1-0.9,0.2
				c-0.2,0.1-0.3,0.3-0.3,0.5c0,0.2,0.1,0.4,0.3,0.5c0.2,0.1,0.9,0.3,2,0.5c0.8,0.2,1.4,0.5,1.7,0.8c0.4,0.4,0.6,0.8,0.6,1.4
				c0,0.7-0.3,1.3-0.8,1.8c-0.6,0.5-1.4,0.7-2.6,0.7c-1.2,0-2-0.2-2.6-0.7c-0.6-0.5-0.8-1.1-0.8-1.9H379z"/>
			<path d="M385.2,228.1h2.1v2h-2.1V228.1z"/>
		</g>
	</g>
	<g>
		<path d="M403.2,163.2h2.4l3.6,10.1h-2.3l-0.7-2.1h-3.7l-0.7,2.1h-2.2L403.2,163.2z M403.1,169.4h2.6l-1.3-4L403.1,169.4z"/>
		<path d="M416.3,166.2c0.5,0.4,0.7,1.1,0.7,2v5h-2v-4.5c0-0.4-0.1-0.7-0.2-0.9c-0.2-0.4-0.6-0.6-1.1-0.6c-0.7,0-1.1,0.3-1.3,0.8
			c-0.1,0.3-0.2,0.7-0.2,1.1v4h-1.9v-7.4h1.9v1.1c0.2-0.4,0.5-0.7,0.7-0.8c0.4-0.3,0.9-0.5,1.5-0.5
			C415.2,165.6,415.8,165.8,416.3,166.2z"/>
		<path d="M422.8,165.9c0.4,0.2,0.6,0.5,0.9,0.8v-3.6h2v10.1h-1.9v-1c-0.3,0.4-0.6,0.8-1,1s-0.8,0.3-1.3,0.3c-0.9,0-1.6-0.4-2.2-1.1
			c-0.6-0.7-0.9-1.6-0.9-2.7c0-1.3,0.3-2.3,0.9-3c0.6-0.7,1.4-1.1,2.3-1.1C422.1,165.6,422.5,165.7,422.8,165.9z M423.3,171.2
			c0.3-0.4,0.4-0.9,0.4-1.6c0-0.9-0.2-1.6-0.7-2c-0.3-0.2-0.6-0.4-1-0.4c-0.6,0-1,0.2-1.3,0.6c-0.3,0.4-0.4,1-0.4,1.6
			c0,0.7,0.1,1.2,0.4,1.7c0.3,0.4,0.7,0.6,1.2,0.6S423,171.6,423.3,171.2z"/>
		<path d="M435.9,165.8h2.1l-2.7,7.5h-2.1l-2.7-7.5h2.2l1.6,5.5L435.9,165.8z"/>
		<path d="M444,165.9c0.5,0.2,0.9,0.6,1.3,1.1c0.3,0.4,0.5,1,0.6,1.5c0.1,0.3,0.1,0.8,0.1,1.5h-5.4c0,0.7,0.3,1.3,0.8,1.6
			c0.3,0.2,0.7,0.3,1.1,0.3c0.4,0,0.8-0.1,1.1-0.3c0.2-0.1,0.3-0.3,0.4-0.5h2c-0.1,0.4-0.3,0.9-0.7,1.3c-0.7,0.7-1.6,1.1-2.8,1.1
			c-1,0-1.9-0.3-2.6-0.9c-0.8-0.6-1.1-1.6-1.1-3c0-1.3,0.3-2.3,1-3s1.6-1,2.7-1C442.9,165.6,443.4,165.7,444,165.9z M441,167.6
			c-0.3,0.3-0.4,0.7-0.5,1.2h3.4c0-0.5-0.2-0.9-0.5-1.2c-0.3-0.3-0.7-0.4-1.2-0.4C441.7,167.2,441.3,167.3,441,167.6z"/>
		<path d="M448.9,164.9h-2v-1.8h2V164.9z M446.9,165.8h2v7.5h-2V165.8z"/>
		<path d="M456.8,166.2c0.5,0.4,0.7,1.1,0.7,2v5h-2v-4.5c0-0.4-0.1-0.7-0.2-0.9c-0.2-0.4-0.6-0.6-1.1-0.6c-0.7,0-1.1,0.3-1.3,0.8
			c-0.1,0.3-0.2,0.7-0.2,1.1v4h-1.9v-7.4h1.9v1.1c0.2-0.4,0.5-0.7,0.7-0.8c0.4-0.3,0.9-0.5,1.5-0.5
			C455.7,165.6,456.3,165.8,456.8,166.2z"/>
		<path d="M459.6,174.7l0.2,0c0.2,0,0.4,0,0.5,0s0.3-0.1,0.4-0.2c0.1-0.1,0.2-0.2,0.3-0.5c0.1-0.2,0.1-0.4,0.1-0.5l-2.7-7.8h2.2
			l1.6,5.5l1.5-5.5h2.1l-2.6,7.3c-0.5,1.4-0.9,2.3-1.2,2.6c-0.3,0.3-0.9,0.5-1.7,0.5c-0.2,0-0.3,0-0.4,0c-0.1,0-0.3,0-0.5,0V174.7z"
			/>
		<path d="M466,171.2h2.1v2H466V171.2z"/>
	</g>
	<g>
		<path id="sock_1_" style="fill:#A6AD00;" d="M408.4,246.7l48.3,12.9l-43.5,101.9c0,0-4.9,16-31.9,15.1c-27-0.9-33.7-10.6-55.4-16
			s-24.8-8-27.9-24.8c-3.1-16.8,14.6-27.2,25.3-20.3c10.6,7,35,21.6,45.2,19.4c10.2-2.2,16.8-19.7,13.7-12.4L408.4,246.7z"/>
		<polygon style="fill:#FFEBC3;" points="404.9,256.8 452.6,269.2 449.6,276.2 402.5,263.6 		"/>
		<polygon style="fill:#FFEBC3;" points="447.9,280.3 444.7,287.6 398.2,276.2 400.8,268.6 		"/>
		<path style="fill:#FFEBC3;" d="M408.4,246.7l48.3,12.9c0,0-2-4.4-22.3-9.9C414.1,244.2,408.4,246.7,408.4,246.7z"/>
	</g>
	<circle style="fill:#FF848F;" cx="437.6" cy="18.2" r="7.6"/>
	<circle style="fill:#FF848F;" cx="277.9" cy="108.7" r="3.8"/>
	<circle style="fill:#FF848F;" cx="321.8" cy="156" r="3.8"/>
	<circle style="fill:#FF848F;" cx="386.6" cy="31.1" r="3.8"/>
	<circle style="fill:#FF848F;" cx="269.6" cy="13.8" r="3.8"/>
	<circle style="fill:#FF848F;" cx="468.3" cy="124.9" r="3.8"/>
	<circle style="fill:#FF848F;" cx="464.3" cy="13.8" r="3.8"/>
	<circle style="fill:#FF848F;" cx="475.9" cy="106.6" r="3.8"/>
	<circle style="fill:#FF848F;" cx="277.9" cy="177.8" r="3.8"/>
	<rect x="9.2" y="0.6" style="fill:none;stroke:#000000;stroke-miterlimit:10;" width="230.1" height="194.4"/>
	<circle style="fill:#FF848F;" cx="352.1" cy="148.1" r="3.8"/>
	<rect x="255.3" y="204" style="fill:none;stroke:#000000;stroke-miterlimit:10;" width="230.1" height="194.4"/>
	<g id="next">
		<path id="next-tummy-1_1_" style="fill:#FF5700;" d="M461.8,389.2c-1.6,0-3-1.3-3-2.9v-2.2l-11.1,1.4h-0.1c-2.5,0-4.5-2-4.5-4.5
			v-16.3c0-2.5,2-4.5,4.5-4.5h0.1l11.1,1.4v-2.4c0-1.6,1.3-2.9,3-2.9c0.8,0,1.6,0.3,2.1,0.9l12.2,13.1c1,1.1,1.1,2.8,0.1,3.9
			l-12.2,14C463.4,388.9,462.6,389.2,461.8,389.2L461.8,389.2z"/>
		<path style="fill:#FFFFFF;" d="M461.8,357.8c0.4,0,0.7,0.1,1,0.5l12.2,13.1c0.5,0.5,0.5,1.4,0,1.9l-12.2,14
			c-0.3,0.3-0.7,0.5-1.1,0.5c-0.7,0-1.5-0.6-1.5-1.4v-3.9l-12.7,1.6c-1.7,0-3-1.3-3-3v-16.3c0-1.7,1.3-3,3-3l12.7,1.6v-4.1
			C460.3,358.4,461,357.8,461.8,357.8 M461.8,354.8c-2.5,0-4.5,2-4.5,4.4v0.7l-9.3-1.2h-0.2h-0.2c-3.3,0-6,2.7-6,6V381
			c0,3.3,2.7,6,6,6h0.2h0.2l9.3-1.2v0.5c0,2.5,2,4.4,4.5,4.4c1.3,0,2.5-0.6,3.3-1.5l12.2-14c1.5-1.7,1.5-4.3-0.1-6L465,356.1
			C464.1,355.3,463,354.8,461.8,354.8L461.8,354.8z"/>
	</g>
</g>
<g id="Layer_2">
</g>
</svg>
