<?xml version="1.0" encoding="utf-8"?>
<!-- Generator: Adobe Illustrator 25.2.1, SVG Export Plug-In . SVG Version: 6.00 Build 0)  -->
<svg version="1.1" xmlns="http://www.w3.org/2000/svg" xmlns:xlink="http://www.w3.org/1999/xlink" x="0px" y="0px" width="496px"
	 height="326.2px" viewBox="0 0 496 326.2" style="enable-background:new 0 0 496 326.2;" xml:space="preserve">
<g id="Layer_1">
</g>
<g id="Layer_3">
</g>
<g id="Layer_2">
	<rect x="6" y="4.4" style="fill:#D6D6D6;" width="481.4" height="316.2"/>
	<path style="fill:#A6AD00;" d="M315.1,237.7c1.9-1.1,4.4-0.4,5.4,1.5c0.2,0.3,0.3,0.6,0.4,0.9l0.3,1.2c1.5,5.2,5.4,9.3,10.5,10.9
		l4.9,1.6c2.3,0.8-3.4,17.2-3.7,17.5l-3.8,3.8c-1.6,1.6-1.5,4.1,0,5.7c0.7,0.7,1.6,1.1,2.6,1.1h0.1l11.6,0.3c2.7,0,4.8-2.1,4.8-4.8
		l6.6-30.1c0.1-0.7-0.3-6.2-4.9-8.2c-4-1.7-2.9-11.4-1.8-21.1"/>
	<path style="fill:#A6AD00;" d="M207.2,228.8l3.4,49.2c0.1,1.2-0.1,2.4-0.6,3.5c-2.2,4.6-8.4,17.3-12.1,17.3h-14.2
		c-5.8-0.5-8.4-7.5-4.7-11.9l8-9.6c1.5-1.7,2-4.1,1.5-6.3l-12.3-54c-0.2-0.8-0.2-1.7-0.1-2.5c0,0,3.7,7.2,10.3,10.1
		C194.3,228.1,207.2,228.8,207.2,228.8z"/>
	<path style="fill:#FFEBC3;" d="M257.2,165.9c-23.6,0-63.9-17.8-63.9-17.8c-27.9,0-24.3-16.9-24.3,11.1l0,0c0,38.4-1,69.6,37.4,69.6
		h27.2c1.8,0,3.4,1.2,3.9,2.9l12.9,43c0.4,1.3,0.1,2.7-0.8,3.7l-11.5,13.8c-1.4,1.7-1.2,4.2,0.4,5.6c0.2,0.2,0.4,0.3,0.7,0.5
		c0.7,0.3,1.4,0.5,2.1,0.5H262c2.3,0,8.8-16.9,10.4-21.2c0.2-0.6,0.3-1.3,0.2-2l-4.7-31.7c-0.4-2.2,1.1-4.2,3.3-4.6
		c0.8-0.1,1.6,0,2.3,0.3c10.8,4.8,24.8,7.6,40.1,7.6c17.4,0,33.1-3.7,44.2-9.6c1.9-1.1,4.4-0.4,5.4,1.5c0.2,0.3,0.3,0.6,0.4,0.9
		l0.3,1.2c1.5,5.2,5.4,9.3,10.5,10.9l4.9,1.6c2.3,0.8-3.4,17.2-3.7,17.5l-3.8,3.8c-1.6,1.6-1.5,4.1,0,5.7c0.7,0.7,1.6,1.1,2.6,1.1
		h0.1l11.6,0.3c2.7,0,4.8-2.1,4.8-4.8l6.6-30.1c0.1-0.7-0.3-6.2-4.9-8.2c-4-1.7-2.9-11.4-1.8-21.1c3-27.3-2.3-64.4-45.3-64.4
		C320.5,153.4,280.8,165.9,257.2,165.9z"/>
	<path style="fill:#A6AD00;" d="M345.4,153.5c-24.9-0.1-64.6,12.4-88.2,12.4s-63.9-17.8-63.9-17.8c-27.9,0-24.3-16.9-24.3,11.1
		c0,19.9-0.3,37.9,4.8,50.6c9.7-5.5,17.5-12.5,22.8-20.5c15.3,14.9,40.7,24.6,69.3,24.6c20.8,0,39.8-5.1,54.5-13.5
		c15.5,12.4,38.7,20.3,64.5,20.3c1.8,0,5.5-0.1,5.5-0.1C394.8,192.4,388.4,153.5,345.4,153.5z"/>
	<path id="tummy-on" style="fill:#FF6F25;" d="M273.7,239.1c0,0,13.6,7.4,39.1,7.6c27.9,0.3,43.7-9,43.7-9
		c-4.2-2.7-8.6-5.2-13.1-7.3c-22.2-10.8-48.6-7.9-68,7.3L273.7,239.1z"/>
	<path style="stroke:#000000;" d="M162.5,155.8V68.6c0-9.1-6.7-16-15-16h-13c-8.3,0-16.2,6.9-17.8,16l-14.9,87.2
		c-3,17.3,4.8,32.6,17.6,32.6h19.8C152.1,188.4,162.5,173.1,162.5,155.8z"/>
	<path style="fill:#A6AD00;" d="M205.3,52.6h-50.2c-20.1,0-36.4,16.3-36.4,36.4l0,0v5.7c0,2.3,0.1,4.5,0.3,6.7h-18.3
		c-11.4,0-20.7,9.2-20.7,20.7l0,0v11.5c0,11.4,9.3,20.7,20.7,20.7h47c13.3,10.4,29.7,16,46.6,16h10.9c13.8,0,25-11.2,25-25V77.5
		C230.2,63.7,219,52.6,205.3,52.6z"/>
	<path style="stroke:#000000;" d="M193.3,155.8V68.6c0-9.1,6.7-16,15-16h12.9c8.3,0,16.2,6.9,17.8,16l14.9,87.2
		c3,17.3-4.8,32.6-17.6,32.6h-19.8C203.7,188.4,193.3,173.1,193.3,155.8z"/>
	<path id="Nose-3_1_" style="fill:none;stroke:#000000;" d="M132,142.7c0,0-8.7,7.7-27.8,7.7c-7,0-15.2-2.4-19.6-3.8"/>
	<circle style="fill:#FFFFFF;" cx="141" cy="80.8" r="16"/>
	<circle style="stroke:#000000;" cx="139.1" cy="80.8" r="14.1"/>
	<circle style="fill:#FFFFFF;" cx="173.8" cy="93.8" r="16"/>
	<circle style="stroke:#000000;" cx="171.9" cy="93.8" r="14.1"/>
	<path style="fill:#FFEBC3;" d="M390,100.1c-1.2,4.1-3,10-5.1,16.6H395c1.8-7.4,3-13.4,3.5-16.6C401.7,77.4,396.3,78,390,100.1z"/>
	<g>
		<path style="fill:#A6AD00;" d="M395,116.7h-10.2c-7.1,22-17.5,52.1-17.5,52.1l11.3,7.8C384,159.9,395.4,115.4,395,116.7z"/>
	</g>
	<path id="Nose-2_1_" style="stroke:#000000;" d="M142.3,101H111"/>
	<path id="nose_1_" style="stroke:#000000;" d="M80,122.1v7.6c9.3,13.6,27.8,17.1,41.4,7.8c8.1-5.6,13-14.8,13-24.6
		c0-3.9-0.8-7.8-2.3-11.4h-31.4c-11.3-0.1-20.6,9-20.7,20.4C80,121.9,80,122,80,122.1z"/>
	<g id="back_2_">
		<circle style="fill:#D6D6D6;" cx="325.1" cy="162.6" r="1.8"/>
		<circle style="fill:#D6D6D6;" cx="340.9" cy="159.7" r="1.1"/>
		<circle style="fill:#D6D6D6;" cx="336.6" cy="165.3" r="1.1"/>
		<circle style="fill:#D6D6D6;" cx="305" cy="168.2" r="1.1"/>
		<circle style="fill:#D6D6D6;" cx="355.6" cy="163.5" r="0.9"/>
		<circle style="fill:#D6D6D6;" cx="357.7" cy="173.2" r="1.2"/>
		<circle style="fill:#D6D6D6;" cx="375.2" cy="173.2" r="1.9"/>
		<circle style="fill:#D6D6D6;" cx="364.8" cy="163.5" r="1.9"/>
		<circle style="fill:#D6D6D6;" cx="348.2" cy="168.2" r="1.9"/>
		<circle style="fill:#D6D6D6;" cx="337.2" cy="174.5" r="1.9"/>
		<circle style="fill:#D6D6D6;" cx="346.3" cy="158.8" r="1.9"/>
		<circle style="fill:#D6D6D6;" cx="317" cy="166.2" r="1.9"/>
		<circle style="fill:#D6D6D6;" cx="322" cy="171.9" r="1.2"/>
		<circle style="fill:#D6D6D6;" cx="306.7" cy="163.7" r="1.6"/>
		<circle style="fill:#D6D6D6;" cx="294.3" cy="167.1" r="1.2"/>
		<circle style="fill:#D6D6D6;" cx="356.6" cy="181.4" r="1.1"/>
	</g>
</g>
</svg>
