<?xml version="1.0" encoding="utf-8"?>
<!-- Generator: Adobe Illustrator 25.2.1, SVG Export Plug-In . SVG Version: 6.00 Build 0)  -->
<svg version="1.1" id="Layer_1" xmlns="http://www.w3.org/2000/svg" xmlns:xlink="http://www.w3.org/1999/xlink" x="0px" y="0px"
	 width="492px" height="327.7px" viewBox="0 0 492 327.7" style="enable-background:new 0 0 492 327.7;" xml:space="preserve">
<style type="text/css">
	.st0{fill:#A6AD00;}
	.st1{fill:#FFEBC3;}
	.st2{fill:#FF5F23;}
	.st3{stroke:#000000;}
	.st4{fill:none;stroke:#000000;}
	.st5{fill:#FFFFFF;}
	.st6{fill:none;stroke:#000000;stroke-miterlimit:10;}
</style>
<path class="st0" d="M314,238.8c1.9-1.1,4.4-0.4,5.4,1.5c0.2,0.3,0.3,0.6,0.4,0.9l0.3,1.2c1.5,5.2,5.4,9.3,10.5,10.9l4.9,1.6
	c2.3,0.8-3.4,17.2-3.7,17.5l-3.8,3.8c-1.6,1.6-1.5,4.1,0,5.7c0.7,0.7,1.6,1.1,2.6,1.1h0.1l11.6,0.3c2.7,0,4.8-2.1,4.8-4.8l6.6-30.1
	c0.1-0.7-0.3-6.2-4.9-8.2c-4-1.7-2.9-11.4-1.8-21.1"/>
<path class="st0" d="M206.1,229.9l3.4,49.2c0.1,1.2-0.1,2.4-0.6,3.5c-2.2,4.6-8.4,17.3-12.1,17.3h-14.2c-5.8-0.5-8.4-7.5-4.7-11.9
	l8-9.6c1.5-1.7,2-4.1,1.5-6.3l-12.3-54c-0.2-0.8-0.2-1.7-0.1-2.5c0,0,3.7,7.2,10.3,10.1C193.2,229.2,206.1,229.9,206.1,229.9z"/>
<path class="st1" d="M256.1,167c-23.6,0-63.9-17.8-63.9-17.8c-27.9,0-24.3-16.9-24.3,11.1l0,0c0,38.4-1,69.6,37.4,69.6h27.2
	c1.8,0,3.4,1.2,3.9,2.9l12.9,43c0.4,1.3,0.1,2.7-0.8,3.7L237,293.3c-1.4,1.7-1.2,4.2,0.4,5.6c0.2,0.2,0.4,0.3,0.7,0.5
	c0.7,0.3,1.4,0.5,2.1,0.5h20.7c2.3,0,8.8-16.9,10.4-21.2c0.2-0.6,0.3-1.3,0.2-2l-4.7-31.7c-0.4-2.2,1.1-4.2,3.3-4.6
	c0.8-0.1,1.6,0,2.3,0.3c10.8,4.8,24.8,7.6,40.1,7.6c17.4,0,33.1-3.7,44.2-9.6c1.9-1.1,4.4-0.4,5.4,1.5c0.2,0.3,0.3,0.6,0.4,0.9
	l0.3,1.2c1.5,5.2,5.4,9.3,10.5,10.9l4.9,1.6c2.3,0.8-3.4,17.2-3.7,17.5l-3.8,3.8c-1.6,1.6-1.5,4.1,0,5.7c0.7,0.7,1.6,1.1,2.6,1.1
	h0.1l11.6,0.3c2.7,0,4.8-2.1,4.8-4.8l6.6-30.1c0.1-0.7-0.3-6.2-4.9-8.2c-4-1.7-2.9-11.4-1.8-21.1c3-27.3-2.3-64.4-45.3-64.4
	C319.4,154.5,279.7,167,256.1,167z"/>
<path class="st0" d="M344.3,154.6c-24.9-0.1-64.6,12.4-88.2,12.4s-63.9-17.8-63.9-17.8c-27.9,0-24.3-16.9-24.3,11.1
	c0,19.9-0.3,37.9,4.8,50.6c9.7-5.5,17.5-12.5,22.8-20.5c15.3,14.9,40.7,24.6,69.3,24.6c20.8,0,39.8-5.1,54.5-13.5
	c15.5,12.4,38.7,20.3,64.5,20.3c1.8,0,5.5-0.1,5.5-0.1C393.7,193.5,387.3,154.6,344.3,154.6z"/>
<path id="tummy" class="st2" d="M272.6,240.2c0,0,13.6,7.4,39.1,7.6c27.9,0.3,43.7-9,43.7-9c-4.2-2.7-8.6-5.2-13.1-7.3
	c-22.2-10.8-48.6-7.9-68,7.3L272.6,240.2z"/>
<path class="st3" d="M161.4,156.9V69.7c0-9.1-6.7-16-15-16h-13c-8.3,0-16.2,6.9-17.8,16l-14.9,87.2c-3,17.3,4.8,32.6,17.6,32.6h19.8
	C151,189.5,161.4,174.2,161.4,156.9z"/>
<path class="st0" d="M204.2,53.7H154c-20.1,0-36.4,16.3-36.4,36.4l0,0v5.7c0,2.3,0.1,4.5,0.3,6.7H99.6c-11.4,0-20.7,9.2-20.7,20.7
	l0,0v11.5c0,11.4,9.3,20.7,20.7,20.7h47c13.3,10.4,29.7,16,46.6,16h10.9c13.8,0,25-11.2,25-25V78.6
	C229.1,64.8,217.9,53.7,204.2,53.7z"/>
<path class="st3" d="M192.2,156.9V69.7c0-9.1,6.7-16,15-16h12.9c8.3,0,16.2,6.9,17.8,16l14.9,87.2c3,17.3-4.8,32.6-17.6,32.6h-19.8
	C202.6,189.5,192.2,174.2,192.2,156.9z"/>
<path id="nose" class="st3" d="M78.9,123.2v7.6c9.3,13.6,27.8,17.1,41.4,7.8c8.1-5.6,13-14.8,13-24.6c0-3.9-0.8-7.8-2.3-11.4H99.6
	c-11.3-0.1-20.6,9-20.7,20.4C78.9,123,78.9,123.1,78.9,123.2z"/>
<path id="Nose-2" class="st3" d="M141.7,102.6h-31.3"/>
<path id="Nose-3" class="st4" d="M130.9,143.8c0,0-8.7,7.7-27.8,7.7c-7,0-15.2-2.4-19.6-3.8"/>
<circle class="st5" cx="139.9" cy="81.9" r="16"/>
<circle class="st3" cx="138" cy="81.9" r="14.1"/>
<circle class="st5" cx="172.7" cy="94.9" r="16"/>
<circle class="st3" cx="170.8" cy="94.9" r="14.1"/>
<rect x="4.9" y="5.5" class="st6" width="481.4" height="316.2"/>
</svg>
