<?xml version="1.0" encoding="utf-8"?>
<!-- Generator: Adobe Illustrator 25.2.1, SVG Export Plug-In . SVG Version: 6.00 Build 0)  -->
<svg version="1.1" id="Layer_1" xmlns="http://www.w3.org/2000/svg" xmlns:xlink="http://www.w3.org/1999/xlink" x="0px" y="0px"
	 width="318px" height="246.7px" viewBox="0 0 318 246.7" style="enable-background:new 0 0 318 246.7;" xml:space="preserve">
<style type="text/css">
	.st0{stroke:#FFFFFF;stroke-miterlimit:10;}
	.st1{fill:#FFEBC3;}
	.st2{fill:#A6AD00;}
	.st3{fill:#EABEB5;}
	.st4{stroke:#000000;}
	.st5{fill:#FF601D;}
	.st6{fill:none;stroke:#000000;}
	.st7{fill:#FFFFFF;}
</style>
<path class="st0" d="M238.2,195c1.9,2,4.2,3.5,6.8,4.3l4.9,1.6c2.1,0.7,3.3,3,2.6,5.1c-0.1,0.2-0.1,0.3-0.2,0.5l-5.3,10.8
	c-0.2,0.4-0.5,0.8-0.8,1.1l-3.8,3.8c-1.6,1.6-1.5,4.1,0,5.7c0.7,0.7,1.6,1.1,2.6,1.1h0.1l11.6,0.3c2.7,0,4.8-2.1,4.8-4.8l6.6-30.1
	c0.2-1.1,0-2.2-0.6-3.1l-0.7-1"/>
<path d="M127.7,176.7l3.4,49.2c0.1,1.2-0.1,2.4-0.6,3.5c-2.2,4.6-8.4,17.3-12.1,17.3h-14.2c-5.8-0.5-8.4-7.5-4.7-11.9l8-9.6
	c1.5-1.7,2-4.1,1.5-6.3l-12.3-54c-0.2-0.8-0.2-1.7-0.1-2.5c0,0,3.7,7.2,10.3,10.1C114.8,176,127.7,176.7,127.7,176.7z"/>
<path class="st1" d="M177.7,113.8c-23.6,0-63.9-17.8-63.9-17.8c-27.9,0-24.3-16.9-24.3,11.1l0,0c0,38.4-1,69.6,37.4,69.6h27.2
	c1.8,0,3.4,1.2,3.9,2.9l12.9,43c0.4,1.3,0.1,2.7-0.8,3.7l-11.5,13.8c-1.4,1.7-1.2,4.2,0.4,5.6c0.2,0.2,0.4,0.3,0.7,0.5
	c0.7,0.3,1.4,0.5,2.1,0.5h20.7c2.3,0,8.8-16.9,10.4-21.2c0.2-0.6,0.3-1.3,0.2-2l-4.7-31.7c-0.4-2.2,1.1-4.2,3.3-4.6
	c0.8-0.1,1.6,0,2.3,0.3c10.8,4.8,24.8,7.6,40.1,7.6c17.4,0,33.1-3.7,44.2-9.6c1.9-1.1,4.4-0.4,5.4,1.5c0.2,0.3,0.3,0.6,0.4,0.9
	l0.3,1.2c1.5,5.2,5.4,9.3,10.5,10.9l4.9,1.6c2.3,0.8-3.4,17.2-3.7,17.5l-3.8,3.8c-1.6,1.6-1.5,4.1,0,5.7c0.7,0.7,1.6,1.1,2.6,1.1
	h0.1l11.6,0.3c2.7,0,4.8-2.1,4.8-4.8l6.6-30.1c0.1-0.7-0.3-6.2-4.9-8.2c-4-1.7-2.9-11.4-1.8-21.1c3-27.3-2.3-64.4-45.3-64.4
	C241,101.3,201.3,113.8,177.7,113.8z"/>
<path class="st2" d="M265.9,101.4c-24.9-0.1-64.6,12.4-88.2,12.4S113.8,96,113.8,96c-27.9,0-24.3-16.9-24.3,11.1
	c0,19.9-0.3,37.9,4.8,50.6c9.7-5.5,17.5-12.5,22.8-20.5c15.3,14.9,40.7,24.6,69.3,24.6c20.8,0,39.8-5.1,54.5-13.5
	c15.5,12.4,38.7,20.3,64.5,20.3c1.8,0,5.5-0.1,5.5-0.1C315.3,140.3,308.9,101.4,265.9,101.4z"/>
<path id="tummy" class="st3" d="M194.2,187c0,0,13.6,7.4,39.1,7.6c27.9,0.3,43.7-9,43.7-9c-4.2-2.7-8.6-5.2-13.1-7.3
	c-22.2-10.8-48.6-7.9-68,7.3L194.2,187z"/>
<path class="st4" d="M83,103.7V16.5c0-9.1-6.7-16-15-16H55c-8.3,0-16.2,6.9-17.8,16l-14.9,87.2c-3,17.3,4.8,32.6,17.6,32.6h19.8
	C72.6,136.3,83,121,83,103.7z"/>
<path class="st2" d="M125.8,0.5H75.6c-20.1,0-36.4,16.3-36.4,36.4l0,0v5.7c0,2.3,0.1,4.5,0.3,6.7H21.2C9.8,49.3,0.5,58.5,0.5,70
	c0,0,0,0,0,0v11.5c0,11.4,9.3,20.7,20.7,20.7h47c13.3,10.4,29.7,16,46.6,16h10.9c13.8,0,25-11.2,25-25V25.4
	C150.7,11.6,139.5,0.5,125.8,0.5z"/>
<path class="st4" d="M113.8,103.7V16.5c0-9.1,6.7-16,15-16h12.9c8.3,0,16.2,6.9,17.8,16l14.9,87.2c3,17.3-4.8,32.6-17.6,32.6H137
	C124.2,136.3,113.8,121,113.8,103.7z"/>
<path id="nose-on" class="st5" d="M0.5,70v7.6c9.3,13.6,27.8,17.1,41.4,7.8c8.1-5.6,13-14.8,13-24.6c0-3.9-0.8-7.8-2.3-11.4H21.2
	c-11.3-0.1-20.6,9-20.7,20.4C0.5,69.8,0.5,69.9,0.5,70z"/>
<path id="mouth_1_" class="st4" d="M63.2,48.9H31.8"/>
<path id="mouth" class="st6" d="M52.5,90.6c0,0-8.7,7.7-27.8,7.7c-7,0-15.2-2.4-19.6-3.8"/>
<circle class="st7" cx="61.5" cy="28.7" r="16"/>
<circle class="st4" cx="59.6" cy="28.7" r="14.1"/>
<circle class="st7" cx="94.3" cy="41.7" r="16"/>
<circle class="st4" cx="92.4" cy="41.7" r="14.1"/>
</svg>
