<svg xmlns="http://www.w3.org/2000/svg" xmlns:xlink="http://www.w3.org/1999/xlink" width="244.46" height="189.7" viewBox="0 0 244.46 189.7">
  <defs>
    <clipPath id="clip-path" transform="translate(0.12 0.12)">
      <rect width="244.35" height="189.58" fill="none"/>
    </clipPath>
  </defs>
  <g id="Layer_2" data-name="Layer 2">
    <g id="Layer_1-2" data-name="Layer 1">
      <g clip-path="url(#clip-path)">
        <g id="dog_1" data-name="dog 1">
          <g id="Vector">
            <path d="M183,149.85a11.93,11.93,0,0,0,5.23,3.3l3.77,1.23a3.22,3.22,0,0,1,1.9,1.74,3.09,3.09,0,0,1-.06,2.57l-4.07,8.3a3.61,3.61,0,0,1-.61.84l-2.92,2.92a3,3,0,0,0-.82,1.53,3.06,3.06,0,0,0,2.81,3.7h.08l8.91.23a3.65,3.65,0,0,0,2.61-1.08,3.46,3.46,0,0,0,.8-1.2,3.62,3.62,0,0,0,.28-1.41L206,149.39a3.17,3.17,0,0,0-.46-2.38l-.51-.77" transform="translate(0.12 0.12)"/>
            <path d="M183,149.85a11.93,11.93,0,0,0,5.23,3.3l3.77,1.23a3.22,3.22,0,0,1,1.9,1.74,3.09,3.09,0,0,1-.06,2.57l-4.07,8.3a3.61,3.61,0,0,1-.61.84l-2.92,2.92a3,3,0,0,0-.82,1.53,3.06,3.06,0,0,0,2.81,3.7h.08l8.91.23a3.65,3.65,0,0,0,2.61-1.08,3.46,3.46,0,0,0,.8-1.2,3.62,3.62,0,0,0,.28-1.41L206,149.39a3.17,3.17,0,0,0-.46-2.38l-.51-.77" transform="translate(0.12 0.12)" fill="none" stroke="#fff" stroke-miterlimit="10"/>
          </g>
          <path id="Vector_2" data-name="Vector 2" d="M98.16,135.79l2.61,37.81a5.42,5.42,0,0,1-.46,2.69c-1.69,3.53-6.46,13.29-9.3,13.29H80.1a5.56,5.56,0,0,1-3.61-9.14l6.14-7.38a5.51,5.51,0,0,0,1.15-2.29,5.63,5.63,0,0,0,0-2.55l-9.46-41.5a5.81,5.81,0,0,1-.09-2s2.82,5.51,7.89,7.77C88.26,135.25,98.16,135.79,98.16,135.79Z" transform="translate(0.12 0.12)"/>
          <path id="body" d="M136.56,87.48c-18.14,0-49.15-13.71-49.15-13.71-21.44,0-18.67-13-18.67,8.53,0,29.51-.77,53.49,28.74,53.49h20.9a3.14,3.14,0,0,1,3,2.23l9.91,33a2.94,2.94,0,0,1-.61,2.84l-8.84,10.61a3,3,0,0,0-.63,1.19,3.08,3.08,0,0,0-.06,1.35,3,3,0,0,0,.53,1.25,3.12,3.12,0,0,0,1,.9,3.88,3.88,0,0,0,1.61.38h15.91c1.76,0,6.76-13,8-16.29a3.36,3.36,0,0,0,.15-1.54l-3.61-24.36a3.08,3.08,0,0,1,2.68-3.56,3.09,3.09,0,0,1,1.62.26c8.3,3.69,19.06,5.84,30.82,5.84,13.37,0,25.43-2.85,34-7.38a3.1,3.1,0,0,1,1.32-.39,3.31,3.31,0,0,1,1.36.23,3.07,3.07,0,0,1,1.12.8,3,3,0,0,1,.66,1.2l.23.93a12.27,12.27,0,0,0,8.07,8.37l3.77,1.23c1.76.62-2.62,13.22-2.85,13.45l-2.92,2.92a3.07,3.07,0,0,0-.68,3.26,3,3,0,0,0,1,1.37,3.12,3.12,0,0,0,1.63.6h.08l8.91.23a3.7,3.7,0,0,0,2.61-1.08,3.88,3.88,0,0,0,.8-1.2,3.62,3.62,0,0,0,.28-1.41l5.07-23.13c.1-.55-.23-4.8-3.79-6.27-3.07-1.28-2.19-8.79-1.36-16.25,2.31-21-1.78-49.47-34.82-49.47C185.2,77.86,154.69,87.48,136.56,87.48Z" transform="translate(0.12 0.12)" fill="#ffebc3"/>
          <path id="back" d="M204.36,77.94c-19.14-.08-49.67,9.54-67.8,9.54S87.41,73.77,87.41,73.77c-21.44,0-18.67-13-18.67,8.53,0,15.32-.21,29.14,3.72,38.9a51.28,51.28,0,0,0,17.48-15.72c11.77,11.41,31.25,18.87,53.29,18.87,15.94,0,30.54-3.9,41.86-10.38,11.94,9.55,29.72,15.62,49.6,15.62,1.41,0,4.21-.1,4.21-.1C242.27,107.84,237.4,77.94,204.36,77.94Z" transform="translate(0.12 0.12)" fill="#a6ad00"/>
          <path id="tummy" d="M149.25,143.7s10.43,5.65,30,5.88c21.43.26,33.56-6.91,33.56-6.91A87.71,87.71,0,0,0,202.77,137a49.61,49.61,0,0,0-52.26,5.6Z" transform="translate(0.12 0.12)"/>
          <path id="Vector_3" data-name="Vector 3" d="M63.78,79.69v-67c0-7-5.15-12.3-11.52-12.3h-10c-6.37,0-12.45,5.31-13.67,12.3l-11.45,67c-2.31,13.29,3.68,25,13.52,25H45.92C55.75,104.74,63.78,93,63.78,79.69Z" transform="translate(0.12 0.12)" stroke="#000"/>
          <path id="Vector_4" data-name="Vector 4" d="M96.63.38H58.06a28,28,0,0,0-28,28v4.38c0,1.76.07,3.45.23,5.15h-14a15.71,15.71,0,0,0-6.09,1.2A15.9,15.9,0,0,0,.38,53.79v8.84A15.94,15.94,0,0,0,16.29,78.54H52.45A58,58,0,0,0,88.26,90.83h8.37A19.14,19.14,0,0,0,104,89.37,19.15,19.15,0,0,0,114.38,79a19.13,19.13,0,0,0,1.47-7.35V19.52A19.22,19.22,0,0,0,96.63.38Z" transform="translate(0.12 0.12)" fill="#a6ad00"/>
          <path id="Vector_5" data-name="Vector 5" d="M87.49,79.69v-67c0-7,5.15-12.3,11.53-12.3h9.91c6.38,0,12.45,5.31,13.68,12.3l11.45,67c2.3,13.29-3.69,25-13.53,25H105.32C95.48,104.74,87.49,93,87.49,79.69Z" transform="translate(0.12 0.12)" stroke="#000"/>
          <path id="Nose" d="M.38,53.79v5.84A22.9,22.9,0,0,0,42.19,46.72,22.16,22.16,0,0,0,40.42,38H16.29A15.8,15.8,0,0,0,1.58,47.71,15.88,15.88,0,0,0,.38,53.79Z" transform="translate(0.12 0.12)" stroke="#000"/>
          <g id="Nose_2" data-name="Nose 2">
            <path d="M48.68,38h0Z" transform="translate(0.12 0.12)"/>
            <path d="M48.68,38H24.59" transform="translate(0.12 0.12)" fill="none" stroke="#000"/>
          </g>
          <path id="Nose_3" data-name="Nose 3" d="M40.31,69.62S33.66,75.56,19,75.56c-5.38,0-11.69-1.83-15.06-3" transform="translate(0.12 0.12)" fill="none" stroke="#000"/>
          <path id="Vector_6" data-name="Vector 6" d="M47.25,34.33A12.3,12.3,0,1,0,35,22,12.3,12.3,0,0,0,47.25,34.33Z" transform="translate(0.12 0.12)" fill="#fff"/>
          <path id="Vector_7" data-name="Vector 7" d="M45.78,32.87A10.83,10.83,0,1,0,35,22,10.82,10.82,0,0,0,45.78,32.87Z" transform="translate(0.12 0.12)" stroke="#000"/>
          <path id="Vector_8" data-name="Vector 8" d="M72.5,44.33A12.3,12.3,0,1,0,60.21,32,12.29,12.29,0,0,0,72.5,44.33Z" transform="translate(0.12 0.12)" fill="#fff"/>
          <path id="Vector_9" data-name="Vector 9" d="M71,42.86A10.83,10.83,0,1,0,60.21,32,10.81,10.81,0,0,0,71,42.86Z" transform="translate(0.12 0.12)" stroke="#000"/>
        </g>
      </g>
    </g>
  </g>
</svg>
