<svg xmlns="http://www.w3.org/2000/svg" width="317.97" height="246.7" viewBox="0 0 317.97 246.7">

  <path d="M238.19,195A15.58,15.58,0,0,0,245,199.3l4.9,1.6a4.05,4.05,0,0,1,2.4,5.6L247,217.3a4.44,4.44,0,0,1-.8,1.1l-3.8,3.8A4,4,0,0,0,245,229h.1l11.6.3a4.8,4.8,0,0,0,4.8-4.8l6.6-30.1a4.19,4.19,0,0,0-.6-3.1l-.67-1" stroke="#fff" stroke-miterlimit="10"/>
  <path d="M127.73,176.7l3.4,49.2a7,7,0,0,1-.6,3.5c-2.2,4.6-8.4,17.3-12.1,17.3h-14.2c-5.8-.5-8.4-7.5-4.7-11.9l8-9.6a7.24,7.24,0,0,0,1.5-6.3l-12.3-54a7.23,7.23,0,0,1-.12-2.54s3.67,7.17,10.26,10.11C114.85,176,127.73,176.7,127.73,176.7Z"/>
  <path d="M177.7,113.84c-23.6,0-63.95-17.84-63.95-17.84-27.9,0-24.3-16.9-24.3,11.1h0c0,38.4-1,69.6,37.4,69.6h27.2a4.08,4.08,0,0,1,3.9,2.9l12.9,43a3.83,3.83,0,0,1-.8,3.7l-11.5,13.8a4,4,0,0,0,1.1,6.1,5,5,0,0,0,2.1.5h20.7c2.3,0,8.8-16.9,10.4-21.2a4.42,4.42,0,0,0,.2-2l-4.7-31.7a4,4,0,0,1,5.6-4.3c10.8,4.8,24.8,7.6,40.1,7.6,17.4,0,33.1-3.7,44.2-9.6a4,4,0,0,1,5.8,2.4l.3,1.2a16,16,0,0,0,10.5,10.9l4.9,1.6c2.3.8-3.4,17.2-3.7,17.5l-3.8,3.8a4,4,0,0,0,2.6,6.8h.1l11.6.3a4.8,4.8,0,0,0,4.8-4.8l6.6-30.1c.13-.71-.3-6.24-4.93-8.16-4-1.66-2.85-11.44-1.77-21.14,3-27.31-2.32-64.38-45.32-64.38C241,101.32,201.3,113.84,177.7,113.84Z" fill="#ffebc3"/>
  <path d="M265.93,101.42c-24.9-.1-64.63,12.42-88.23,12.42S113.75,96,113.75,96c-27.9,0-24.3-16.9-24.3,11.1,0,19.93-.27,37.92,4.84,50.62,9.67-5.54,17.49-12.52,22.75-20.46,15.32,14.85,40.66,24.56,69.34,24.56,20.75,0,39.75-5.08,54.48-13.51,15.53,12.43,38.67,20.33,64.54,20.33,1.84,0,5.48-.14,5.48-.14C315.26,140.33,308.93,101.42,265.93,101.42Z" fill="#a6ad00"/>

  <path id="tummy" data-name="tummy" d="M194.22,187s13.57,7.35,39.07,7.65c27.88.34,43.67-9,43.67-9a114.23,114.23,0,0,0-13.1-7.33,64.49,64.49,0,0,0-68,7.29Z" fill="#eabeb5"/>


  <path d="M83,103.7V16.5c0-9.1-6.7-16-15-16H55.05c-8.3,0-16.2,6.9-17.8,16l-14.9,87.2c-3,17.3,4.8,32.6,17.6,32.6h19.8C72.55,136.3,83,121,83,103.7Z" stroke="#000"/>
  <path d="M125.75.5H75.55a36.4,36.4,0,0,0-36.4,36.4v5.7c0,2.3.1,4.5.3,6.7H21.2A20.68,20.68,0,0,0,.5,70V81.5a20.74,20.74,0,0,0,20.7,20.7H68.25a75.49,75.49,0,0,0,46.6,16h10.9a25,25,0,0,0,25-25V25.4A25,25,0,0,0,125.75.5Z" fill="#a6ad00"/>
  <path d="M113.85,103.7V16.5c0-9.1,6.7-16,15-16h12.9c8.3,0,16.2,6.9,17.8,16l14.9,87.2c3,17.3-4.8,32.6-17.6,32.6h-19.8C124.25,136.3,113.85,121,113.85,103.7Z" stroke="#000"/>
  <path id="Nose" d="M.5,70v7.6A29.79,29.79,0,0,0,54.9,60.8a29,29,0,0,0-2.3-11.4H21.2A20.53,20.53,0,0,0,.5,70Z" stroke="#000"/>

  <path id="Nose-2" data-name="Nose" d="M63.35,49.4H32" stroke="#000"/>
  <path id="Nose-3" data-name="Nose" d="M52.45,90.6S43.8,98.32,24.7,98.32c-7,0-15.21-2.37-19.6-3.84" fill="none" stroke="#000"/>
  <circle cx="61.49" cy="28.68" r="16" fill="#fff"/>
  <circle cx="59.57" cy="28.68" r="14.09" stroke="#000"/>
  <circle cx="94.35" cy="41.69" r="16" fill="#fff"/>
  <circle cx="92.44" cy="41.69" r="14.09" stroke="#000"/>

</svg>
