<?xml version="1.0" encoding="utf-8"?>
<!-- Generator: Adobe Illustrator 25.2.1, SVG Export Plug-In . SVG Version: 6.00 Build 0)  -->
<svg version="1.1" id="Layer_1" xmlns="http://www.w3.org/2000/svg" xmlns:xlink="http://www.w3.org/1999/xlink" x="0px" y="0px"
	 width="496px" height="370.1px" viewBox="0 0 496 370.1" style="enable-background:new 0 0 496 370.1;" xml:space="preserve">
<path style="fill:#A6AD00;" d="M315.1,273.9c1.9-1.1,4.4-0.4,5.4,1.5c0.2,0.3,0.3,0.6,0.4,0.9l0.3,1.2c1.5,5.2,5.4,9.3,10.5,10.9
	l4.9,1.6c2.3,0.8-3.4,17.2-3.7,17.5l-3.8,3.8c-1.6,1.6-1.5,4.1,0,5.7c0.7,0.7,1.6,1.1,2.6,1.1h0.1l11.6,0.3c2.7,0,4.8-2.1,4.8-4.8
	l6.6-30.1c0.1-0.7-0.3-6.2-4.9-8.2c-4-1.7-2.9-11.4-1.8-21.1"/>
<path style="fill:#A6AD00;" d="M207.2,265l3.4,49.2c0.1,1.2-0.1,2.4-0.6,3.5c-2.2,4.6-8.4,17.3-12.1,17.3h-14.2
	c-5.8-0.5-8.4-7.5-4.7-11.9l8-9.6c1.5-1.7,2-4.1,1.5-6.3l-12.3-54c-0.2-0.8-0.2-1.7-0.1-2.5c0,0,3.7,7.2,10.3,10.1
	C194.3,264.3,207.2,265,207.2,265z"/>
<path style="fill:#FFEBC3;" d="M257.2,202.1c-23.6,0-63.9-17.8-63.9-17.8c-27.9,0-24.3-16.9-24.3,11.1l0,0c0,38.4-1,69.6,37.4,69.6
	h27.2c1.8,0,3.4,1.2,3.9,2.9l12.9,43c0.4,1.3,0.1,2.7-0.8,3.7l-11.5,13.8c-1.4,1.7-1.2,4.2,0.4,5.6c0.2,0.2,0.4,0.3,0.7,0.5
	c0.7,0.3,1.4,0.5,2.1,0.5H262c2.3,0,8.8-16.9,10.4-21.2c0.2-0.6,0.3-1.3,0.2-2l-4.7-31.7c-0.4-2.2,1.1-4.2,3.3-4.6
	c0.8-0.1,1.6,0,2.3,0.3c10.8,4.8,24.8,7.6,40.1,7.6c17.4,0,33.1-3.7,44.2-9.6c1.9-1.1,4.4-0.4,5.4,1.5c0.2,0.3,0.3,0.6,0.4,0.9
	l0.3,1.2c1.5,5.2,5.4,9.3,10.5,10.9l4.9,1.6c2.3,0.8-3.4,17.2-3.7,17.5l-3.8,3.8c-1.6,1.6-1.5,4.1,0,5.7c0.7,0.7,1.6,1.1,2.6,1.1
	h0.1l11.6,0.3c2.7,0,4.8-2.1,4.8-4.8l6.6-30.1c0.1-0.7-0.3-6.2-4.9-8.2c-4-1.7-2.9-11.4-1.8-21.1c3-27.3-2.3-64.4-45.3-64.4
	C320.5,189.6,280.8,202.1,257.2,202.1z"/>
<path style="fill:#A6AD00;" d="M345.4,189.7c-24.9-0.1-64.6,12.4-88.2,12.4s-63.9-17.8-63.9-17.8c-27.9,0-24.3-16.9-24.3,11.1
	c0,19.9-0.3,37.9,4.8,50.6c9.7-5.5,17.5-12.5,22.8-20.5c15.3,14.9,40.7,24.6,69.3,24.6c20.8,0,39.8-5.1,54.5-13.5
	c15.5,12.4,38.7,20.3,64.5,20.3c1.8,0,5.5-0.1,5.5-0.1C394.8,228.6,388.4,189.7,345.4,189.7z"/>
<path id="tummy" style="fill:#EABEB5;" d="M273.7,275.3c0,0,13.6,7.4,39.1,7.6c27.9,0.3,43.7-9,43.7-9c-4.2-2.7-8.6-5.2-13.1-7.3
	c-22.2-10.8-48.6-7.9-68,7.3L273.7,275.3z"/>
<path style="stroke:#000000;" d="M162.5,192v-87.2c0-9.1-6.7-16-15-16h-13c-8.3,0-16.2,6.9-17.8,16L101.8,192
	c-3,17.3,4.8,32.6,17.6,32.6h19.8C152.1,224.6,162.5,209.3,162.5,192z"/>
<path style="fill:#A6AD00;" d="M205.3,88.8h-50.2c-20.1,0-36.4,16.3-36.4,36.4l0,0v5.7c0,2.3,0.1,4.5,0.3,6.7h-18.3
	c-11.4,0-20.7,9.2-20.7,20.7l0,0v11.5c0,11.4,9.3,20.7,20.7,20.7h47c13.3,10.4,29.7,16,46.6,16h10.9c13.8,0,25-11.2,25-25v-67.8
	C230.2,99.9,219,88.8,205.3,88.8z"/>
<path style="stroke:#000000;" d="M193.3,192v-87.2c0-9.1,6.7-16,15-16h12.9c8.3,0,16.2,6.9,17.8,16l14.9,87.2
	c3,17.3-4.8,32.6-17.6,32.6h-19.8C203.7,224.6,193.3,209.3,193.3,192z"/>
<path id="nose" style="stroke:#000000;" d="M80,158.3v7.6c9.3,13.6,27.8,17.1,41.4,7.8c8.1-5.6,13-14.8,13-24.6
	c0-3.9-0.8-7.8-2.3-11.4h-31.4c-11.3-0.1-20.6,9-20.7,20.4C80,158.1,80,158.2,80,158.3z"/>
<path id="Nose-2" style="stroke:#000000;" d="M142.8,137.7h-31.3"/>
<path id="Nose-3" style="fill:none;stroke:#000000;" d="M132,178.9c0,0-8.7,7.7-27.8,7.7c-7,0-15.2-2.4-19.6-3.8"/>
<circle style="fill:#FFFFFF;" cx="141" cy="117" r="16"/>
<circle style="stroke:#000000;" cx="139.1" cy="117" r="14.1"/>
<circle style="fill:#FFFFFF;" cx="173.8" cy="130" r="16"/>
<circle style="stroke:#000000;" cx="171.9" cy="130" r="14.1"/>
<rect x="6" y="40.6" style="fill:none;stroke:#000000;stroke-miterlimit:10;" width="481.4" height="316.2"/>
<rect x="6" style="fill:#FFFFFF;" width="481.4" height="37.6"/>
<rect x="11" y="7.3" style="fill:none;" width="473.8" height="24.9"/>
<text transform="matrix(1 0 0 1 10.987 28.8917)" style="font-family:'Helvetica-Bold'; font-size:30px;">EXPLORE JACK’S BODY</text>
<path style="fill:#FFEBC3;" d="M390,136.3c-1.2,4.1-3,10-5.1,16.6H395c1.8-7.4,3-13.4,3.5-16.6C401.7,113.6,396.3,114.2,390,136.3z"
	/>
<g>
	<path style="fill:#A6AD00;" d="M395,153h-10.2c-7.1,22-17.5,52.1-17.5,52.1l11.3,7.8C384,196.1,395.4,151.6,395,153z"/>
</g>
</svg>
