<?xml version="1.0" encoding="utf-8"?>
<!-- Generator: Adobe Illustrator 25.2.1, SVG Export Plug-In . SVG Version: 6.00 Build 0)  -->
<svg version="1.1" xmlns="http://www.w3.org/2000/svg" xmlns:xlink="http://www.w3.org/1999/xlink" x="0px" y="0px" width="476.1px"
	 height="397.9px" viewBox="0 0 476.1 397.9" style="enable-background:new 0 0 476.1 397.9;" xml:space="preserve">
<g id="Layer_1">
</g>
<g id="Layer_3">
	<g>
		<defs>
			<rect id="SVGID_1_" x="246.1" y="0" width="230.1" height="194.4"/>
		</defs>
		<clipPath id="SVGID_2_">
			<use xlink:href="#SVGID_1_"  style="overflow:visible;"/>
		</clipPath>
		<rect x="246.1" y="0" style="clip-path:url(#SVGID_2_);fill:#EABEB5;" width="230.1" height="194.4"/>
		<path style="clip-path:url(#SVGID_2_);fill:none;stroke:#8BB9FF;stroke-width:4;stroke-miterlimit:10;" d="M315.2,54.8
			c0,0,32.3,4.7,54.2,60.5c21.9,55.9,36.2,35.6,49.2,48.9"/>
		<path style="clip-path:url(#SVGID_2_);fill:none;stroke:#8BB9FF;stroke-width:4;stroke-miterlimit:10;" d="M429.6,127.3
			c0,0-23.6-8-37.6-16.3s-24.4,0-24.4,0"/>
		<path style="clip-path:url(#SVGID_2_);fill:none;stroke:#8BB9FF;stroke-width:4;stroke-miterlimit:10;" d="M246.1,143.9
			c9.8,3.6,20.9,9.3,33.3,18.2c48.9,34.8,49.8,10,67.9,14.1"/>
		<path style="clip-path:url(#SVGID_2_);fill:none;stroke:#8BB9FF;stroke-width:4;stroke-miterlimit:10;" d="M296,146.1
			c-16.2,0.7-20.4,13.3-20.4,13.3"/>
		<path style="clip-path:url(#SVGID_2_);fill:none;stroke:#8BB9FF;stroke-width:4;stroke-miterlimit:10;" d="M363.7,2.7
			c0,0-24.4,21.7-81.2,2.4s-50.6,4.8-69.1,6.1"/>
		<path style="clip-path:url(#SVGID_2_);fill:none;stroke:#8BB9FF;stroke-width:4;stroke-miterlimit:10;" d="M234.6,43.4
			c0,0,21.3-12.9,36.7-18.2S287,6.5,287,6.5"/>
		<path style="clip-path:url(#SVGID_2_);fill:none;stroke:#8BB9FF;stroke-width:4;stroke-miterlimit:10;" d="M568.9,40.7
			c0,0-24.4,21.7-81.2,2.4s-50.6,4.8-69.1,6.1"/>
	</g>
	<g>
		<defs>
			<rect id="SVGID_3_" width="230.1" height="194.4"/>
		</defs>
		<clipPath id="SVGID_4_">
			<use xlink:href="#SVGID_3_"  style="overflow:visible;"/>
		</clipPath>
		<path style="clip-path:url(#SVGID_4_);fill:#A6AD00;" d="M104.6,95.7c3.4-2,7.9-0.7,9.7,2.7c0.4,0.5,0.5,1.1,0.7,1.6l0.5,2.2
			c2.7,9.3,9.7,16.7,18.9,19.6l8.8,2.9c4.1,1.4-6.1,30.9-6.6,31.4l-6.8,6.8c-2.9,2.9-2.7,7.4,0,10.2c1.3,1.3,2.9,2,4.7,2h0.2
			l20.8,0.5c4.9,0,8.6-3.8,8.6-8.6l11.9-54.1c0.2-1.3-0.5-11.1-8.8-14.7c-7.2-3.1-5.2-20.5-3.2-37.9"/>
		<path style="clip-path:url(#SVGID_4_);fill:#FFEBC3;" d="M-90.7,79.8h48.9c3.2,0,6.1,2.2,7,5.2l23.2,77.3c0.7,2.3,0.2,4.9-1.4,6.6
			l-20.7,24.8c-2.5,3.1-2.2,7.5,0.7,10.1c0.4,0.4,0.7,0.5,1.3,0.9c1.3,0.5,2.5,0.9,3.8,0.9H9.2c4.1,0,15.8-30.4,18.7-38.1
			c0.4-1.1,0.5-2.3,0.4-3.6l-8.4-57c-0.7-4,2-7.5,5.9-8.3c1.4-0.2,2.9,0,4.1,0.5c19.4,8.6,44.6,13.7,72.1,13.7
			c31.3,0,59.5-6.6,79.4-17.3c3.4-2,7.9-0.7,9.7,2.7c0.4,0.5,0.5,1.1,0.7,1.6l0.5,2.2c2.7,9.3,9.7,16.7,18.9,19.6l8.8,2.9
			c4.1,1.4-6.1,30.9-6.6,31.4l-6.8,6.8c-2.9,2.9-2.7,7.4,0,10.2c1.3,1.3,2.9,2,4.7,2h0.2l20.8,0.5c4.9,0,8.6-3.8,8.6-8.6l11.9-54.1
			c0.2-1.3-0.5-11.1-8.8-14.7c-7.2-3.1-5.2-20.5-3.2-37.9c5.4-49.1-4.1-115.7-81.4-115.7"/>
		<path style="clip-path:url(#SVGID_4_);fill:#A6AD00;" d="M0,0l0,52.4C5.3,52.8,10.7,53,16.2,53c37.4,0,71.5-9.2,97.9-24.3
			C142,51,183.7,65.2,230,65.2l0-65.2H0z"/>
		<path id="tummy-on_2_" style="clip-path:url(#SVGID_4_);fill:#EABEB5;" d="M30.2,98.3c0,0,24.4,13.3,70.3,13.7
			c50.1,0.5,78.5-16.2,78.5-16.2c-7.5-4.9-15.5-9.3-23.5-13.1C115.6,63.2,68.1,68.4,33.3,95.7L30.2,98.3z"/>
	</g>
	<rect x="0" style="fill:none;stroke:#000000;stroke-miterlimit:10;" width="230.1" height="194.4"/>
	<rect x="246.1" style="fill:none;stroke:#000000;stroke-miterlimit:10;" width="230.1" height="194.4"/>
	<rect x="0" y="203.5" style="fill:none;stroke:#000000;stroke-miterlimit:10;" width="230.1" height="194.4"/>
	<rect x="246.1" y="203.5" style="fill:none;stroke:#000000;stroke-miterlimit:10;" width="230.1" height="194.4"/>
	<path style="fill:none;stroke:#C06AEA;stroke-miterlimit:10;" d="M86.1,83.8c0,0,10-7.6,8.3,10.4c-1.5,15.6,8.1,12.4,12.8,13.6"/>
	<path style="fill:none;stroke:#C06AEA;stroke-miterlimit:10;" d="M115.6,102.2c0,0-13-2.9-15.4-6.5S94.4,93,94.4,93"/>
	<path style="fill:none;stroke:#C06AEA;stroke-miterlimit:10;" d="M62.1,87c1.9,2,3.9,4.6,5.8,8.1c7.6,13.7,10.6,8,14.4,11"/>
	<path style="fill:none;stroke:#C06AEA;stroke-miterlimit:10;" d="M73.6,93.2c-3.9-1.7-6.3,0.8-6.3,0.8"/>
	<path style="fill:none;stroke:#C06AEA;stroke-miterlimit:10;" d="M149.8,99.1c0,0-7.5,2.7-15.4-1.7s-10-0.6-13.6-0.9"/>
	<path style="fill:none;stroke:#C06AEA;stroke-miterlimit:10;" d="M134.3,87c0,0-4.7-4.5-7-8.1"/>
	<path style="fill:none;stroke:#C06AEA;stroke-miterlimit:10;" d="M58,93.7c0,0-4.5,4.7-8.1,7"/>
	<path style="fill:none;stroke:#C06AEA;stroke-miterlimit:10;" d="M149.8,87c0,0-4.5,4.7-8.1,7"/>
	<rect x="246.1" style="fill:none;" width="230.1" height="194.4"/>
	<rect x="11.7" y="7.7" style="fill:none;" width="209.7" height="46.1"/>
	<text transform="matrix(1 0 0 1 11.7032 17.7465)"><tspan x="0" y="0" style="font-family:'Helvetica-Bold'; font-size:14px;">Up close, Jack’s tummy looks </tspan><tspan x="0" y="16.8" style="font-family:'Helvetica-Bold'; font-size:14px;">gross.</tspan></text>
	<rect x="331.4" y="22.5" style="fill:none;" width="59.4" height="46.1"/>
	<text transform="matrix(1 0 0 1 331.4005 32.603)" style="font-family:'Helvetica-Bold'; font-size:14px;">It’s bald.</text>
	<rect x="11.7" y="219.5" style="fill:none;" width="209.7" height="46.1"/>
	<text transform="matrix(1 0 0 1 11.7032 229.5185)"><tspan x="0" y="0" style="font-family:'Helvetica-Bold'; font-size:14px;">But he doesn’t care as long as </tspan><tspan x="0" y="16.8" style="font-family:'Helvetica-Bold'; font-size:14px;">he can put food in it. </tspan></text>
	<rect x="281.8" y="215.9" style="fill:none;" width="209.7" height="46.1"/>
	<text transform="matrix(1 0 0 1 281.8376 225.927)" style="font-family:'Helvetica-Bold'; font-size:14px;">And some times socks.</text>
	<path id="sock" style="fill:#90D000;" d="M388.2,241l48.3,12.9l-43.5,101.9c0,0-4.9,16-31.9,15.1c-27-0.9-33.7-10.6-55.4-16
		c-21.7-5.3-24.8-8-27.9-24.8c-3.1-16.8,14.6-27.2,25.3-20.3c10.6,7,35,21.6,45.2,19.4c10.2-2.2,16.8-19.7,13.7-12.4"/>
	<g>
		<defs>
			<rect id="SVGID_5_" x="0" y="203.5" width="230.1" height="194.4"/>
		</defs>
		<clipPath id="SVGID_6_">
			<use xlink:href="#SVGID_5_"  style="overflow:visible;"/>
		</clipPath>
		<path style="clip-path:url(#SVGID_6_);fill:#FFEBC3;" d="M219.9,400.1c-17.8-7.9-49.9-11.4-66.7-18.7
			c-16.8-7.4-39.9-32.6-39.9-32.6c-19.9-8.7-12-19.6-20.8,0.3l0,0c-12,27.3-22.4,49.2,4.9,61.2"/>
		<path style="clip-path:url(#SVGID_6_);fill:#A6AD00;" d="M80,386.6c8.6-0.9,16.4-3.4,22.6-7.5c6.2,15.4,21.3,30.2,41.7,39.2
			l75.5-18.2c-17.7-7.8-49.9-11.3-66.7-18.7s-39.9-32.6-39.9-32.6c-19.9-8.7-12-19.6-20.8,0.3C86.2,363.2,80.4,375.9,80,386.6"/>
		<path style="clip-path:url(#SVGID_6_);stroke:#000000;" d="M96.5,347.8l7.6-67.4c0.8-7-3.8-12.9-10.2-13.7l-10-1.1
			c-6.4-0.7-13.1,3.9-15.1,10.8l-19.1,66.1c-3.8,13.1,0.9,25.6,10.8,26.7l15.3,1.7C85.7,372.1,95,361.2,96.5,347.8z"/>
		<path style="clip-path:url(#SVGID_6_);fill:#A6AD00;" d="M138.5,271.8l-38.8-4.3c-15.5-1.7-29.5,9.4-31.3,25l0,0l-0.5,4.4
			c-0.2,1.8-0.3,3.5-0.3,5.2l-14.1-1.6c-8.8-1-16.8,5.3-17.8,14.2l0,0l-1,8.9c-1,8.8,5.4,16.8,14.2,17.8l36.3,4.1
			c9.4,9.2,21.6,14.9,34.6,16.4l8.4,0.9c10.7,1.2,20.3-6.5,21.5-17.2l5.9-52.4C156.8,282.5,149.1,273,138.5,271.8z"/>
		<path style="clip-path:url(#SVGID_6_);stroke:#000000;" d="M120.3,350.5l7.6-67.4c0.8-7,6.6-11.8,13-11.1l10,1.1
			c6.4,0.7,11.9,6.7,12.4,13.9l4,68.7c0.8,13.6-6.5,24.8-16.4,23.7l-15.3-1.7C125.5,376.6,118.8,363.8,120.3,350.5z"/>
		<path style="clip-path:url(#SVGID_6_);fill:none;stroke:#000000;" d="M47.1,335c2.9,1.3,8.1,3.5,13,4.4c0.6,0.1,1.2,0.2,1.8,0.3
			c10.8,1.2,17.6-1.2,20.5-2.6c1.1-0.5,1.6-0.9,1.6-0.9"/>
		
			<ellipse transform="matrix(0.5253 -0.8509 0.8509 0.5253 -204.0403 210.2401)" style="clip-path:url(#SVGID_6_);fill:#FFFFFF;" cx="86.4" cy="288" rx="12.4" ry="12.4"/>
		
			<ellipse transform="matrix(0.5253 -0.8509 0.8509 0.5253 -203.5083 236.9632)" style="clip-path:url(#SVGID_6_);fill:#FFFFFF;" cx="110.6" cy="300.9" rx="12.4" ry="12.4"/>
		<path id="Nose-2_4_" style="clip-path:url(#SVGID_6_);stroke:#000000;" d="M85.7,303.7L61.5,301"/>
		<path id="nose_3_" style="clip-path:url(#SVGID_6_);stroke:#000000;" d="M35.7,314.6l-0.7,5.9c6,11.3,20,15.6,31.3,9.6
			c6.7-3.6,11.3-10.3,12.2-17.9c0.3-3,0.1-6.1-0.8-9l-24.3-2.7c-8.7-1.1-16.7,5.2-17.8,14C35.7,314.5,35.7,314.5,35.7,314.6z"/>
		<path style="clip-path:url(#SVGID_6_);fill:none;stroke:#000000;" d="M73.6,288c0,0,10.4-8,25.2,1.4"/>
		<path style="clip-path:url(#SVGID_6_);fill:none;stroke:#000000;" d="M98,301.3c0,0,10.4-8,25.2,1.4"/>
		<path style="clip-path:url(#SVGID_6_);fill:#FF848F;" d="M82.8,340v13c0,6.2-5.1,11.3-11.3,11.3c-6.2,0-11.3-5.1-11.3-11.3v-13.2
			c0.6,0.1,1.2,0.2,1.8,0.3c10.8,1.2,17.6-1.2,20.5-2.6C82.7,338.3,82.8,339.1,82.8,340z"/>
	</g>
	<text transform="matrix(1 0 0 1 319.7895 172.6514)" style="font-family:'Helvetica-Bold'; font-size:14px;"> And veiny.</text>
</g>
<g id="Layer_2">
</g>
</svg>
