<?xml version="1.0" encoding="utf-8"?>
<!-- Generator: Adobe Illustrator 25.2.1, SVG Export Plug-In . SVG Version: 6.00 Build 0)  -->
<svg version="1.1" id="dog" xmlns="http://www.w3.org/2000/svg" xmlns:xlink="http://www.w3.org/1999/xlink" x="0px" y="0px"
	 width="432px" height="288px" viewBox="0 0 432 288" style="enable-background:new 0 0 432 288;" xml:space="preserve">
<style type="text/css">
	.st0{stroke:#FFFFFF;stroke-miterlimit:10;}
	.st1{fill:#FFF0EE;}
	.st2{fill:#EABEB5;}
	.st3{stroke:#000000;}
	.st4{fill:none;stroke:#000000;}
	.st5{fill:#FFFFFF;}
</style>
<path class="st0" d="M299.1,212.9c1.8,2,4.1,3.4,6.8,4.3l4.9,1.6c2.3,0.8,3.5,3.4,2.4,5.6l-5.3,10.8c-0.2,0.4-0.5,0.8-0.8,1.1
	l-3.8,3.8c-2.5,2.4-0.9,6.8,2.6,6.8h0.1l11.6,0.3c2.6,0,4.8-2.1,4.8-4.8l6.6-30.1c0.2-1.1,0-2.2-0.6-3.1l-0.7-1"/>
<path d="M188.7,194.6l3.4,49.2c0.1,1.2-0.1,2.4-0.6,3.5c-2.2,4.6-8.4,17.3-12.1,17.3h-13.5c-0.2,0-0.5,0-0.7,0
	c-5.8-0.5-8.4-7.5-4.7-11.9l8-9.6c1.5-1.8,2-4.1,1.5-6.3l-12.3-54c-0.2-0.8-0.3-1.7-0.1-2.5c0,0,3.7,7.2,10.3,10.1
	C175.8,193.9,188.7,194.6,188.7,194.6z"/>
<path class="st1" d="M238.7,131.7c-23.6,0-64-17.8-64-17.8c-27.9,0-24.3-16.9-24.3,11.1l0,0c0,38.4-1,69.6,37.4,69.6H215
	c1.8,0,3.4,1.2,3.9,2.9l12.9,43c0.4,1.3,0.1,2.7-0.8,3.7L219.5,258c-1.6,1.9-1.1,5,1.1,6.1c0.6,0.3,1.4,0.5,2.1,0.5h20.7
	c2.3,0,8.8-16.9,10.4-21.2c0.2-0.6,0.3-1.3,0.2-2l-4.7-31.7c-0.5-3.1,2.7-5.6,5.6-4.3c10.8,4.8,24.8,7.6,40.1,7.6
	c17.4,0,33.1-3.7,44.2-9.6c2.3-1.2,5.1-0.1,5.8,2.4l0.3,1.2c1.5,5.2,5.4,9.3,10.5,10.9l4.9,1.6c2.3,0.8-3.4,17.2-3.7,17.5l-3.8,3.8
	c-2.5,2.4-0.9,6.8,2.6,6.8h0.1l11.6,0.3c2.6,0,4.8-2.1,4.8-4.8l6.6-30.1c0.1-0.7-0.3-6.2-4.9-8.2c-4-1.7-2.8-11.4-1.8-21.1
	c3-27.3-2.3-64.4-45.3-64.4C302,119.2,262.3,131.7,238.7,131.7z"/>
<path class="st2" d="M326.9,119.3c-24.9-0.1-64.6,12.4-88.2,12.4c-23.6,0-64-17.8-64-17.8c-27.9,0-24.3-16.9-24.3,11.1
	c0,19.9-0.3,37.9,4.8,50.6c9.7-5.5,17.5-12.5,22.7-20.5c15.3,14.8,40.7,24.6,69.3,24.6c20.8,0,39.7-5.1,54.5-13.5
	c15.5,12.4,38.7,20.3,64.5,20.3c1.8,0,5.5-0.1,5.5-0.1C376.2,158.2,369.9,119.3,326.9,119.3z"/>
<g id="head">
	<g>
		<path class="st3" d="M143.9,121.6V34.4c0-9.1-6.7-16-15-16H116c-8.3,0-16.2,6.9-17.8,16l-14.9,87.2c-3,17.3,4.8,32.6,17.6,32.6
			h19.8C133.5,154.2,143.9,138.9,143.9,121.6z"/>
		<path class="st2" d="M186.7,18.4h-50.2c-20.1,0-36.4,16.3-36.4,36.4v5.7c0,2.3,0.1,4.5,0.3,6.7H82.1c-11.5,0-20.7,9.3-20.7,20.7
			v11.5c0,11.4,9.3,20.7,20.7,20.7h47.1c12.8,10,29,16,46.6,16h10.9c13.8,0,25-11.2,25-25V43.3C211.6,29.5,200.5,18.4,186.7,18.4z"
			/>
		<path class="st3" d="M174.8,121.6V34.4c0-9.1,6.7-16,15-16h12.9c8.3,0,16.2,6.9,17.8,16l14.9,87.2c3,17.3-4.8,32.6-17.6,32.6H198
			C185.2,154.2,174.8,138.9,174.8,121.6z"/>
		<path id="Nose" class="st3" d="M61.4,87.9v7.6c5.4,7.8,14.4,13,24.6,13c16.5,0,29.8-13.4,29.8-29.8c0-4-0.8-7.9-2.3-11.4H82.1
			C70.6,67.2,61.4,76.5,61.4,87.9z"/>
	</g>
</g>
<path id="tummy" class="st2" d="M255.2,204.9c0,0,13.6,7.3,39.1,7.6c27.9,0.3,43.7-9,43.7-9s-5-3.4-13.1-7.3
	c-22.2-10.8-48.6-7.9-68,7.3L255.2,204.9z"/>
<path id="Nose_1_" class="st3" d="M124.3,67.3H92.9"/>
<path id="Nose_2_" class="st4" d="M113.4,108.5c0,0-8.7,7.7-27.7,7.7c-7.1,0-15.2-2.4-19.6-3.8"/>
<circle class="st5" cx="122.4" cy="46.6" r="16"/>
<circle class="st3" cx="120.5" cy="46.6" r="14.1"/>
<circle class="st5" cx="155.3" cy="59.6" r="16"/>
<circle class="st3" cx="153.4" cy="59.6" r="14.1"/>
</svg>
