<?xml version="1.0" encoding="utf-8"?>
<!-- Generator: Adobe Illustrator 25.2.1, SVG Export Plug-In . SVG Version: 6.00 Build 0)  -->
<svg version="1.1" xmlns="http://www.w3.org/2000/svg" xmlns:xlink="http://www.w3.org/1999/xlink" x="0px" y="0px" width="432px"
	 height="288px" viewBox="0 0 432 288" style="enable-background:new 0 0 432 288;" xml:space="preserve">
<style type="text/css">
	.st0{stroke:#FFFFFF;stroke-miterlimit:10;}
	.st1{fill:#FFFFFF;stroke:#000000;stroke-miterlimit:10;}
</style>
<g id="body">
	<path class="st0" d="M289.3,202.7c2.3-1.2,5.1-0.1,5.8,2.4l0.3,1.2c1.5,5.2,5.4,9.3,10.5,10.9l4.9,1.6c2.3,0.8,3.5,3.4,2.4,5.6
		l-5.3,10.8c-0.2,0.4-0.5,0.8-0.8,1.1l-3.8,3.8c-2.5,2.4-0.9,6.8,2.6,6.8c0,0,0.1,0,0.1,0l11.6,0.3c2.6,0,4.8-2.1,4.8-4.8l6.6-30.1
		c0.2-1.1,0-2.2-0.6-3.1l-7.2-11c-0.5-0.8-0.8-1.8-0.6-2.7l1.7-12.5"/>
	<path d="M179.3,260.9h13.5c0.2,0,0.5,0,0.7,0c5.8-0.5,8.4-7.5,4.7-11.9l-8-9.6c-1.5-1.8-2-4.1-1.5-6.3l12.3-54c0.2-1,0.3-2.1,0-3.1
		c-0.9-3.7-4.2-6.4-8.2-6.4h-13.5c-4.6,0-8.4,3.8-8.4,8.4l-4.3,62.1c-0.1,1.2,0.1,2.4,0.6,3.5C169.4,248.2,175.6,260.9,179.3,260.9z
		"/>
	<path class="st1" d="M254.5,113.9c-23.6,0-79.8,0-79.8,0c-27.9,0-24.3-16.9-24.3,11.1v0c0,38.4-1,69.6,37.4,69.6H215
		c1.8,0,3.4,1.2,3.9,2.9l12.9,43c0.4,1.3,0.1,2.7-0.8,3.7l-11.5,13.8c-1.6,1.9-1.1,5,1.1,6.1c0.6,0.3,1.4,0.5,2.1,0.5h20.7
		c2.3,0,8.8-16.9,10.4-21.2c0.2-0.6,0.3-1.3,0.2-2l-4.7-31.7c-0.5-3.1,2.7-5.6,5.6-4.3c10.8,4.8,24.8,7.6,40.1,7.6
		c17.4,0,33.1-3.7,44.2-9.6c2.3-1.2,5.1-0.1,5.8,2.4l0.3,1.2c1.5,5.2,5.4,9.3,10.5,10.9l4.9,1.6c2.3,0.8,3.5,3.4,2.4,5.6l-5.3,10.8
		c-0.2,0.4-0.5,0.8-0.8,1.1l-3.8,3.8c-2.5,2.4-0.9,6.8,2.6,6.8c0,0,0.1,0,0.1,0l11.6,0.3c2.6,0,4.8-2.1,4.8-4.8l6.6-30.1
		c0.2-1.1,0-2.2-0.6-3.1l-7.2-11c-0.5-0.8-0.8-1.8-0.6-2.7l1.7-12.5c0.1-0.7,0.4-1.4,0.8-1.9c4-5.3,6.3-19.3,6.3-19.3
		c0-45.1-21.7-59.9-64.7-59.9C289.7,102.5,278.1,113.9,254.5,113.9z"/>
</g>
<g id="head">
	<g>
		<path d="M143.9,121.6l0-87.2c0-9.1-6.7-16-15-16l-12.9,0c-8.3,0-16.2,6.9-17.8,16l-14.9,87.2c-3,17.3,4.8,32.6,17.6,32.6h19.8
			C133.5,154.2,143.9,138.9,143.9,121.6z"/>
		<path class="st1" d="M186.7,18.4h-50.2c-20.1,0-36.4,16.3-36.4,36.4v5.7c0,2.3,0.1,4.5,0.3,6.7H40.7C29.2,67.2,20,76.5,20,87.9
			v11.5c0,11.4,9.3,20.7,20.7,20.7h88.5c12.8,10,29,16,46.6,16h10.9c13.8,0,25-11.2,25-25V43.3C211.6,29.5,200.5,18.4,186.7,18.4z"
			/>
		<path d="M174.8,121.6l0-87.2c0-9.1,6.7-16,15-16l12.9,0c8.3,0,16.2,6.9,17.8,16l14.9,87.2c3,17.3-4.8,32.6-17.6,32.6H198
			C185.2,154.2,174.8,138.9,174.8,121.6z"/>
		<circle cx="113.4" cy="48.8" r="4.8"/>
		<circle cx="153.5" cy="47" r="6.2"/>
		<path d="M20,87.9v7.6c5.4,7.8,14.4,13,24.6,13c16.5,0,29.8-13.4,29.8-29.8c0-4-0.8-7.9-2.3-11.4H40.7C29.2,67.2,20,76.5,20,87.9z"
			/>
	</g>
</g>
</svg>
